<?xml version="1.0" encoding="utf-8"?>
<svg version="1.1" xmlns="http://www.w3.org/2000/svg" xmlns:xlink="http://www.w3.org/1999/xlink" x="0px" y="0px"
	 viewBox="0 0 1530 470" style="enable-background:new 0 0 1530 470;" xml:space="preserve">
		    <defs>
        <linearGradient id="logo-gradient" x1="50%" y1="0%" x2="50%" y2="100%" >

            <stop offset="0%" stop-color="#7A5FFF">
                <animate attributeName="stop-color" values="#7A5FFF; #01FF89; #7A5FFF" dur="4s" repeatCount="indefinite"></animate>
            </stop>

			<stop offset="100%" stop-color="#01FF89">
                <animate attributeName="stop-color" values="#01FF89; #7A5FFF; #01FF89" dur="4s" repeatCount="indefinite"></animate>
            </stop>

        </linearGradient>

    </defs>
<style type="text/css">
	.st0{fill:#5712A6;}
	.st1{fill:#FFFFFF;}
	.st2{fill:#666666;}
</style>
<g>
	<path fill="url('#logo-gradient')" class="st0" d="M122.6,464.6h266.7c64.5,0,116.8-52.3,116.8-116.8V5.1H122.6C58.1,5.1,5.8,57.4,5.8,121.9v225.9
		C5.8,412.3,58.1,464.6,122.6,464.6z"/>
	<path class="st1" d="M189.8,347l-1.6-31.7c-17.6,24-41.3,34.5-68.9,34.9c-50.5,0-86.2-34.1-86.2-91.8V149H66v109
		c0,38.1,22.4,61.7,60.1,61.7c36.1-0.4,60.9-28.8,60.9-64.5V149h32.9v197.9h-30.5h0.4V347z"/>
	<path class="st1" d="M279.8,149.8H311l1.6,38.1c15.6-26.4,44.9-41.7,76.1-41.7c56.9,1.2,98.6,41.3,98.6,102.2
		c0,62.5-41.3,103-100.6,103c-28,0-59.3-12-74.9-40.1v129h-32.1V149.8H279.8z M454.5,249.3c0-44.5-29.2-70.9-69.7-70.9
		c-41.3,0-69.3,30.5-69.3,70.9c0,40.5,29.2,70.9,69.3,71.3C424.5,320.5,454.5,293.8,454.5,249.3z"/>
	<path class="st2" d="M683.8,235.3c0,7-10.3,9.3-23.1,9.3s-23.1-2.3-23.1-9.3s10.3-16,23.1-16C673.5,219.4,683.8,228.3,683.8,235.3z
		"/>
	<path class="st2" d="M627.3,434.8c34.1,0,69.7-12.4,69.7-46.9c0-32.1-32.5-47.7-69.3-47.7c-62.1,0-104.6-36.1-104.6-97.8
		c0-65.3,53.7-98.2,104.6-98.2c18,0,41.7,4.8,56.1,14.8l31.7-17.4l2.6,2.1l-12.2,34.5c15.6,17.6,25.6,35.3,25.6,64.1
		c0,33.7-17.2,68.1-55.7,80.5c38.5,11.2,54.5,36.1,54.5,64.5c0,51.3-50.9,77.3-103.4,77.3s-92-24.2-99.9-66.2
		c-1.8-9.6,6.2-18.3,16-18.3l0,0c7.6,0,13.9,5.5,15.7,12.9C565.3,422.4,595.5,434.4,627.3,434.8z M628,311.4
		c42.1,0,71.3-30.5,71.3-68.5c0-45.3-34.5-68.5-71.7-68.5c-35.3,0-72.1,22-72.1,68.1C556.3,287.8,588.3,311.4,628,311.4z"/>
	<path class="st2" d="M810.6,148.6l2.4,29.7c13.6-25.6,38.1-32.9,60.9-32.9c17.2-0.4,34,5.6,46.1,14.8l-14.8,28
		c-10.4-7.2-20.8-10.8-34.5-10.8c-31.7,0.4-58.1,22.8-58.1,59.3v110.2h-32.9V149h30.5L810.6,148.6z"/>
	<path class="st2" d="M1140.4,66.1v280.5h-30.9l-1.6-36.1c-16,27.2-44.9,40.1-74.1,40.1c-56.5,0-100.2-37.3-100.2-102.6
		c0-66.5,43.7-102.6,99.8-102.6c28,0,60.1,12.8,74.1,39.7V66.5h32.5L1140.4,66.1z M1036.3,175.9c-38.5,0-69.7,25.3-69.7,71.7
		c0,45.7,31.3,71.7,69.7,71.7c39.3,0,70.1-28.9,70.1-72.1c0-42.5-31.3-71.3-70.5-71.3H1036.3z"/>
	<path class="st2" d="M1231.3,335c0,20.8-31.6,20.8-31.6,0C1199.7,314.1,1231.3,314.1,1231.3,335z"/>
	<path class="st2" d="M1453.7,320.5c-20,20-46.1,29.6-72.1,29.6c-55.7,0-101.8-39.7-101.8-102.2s44.5-102.2,101.8-102.2
		c26,0,52.1,10,72.1,29.7l-12.4,12.4c-16-16-38.5-23.6-59.7-23.6c-44.9,0-82.5,30.5-82.5,83.7c0,53.3,37.7,83.7,82.5,83.7
		c21.2,0,42.9-8.4,58.9-24.4L1453.7,320.5z"/>
	<path class="st2" d="M1524.2,66.5V347h-19.6V66.5H1524.2z"/>
</g>
</svg>