<svg enable-background="new 0 0 200 200" viewBox="0 0 200 200" xmlns="http://www.w3.org/2000/svg"><path d="m3.3 119.7h1.4l-.3-1.7z" fill="none"/><path d="m96.4 120.4.6-2.3c0-.3-.1-.3-.5-.3h-1c-.4 0-.6.1-.6.3l-.6 2.2c0 .3.1.3.5.3h1c.3.1.6 0 .6-.2z" fill="none"/><path d="m50.9 117.8h-1.7l-.8 2.9h1.7.4c.1 0 .2-.2.3-.3 0 0 0 0 0-.1l.6-2.2c0-.2-.2-.3-.5-.3z" fill="none"/><path d="m23.6 119.7h1.4l-.3-1.7z" fill="none"/><path d="m34.8 94.6-4.9 6.2h4.9 5l-2.7-9.1z" fill="none"/><path d="m186.9 71.2-35.9 16.9-2.3-2.6-9.7-10.4-.3-.3-.3-.1-15.8-3.3-3.6-.8 2.4 2.7 20.3 22.2-19.1 17.2-14.4 12.9-6.4 5.7 7.7-3.8 39.1-19.4 3.1-1.6 13.4 15.5.3.3.4.1 15.8 3.3 3.6.8-2.4-2.7-22.3-24.2 15.5-15.2 12.2-11.3 5.5-5.1zm-29.4 28.3 21.9 23.9-12.3-2.7-.4-.5h-.1l-1.8-2-12.8-14.2-39.4 20.2 32.5-28.5-.8-.8-2.7-2.9-17.6-18.2 14 3.3 12.5 13.7 34.5-16.7z" fill="none"/><path d="m11.9 117.8h-1.7l-.8 2.9h1.7.4c.1 0 .2-.2.3-.3 0 0 0 0 0-.1l.6-2.2c0-.2-.2-.3-.5-.3z" fill="none"/><path d="m69 92.5 3 16.9c.4 2.5 2.7 3.8 6.6 3.8 3.2 0 5.7-.7 7.5-2.1.7-.5 1.3-1 1.8-1.7l14.3-16.9-6.6 20h11.4l7.7-23.1c.6-1.6 0-2.8-1.6-3.8-1.5-1-3.9-1.5-7-1.5-1.1 0-2.2 0-3.3.1-3.9.4-6.6 1.6-8.2 3.5l-13.2 16.3-1.6-16.2c-.2-1.9-2.1-3.1-5.9-3.5-1.1-.1-2.1-.1-3.1-.1-3.2 0-5.9.5-8.1 1.5s-3.6 2.2-4.2 3.8l-5 15-5-16.5c-.7-2.5-3.4-3.7-8.2-3.7-2.1 0-3.9.2-5.5.7-2.1.6-3.9 1.7-5.2 3l-23.7 24.6h12.6l5.8-6h10.4 6.6l1.9 6h7.5 5.1 6.4zm-34.2 8.3h-5l5-6.2 2.3-2.9 2.7 9.1z" fill="#d1050c"/><path d="m141.6 91.9 2.7 2.9.8.9v-.1z" fill="#000f1a"/><path d="m138.1 77-14.1-3.3 17.6 18.2 3.5 3.7v.1l-32.6 28.5 39.5-20.2 15.1 16.7 12.3 2.7-21.9-23.9 27.5-25.4-34.4 16.6z" fill="#040000"/><g fill="#1a1a18"><path d="m4.8 116.6c-.6 0-1.2.2-1.5.7l-3.3 4.5h1.8l.8-1.1h2.4l.3 1.1h1.8l-1.1-4.5c-.1-.4-.5-.7-1.2-.7zm-1.5 3.1 1-1.7.3 1.7z"/><path d="m12.8 116.7h-4l-1.4 5.1h4c.9 0 1.5-.3 1.8-.9 0-.1 0-.1.1-.2l.8-2.9c.2-.7-.2-1.1-1.3-1.1zm-1 3.6c-.1.3-.2.4-.3.4 0 0-.2 0-.4 0h-1.7l.8-2.9h1.7c.3 0 .5.1.5.3z"/><path d="m20 116.7-2.7 3.6-.7-3.6h-1.8l1.1 4.5c.1.4.4.6 1 .6s1-.2 1.3-.6l3.5-4.5z"/><path d="m25.1 116.6c-.6 0-1.2.2-1.5.7l-3.3 4.5h1.8l.8-1.1h2.4l.3 1.1h1.8l-.9-4.5c-.3-.4-.7-.7-1.4-.7zm-1.5 3.1 1-1.7.3 1.7z"/><path d="m33.1 116.7-1 3.8-.4-3c0-.4-.3-.7-.7-.8-.2 0-.3 0-.6 0-.4 0-.8.1-1.1.3s-.5.5-.6.8l-1.1 4.1h1.6l1-3.8.4 3c.1.6.5.9 1.2.9.4 0 .7-.1 1-.3s.5-.4.6-.7l1.1-4.2z"/><path d="m37.1 118c.1-.1.2-.2.4-.2h3l.3-1.1h-3.3c-.7 0-1.2.1-1.5.3s-.5.5-.6.9l-.7 2.8c-.1.5.1.9.7 1.1.2 0 .4.1.6.1h3.5l.3-1.1h-2.8-.1c-.2 0-.3 0-.3 0-.1-.1-.1-.2 0-.4z"/><path d="m43 118.1c0-.2.2-.3.3-.3h.1 3l.3-1.1h-3.5c-.9 0-1.5.3-1.8.9 0 .1-.1.2-.1.2l-.8 3c-.2.7.3 1.1 1.6 1.1h3.2l.3-1.1h-3c-.3 0-.4-.1-.3-.3l.2-.6h3.5l.3-1.1h-3.3z"/><path d="m51.8 116.7h-4l-1.4 5.1h4c.9 0 1.5-.3 1.8-.9 0-.1 0-.1.1-.2l.8-2.9c.2-.7-.2-1.1-1.3-1.1zm-1 3.6c-.1.3-.2.4-.3.4 0 0-.2 0-.4 0h-1.7l.8-2.9h1.7c.3 0 .5.1.5.3z"/><path d="m61.7 116.7-1 3.8-.4-3c0-.4-.3-.7-.7-.8-.2 0-.3 0-.5 0-.4 0-.8.1-1.1.3s-.5.5-.6.8l-1.1 4.1h1.6l1-3.8.4 3c.1.6.5.9 1.2.9.4 0 .7-.1 1-.3s.5-.4.6-.7l1.1-4.2z"/><path d="m67.3 120.5c-.1.2-.3.2-.6.2h-1.2c-.3 0-.5-.1-.5-.2l1-3.8h-1.7l-1 3.9c-.1.3-.1.6 0 .7.2.4.6.6 1.5.6h2.1c.7 0 1.3-.2 1.7-.6.2-.1.3-.4.3-.7l1-3.9h-1.7z"/><path d="m75.7 116.7h-5l-.3 1.1h1.6l-1 4h1.6l1.1-4h1.7z"/><path d="m80.2 116.7h-3.9l-1.4 5.1h1.7l1.1-4h1.7.1c.3 0 .4.1.3.3l-.1.5c0 .2-.2.3-.5.3h-.7c-.6 0-1 .2-1.2.6v.4l1.2 1.9h2l-1.4-2.1h.3.3c.3 0 .6-.1.9-.3.4-.2.6-.5.7-.8l.3-1c.2-.6-.3-.9-1.4-.9z"/><path d="m81.5 121.8h1.6l1.4-5.1h-1.7z"/><path d="m90.1 116.7h-5l-.2 1.1h1.6l-1 4h1.7l1-4h1.7z"/><path d="m90.8 116.7-1.3 5.1h1.7l1.3-5.1z"/><path d="m98 120.7.8-2.9c.2-.7-.3-1.1-1.5-1.1h-2c-1 0-1.6.3-1.9.8 0 .1-.1.2-.1.3l-.8 3v.3c0 .3.1.5.3.6s.6.2 1.2.2h2c1.1-.1 1.8-.5 2-1.2zm-3.3 0c-.4 0-.5-.1-.5-.3l.6-2.2c0-.3.3-.3.6-.3h1c.4 0 .5.1.5.3l-.6 2.3c0 .2-.3.3-.6.3h-1z"/><path d="m102.7 117.5c0-.4-.3-.7-.7-.8-.2 0-.3 0-.6 0-.4 0-.8.1-1.1.3s-.5.5-.6.8l-1.1 4.1h1.6l1-3.8.4 3c.1.6.5.9 1.2.9.4 0 .7-.1 1-.3s.5-.4.6-.7l1.1-4.2h-1.6l-1 3.8z"/></g><path d="m132.1 85.4-.5-.7h-8.8l-9.8 27.9h9.5z" fill="#d1050c"/><path d="m175.1 100.8v1.2c0 1.5-.8 2.4-2.2 2.4-1.5 0-2.2-.9-2.2-2.4v-4.9c0-1.5.8-2.4 2.2-2.4s2.2.9 2.2 2.4v.9h-1.4v-1c0-.7-.3-.9-.8-.9s-.8.3-.8.9v5.1c0 .7.3.9.8.9s.8-.3.8-.9v-1.3z"/><path d="m176 94.9h1.5v8.1h2.4v1.3h-3.9z"/><path d="m200 63.7-48.8 23-11.9-13-23.7-4.9 24.4 26.7-45.4 40.8 56.7-28.1 13.3 15.3 23.8 5-26.5-28.7zm-39.7 35.9 24.8 26.9-19.4-4-.4-.1-.3-.3-13.4-15.5-49.9 24.8 40-35.8-22.7-25 19.7 4.1 12.2 13.4 42.8-20.1-17.7 16.4z" fill="#1a1a18"/></svg>