<?xml version="1.0" encoding="utf-8"?>
<!-- Generator: Adobe Illustrator 24.1.1, SVG Export Plug-In . SVG Version: 6.00 Build 0)  -->
<svg version="1.1" xmlns="http://www.w3.org/2000/svg" xmlns:xlink="http://www.w3.org/1999/xlink" x="0px" y="0px"
	 viewBox="0 0 500 500" style="enable-background:new 0 0 500 500;" xml:space="preserve">
<style type="text/css">
	.st0{display:none;}
	.st1{display:inline;}
	.st2{fill:#407BFF;}
	.st3{opacity:0.9;fill:#FFFFFF;}
	.st4{opacity:0.2;}
	.st5{opacity:0.7;fill:#FFFFFF;}
	.st6{opacity:0.4;}
	.st7{fill:#FFFFFF;}
	.st8{fill:#7A98C5;}
	.st9{fill:#2F3052;}
	.st10{fill:#ACACAC;}
	.st11{fill:#F3E2D9;}
	.st12{fill:none;stroke:#2F3052;stroke-width:1.0617;stroke-miterlimit:10;}
	.st13{fill:none;stroke:#2F3052;stroke-width:2.1233;stroke-miterlimit:10;}
	.st14{fill:#AEF4FF;}
	.st15{fill:#61ABEB;}
	.st16{fill:#C80788;}
	.st17{fill:#F8F039;}
	.st18{fill:#5F70A1;}
	.st19{fill:#9ABDE7;}
	.st20{fill:#44608D;}
	.st21{fill:#B6D3F1;}
	.st22{fill:#95B9D5;}
	.st23{fill:#304965;}
	.st24{fill:#5C6272;}
	.st25{fill:#97BEED;}
	.st26{fill:#7AC5C7;}
	.st27{fill:#507DE5;}
	.st28{fill:#F2F9FB;}
	.st29{fill:#E2D4B7;}
	.st30{fill:#96C6EC;}
	.st31{fill:#F1F9FF;}
	.st32{fill:#87AFE4;}
	.st33{fill:#D2DCE4;}
	.st34{fill:#C0CEDF;}
</style>
<g id="Background_Complete">
</g>
<g id="Background_Simple" class="st0">
	<g class="st1">
		<path class="st2" d="M261.7,148.6c38.6-23.7,62.8-54.3,113.2-43.2c47.7,10.5,64.6,44.5,62.2,90.5
			c-6.3,120.1-129.6,96.8-212.5,155.3C152.5,402.1,43.1,309,65.6,216.8c7.3-29.7,32.2-75.1,66.4-78.4
			C180,133.7,208.6,181.2,261.7,148.6z"/>
		<path class="st3" d="M261.7,148.6c38.6-23.7,62.8-54.3,113.2-43.2c47.7,10.5,64.6,44.5,62.2,90.5
			c-6.3,120.1-129.6,96.8-212.5,155.3C152.5,402.1,43.1,309,65.6,216.8c7.3-29.7,32.2-75.1,66.4-78.4
			C180,133.7,208.6,181.2,261.7,148.6z"/>
	</g>
</g>
<g id="Shadow_1_">
</g>
<g id="Pen_Tool">
	<g>
		<g>
			<g>
				<path class="st2" d="M296.7,268.8l-28.3,28.3c0,0-17.5-19.6-40.6-17.4c-8.5-18.8-18.3-58.7-21-70.1l38.6,38.6
					c-1.2,2.3-0.9,5.1,1,7.1c2.3,2.3,6.1,2.3,8.4,0c2.3-2.3,2.3-6.1,0-8.4c-1.9-1.9-4.8-2.2-7.1-1l-38.6-38.6
					c11.4,2.7,51.4,12.5,70.1,21C277.1,251.3,296.7,268.8,296.7,268.8z"/>
				<path class="st4" d="M279.3,228.2c-18.8-8.5-58.7-18.3-70.1-21l38.6,38.6c2.3-1.2,5.2-0.9,7.1,1c2.3,2.3,2.3,6.1,0,8.4
					l27.7,27.7l14.2-14.2C296.7,268.8,277.1,251.3,279.3,228.2z"/>
			</g>
			<g>
				<path class="st2" d="M374.8,375.2L374.8,375.2c-5,5-13.1,5-18.1,0l-83-83l18.1-18.1l83,83C379.8,362.1,379.8,370.3,374.8,375.2z
					"/>
				<path class="st5" d="M374.8,375.2L374.8,375.2c-5,5-13.1,5-18.1,0l-83-83l18.1-18.1l83,83C379.8,362.1,379.8,370.3,374.8,375.2z
					"/>
			</g>
			<path class="st2" d="M301.8,282.4L282,302.2c-1.1,1.1-3,1.1-4.1,0l-5-5c-1.1-1.1-1.1-3,0-4.1l19.8-19.8c1.1-1.1,3-1.1,4.1,0l5,5
				C302.9,279.4,302.9,281.3,301.8,282.4z"/>
			<g>
				<g>
					<path class="st2" d="M301.3,273.7l-28,28c-1.4,1.4-3.6,1.4-5,0l-4.6-4.6c-1.4-1.4-1.4-3.6,0-5l28-28c1.4-1.4,3.6-1.4,5,0
						l4.6,4.6C302.7,270.1,302.7,272.3,301.3,273.7z"/>
					<path class="st6" d="M301.3,273.7l-28,28c-1.4,1.4-3.6,1.4-5,0l-4.6-4.6c-1.4-1.4-1.4-3.6,0-5l28-28c1.4-1.4,3.6-1.4,5,0
						l4.6,4.6C302.7,270.1,302.7,272.3,301.3,273.7z"/>
				</g>
				
					<rect x="271.6" y="284.2" transform="matrix(0.7071 -0.7071 0.7071 0.7071 -125.3549 279.3135)" class="st7" width="5.7" height="13.6"/>
				
					<rect x="278.9" y="278.6" transform="matrix(-0.7071 0.7071 -0.7071 -0.7071 679.8985 289.2125)" class="st7" width="2.3" height="13.6"/>
			</g>
		</g>
		<g>
			<path class="st2" d="M200.3,388.1c-51.7-51.7-51.7-135.8,0-187.4c51.7-51.7,135.8-51.7,187.4,0l-1.5,1.5
				c-50.8-50.8-133.5-50.8-184.4,0c-50.8,50.8-50.8,133.5,0,184.4L200.3,388.1z"/>
			
				<rect x="69.6" y="200.4" transform="matrix(0.7071 -0.7071 0.7071 0.7071 -83.5697 201.1806)" class="st2" width="262.9" height="2.2"/>
			<g>
				
					<rect x="191.2" y="191.6" transform="matrix(0.7071 -0.7071 0.7071 0.7071 -83.5697 201.1805)" class="st7" width="19.6" height="19.6"/>
				<path class="st2" d="M201.1,216.9l-15.4-15.4l15.4-15.4l15.4,15.4L201.1,216.9z M188.7,201.5l12.4,12.4l12.4-12.4l-12.4-12.4
					L188.7,201.5z"/>
			</g>
			<g>
				
					<rect x="191.2" y="377.5" transform="matrix(0.7071 -0.7071 0.7071 0.7071 -215.0211 255.6295)" class="st7" width="19.6" height="19.6"/>
				<path class="st2" d="M201.1,402.8l-15.4-15.4l15.4-15.4l15.4,15.4L201.1,402.8z M188.7,387.4l12.4,12.4l12.4-12.4L201.1,375
					L188.7,387.4z"/>
			</g>
			<g>
				
					<rect x="377.5" y="191.2" transform="matrix(0.7071 -0.7071 0.7071 0.7071 -28.7171 332.7992)" class="st7" width="19.6" height="19.6"/>
				<path class="st2" d="M387.4,216.5l-15.4-15.4l15.4-15.4l15.4,15.4L387.4,216.5z M375,201.1l12.4,12.4l12.4-12.4l-12.4-12.4
					L375,201.1z"/>
			</g>
			<g>
				<circle class="st7" cx="294.4" cy="108.1" r="9.8"/>
				<path class="st2" d="M294.4,119c-2.9,0-5.7-1.1-7.7-3.2c-4.3-4.3-4.3-11.2,0-15.4c2.1-2.1,4.8-3.2,7.7-3.2
					c2.9,0,5.7,1.1,7.7,3.2l0,0c2.1,2.1,3.2,4.8,3.2,7.7c0,2.9-1.1,5.7-3.2,7.7C300.1,117.9,297.3,119,294.4,119z M294.4,99.4
					c-2.3,0-4.5,0.9-6.2,2.6c-3.4,3.4-3.4,8.9,0,12.4c3.4,3.4,8.9,3.4,12.4,0c1.7-1.7,2.6-3.8,2.6-6.2c0-2.3-0.9-4.5-2.6-6.2l0,0
					C298.9,100.3,296.7,99.4,294.4,99.4z"/>
			</g>
			<g>
				<circle class="st7" cx="108.1" cy="294.4" r="9.8"/>
				<path class="st2" d="M108.1,305.3c-2.8,0-5.6-1.1-7.7-3.2c-4.3-4.3-4.3-11.2,0-15.4c4.3-4.3,11.2-4.3,15.4,0l0,0
					c4.3,4.3,4.3,11.2,0,15.4C113.7,304.3,110.9,305.3,108.1,305.3z M108.1,285.7c-2.2,0-4.5,0.9-6.2,2.6c-3.4,3.4-3.4,8.9,0,12.4
					c3.4,3.4,8.9,3.4,12.4,0c3.4-3.4,3.4-8.9,0-12.4C112.6,286.5,110.3,285.7,108.1,285.7z"/>
			</g>
		</g>
	</g>
</g>
</svg>
