<?xml version="1.0" encoding="utf-8"?>
<!-- Generator: Adobe Illustrator 24.1.1, SVG Export Plug-In . SVG Version: 6.00 Build 0)  -->
<svg version="1.1" id="Capa_1" xmlns="http://www.w3.org/2000/svg" xmlns:xlink="http://www.w3.org/1999/xlink" x="0px" y="0px"
	 viewBox="0 0 200 200" style="enable-background:new 0 0 200 200;" xml:space="preserve">
<g>
	<path d="M96.5,121c-6.2,0-6.1-9.3,0-9.3S102.7,121,96.5,121 M179.6,74.8c-19.1,0-38.1,0-57.2,0c-4.1,0-8,0.5-11.5,2.8
		c-3.6,2.5-5.6,6.3-5.6,10.7c0,1.5,0,3,0,4.5c0,2.4,0,4.7,0,7.1c0,0.7-0.4,2.4,0.4,2.4c3.7,0,7.5,0,11.2,0
		c-0.1-4.6-0.2-9.2-0.4-13.9c-0.1-5,5.9-4.3,9.3-4.3c11.6,0,23.2,0,34.8,0c5,0,10.1,0,15.1,0c3.7,0,9.2-0.5,9.8,4.4
		c0.7,5.2,1.4,10.4,2.1,15.6c0.3,2.4,1,5.4-2,6.4c-1.4,0.5-2.8,0.5-4.2,0.5c-21.5,0-43,0-64.5,0c-3.8,0-7.6,0-11.4,0
		c-0.6,0-1.3,0-1.9,0c-0.2,0-1.2-1.3-1.4-1.4c-1.1-0.9-2.3-1.5-3.6-1.8c-3-0.7-6.2,0.1-8.4,2.2c-1.1,1.1-0.9,1-2.3,1
		c-1.5,0-3,0-4.5,0c-5.1,0-10.2,0-15.3,0c-12.5,0-25.1,0-37.6,0c-3.9,0-7.8,0-11.7,0c-0.6,0-1.1,0-1.7,0c-2.1,0-5.1-0.4-5.5-3
		c-0.4-2.7,1.4-4.9,3.9-5.5c2.8-0.6,6.1-0.3,9-0.3c5.5,0,11.1,0,16.6,0c11.5,0,23,0,34.5,0c4.4,0,8.7,0,12.8-2.3
		c5-2.9,7.9-8.1,7.1-13.9c-0.9-6.1-6.3-10.2-12.1-11.1c-2.8-0.4-5.7-0.2-8.5-0.2c-5.1,0-10.2,0-15.3,0c-12.5,0-24.9,0-37.4,0
		c-3.5,0-7.1,0-10.6,0c-1.6,0-3.3,0-4.7,1.2c-1.6,1.4-2.5,4.7-1.3,6.6c0.9,1.3,2.7,1.6,4.1,1.6c20.3,0,40.5,0,60.8,0
		c2.6,0,5.2,0,7.9,0c1.4,0,2.8,0.1,4.1,0.8c2.3,1.3,2.4,5,0.2,6.4c-1.6,1.1-3.6,1-5.4,1c-10.1,0-20.3,0-30.4,0c-9.5,0-19,0-28.6,0
		c-8.3,0-16.5,4.9-18.1,13.5c-1.7,9.3,5.5,15.6,14.5,15.6c20.9,0,41.8,0,62.7,0c3.5,0,7.1,0,10.6,0c1.7,0,1.5,0.7,3.1,1.9
		c2.3,1.7,5.4,2.1,8.2,1.2c1.3-0.4,2.5-1.1,3.5-2.1c0.1-0.1,0.8-1,1-1c7.3,0,14.6,0,22,0c19.9,0,39.8,0,59.7,0
		c7,0,14.2-4.3,14.5-11.9c0.2-3.6-0.8-7.5-1.4-11c-0.5-3.4-1-6.9-1.5-10.3C195.8,80,187.7,74.8,179.6,74.8"/>
</g>
</svg>
