<svg enable-background="new 0 0 200 200" viewBox="0 0 200 200" xmlns="http://www.w3.org/2000/svg"><path d="m133.9 192.1s-.9-1.1-.9-3.3.3-4.4-5.8-8.2c0 0 .9 3.2 1.7 4.1 0 0-2.1-2.5-2.6-4.1 0 0 1.8 6.7 4.8 9.1-.9-.4-4.7-3.1-5.7-8.5 0 0-1.4 6.8 1.3 8.9s5.6 2 7.2 1.9" fill="#539ed2"/><path d="m127.1 164.1s3 0 4.9-1.3 3.4-2.4 3.4-2.4-1.9 3.6-5.7 4.4c0 0 5.2 1.3 7.2-1.1s1.1-6.4.8-6.9c0 0-.6.7-1.8 1s-3.3 0-4.6.7c-2.7 1.5-2.9 2.7-4.1 4.6 0 0 2.9-.4 4.1-1.7-.1.1-2.5 2.5-4.2 2.7z" fill="#4da095"/><path d="m137.7 174.1s-3.4.7-6.5.3c-3.2-.4-9.4-6.1-10-6.6s8.5 2.2 11 4.4c0 0-1.7-3.1-9.9-5.7 0 0 4.1-.2 6.4.8 0 0-1.8-2.1-8.9-1.6 0 0 5.4-1.6 10.6.6 5.1 2.4 4.8 6.6 7.3 7.8z" fill="#66aa4d"/><path d="m116.1 181.9s-.4-2.1.2-3.3 1.1-4.2-1.7-6.3c0 0-.5 5.2.4 6.3 0 0-1.3-1.3-1.2-2.9s.3-3.6-.5-4.6c0 0 .4 3.9-.4 4.6 0 0 .3-3.3-.4-4 0 0-.3 2.9-.8 3.9-.6 1-1.6 5.6 4.4 6.3z" fill="#95bb46"/><path d="m110.3 177.1s-1.2 2.2-1.3 4c0 0-.3-1.6-.1-2.2 0 0-.9.7-.9 1.9 0 1.1.5 1 .5 2.1 0 0 2.2-.7 2.3-1.9.1-1.4-.7-2.6-.5-3.9z" fill="#dfa440"/><path d="m110.9 164.8s5.2-5-.6-8.1c0 0 6 4.8-2 7.7 0 0-.6-3.3.3-4.5s-.5-1.4-.8-1.3c-.3.2-.6.4-.4 1 0 0-1.3-.3-1.2-1.2 0-1 1.1-3.4 4.4-3.4s4.9 3.3 4.9 5c-.2 1.5-.9 4.6-4.6 4.8z" fill="#cfd43d"/><path d="m110.4 168.1s0 4.4-6 10.4-2.9 12.6-2.8 12.9 3.2 6.2 8.8 5.9 7.6-5.1 7.6-6.7.5-6.8-5.5-7.8-6.2 6.3-3.2 5.8c0 0 .2-2.5 2.3-2.3s2.6 1.9 2.6 2.7.2 2.7-1.9 3.9-4.5.6-5.6 0c0 0 3.4.7 5.2-.6s1.8-4-.1-4.6c.7.3 1.7 4.4-2.4 4.5-3.7.1-5-3.7-5-4.9s-.1-4.9 2.7-7.9 4.1-5.9 4.2-6.6c.1-.6.4-2.7-.9-4.7z" fill="#67a94d"/><path d="m110.4 171.1s1 2.9-3.4 7.3c-4.3 4.4-3.8 10.4-3.8 10.4s-1-6.7 3.1-10.7c4.1-4.1 4.1-7 4.1-7z" fill="#fff"/><path d="m133.9 192.1s-.9-1.1-.9-3.3.3-4.4-5.8-8.2c0 0 .9 3.2 1.7 4.1 0 0-2.1-2.5-2.6-4.1 0 0 1.8 6.7 4.8 9.1-.9-.4-4.7-3.1-5.7-8.5 0 0-1.4 6.8 1.3 8.9s5.6 2 7.2 1.9" fill="#00936f"/><path d="m127.1 164.1s3 0 4.9-1.3 3.4-2.4 3.4-2.4-1.9 3.6-5.7 4.4c0 0 5.2 1.3 7.2-1.1s1.1-6.4.8-6.9c0 0-.6.7-1.8 1s-3.3 0-4.6.7c-2.7 1.5-2.9 2.7-4.1 4.6 0 0 2.9-.4 4.1-1.7-.1.1-2.5 2.5-4.2 2.7z" fill="#4da095"/><path d="m137.7 174.1s-3.4.7-6.5.3c-3.2-.4-9.4-6.1-10-6.6s8.5 2.2 11 4.4c0 0-1.7-3.1-9.9-5.7 0 0 4.1-.2 6.4.8 0 0-1.8-2.1-8.9-1.6 0 0 5.4-1.6 10.6.6 5.1 2.4 4.8 6.6 7.3 7.8z" fill="#66aa4d"/><path d="m116.1 181.9s-.4-2.1.2-3.3 1.1-4.2-1.7-6.3c0 0-.5 5.2.4 6.3 0 0-1.3-1.3-1.2-2.9s.3-3.6-.5-4.6c0 0 .4 3.9-.4 4.6 0 0 .3-3.3-.4-4 0 0-.3 2.9-.8 3.9-.6 1-1.6 5.6 4.4 6.3z" fill="#95bb46"/><path d="m110.3 177.1s-1.2 2.2-1.3 4c0 0-.3-1.6-.1-2.2 0 0-.9.7-.9 1.9 0 1.1.5 1 .5 2.1 0 0 2.2-.7 2.3-1.9.1-1.4-.7-2.6-.5-3.9z" fill="#dfa440"/><path d="m110.9 164.8s5.2-5-.6-8.1c0 0 6 4.8-2 7.7 0 0-.6-3.3.3-4.5s-.5-1.4-.8-1.3c-.3.2-.6.4-.4 1 0 0-1.3-.3-1.2-1.2 0-1 1.1-3.4 4.4-3.4s4.9 3.3 4.9 5c-.2 1.5-.9 4.6-4.6 4.8z" fill="#cfd43d"/><path d="m110.4 168.1s0 4.4-6 10.4-2.9 12.6-2.8 12.9 3.2 6.2 8.8 5.9 7.6-5.1 7.6-6.7.5-6.8-5.5-7.8-6.2 6.3-3.2 5.8c0 0 .2-2.5 2.3-2.3s2.6 1.9 2.6 2.7.2 2.7-1.9 3.9-4.5.6-5.6 0c0 0 3.4.7 5.2-.6s1.8-4-.1-4.6c.7.3 1.7 4.4-2.4 4.5-3.7.1-5-3.7-5-4.9s-.1-4.9 2.7-7.9 4.1-5.9 4.2-6.6c.1-.6.4-2.7-.9-4.7z" fill="#1b6d5e"/><path d="m110.4 171.1s1 2.9-3.4 7.3c-4.3 4.4-3.8 10.4-3.8 10.4s-1-6.7 3.1-10.7c4.1-4.1 4.1-7 4.1-7z" fill="#fff"/><path d="m105.6 75.3c1.7 1.7 1.8 3.1.3 5-1.7 2.2-3.6 4.2-5.5 6.4-.3-.3-.6-.6-.8-.9-1.4-1.6-2.8-3.2-4.2-4.8-.4-.5-.9-1.1-1.2-1.8-.8-1.7-.6-2.7 1-4-.5-.1-.9-.2-1.2-.3-4.2-.9-8-4.5-8.7-8.3-.4-1.9.1-3.7.6-5.6.5-1.6 1-3.3 1.2-4.9.3-2.4-.9-4.1-2.9-4.9-2.1-.8-4.2-.2-5.7 1.7-.1.1-.1.2-.2.3-1.2-1.8-1-5.4.8-7.3 3.4-3.8 7.5-4.1 12.2-2.6-.3-.3-.5-.6-.8-.8-1.4-1-2.9-2-4.3-2.9-.7-.5-1.5-1-2.2-1.5-3.2-2.2-4.8-5.2-4.5-9.2.1-2 0-4 0-6 2.9-1.1 8.9.5 10.9 3 .5.6.6 1.4 1 2.1.3.5.7 1 1 1.5.1-.1.3-.2.4-.3-.3-.6-.5-1.3-.9-1.8-2.1-3-2.1-6.3-.7-9.5 1-2.3 2.5-4.4 3.8-6.5 1.5-2.4 3.2-4.6 4.7-7 .3-.5.5-1.1.8-1.8 1.6 4.6 5 7.7 7.4 11.5 1.3 2.1 2.4 4.3 2.7 6.8.3 2.1 0 4.1-1.2 6-.5.8-.9 1.6-1.3 2.4.1.1.3.2.4.3.4-.5.9-1 1-1.6.4-1.7 1.5-2.8 3-3.7 2.8-1.6 5.8-1.8 8.8-1.5 0 2.8.1 5.4 0 8.1s-1.3 4.8-3.4 6.4c-1.6 1.2-3.3 2.2-4.9 3.4-1.2.8-2.3 1.7-3.4 2.7 4.8-1.5 9.1-1.2 12.4 3.1 1.6 2.1 1.6 4.4.7 7-.2-.2-.4-.4-.5-.6-1.4-1.7-3.6-2.3-5.7-1.4-2 .8-3.2 2.8-2.9 5 .2 1.2.6 2.5.9 3.7.3 1 .6 1.9.8 2.9.8 3.6-.1 6.7-3 9.1-1.9 1.5-4.1 2.7-6.7 3.1zm5.3-11.8c0-5.8-4.7-10.5-10.5-10.6-5.8 0-10.7 4.8-10.6 10.6 0 5.8 4.8 10.5 10.6 10.5 5.7 0 10.5-4.8 10.5-10.5zm-10.4-54.3c-.2 0-.4 0-.6 0-.1 1.7-.4 3.4-.4 5.1 0 9.2.1 18.4.2 27.5 0 1 .1 1.9.1 2.9 0 .2.2.4.3.6h.3c.1-.6.2-1.1.2-1.7.1-5.4.1-10.8.1-16.2 0-4.7.1-9.3.1-14 0-1.3-.2-2.8-.3-4.2zm2.5 38.4c.1-.2.2-.4.2-.6.9-3.7 2.8-6.7 5.4-9.4 1.4-1.4 3-2.6 4.4-4 1.2-1.3 2.3-2.6 3.4-4.1.4-.5.4-1.3.6-1.9-1.2 1.4-2.3 2.9-3.5 4.2-1.1 1.1-2.5 2-3.6 3.1-1.7 1.7-3.4 3.5-4.7 5.5-1.4 2.1-2.1 4.6-2.2 7.2zm-5.3-.1c0-.2 0-.4 0-.5 0-.3-.1-.5-.1-.8-.9-4.9-3.6-8.6-7.4-11.7-2.5-2-5.1-3.9-6.6-6.9.2 1 .4 2 .9 2.7 1.2 1.5 2.4 2.9 3.9 4.1 4.3 3.5 7.8 7.5 9.3 13.1zm9.8 7.5c1.4-4.1 3.3-7.5 8.4-7.7-2.1-1.1-5.5.1-7.5 2.7-1.4 1.7-1.9 3.9-.9 5zm-22.8-7.7c2.3 0 4.3.7 5.6 2.4 1 1.3 1.6 2.8 2.4 4.2.2.3.3.7.5 1.1.9-1.3.2-3.6-1.4-5.4-1.9-2.4-5-3.4-7.1-2.3zm4.8 12.3c-.1-.1-.3-.5-.5-.5-.7-.2-1.6 1-1.6 1.9 0 .4.4.9.7 1 .7.2 1.3-.8 1.4-2.4zm18.2 13.3c4.6-1.4 7.2-7.2 6-10.2-.4 5.6-1.2 6.9-6 10.2zm-11.1-46.1c-.5-1.8-.9-3.2-1.3-4.9-.7 2-.3 3.8 1.3 4.9zm9.3-4.1c-.7 1.2-1.4 2.3-2.1 3.4 1.5.1 2.3-1.4 2.1-3.4zm-4.4 60.1c2.1-1.2 3.7-3.2 3.8-4.3-1.3 1.4-2.5 2.8-3.8 4.3zm-4.8-5.3c-.3-.5-.6-.8-.8-1.1-.3.3-.7.6-.7 1 0 .3.5.6.7.9.2-.3.4-.5.8-.8zm-8-13.5c-.2 0-.4.1-.6.1 0 .4.1.8.2 1.1 0 .1.4 0 .7 0-.1-.4-.2-.8-.3-1.2z" fill="#952f28"/><path d="m146.1 167.5c1.3-2.5 3.5-2.4 5.6-2.6-1.6-1.4-4.4-1.4-6-.1-1.6 1.2-2.1 3.3-1.3 5.1.9 2 4 2.9 6.2 1.4.6 1.1.5 2.5-.1 3.5-1.2 1.6-3.1 2.3-5.2 1.7-3.1-1-5.3-2.9-6.1-6.2-.8-3.1.5-5.6 2.8-7.6 4.5-4 12.2-3.1 16.5 1.8s4.7 15.4-3.8 19.5c-6.1 2.9-12.2 2.8-18.4.3-4.3-1.7-8-4.3-11.5-7.3-3.5-2.9-7-6-10.5-8.9-.6-.5-1.2-1-1.9-1.5 1.2-.6 2.3-.7 3.4-.2 1.9 1 3.9 1.9 5.7 3.2 2.9 2.1 5.6 4.4 8.4 6.6 3.8 2.9 7.9 5.2 12.8 5.9 4.8.7 9.2-1.2 11.4-5 1.6-2.8 1.5-5.8-.3-8.1-1.6-2-3.7-2.7-6.1-1.9-.6 0-.9.2-1.6.4zm1.5 16.2c.2 0 .4.1.6.1 4.9 0 9-3.5 9.8-8.3.4-2.3.3-4.6-1-6.6-.2-.4-.6-.7-.9-1-.1.1-.2.1-.3.2 1.3 3.3 2 6.7.1 9.9-1.8 3.1-4.8 4.7-8.3 5.7z" fill="#952f28"/><path d="m112.8 76.5c3.5-3 7.1-5.9 10.6-8.9 3.7-3.1 7.4-6 11.8-8 5.9-2.7 11.9-3.1 18-.8 4.5 1.7 7.3 4.9 7.9 9.7s-.8 8.9-4.7 11.9c-4.7 3.7-11.7 3.3-15.3-.9-2-2.3-2.8-5-1.3-7.9s3.8-4.8 7.3-4.8c1.8 0 3 1 3.6 2.6.2.5.1 1.2.1 1.8-4-.5-6 .2-6.7 2.4-.7 1.9.1 4.1 1.9 5.2s4.6.9 6-.6c-1.8-.5-4 0-5.3-2 .4 0 .6 0 .7.1 3.8 1 7-1 7.7-4.9.5-2.8-.5-5.2-2.4-7.2-3.4-3.6-7.7-4-12.2-2.8-4.8 1.3-8.9 4-12.7 7-2.9 2.3-5.9 4.6-8.9 6.8-1.1.8-2.5 1.2-3.8 1.7-.6.2-1.4 0-2.1 0-.1 0-.2-.2-.2-.4zm34.7-17.1c0 .1-.1.3-.1.4.5.2 1.1.4 1.6.5 6.4 1.8 9.3 7.2 7.2 13.5-.2.5-.1 1.1-.2 1.7.5-.4 1.1-.8 1.4-1.3 2.6-4.4.6-11.1-4.1-13.5-1.8-1-3.7-1.5-5.8-1.3z" fill="#1b6d5e"/><path d="m164.3 66.1h.1c.9.9 5.5 8.7 10 8.6s5.2-3.3 4.9-4.4c0-.1 1.5 2.1.3 4 0 .1 0 .1.1.1 1.6-1 1.9-3.8 1.1-4.8-.9-1.1-.8-.9-1.4-1.2-1.3-.6-2.6-.7-3.8.3-1.1.9-.8 2.1-.4 3.4 0 0 0 .1-.1.1-.9.2-1.6-.1-2.1-.7-1.1-1.1-1.2-2.5-.8-3.9.7-2.5 2.9-4.3 5.4-4.5 2.9-.2 5.7 1.5 6.8 4.2 1.6 3.7.2 8.2-3.2 10.8-4.7 3.5-11.5 2.4-15.5-2.6-1.7-2.1-3-4.5-2.6-7.2.4-.6.9-1.7 1.2-2.2zm12.6 10.9c.1 0 0-.1 0 0-1.2-.1-2.2 0-3.2-.1-3.5-.6-6-2.7-7.8-5.7-.2-.3-.4-.5-.6-.8-.3.1-.2.1-.5.2.2 2.3 1.7 4 3.6 5.3 2.7 2 6.9 2.3 8.5 1.1z" fill="#c56b2a"/><path d="m179.7 169.1c.4 1.2.3 2.9-.2 3.4-.1.1-.3.1-.4-.1-.4-1.7-1.1-3.4-2.7-4-6-2.5-9.2 4.2-10.5 5.7-.6.7-.7 1.7-1.4 2.5-.1.1-.3.1-.3-.1-.6-1.5-.7-2.9-.4-4.4 1.5-7.2 11.2-12.2 17.9-6.4 2.9 2.4 3.9 5.7 2.9 9.3-1.1 4.2-6.5 6.1-9.7 4.4s-3.5-3.7-3.2-5.8c0-1.7 1.7-3.1 3.2-3 .1 0 .2.1.2.3-.1.3-.2.6-.2.7-.6 2.3.9 3.6 3.3 3.3 1.6-.2 2.6-1.2 3.1-2.9.3-1.1-.6-2.4-1.3-3.2-.1 0-.3.1-.3.3zm-3.3-3c0-1.7-10.9-1.1-11.7 6.5-.1 1.4 1.4-3 4.4-5 2.8-1.7 7.3-1.5 7.3-1.5z" fill="#1b6d5e"/><path d="m120.5 164.9c3.7-2.8 3.7-6.6 2.3-8.2.7 4.7-1 7.2-4.6 8.2.6-.8 1-2.3.7-2.9-.4 1.6-1.7 3.5-3.6 3.2 1.3-1 1.5-1.7 1.5-3.1 0-1.5.9-2 1.7-3.1.7.7 1.1 1.2 1.5 1.6 1.2-2-.1-5.1-3.4-5.4.4-1.3 2.5-2.3 4.1-2.4 2.5-.2 4.9 1.3 5.9 3.6 1 2.4.4 5-1.6 6.6-1.2.8-4.4 2-4.5 1.9z" fill="#c56b2a"/><path d="m129.3 57.8s-2.1 3.2-2.7 4c.8-2.7 2.7-5.9 4.6-8.1-1.8.8-3.7 3.4-5.6 7.4-1.8-6.7 2.2-10.5 8.3-10-.2 1.7-.3 3.5-.6 5.2-.1.8-.5 1.8-1.1 2.4-1.2 1.2-3.4 2.5-4.8 3.6-.2-.1 1.9-4.5 1.9-4.5z" fill="#304948"/><path d="m130.7 78.3c2.5-.3 5-.8 6.9 1.5 1.1 1.4 1.2 4.2.4 5.8-1.4-.3-2.7-.6-4-.7-2.4-.2-4.3-1.2-5.4-3.4-.3-.5-.6-1-1.1-1.8 1.2.4 3.2 1 3.2.9-.8-.5-1.6-1-2.5-1.6 2.8.3 5 1.6 7.2 3-1.2-1.6-2.8-2.7-4.7-3.7z" fill="#952f28"/><path d="m118.6 55.1c1.6-.1 4.5 2.1 5.4 4.1 1 2.4.1 5.5-1.7 7.2.8-3.1.4-3.6.5-4.8-.1 0-1.1 4-1.3 4.9.4-2.7.6-5.6-.7-7.4.7 3.4-.2 6.7-2 9.8-1.1-4.5-2-9.5-.2-13.8z" fill="#a22b2e"/><path d="m118.5 187.7c.4-.6-.8-3-.9-5.4-.2-3.2 1.2-7 1.1-8.3 1 .6 3.2 8.7 1.5 10.3 1.6-1.4 1.5-5.8.9-8.2.5.3 1.5 4.9 1.5 5.4 0 0 0-1.7-.1-2.3 0-.6-.4-2.2-.5-2.8 2 1.2 2.7 4.8 1.8 7.5-.6 2-4.8 4-5.3 3.8z" fill="#c84b2f"/><path d="m162 168.2c-1.1-1.4-3-6.1-2.9-7.3.5.4 1.5 1.2 2.1 1.7 0-2.1 1-3.8 3.4-4.2.1 1.3.4 2.8 1.1 4 .2-.4.2-1.2.4-1.6.1.1.5.7.6.8.9 2.5-2.6 6.1-2.7 6.1.1-.4.8-2.5.8-2.5s-.6 1-.9 1.1c-.1-1.1-.2-3.2-.2-4.2-.1 0-.5 4-.7 5.7-.3-.8-.9-2.1-1.1-2.8-.3.1.1 2.4.1 3.2z" fill="#952f28"/><path d="m101.4 167.9c1.4 1 2.4-.4 3.4-1 1.1-.7 2.3-.5 3.8.2-.8.6-1.3.6-2.2 1.6 0 .1 1.9-1.3 2.7-1.5-.8 2-3.1 2.9-4.6 3 1.8.6 3.4-.4 4.8-1.8-.4 2.3-2.8 4.4-4.9 4.1-2.4-.2-4.3-2.6-3-4.6z" fill="#304948"/><path d="m134.5 152.2c-.9 2-1.3 5.6-5.5 5.9-.1-.5 1-1.7 1.3-1.6-.9-.1-2.3 2.6-2.1 2.7-.8-.7 1.6-4.9 3.2-5.3-.4-.1-3.1 1.3-3.6 2.1-.4-1.1-.3-2.9.9-3.6 1.1-.7 3.9-.8 5.8-.2z" fill="#c84b2f"/><path d="m127.8 86.9c1.5 1.6 3.7 2.3 3.8 2.2-3.3-2.1-3.5-5.3-3.5-5.3s.9 2.5 2.7 3.3c.1 0-1.5-2-1.8-2.4 3.2.2 4.7 3.7 5.5 5.9-1.5 1.1-4.9 1-6.1-.5-1.1-1.5-.4-2.4-.6-3.2z" fill="#4b8b4a"/><path d="m101.8 157.1c1.9 2.9 5.9 4.6 5.7 8.4-1.9 0-4.5-3.9-4.6-4.1-.2.3 1.7 3.6 2.4 3.9 0 .3-2.3-1.6-2.3-2.1-.1.3 1 2 1.5 2.3-3.5 1-4.9-5.3-2.7-8.4z" fill="#1b6d5e"/><path d="m138.3 177.5c-.7-.4-1.4-.8-2.1-1.2 3.1-.9 5.6.8 5.8 3.3-2.9.7-5.3-.5-7.5-2.4 1.2.2 2.5.4 3.7.5 0-.1 0-.1.1-.2z" fill="#a12b2f"/><path d="m141.7 190.4c-.5 0-.1-.1-2 .1-1.9.3-4.9-.5-5.1-3 0 0 1.3 1 1.7 1-.6-.3-1.8-1.9-1.8-2.4 1.3 1.3 3.4 2.4 4.5 3-.3-.1-3.3-2.6-4-3.8 2.4-.2 3.7.5 4.8 1.6.7 1 .6 2.3 1.9 3.5z" fill="#1b6d5e"/><path d="m142.1 63.4c-.4 2.5-2.7 4.3-7 3.7.9-.2 3.6-1.6 3.5-1.8-.1.3-3.7.8-4.8.6 1.4-1.9 5.5-3.1 8.3-2.5z" fill="#4b8b4a"/><path d="m106.2 173.3c-.8 4.9-3.4 4.9-5.1 7-1.5-3.3.3-6.6 3.8-6.7-1 .8-2.5 3.1-2.2 3.1-.3-.1 2.4-2.5 3.5-3.4z" fill="#4b8b4a"/><path d="m186.4 172.2c.2 1.1.9 2.5 1.5 3.1 0 .1-.5-1.4-.5-2.2 2.6.6 3.1 3.5 2 5.8-2.6-1-3.9-3.5-3-6.7z" fill="#952f28"/><path d="m189.5 64c1.4 2.2.5 5.2-1.9 6 0-.6.3-2.1.5-2.6-.3 0-1.3 2.6-1.4 3.4-1.2-2.4 0-5.5 2.8-6.8z" fill="#952f28"/><path d="m189.1 160.2c1.3 1.8 1.8 5.3-2.4 5.2 1.6-1.1 1.8-2 1.8-2.1-2.1 2.1-3.8 1.7-3.8 1.7 1.5-1.1 1.5-2.2 2-2.8.6-.9 1.6-1.2 2.4-2z" fill="#4b8b4a"/><g fill="#fff"><path d="m100.3 9.6c.1 1.4.4 2.8.4 4.3 0 4.7-.1 9.3-.1 14 0 5.4-.1 10.8-.1 16.2 0 .6-.1 1.1-.2 1.7-.1 0-.2 0-.3 0-.1-.2-.3-.4-.3-.6-.1-1-.1-1.9-.1-2.9-.1-9.2-.2-18.4-.2-27.5 0-1.7.2-3.4.4-5.1.1-.1.3-.1.5-.1z"/><path d="m102.8 48c0-2.6.7-5.1 2.2-7.2 1.4-2 3.1-3.8 4.7-5.5 1.1-1.1 2.5-2 3.6-3.1 1.3-1.3 2.3-2.7 3.5-4.2-.2.6-.2 1.4-.6 1.9-1 1.4-2.2 2.8-3.4 4.1-1.4 1.4-3 2.6-4.4 4-2.6 2.7-4.5 5.7-5.4 9.4 0 .2-.1.4-.2.6z"/><path d="m97.5 47.9c-1.5-5.5-5-9.6-9.3-13.1-1.4-1.2-2.7-2.6-3.9-4.1-.6-.7-.7-1.7-.9-2.7 1.5 3.1 4.1 4.9 6.6 6.9 3.8 3 6.5 6.8 7.4 11.7 0 .3.1.5.1.8z"/><path d="m107.6 55.1c-1-1.1-.5-3.2.9-5 2-2.5 5.3-3.8 7.5-2.7-5.1.2-7 3.6-8.4 7.7z"/><path d="m84.5 47.4c2.1-1.1 5.2 0 7.2 2.3 1.6 1.8 2.2 4.1 1.4 5.4-.2-.4-.3-.8-.5-1.1-.8-1.4-1.4-2.9-2.4-4.2-1.4-1.7-3.4-2.3-5.7-2.4z"/><path d="m89.3 59.7c-.1 1.6-.7 2.6-1.4 2.4-.3-.1-.7-.6-.7-1 0-1 .9-2.1 1.6-1.9.2.1.4.4.5.5z"/><path d="m107.5 73.3c4.7-3.2 5.5-4.6 6-10.2 1.2 3-1.4 8.8-6 10.2z"/><path d="m96.4 27.2c-1.5-1-2-2.9-1.3-4.9.4 1.6.8 3.1 1.3 4.9z"/><path d="m105.7 23.1c.3 2-.6 3.5-2.1 3.4.7-1.1 1.4-2.2 2.1-3.4z"/><path d="m101.3 83.2c1.2-1.4 2.5-2.8 3.8-4.3 0 1.1-1.7 3-3.8 4.3z"/><path d="m96.5 77.9c-.4.3-.6.6-.8.8-.3-.3-.7-.7-.7-1s.5-.6.7-1c.2.4.5.7.8 1.2z"/><path d="m88.5 64.2c.1.4.2.8.3 1.2-.2 0-.6 0-.7 0-.1-.4-.1-.8-.2-1.1.2-.1.4-.1.6-.1z"/><path d="m147.6 183.7c3.5-1 6.5-2.6 8.3-5.8 1.8-3.3 1-6.8-.2-10.1.1-.1.2-.1.4 0 .2 0 .7.6.9 1 1.3 2.1 1.4 4.3 1 6.6-.8 4.8-4.9 8.3-9.8 8.3-.2 0-.4 0-.6 0z"/><path d="m147.5 59.4c2.1-.2 4 .3 5.8 1.3 4.7 2.5 6.7 9.1 4.1 13.5-.3.5-.9.9-1.4 1.3.1-.6 0-1.2.2-1.7 2.1-6.3-.8-11.7-7.2-13.5-.5-.1-1.1-.3-1.6-.5 0-.1.1-.3.1-.4z"/><path d="m176.8 76.8c.1 0 .1.1 0 0-1.6 1.3-5.8 1-8.6-1-2.1-1.5-3.6-3.3-3.6-6.1 0-.1.1-.1.1 0 .3.5.7.9 1 1.3 1.8 3 4.3 5.1 7.8 5.7 1.1.3 2.2.2 3.3.1z"/></g><path d="m112.4 21.9s3.1-1.4 4.2-6.3c0 0-.5 4.5-2.4 6 0 0 3.5-1.1 4.1-3.2s-.4-5.8-.4-5.8-2.5 1.3-3.3 1.6-2.1 1.6-2.1 3.3c.1 1.2.1 4.3-.1 4.4z" fill="#4ba094"/><path d="m120.9 35.2s3-2.1 4-3.7c0 0-1.3 3-2.7 3.9 0 0 4 0 5-2.1s.7-3.8 1.1-4.8c0 0-3.4.2-4.8 1.2-1.3 1.1-2.5 3.9-2.6 5.5z" fill="#96ba47"/><path d="m136 35.5s-2.3-.9-3.1-1.4-3.1-.8-5.1.9c0 0 2.1 1.2 4.1 1.2 0 0-3.3.3-5.1-.7 0 0 2.9 2.8 4.8 2.7 2-.1 4.2-2.2 4.4-2.7z" fill="#ced33d"/><path d="m118.7 38.1s3-2 6-1.7 6.3 4.8 6.3 9.3c0 0-1.6-1.5-4-1s-5.3-1.1-6.3-2.2-4.7-1.8-5.6-1.3c0 0 2.9-4.1 10.9-.8-.2.1-3.1-2.6-7.3-2.3z" fill="#e0a43f"/><path d="m142 52.7s-1.1 1.1-1.7 2.4-2 2.8-5.3 2.7c0 0 1.3-2.4 3.9-3.8 0 0-3.2 1.1-4.3 2.8 0 0 .1-3.2 2.5-4.3s4.9.2 4.9.2z" fill="#5daa6f"/><path d="m162 74.5s-1.2 3.3-1.9 4.4c-.7 1-.9 2.2-.9 2.9 0 0 .6.1 1.8-1.2 0 0 .3 3.3 3.7 4 0 0 0-1.7.4-2.4s.5-1.5.4-2 .6 1.2.4 1.7c0 0 1.2-.3.9-1.8s-2.2-4-2.7-4.7c0 0-.2 1.1.5 2.1 0 0-.8-.4-1-.9 0 0-.2 3.4 0 4.2 0 0-1.2-2.4-1-6 0 0-.5 2.9-1 3.2.1.1.7-2.8.4-3.5z" fill="#e0a340"/><path d="m186 73.6s1.4-2.7 3.2-3.3 3.1 0 3.1 0-1.4.9-1.2 1.5c0 0 1.2-.9 2.4-.9 1.2.1 3.1.5 4.5 1.8 0 0-1.9 1.2-2.5 2.2s-1.7 1.4-4.2 1.5-3.1-.1-6.7.2c-.3 0 3.5-2.8 8.1-3.1 0 0-5.8.3-6.8.9 0 0 1.7-1.6 2.7-1.8-.1.1-2.2.5-2.6 1z" fill="#67a94d"/><path d="m189.1 82.8s-.5-1.2-1.6-1.5-1.4-1.8-1.6-2.2-1.2-1.1-1.4-1.1 2-.3 3.9 1.6c0 0-.5-1.6-1.8-2.1 0 0 2-.1 2.7.6s1.4 2.4-.2 4.7z" fill="#00936f"/><path d="m138 68.9s-2.7-1.2-6.5-.4c-3.8.7-9 6.2-10.1 6.6 0 0 8.4-2.1 10.7-3.9 0 0-4.3 4-9.6 5.1 0 0 3.5.4 6.4-.7 0 0-2 2.1-8.7 1.6 0 0 5.3 1.5 9.3-.3 4-1.7 5.5-4.3 6.3-5.7.7-1.5 1.8-2.2 2.2-2.3z" fill="#00936f"/><path d="m120.4 77.9s7 5.4 1.2 9.6c0 0 5-5.3-3.4-9.4 0 0 1.1 2.1.7 3 0 0-.9-3.5-3.4-3.1 0 0 1.4.6 1.3 2.6 0 2 1.7 3.5 1.7 3.5s1.2-.7 1.2-1.6c0 0 2 4.9-3 5.3 0 0 1.1 3 4.9 2.7s5.4-4.3 5.3-6.4c-.1-2.3-1.9-5.8-6.5-6.2z" fill="#96ba47"/><path d="m110.7 78s6.2 5.2-.3 8.3c0 0 5.7-4.8-2.1-7.7 0 0-.5 2.4-.2 3.4.2.9 1.2 1.3.6 2.2s-1.5 0-1.3-.7c0 0-2.7.9.6 3.8 1.9 1.7 6.2.9 7.2-3.2.5-2.5.2-5-4.5-6.1z" fill="#dfa440"/><path d="m186 169.2s1.4 2.7 3.2 3.3c1.9.6 3.1 0 3.1 0s-1.4-.9-1.2-1.5c0 0 1.2.9 2.4.9 1.2-.1 3.1-.5 4.5-1.8 0 0-1.9-1.2-2.5-2.2s-1.7-1.4-4.2-1.5-3.1.1-6.7-.2c-.3 0 3.5 2.8 8.1 3.1 0 0-5.8-.3-6.8-.9 0 0 1.7 1.6 2.7 1.8-.1-.1-2.2-.4-2.6-1z" fill="#dfa440"/><path d="m66 192.1s.9-1.1.9-3.3-.3-4.4 5.8-8.2c0 0-.9 3.2-1.7 4.1 0 0 2.1-2.5 2.6-4.1 0 0-1.8 6.7-4.8 9.1.9-.4 4.7-3.1 5.7-8.5 0 0 1.4 6.8-1.3 8.9s-5.6 2-7.2 1.9" fill="#00936f"/><path d="m72.9 164.1s-3 0-4.9-1.3-3.4-2.4-3.4-2.4 1.9 3.6 5.7 4.4c0 0-5.2 1.3-7.2-1.1-2-2.3-1.1-6.4-.8-6.9 0 0 .6.7 1.8 1s3.3 0 4.6.7c2.7 1.5 2.9 2.7 4.1 4.6 0 0-2.9-.4-4.1-1.7.1.1 2.5 2.5 4.2 2.7z" fill="#4da095"/><path d="m62.3 174.1s3.4.7 6.5.3c3.2-.4 9.4-6.1 10-6.6s-8.5 2.2-11 4.4c0 0 1.7-3.1 9.9-5.7 0 0-4.1-.2-6.4.8 0 0 1.8-2.1 8.9-1.6 0 0-5.4-1.6-10.6.6-5.2 2.4-4.8 6.6-7.3 7.8z" fill="#66aa4d"/><path d="m83.9 181.9s.4-2.1-.2-3.3-1.1-4.2 1.7-6.3c0 0 .5 5.2-.4 6.3 0 0 1.3-1.3 1.2-2.9s-.3-3.6.5-4.6c0 0-.4 3.9.4 4.6 0 0-.3-3.3.4-4 0 0 .3 2.9.8 3.9s1.6 5.6-4.4 6.3z" fill="#95bb46"/><path d="m89.6 177.1s1.2 2.2 1.3 4c0 0 .3-1.6.1-2.2 0 0 .9.7.9 1.9 0 1.1-.5 1-.5 2.1 0 0-2.2-.7-2.3-1.9 0-1.4.8-2.6.5-3.9z" fill="#dfa440"/><path d="m89.1 164.8s-5.2-5 .6-8.1c0 0-6 4.8 2 7.7 0 0 .6-3.3-.3-4.5s.5-1.4.8-1.3c.3.2.6.4.4 1 0 0 1.3-.3 1.2-1.2 0-1-1.1-3.4-4.4-3.4s-4.9 3.3-4.9 5c.2 1.5.9 4.6 4.6 4.8z" fill="#cfd43d"/><path d="m89.6 168.1s0 4.4 6 10.4 2.9 12.6 2.8 12.9c-.2.3-3.2 6.2-8.8 5.9s-7.6-5.1-7.6-6.7-.5-6.8 5.5-7.8 6.2 6.3 3.2 5.8c0 0-.2-2.5-2.3-2.3s-2.6 1.9-2.6 2.7-.2 2.7 1.9 3.9 4.5.6 5.6 0c0 0-3.4.7-5.2-.6s-1.8-4 .1-4.6c-.7.3-1.7 4.4 2.4 4.5 3.7.1 5-3.7 5-4.9s.1-4.9-2.7-7.9-4.1-5.9-4.2-6.6c-.1-.6-.4-2.7.9-4.7z" fill="#1b6d5e"/><path d="m89.5 171.1s-1 2.9 3.4 7.3 3.8 10.4 3.8 10.4 1-6.7-3.1-10.7c-4.1-4.1-4.1-7-4.1-7z" fill="#fff"/><path d="m52.5 167c-2.4-.8-4.6-.1-6.1 1.9-1.8 2.3-1.9 5.4-.3 8.1 2.2 3.8 6.6 5.7 11.4 5 4.8-.8 8.9-3.1 12.8-5.9 2.8-2.1 5.5-4.5 8.4-6.6 1.8-1.3 3.8-2.2 5.7-3.2 1.1-.5 2.2-.4 3.4.2-.7.5-1.3 1-1.9 1.5-3.5 3-7 6-10.5 8.9s-7.2 5.6-11.5 7.3c-6.2 2.5-12.4 2.7-18.4-.3-8.6-4.2-8.1-14.6-3.8-19.5 4.3-4.8 12-5.8 16.5-1.8 2.3 2 3.6 4.5 2.8 7.6-.8 3.2-3 5.2-6.1 6.2-2 .6-4-.1-5.2-1.7-.7-.9-.7-2.4-.1-3.5 2.2 1.5 5.2.6 6.2-1.4.8-1.7.3-3.9-1.3-5.1-1.7-1.3-4.4-1.3-6 .1 2.1.3 4.3.2 5.6 2.6-.9-.1-1.2-.3-1.6-.4zm-8.4 10.9c-1.8-3.3-1.1-6.6.1-9.9-.1-.1-.2-.1-.3-.2-.3.3-.7.6-.9 1-1.3 2.1-1.4 4.3-1 6.6.8 4.8 4.9 8.3 9.8 8.3.2 0 .4 0 .6-.1-3.5-.9-6.5-2.5-8.3-5.7z" fill="#952f28"/><path d="m19.9 168.9c-.7.8-1.6 2.1-1.3 3.2.5 1.7 1.5 2.7 3.1 2.9 2.4.3 3.9-1 3.3-3.3 0-.1-.2-.5-.2-.7 0-.1.1-.3.2-.3 1.6-.1 3.2 1.4 3.2 3 .3 2 0 4.1-3.2 5.8s-8.6-.3-9.7-4.4c-1-3.7.1-6.9 2.9-9.3 6.7-5.8 16.4-.7 17.9 6.4.3 1.5.2 2.9-.4 4.4-.1.1-.2.2-.3.1-.7-.8-.8-1.8-1.4-2.5-1.3-1.5-4.5-8.2-10.5-5.7-1.7.5-2.3 2.2-2.7 4 0 .2-.2.2-.4.1-.5-.5-.5-2.2-.2-3.4.1-.3-.2-.4-.3-.3zm10.9-1.2c3 2 4.6 6.3 4.4 5-.8-7.7-11.7-8.2-11.7-6.5.1-.1 4.6-.3 7.3 1.5z" fill="#1b6d5e"/><path d="m79.5 164.9c-3.7-2.8-3.7-6.6-2.3-8.2-.7 4.7 1 7.2 4.6 8.2-.6-.8-1-2.3-.7-2.9.4 1.6 1.7 3.5 3.6 3.2-1.3-1-1.5-1.7-1.5-3.1 0-1.5-.9-2-1.7-3.1-.7.7-1.1 1.2-1.5 1.6-1.2-2 .1-5.1 3.4-5.4-.4-1.3-2.5-2.3-4.1-2.4-2.5-.2-4.9 1.3-5.9 3.6-1 2.4-.4 5 1.6 6.6 1.2.8 4.4 2 4.5 1.9z" fill="#c56b2a"/><path d="m81.5 187.7c-.4-.6.8-3 .9-5.4.2-3.2-1.2-7-1.1-8.3-1 .6-3.2 8.7-1.5 10.3-1.6-1.4-1.5-5.8-.9-8.2-.5.3-1.5 4.9-1.5 5.4 0 0 0-1.7.1-2.3 0-.6.4-2.2.5-2.8-2 1.2-2.7 4.8-1.8 7.5.6 2 4.8 4 5.3 3.8z" fill="#c84b2f"/><path d="m37.9 168.2c1.1-1.4 3-6.1 2.9-7.3-.5.4-1.5 1.2-2.1 1.7 0-2.1-1-3.8-3.4-4.2-.1 1.3-.4 2.8-1.1 4-.2-.4-.2-1.2-.4-1.6-.1.1-.5.7-.6.8-.9 2.5 2.6 6.1 2.7 6.1-.1-.4-.8-2.5-.8-2.5s.6 1 .9 1.1c.1-1.1.2-3.2.2-4.2.1 0 .5 4 .7 5.7.3-.8.9-2.1 1.1-2.8.4.1 0 2.4-.1 3.2z" fill="#952f28"/><path d="m98.6 167.9c-1.4 1-2.4-.4-3.4-1-1.1-.7-2.3-.5-3.8.2.8.6 1.3.6 2.2 1.6 0 .1-1.9-1.3-2.7-1.5.8 2 3.1 2.9 4.6 3-1.8.6-3.4-.4-4.8-1.8.4 2.3 2.8 4.4 4.9 4.1 2.4-.2 4.3-2.6 3-4.6z" fill="#304948"/><path d="m65.5 152.2c.9 2 1.3 5.6 5.5 5.9.1-.5-1-1.7-1.3-1.6.9-.1 2.3 2.6 2.1 2.7.8-.7-1.6-4.9-3.2-5.3.4-.1 3.1 1.3 3.6 2.1.4-1.1.3-2.9-.9-3.6s-3.9-.8-5.8-.2z" fill="#c84b2f"/><path d="m98.2 157.1c-1.9 2.9-5.9 4.6-5.7 8.4 1.9 0 4.5-3.9 4.6-4.1.2.3-1.7 3.6-2.4 3.9 0 .3 2.3-1.6 2.3-2.1.1.3-1 2-1.5 2.3 3.5 1 4.8-5.3 2.7-8.4z" fill="#1b6d5e"/><path d="m61.7 177.5 2.1-1.2c-3.1-.9-5.6.8-5.8 3.3 2.9.7 5.3-.5 7.5-2.4-1.2.2-2.5.4-3.7.5 0-.1-.1-.1-.1-.2z" fill="#a12b2f"/><path d="m58.3 190.4c.5 0 .1-.1 2 .1 1.9.3 4.9-.5 5.1-3 0 0-1.3 1-1.7 1 .6-.3 1.8-1.9 1.8-2.4-1.3 1.3-3.4 2.4-4.5 3 .3-.1 3.3-2.6 4-3.8-2.4-.2-3.7.5-4.8 1.6-.7 1-.6 2.3-1.9 3.5z" fill="#1b6d5e"/><path d="m93.8 173.3c.8 4.9 3.4 4.9 5.1 7 1.5-3.3-.3-6.6-3.8-6.7 1 .8 2.5 3.1 2.2 3.1.2-.1-2.4-2.5-3.5-3.4z" fill="#4b8b4a"/><path d="m13.6 172.2c-.2 1.1-.9 2.5-1.5 3.1 0 .1.5-1.4.5-2.2-2.6.6-3.1 3.5-2 5.8 2.6-1 3.9-3.5 3-6.7z" fill="#952f28"/><path d="m10.9 160.2c-1.3 1.8-1.8 5.3 2.4 5.2-1.6-1.1-1.8-2-1.8-2.1 2.1 2.1 3.8 1.7 3.8 1.7-1.5-1.1-1.5-2.2-2-2.8-.6-.9-1.6-1.2-2.4-2z" fill="#4b8b4a"/><path d="m52.4 183.7c-3.5-1-6.5-2.6-8.3-5.8-1.8-3.3-1-6.8.2-10.1-.1-.1-.2-.1-.4 0-.2 0-.7.6-.9 1-1.3 2.1-1.4 4.3-1 6.6.8 4.8 4.9 8.3 9.8 8.3z" fill="#fff"/><path d="m14 169.2s-1.4 2.7-3.2 3.3c-1.9.6-3.1 0-3.1 0s1.4-.9 1.2-1.5c0 0-1.2.9-2.4.9-1.2-.1-3.1-.5-4.5-1.8 0 0 1.9-1.2 2.5-2.2s1.7-1.4 4.2-1.5 3.1.1 6.7-.2c.3 0-3.5 2.8-8.1 3.1 0 0 5.8-.3 6.8-.9 0 0-1.7 1.6-2.7 1.8.1-.1 2.2-.4 2.6-1z" fill="#dfa440"/><path d="m87.5 77.1c-.7 0-1.5.2-2.1 0-1.3-.4-2.7-.9-3.8-1.7-3.1-2.2-6-4.5-8.9-6.8-3.9-3-7.9-5.8-12.7-7-4.5-1.2-8.8-.8-12.2 2.8-1.9 2-2.9 4.3-2.4 7.2.7 3.9 3.9 5.9 7.7 4.9.2 0 .4 0 .7-.1-1.4 2-3.5 1.5-5.3 2 1.4 1.4 4.2 1.7 6 .6s2.6-3.3 1.9-5.2c-.8-2.2-2.7-2.9-6.7-2.4 0-.6-.1-1.3.1-1.8.7-1.6 1.9-2.6 3.6-2.6 3.5 0 5.8 1.9 7.3 4.8s.7 5.6-1.3 7.9c-3.6 4.2-10.6 4.6-15.3.9-3.9-3-5.3-7.2-4.7-11.9.6-4.8 3.5-8 7.9-9.7 6.1-2.3 12.1-1.9 18 .8 4.4 2 8.2 4.9 11.8 8 3.5 3 7.1 5.9 10.6 8.9-.1.1-.1.2-.2.4zm-40.4-16.3c-4.7 2.5-6.7 9.1-4.1 13.5.3.5.9.9 1.4 1.3-.1-.6 0-1.2-.2-1.7-2.1-6.3.8-11.7 7.2-13.5.5-.1 1.1-.3 1.6-.5 0-.1-.1-.3-.1-.4-2.1-.2-4 .3-5.8 1.3z" fill="#1b6d5e"/><path d="m37 68.3c.4 2.7-.9 5.1-2.6 7.2-3.9 4.9-10.8 6.1-15.5 2.6-3.4-2.5-4.8-7.1-3.2-10.8 1.2-2.7 3.9-4.4 6.8-4.2 2.5.2 4.7 2 5.4 4.5.4 1.4.3 2.8-.8 3.9-.6.6-1.2.9-2.1.7l-.1-.1c.4-1.2.7-2.4-.4-3.4s-2.5-.9-3.8-.3c-.5.2-.5.1-1.4 1.2-.8 1-.5 3.8 1.1 4.8.1 0 .1 0 .1-.1-1.2-2 .3-4.1.3-4-.3 1.1.4 4.3 4.9 4.4s9.2-7.6 10-8.6h.1c.7.6 1.1 1.6 1.2 2.2zm-4.9 7.6c1.9-1.3 3.3-3 3.6-5.3-.3-.1-.2-.1-.5-.2-.2.3-.4.5-.6.8-1.8 3-4.3 5.1-7.8 5.7-1 .2-2.1 0-3.2 0-.1 0-.1.1 0 .1 1.6 1.3 5.7.9 8.5-1.1z" fill="#c56b2a"/><path d="m71.1 57.8s2.1 3.2 2.7 4c-.8-2.7-2.7-5.9-4.6-8.1 1.8.8 3.7 3.4 5.6 7.4 1.8-6.7-2.2-10.5-8.3-10 .2 1.7.3 3.5.6 5.2.1.8.5 1.8 1.1 2.4 1.2 1.2 3.4 2.5 4.8 3.6.2-.1-1.9-4.5-1.9-4.5z" fill="#304948"/><path d="m69.7 78.4c-2.5-.3-5-.8-6.9 1.5-1.1 1.4-1.2 4.2-.4 5.8 1.4-.3 2.7-.6 4-.7 2.4-.2 4.3-1.2 5.4-3.4.3-.5.6-1 1.1-1.8-1.2.4-3.2 1-3.2.9.8-.5 1.6-1 2.5-1.6-2.8.3-5 1.6-7.2 3 1.2-1.7 2.9-2.8 4.7-3.7z" fill="#952f28"/><path d="m81.8 55.1c-1.6-.1-4.5 2.1-5.4 4.1-1 2.4-.1 5.5 1.7 7.2-.8-3.1-.4-3.6-.5-4.8.1 0 1.1 4 1.3 4.9-.4-2.7-.6-5.6.7-7.4-.7 3.4.2 6.7 2 9.8 1.1-4.5 2-9.5.2-13.8z" fill="#a22b2e"/><path d="m72.6 86.9c-1.5 1.6-3.7 2.3-3.8 2.2 3.3-2.1 3.5-5.3 3.5-5.3s-.9 2.5-2.7 3.3c-.1 0 1.5-2 1.8-2.4-3.2.2-4.7 3.7-5.5 5.9 1.5 1.1 4.9 1 6.1-.5 1.1-1.5.4-2.3.6-3.2z" fill="#4b8b4a"/><path d="m58.4 63.4c.4 2.5 2.7 4.3 7 3.7-.9-.2-3.6-1.6-3.5-1.8.1.3 3.7.8 4.8.6-1.5-1.9-5.6-3.1-8.3-2.5z" fill="#4b8b4a"/><path d="m10.9 64.1c-1.4 2.2-.5 5.2 1.9 6 0-.6-.3-2.1-.5-2.6.3 0 1.3 2.6 1.4 3.4 1.2-2.5 0-5.5-2.8-6.8z" fill="#952f28"/><path d="m52.9 59.5c-2.1-.2-4 .3-5.8 1.3-4.7 2.5-6.7 9.1-4.1 13.5.3.5.9.9 1.4 1.3-.1-.6 0-1.2-.2-1.7-2.1-6.3.8-11.7 7.2-13.5.5-.1 1.1-.3 1.6-.5 0-.2-.1-.3-.1-.4z" fill="#fff"/><path d="m23.6 76.9c-.1 0-.1.1 0 0 1.6 1.3 5.8 1 8.6-1 2.1-1.5 3.6-3.3 3.6-6.1 0-.1-.1-.1-.1 0-.3.5-.7.9-1 1.3-1.8 3-4.3 5.1-7.8 5.7-1.1.2-2.1.1-3.3.1z" fill="#fff"/><path d="m88.1 22s-3.1-1.4-4.2-6.3c0 0 .5 4.5 2.4 6 0 0-3.5-1.1-4.1-3.2s.4-5.8.4-5.8 2.5 1.3 3.3 1.6c.8.4 2.1 1.6 2.1 3.3-.1 1.1-.2 4.3.1 4.4z" fill="#4ba094"/><path d="m79.5 35.3s-3-2.1-4-3.7c0 0 1.3 3 2.7 3.9 0 0-4 0-5-2.1s-.7-3.8-1.1-4.8c0 0 3.4.2 4.8 1.2 1.3 1 2.5 3.9 2.6 5.5z" fill="#96ba47"/><path d="m64.4 35.5s2.3-.9 3.1-1.4 3.1-.8 5.1.9c0 0-2.1 1.2-4.1 1.2 0 0 3.3.3 5.1-.7 0 0-2.9 2.8-4.8 2.7s-4.2-2.1-4.4-2.7z" fill="#ced33d"/><path d="m81.8 38.2s-3-2-6-1.7-6.3 4.8-6.3 9.3c0 0 1.6-1.5 4-1 2.4.4 5.3-1.1 6.3-2.2s4.7-1.8 5.6-1.3c0 0-2.9-4.1-10.9-.8.1 0 3-2.7 7.3-2.3z" fill="#e0a43f"/><path d="m58.4 52.7s1.1 1.1 1.7 2.4 2 2.8 5.3 2.7c0 0-1.3-2.4-3.9-3.8 0 0 3.2 1.1 4.3 2.8 0 0-.1-3.2-2.5-4.3-2.3-1.1-4.9.2-4.9.2z" fill="#5daa6f"/><path d="m38.4 74.6s1.2 3.3 1.9 4.4.9 2.2.9 2.9c0 0-.6.1-1.8-1.2 0 0-.3 3.3-3.7 4 0 0 0-1.7-.4-2.4s-.5-1.5-.4-2-.6 1.2-.4 1.7c0 0-1.2-.3-.9-1.8s2.2-4 2.7-4.7c0 0 .2 1.1-.5 2.1 0 0 .8-.4 1-.9 0 0 .2 3.4 0 4.2 0 0 1.2-2.4 1-6 0 0 .5 2.9 1 3.2-.1.1-.7-2.8-.4-3.5z" fill="#e0a340"/><path d="m14.4 73.7s-1.4-2.7-3.2-3.3-3.1 0-3.1 0 1.4.9 1.2 1.5c0 0-1.2-.9-2.4-.9s-3.1.5-4.5 1.8c0 0 1.9 1.2 2.5 2.2s1.7 1.4 4.2 1.5 3.1-.1 6.7.2c.3 0-3.5-2.8-8.1-3.1 0 0 5.8.3 6.8.9 0 0-1.7-1.6-2.7-1.8.1.1 2.2.5 2.6 1z" fill="#67a94d"/><path d="m11.3 82.8s.5-1.2 1.6-1.5 1.4-1.8 1.6-2.2 1.2-1.1 1.4-1.1-2-.3-3.9 1.6c0 0 .5-1.6 1.8-2.1 0 0-2-.1-2.7.6-.8.7-1.4 2.5.2 4.7z" fill="#00936f"/><path d="m62.4 69s2.7-1.2 6.5-.4c3.8.7 9 6.2 10.1 6.6 0 0-8.4-2.1-10.7-3.9 0 0 4.3 4 9.6 5.1 0 0-3.5.4-6.4-.7 0 0 2 2.1 8.7 1.6 0 0-5.3 1.5-9.3-.3-4-1.7-5.5-4.3-6.3-5.7-.6-1.5-1.8-2.2-2.2-2.3z" fill="#00936f"/><path d="m80 78s-7 5.4-1.2 9.6c0 0-5-5.3 3.4-9.4 0 0-1.1 2.1-.7 3 0 0 .9-3.5 3.4-3.1 0 0-1.4.6-1.3 2.6 0 2-1.7 3.5-1.7 3.5s-1.2-.7-1.2-1.6c0 0-2 4.9 3 5.3 0 0-1.1 3-4.9 2.7s-5.4-4.3-5.3-6.4c.1-2.3 1.9-5.8 6.5-6.2z" fill="#96ba47"/><path d="m89.7 78.1s-6.2 5.2.3 8.3c0 0-5.7-4.8 2.1-7.7 0 0 .5 2.4.2 3.4-.2.9-1.2 1.3-.6 2.2s1.5 0 1.3-.7c0 0 2.7.9-.6 3.8-1.9 1.7-6.2.9-7.2-3.2-.5-2.5-.2-5.1 4.5-6.1z" fill="#dfa440"/><path d="m22.9 166.3c-.1 0-.1-.1 0-.1 1.6-1.3 5.7-1.1 8.6.7 2.2 1.4 3.7 3.2 3.9 5.9 0 .1-.1.1-.1 0-.3-.5-.7-.8-1-1.3-2-2.9-4.5-4.9-8-5.4-1.2 0-2.3.1-3.4.2z" fill="#fff"/><path d="m177.1 166.3c.1 0 .1-.1 0-.1-1.6-1.3-5.7-1.1-8.6.7-2.2 1.4-3.7 3.2-3.9 5.9 0 .1.1.1.1 0 .3-.5.7-.8 1-1.3 2-2.9 4.5-4.9 8-5.4 1.2 0 2.3.2 3.4.2z" fill="#fff"/><path d="m39.4 149.3h-.8v-7.5h2.3c.4 0 .7 0 1.1.1.3.1.6.2.9.3l.6.6c.1.3.2.6.2.9s-.1.5-.2.7-.2.4-.4.6-.4.3-.6.4-.5.2-.8.2l2.3 3.6h-1l-2.2-3.5h-1.3zm0-4.2h1.4c.6 0 1.1-.1 1.5-.3.3-.2.5-.6.5-1 0-.2 0-.5-.1-.6-.1-.2-.2-.3-.4-.4s-.4-.2-.6-.2-.5-.1-.8-.1h-1.4v2.6z"/><path d="m51.6 148.6h4.2v.7h-5v-7.5h4.9v.7h-4.1v2.6h3.8v.7h-3.8z"/><path d="m66.7 143c-.2-.2-.4-.4-.7-.5s-.6-.2-1-.2c-.2 0-.4 0-.6.1s-.4.1-.5.3c-.2.1-.3.3-.4.4-.1.2-.1.4-.1.6s0 .4.1.6.2.3.4.4.3.2.5.3.4.1.6.2c.3.1.5.2.8.3s.5.2.7.4.4.4.5.6.2.6.2.9c0 .4-.1.7-.2 1s-.3.5-.6.7c-.2.2-.5.3-.8.4s-.6.1-.9.1c-.2 0-.5 0-.7-.1-.2 0-.5-.1-.7-.2s-.4-.2-.6-.3-.3-.3-.5-.5l.7-.5c.2.3.4.5.7.7s.7.3 1.1.3c.2 0 .4 0 .6-.1s.4-.2.6-.3.3-.3.4-.5.2-.4.2-.6c0-.3-.1-.5-.2-.6-.1-.2-.2-.3-.4-.4s-.4-.2-.6-.3-.5-.2-.7-.2c-.3-.1-.5-.2-.8-.3s-.5-.2-.7-.4-.4-.4-.5-.6-.2-.5-.2-.9.1-.7.2-.9c.2-.3.3-.5.6-.6s.5-.3.8-.4.6-.1.9-.1c.5 0 1 .1 1.4.3s.7.4.9.6z"/><path d="m77 149.3h-.8v-6.8h-2.6v-.7h6.1v.7h-2.7z"/><path d="m85.6 149.3h-.9l3.4-7.5h.8l3.4 7.5h-.9l-.9-2h-4.1zm1.2-2.7h3.5l-1.7-4z"/><path d="m101.8 149.5c-.6 0-1.1-.1-1.5-.3s-.7-.4-.9-.7-.4-.6-.5-1-.1-.7-.1-1v-4.7h.8v4.6c0 .3 0 .6.1.9s.2.5.4.8c.2.2.4.4.7.5s.6.2 1 .2.7-.1 1-.2.5-.3.7-.5.3-.5.4-.8.1-.6.1-.9v-4.6h.8v4.7c0 .3 0 .6-.1 1-.1.3-.2.7-.5 1-.2.3-.5.5-.9.7-.5.2-.9.3-1.5.3z"/><path d="m113.1 149.3h-.8v-7.5h2.3c.4 0 .7 0 1.1.1.3.1.6.2.9.3.2.2.4.4.6.6.1.3.2.6.2.9s-.1.5-.2.7-.2.4-.4.6-.4.3-.6.4-.5.2-.8.2l2.3 3.6h-1l-2.2-3.5h-1.3zm0-4.2h1.4c.6 0 1.1-.1 1.5-.3.3-.2.5-.6.5-1 0-.2 0-.5-.1-.6-.1-.2-.2-.3-.4-.4s-.4-.2-.6-.2-.5-.1-.8-.1h-1.4z"/><path d="m124.4 149.3h-.9l3.4-7.5h.8l3.4 7.5h-.9l-.9-2h-4.1zm1.2-2.7h3.5l-1.7-4z"/><path d="m143.4 148.2v-6.4h.8v7.5h-1l-4.6-6.4v6.4h-.8v-7.5h1z"/><path d="m154.4 149.3h-.8v-6.8h-2.6v-.7h6.1v.7h-2.6z"/><path d="m37.4 98.5v12.6c0 1.9.6 3.5 2.9 3.5v.8h-11s0-.5 0-.8c2.3 0 2.9-1.6 2.9-3.5v-6.6h-8.7v6.6c0 1.9.6 3.5 2.9 3.5v.8h-11s0-.5 0-.8c2.3 0 2.9-1.6 2.9-3.5v-12.6c0-1.9-.6-3.5-2.9-3.5 0-.4 0-.9 0-.9h11v.9c-2.3 0-2.9 1.6-2.9 3.5v4.8h8.7v-4.8c0-1.9-.6-3.5-2.9-3.5 0-.4 0-.9 0-.9h11v.9c-2.4 0-2.9 1.6-2.9 3.5z"/><path d="m53.8 115.5s0-.5 0-.9c2.3 0 2.6-1.1 1.6-3.5l-.8-1.7h-7.5s-.3.8-.7 1.7c-.9 2.5 0 3.5 2.4 3.5v.9h-7.6s0-.5 0-.9c2.3 0 3.1-1.6 3.9-3.5l6.8-17h1.5l7.5 17c.9 2 1.3 3.5 3.6 3.5v.9zm.3-7.3-3.4-7.7-3.1 7.7z"/><path d="m83.4 108.8-.5 7s-.3 0-.6 0c-.5-1.8-3.3 0-6.9 0-7.1 0-12-4.7-12-10.9s4.4-10.9 11.7-10.9c3.5 0 6.4 1.8 6.9 0h.6l.5 6.9h-.9c-.8-3.7-2.8-6-7.1-5.7-3.7.2-6.1 3.5-6.1 9.8s2.7 9.7 6.3 9.8c4.3.2 6.3-2.1 7.1-5.9h1z"/><path d="m92.8 98.5v12.6c0 1.9.6 3.5 2.9 3.5v.8h-11s0-.5 0-.8c2.4 0 2.9-1.6 2.9-3.5v-12.6c0-1.9-.5-3.5-2.9-3.5 0-.4 0-.9 0-.9h11v.9c-2.3 0-2.9 1.6-2.9 3.5z"/><path d="m116.5 108.9-.5 6.6h-19s0-.5 0-.8c2.3 0 2.9-1.6 2.9-3.5v-12.7c0-1.9-.6-3.5-2.9-3.5 0-.4 0-.9 0-.9h17.9l.5 6.6s-.3 0-1 0c-1-3-2.5-5.4-5.2-5.4h-4.2v8.8h.4c2.7 0 4.4 0 4.7-3.8h.8v8.8s-.2 0-.8 0c-.3-3.8-2-3.8-4.7-3.8h-.4v8.9h5.3c2.7 0 4.1-2.3 5.1-5.4.7.1 1.1.1 1.1.1z"/><path d="m140.2 94.1v.9c-2.4 0-2.7.9-2.7 3.5v17h-1.9l-14.2-17.7v13.4c0 2.6.7 3.5 3.1 3.5v.8h-7s0-.2 0-.8c2.3 0 2.7-.9 2.7-3.5v-12.7c0-1.9-.4-3.5-2.7-3.5 0-.4 0-.9 0-.9h8.2l10.6 13v-8.7c0-2.6-.7-3.5-3.1-3.5 0-.6 0-.9 0-.9z"/><path d="m164.3 104.8c0 6.3-4.5 10.7-13.3 10.7h-9.5s0-.5 0-.8c2.3 0 2.9-1.6 2.9-3.5v-12.7c0-1.9-.6-3.5-2.9-3.5 0-.4 0-.9 0-.9h9.5c8.8 0 13.3 4.4 13.3 10.7zm-5.5 0c0-6.6-2.9-9.4-8-9.4h-1.3v18.9h1.3c5.1 0 8-2.8 8-9.5z"/><path d="m174.7 115.5s0-.5 0-.9c2.3 0 2.6-1.1 1.6-3.5l-.8-1.7h-7.5s-.3.8-.7 1.7c-.9 2.5 0 3.5 2.4 3.5v.9h-7.6s0-.5 0-.9c2.3 0 3.1-1.6 3.9-3.5l6.8-17h1.5l7.5 17c.9 2 1.3 3.5 3.6 3.5v.9zm.3-7.3-3.4-7.7-3.1 7.7z"/><path d="m23.6 134c0 4.1-4.1 6-10.7 6h-10.3s0-.5 0-.8c2.4 0 2.9-1.6 2.9-3.5v-12.7c0-1.9-.5-3.5-2.9-3.5 0-.4 0-.9 0-.9h9.1c6.6 0 10.2 1.6 10.2 5.3 0 2.3-1.6 3.8-4.1 4.6 3.7.8 5.8 2.6 5.8 5.5zm-12.8-14.1v8.1h1.3c3.2 0 4.6-1.6 4.6-4.1 0-2.1-1-4.1-4.2-4.1zm7.2 14.1c0-2.8-1.7-4.8-5.3-4.8h-1.9v9.6h1.9c3.6 0 5.3-2 5.3-4.8z"/><path d="m43.7 133.4-.5 6.6h-19s0-.5 0-.8c2.3 0 2.9-1.6 2.9-3.5v-12.7c0-1.9-.6-3.5-2.9-3.5 0-.4 0-.9 0-.9h17.9l.5 6.6s-.3 0-1 0c-1-3-2.5-5.4-5.2-5.4h-4.2v8.8h.4c2.7 0 4.4 0 4.7-3.8h.8v8.8s-.2 0-.8 0c-.3-3.8-2-3.8-4.7-3.8h-.4v8.9h5.3c2.7 0 4.1-2.3 5.1-5.4.7.1 1.1.1 1.1.1z"/><path d="m64.1 133.4-.5 6.6h-19s0-.5 0-.8c2.3 0 2.9-1.6 2.9-3.5v-12.7c0-1.9-.6-3.5-2.9-3.5 0-.4 0-.9 0-.9h11v.9c-2.3 0-2.9 1.6-2.9 3.5v15.8h5.3c2.7 0 4.2-2.3 5.1-5.4z"/><path d="m84.8 133.4-.5 6.6h-19s0-.5 0-.8c2.3 0 2.9-1.6 2.9-3.5v-12.7c0-1.9-.6-3.5-2.9-3.5 0-.4 0-.9 0-.9h11v.9c-2.3 0-2.9 1.6-2.9 3.5v15.8h5.3c2.7 0 4.2-2.3 5.1-5.4z"/><path d="m98 140s0-.5 0-.9c2.3 0 2.6-1.1 1.6-3.5l-.8-1.7h-7.5s-.3.8-.7 1.7c-.9 2.5 0 3.5 2.4 3.5v.9h-7.6s0-.5 0-.9c2.3 0 3.1-1.6 3.9-3.5l6.8-17h1.5l7.5 17c.9 2 1.3 3.5 3.6 3.5v.9zm.3-7.3-3.4-7.7-3.1 7.7z"/><path d="m126.3 118.6v.9c-2.4 0-3.2 1.6-3.9 3.5l-6.7 17h-1.5l-7.4-17c-1-2-1.3-3.5-3.7-3.5 0-.6 0-.9 0-.9h10.6v.9c-2.3 0-2.6 1.1-1.6 3.5l4.7 10.6 4.2-10.6c.7-2.6 0-3.5-2.4-3.5 0-.6 0-.9 0-.9z"/><path d="m135.4 123v12.6c0 1.9.6 3.5 2.9 3.5v.8h-11s0-.5 0-.8c2.4 0 2.9-1.6 2.9-3.5v-12.6c0-1.9-.5-3.5-2.9-3.5 0-.4 0-.9 0-.9h11v.9c-2.3 0-2.9 1.6-2.9 3.5z"/><path d="m156.8 134.7c-.6 4.1-5.4 5.8-9.4 5.5-3.9-.2-7.7-1.9-8.3-4.8-.6-2.7 1.3-4.5 3.6-4.3 2.1.2 3.3 1.8 3.3 3-1.4-.1-2.8.7-2.4 2.7.3 1.4 1.8 2.2 3.9 2.3 2.8.2 4.5-1.2 4.8-2.8.5-2.6-1.7-3.5-5-5.2-3.1-1.6-6.9-3.3-6.7-7.4.3-4.8 5-5.5 8.2-5.3 3.4.3 4.5 1.7 4.9-.1h.6l.5 6.9h-1c-.8-3.7-2.2-5.4-5.1-5.7-1.9-.2-3.8.7-3.9 2.6-.2 2.5 3.9 3.9 6.2 5.2 3 1.6 6.5 3.1 5.8 7.4z"/><path d="m176.6 125.2s-.3 0-1 0c-1-3-2.5-5.4-5.1-5.4h-1.6v15.8c0 1.9.5 3.5 2.9 3.5v.8h-11s0-.5 0-.8c2.3 0 2.9-1.6 2.9-3.5v-15.8h-1.6c-2.7 0-4.2 2.3-5.1 5.4-.6 0-1 0-1 0l.5-6.6h19.7z"/><path d="m187.4 140s0-.5 0-.9c2.3 0 2.6-1.1 1.6-3.5l-.8-1.7h-7.5s-.3.8-.7 1.7c-.9 2.5 0 3.5 2.4 3.5v.9h-7.6s0-.5 0-.9c2.3 0 3.1-1.6 3.9-3.5l6.8-17h1.5l7.5 17c.9 2 1.3 3.5 3.6 3.5v.9zm.3-7.3-3.4-7.7-3.1 7.7z"/><path d="m105.8 59.8v7.5c0 1.1.3 2.1 1.7 2.1v.5h-6.4s0-.3 0-.5c1.4 0 3.1-.2 3.1-3.1s-2.3-2.9-2.3-2.9h-3.9v6.1h1.7v.5h-6.4s0-.3 0-.5c1.4 0 1.7-.9 1.7-2.1v-7.5c0-1.1-.3-2.1-1.7-2.1 0-.2 0-.5 0-.5h6.4v.5h-1.7v4.9h4s1.6-.2 1.6-2.4c0-2.1-1.1-2.5-2.4-2.5 0-.2 0-.5 0-.5h6.4v.5c-1.5-.1-1.8.8-1.8 2z"/></svg>