<svg enable-background="new 0 0 200 200" viewBox="0 0 200 200" xmlns="http://www.w3.org/2000/svg"><path d="m194 137.7c-.7.2-1.4.4-2.1.6 1.5-10.5 2.3-21.2 3.9-30.4 1.5-3.6 2.4-7.6 2.8-11.3.1-1-7.6.2-8.2 1.8-1.5 4.3-2.6 8.7-3.3 13.1-2.4 5.2-6.4 8.9-12.5 6.2-5.4-2.4-4.5-11.5-7.5-15.7-1.3-1.8-8.8 1.4-8.3 2.1 3.2 4.6 2.5 10.4 6.2 14.7 3.1 3.7 9.8 3.5 14.1 2.9 2.5-.3 4.8-1 6.8-2.1-.9 7.1-1.5 14.2-2.5 21.3-13.4 4.4-26.1 10.4-36.1 21-10.6 11.3-2 24.5 12.6 21.8 21.7-4 28.4-22.5 31.7-42.6 2.2-.7 4.4-1.5 6.5-2.3 5.1-2 1.6-2.6-4.1-1.1zm-19.4 30.8c-3.8 6.5-14.5 17.9-22.2 8.9-4.2-4.9-.3-12.7 2.9-17 6.2-8.4 16.9-12.8 27.5-16.4-1.4 8.5-3.7 16.8-8.2 24.5z"/><path d="m72.7 124.8c-5.1-15.3-.5-42.6-16.8-50.7-6.9-3.4-15.8-1.8-22.8 2.2.9-12-6.3-21.1-19.9-18.6-9.4 1.8-19.1 11.8-10.3 20.6 4.9 4.9 16.6-.1 18.4-5.6.4-1.1-6.6-.3-7.2 1.4-1.5 4.5-4.5 2.3-6.3-.7-1.9-3.3-.5-7.8 1.2-10.8 4.4-7.7 13.5.9 15.5 4.3 2.1 3.6 1.5 8.6 1.2 12.5-1.5 16.5-11.3 30.5-21.8 42.7-.2.3 5.8.2 7.2-1.4 10.3-12 17.9-24.2 21.3-39.7 4.3-4.2 10-5.8 15.9-4.9 7 1 10 7.5 12.1 13.9 3.9 11.7 2.5 24.6 6.4 36.4.6 2.1 6.5.2 5.9-1.6z"/><path d="m131.4 127.1c6.5 1.5 12.4-2.4 16.8-8.2 2.3 7.8 7.9 13.8 18 13.7 3.2 0 8.3-4.9 3-4.9-12.2.1-15-12-14.2-22.4.7-2.5 1.1-4.9 1.1-7 0-.2 0-.4 0-.6-.1-3.1-7.4-.8-7.9 1.5-.6 2.4-1 4.8-1.1 7.4-2.3 7.8-7.7 17.8-13.8 14.7-7.7-3.9 4.9-18 10.2-18.3 4.1-.2 6.4-5.1 1-4.8-10.3.5-31.2 20.1-16.3 27.7.2.1.4.2.5.3-13.5-1.2-12.8-13-12.3-19.9.7-9.2 2.1-18.4 2.9-27.6 8 .2 15.9 1.2 23.9 1.9 2.8.2 10.9-4 5.7-4.5-9.9-.9-19.5-2-29.3-2.1.1-2.2.2-4.3.2-6.5 0-.9-9-.1-9 1.6s-.1 3.5-.2 5.2c-1.9.1-3.8.3-5.7.6-4.4.6-7.8 5.4-1.3 4.5 2.2-.3 4.4-.5 6.7-.6-1 11.3-3.1 22.5-3.2 33.8v.8c-1.3 3.1-3.9 6.7-8.3 7.2-5 .5-9.2-4.3-10.9-7.4-4.3-7.7-2.2-17.2-2.8-25.4-.3-4.9-12.3-3.3-12 .8.8 12.5-2.9 29.5 13.4 36.9 9.5 4.3 17.3 1.5 22.6-4 2.4 4.1 7.2 7.1 16 7.1 1.1 0 4.6-.9 6.3-1.5z"/><path d="m109.5 145.6v.7.7l-4.6-7.7h-1.5v9.5h1v-7c0-.2 0-.4 0-.6v-.6l4.9 8.3h1.1v-9.5h-.9z"/><path d="m119.4 144.3c0-1.1-.2-1.8-.6-2.2s-1.1-.6-2.1-.6c-1.8 0-2.8.6-3.1 1.9l1 .2c.2-.8.8-1.3 1.9-1.3.5 0 .8.1 1.1.2s.5.3.5.6c.1.3.1.6.1 1.2-.4 0-.7 0-.9 0-1.4 0-2.5.2-3.1.7s-.9 1-.9 1.8c0 .6.2 1.1.6 1.5s1 .6 1.8.6c1.2 0 2-.5 2.5-1.5 0 .6.1 1 .1 1.3h1.1c-.1-.4-.1-.9-.1-1.4zm-1.6 3c-.4.5-1 .7-1.6.7-.5 0-.9-.1-1.1-.4-.2-.2-.4-.5-.4-.9 0-.5.2-1 .7-1.2.5-.3 1.1-.4 2-.4h1v.5c0 .7-.2 1.2-.6 1.7z"/><path d="m124.2 146.9v-4.4h1.6v-.9h-1.6v-1.9l-1 .1v1.8h-1.2v.9h1.2v4.2c0 1.4.7 2.1 2 2.1.3 0 .6 0 1-.1v-.9c-.3.1-.6.1-.8.1-.9.1-1.2-.3-1.2-1z"/><path d="m128.6 139.2h1.2v1.2h-1.2z"/><path d="m128.7 141.7h1.1v7h-1.1z"/><path d="m135.5 147.4-1.9-5.7h-1.2l2.5 7h1.1l2.4-7h-.9z"/><path d="m145.2 147.4c0 .6.1 1 .1 1.3h1.1c-.1-.4-.1-.9-.1-1.4v-3c0-1.1-.2-1.8-.6-2.2s-1.1-.6-2.1-.6c-1.8 0-2.8.6-3.1 1.9l1 .2c.2-.8.8-1.3 1.9-1.3.5 0 .8.1 1.1.2s.5.3.5.6c.1.3.1.6.1 1.2-.4 0-.7 0-.9 0-1.4 0-2.5.2-3.1.7s-.9 1-.9 1.8c0 .6.2 1.1.6 1.5s1 .6 1.8.6c1.3 0 2.1-.5 2.6-1.5zm-3.7-.6c0-.5.2-1 .7-1.2.5-.3 1.1-.4 2-.4h1v.5c0 .6-.2 1.2-.6 1.7s-1 .7-1.6.7c-.5 0-.9-.1-1.1-.4-.3-.3-.4-.6-.4-.9z"/><path d="m53.8 148.7h1.2v-4.5h3.8v-.9h-3.8v-3h4.6v-1.1h-5.8z"/><path d="m66.2 145.6c0 .4-.1.8-.3 1.2s-.4.7-.7.9-.6.3-1 .3c-.3 0-.7-.1-1-.4s-.4-.7-.4-1.4v-4.5h-1.1v4.5c0 .9.2 1.5.6 2s1 .7 1.7.7c1 0 1.7-.5 2.2-1.5v1.3h1v-7h-1.1z"/><path d="m75.7 142.4c-.6-.6-1.3-1-2.2-1s-1.7.3-2.3 1-.9 1.6-.9 2.7.3 2 .9 2.6c.6.7 1.4 1 2.3 1 .7 0 1.4-.2 1.9-.6s.9-.9 1.1-1.5l-1-.2c-.4.9-1 1.4-1.9 1.4-.5 0-1-.2-1.4-.6s-.7-1.1-.7-2.1h5.1c0-1.1-.3-2-.9-2.7zm-4.2 2.1c0-.7.3-1.2.6-1.6.4-.4.8-.6 1.4-.6.4 0 .7.1 1 .3s.5.5.6.8.2.7.2 1z"/><path d="m81.5 141.8c-.3.2-.7.7-1 1.5v-1.6h-1v7h1.1v-3.7c0-.7.2-1.3.6-1.8.4-.4.9-.7 1.5-.7h.2v-1c-.2 0-.3 0-.4 0-.3 0-.6.1-1 .3z"/><path d="m85.4 142.5h3.4l-3.7 5.4v.8h5.1v-.8h-3.8l3.8-5.6v-.6h-4.8z"/><path d="m98.4 144.4c0-1.1-.2-1.8-.6-2.2s-1.1-.6-2.1-.6c-1.8 0-2.8.6-3.1 1.9l1 .2c.2-.8.8-1.3 1.9-1.3.5 0 .8.1 1.1.2s.5.3.5.6c.1.3.1.7.1 1.2-.4 0-.7 0-.9 0-1.4 0-2.5.2-3.1.7s-.9 1-.9 1.7c0 .6.2 1.1.6 1.5s1 .6 1.8.6c1.2 0 2-.5 2.5-1.5 0 .6.1 1 .1 1.3h1.1c-.1-.4-.1-.9-.1-1.4zm-1.7 2.9c-.4.5-1 .7-1.6.7-.5 0-.9-.1-1.1-.4-.3-.2-.4-.5-.4-.9 0-.5.2-1 .7-1.2.5-.3 1.1-.4 2-.4h1v.5c.1.7-.1 1.2-.6 1.7z"/><path d="m40.8 139.7c-7.3 2.2-12.2.3-12.2.3 4.6 7.9 14.6 5.4 14.6 5.4-.5 3.5-5 3.9-5 3.9 2.8 1.3 5.8.4 5.8.4 5.1-1.5 3.2-7 3.2-7-1.4-4.3-6.4-3-6.4-3z"/><path d="m79.9 75.3c-2.9-16.3 8-31.6 21.8-39.3-10.3 7.9-23.7 26.5-18.8 41.9 8.7-14.8 24.1-25.5 30.8-41.6 2.4-6 4.2-15.7-.7-20.5-20.9 9.8-54.2 34.4-36.2 59.8 3.4 3.1 4.9 6.4 3.1-.3z"/><path d="m93.3 70c-.6 1.5-4.9 7.3-.7 4.3 15.3-8.7 32.4-13.2 47.5-22.4 1.6-1 4.3-1.6.8-2.3-3.9-1.1-8-1.6-12-1.7-14.9-.1-28.2 9.5-35.6 22.1z"/><path d="m70.1 77.8c.7.3 1.6.4 1.3-.6 1-14-11.8-22.9-14-36-3.6 4.8-5.9 11.3-6.1 17.4-.5 10.5 9.5 17.1 18.8 19.2z"/><path d="m190.7 85.2h1 .5c.1 0 .3.1.4.2s.3.2.4.4c.2.2.4.5.6.9l.9 1.4h1.1l-1.2-1.8c-.2-.3-.5-.6-.7-.9-.1-.1-.3-.2-.5-.3.6-.1 1.1-.3 1.4-.6s.5-.7.5-1.2c0-.4-.1-.7-.3-1s-.4-.5-.7-.6-.8-.2-1.3-.2h-2.9v6.6h.9zm0-3h2.1c.5 0 .8.1 1.1.3.2.2.3.5.3.8 0 .2-.1.4-.2.6s-.3.3-.5.4-.5.1-.9.1h-1.9z"/><path d="m192.7 91.4c3.7 0 6.6-3 6.6-6.6 0-3.7-3-6.6-6.6-6.6-3.7 0-6.6 3-6.6 6.6 0 3.7 2.9 6.6 6.6 6.6zm0-12.4c3.2 0 5.8 2.6 5.8 5.8s-2.6 5.8-5.8 5.8-5.8-2.6-5.8-5.8 2.6-5.8 5.8-5.8z"/><g fill="#634015"><path d="m194 137.7c-.7.2-1.4.4-2.1.6 1.5-10.5 2.3-21.2 3.9-30.4 1.5-3.6 2.4-7.6 2.8-11.3.1-1-7.6.2-8.2 1.8-1.5 4.3-2.6 8.7-3.3 13.1-2.4 5.2-6.4 8.9-12.5 6.2-5.4-2.4-4.5-11.5-7.5-15.7-1.3-1.8-8.8 1.4-8.3 2.1 3.2 4.6 2.5 10.4 6.2 14.7 3.1 3.7 9.8 3.5 14.1 2.9 2.5-.3 4.8-1 6.8-2.1-.9 7.1-1.5 14.2-2.5 21.3-13.4 4.4-26.1 10.4-36.1 21-10.6 11.3-2 24.5 12.6 21.8 21.7-4 28.4-22.5 31.7-42.6 2.2-.7 4.4-1.5 6.5-2.3 5.1-2 1.6-2.6-4.1-1.1zm-19.4 30.8c-3.8 6.5-14.5 17.9-22.2 8.9-4.2-4.9-.3-12.7 2.9-17 6.2-8.4 16.9-12.8 27.5-16.4-1.4 8.5-3.7 16.8-8.2 24.5z"/><path d="m72.7 124.8c-5.1-15.3-.5-42.6-16.8-50.7-6.9-3.4-15.8-1.8-22.8 2.2.9-12-6.3-21.1-19.9-18.6-9.4 1.8-19.1 11.8-10.3 20.6 4.9 4.9 16.6-.1 18.4-5.6.4-1.1-6.6-.3-7.2 1.4-1.5 4.5-4.5 2.3-6.3-.7-1.9-3.3-.5-7.8 1.2-10.8 4.4-7.7 13.5.9 15.5 4.3 2.1 3.6 1.5 8.6 1.2 12.5-1.5 16.5-11.3 30.5-21.8 42.7-.2.3 5.8.2 7.2-1.4 10.3-12 17.9-24.2 21.3-39.7 4.3-4.2 10-5.8 15.9-4.9 7 1 10 7.5 12.1 13.9 3.9 11.7 2.5 24.6 6.4 36.4.6 2.1 6.5.2 5.9-1.6z"/><path d="m131.4 127.1c6.5 1.5 12.4-2.4 16.8-8.2 2.3 7.8 7.9 13.8 18 13.7 3.2 0 8.3-4.9 3-4.9-12.2.1-15-12-14.2-22.4.7-2.5 1.1-4.9 1.1-7 0-.2 0-.4 0-.6-.1-3.1-7.4-.8-7.9 1.5-.6 2.4-1 4.8-1.1 7.4-2.3 7.8-7.7 17.8-13.8 14.7-7.7-3.9 4.9-18 10.2-18.3 4.1-.2 6.4-5.1 1-4.8-10.3.5-31.2 20.1-16.3 27.7.2.1.4.2.5.3-13.5-1.2-12.8-13-12.3-19.9.7-9.2 2.1-18.4 2.9-27.6 8 .2 15.9 1.2 23.9 1.9 2.8.2 10.9-4 5.7-4.5-9.9-.9-19.5-2-29.3-2.1.1-2.2.2-4.3.2-6.5 0-.9-9-.1-9 1.6s-.1 3.5-.2 5.2c-1.9.1-3.8.3-5.7.6-4.4.6-7.8 5.4-1.3 4.5 2.2-.3 4.4-.5 6.7-.6-1 11.3-3.1 22.5-3.2 33.8v.8c-1.3 3.1-3.9 6.7-8.3 7.2-5 .5-9.2-4.3-10.9-7.4-4.3-7.7-2.2-17.2-2.8-25.4-.3-4.9-12.3-3.3-12 .8.8 12.5-2.9 29.5 13.4 36.9 9.5 4.3 17.3 1.5 22.6-4 2.4 4.1 7.2 7.1 16 7.1 1.1 0 4.6-.9 6.3-1.5z"/><path d="m109.5 145.6v.7.7l-4.6-7.7h-1.5v9.5h1v-7c0-.2 0-.4 0-.6v-.6l4.9 8.3h1.1v-9.5h-.9z"/><path d="m119.4 144.3c0-1.1-.2-1.8-.6-2.2s-1.1-.6-2.1-.6c-1.8 0-2.8.6-3.1 1.9l1 .2c.2-.8.8-1.3 1.9-1.3.5 0 .8.1 1.1.2s.5.3.5.6c.1.3.1.6.1 1.2-.4 0-.7 0-.9 0-1.4 0-2.5.2-3.1.7s-.9 1-.9 1.8c0 .6.2 1.1.6 1.5s1 .6 1.8.6c1.2 0 2-.5 2.5-1.5 0 .6.1 1 .1 1.3h1.1c-.1-.4-.1-.9-.1-1.4zm-1.6 3c-.4.5-1 .7-1.6.7-.5 0-.9-.1-1.1-.4-.2-.2-.4-.5-.4-.9 0-.5.2-1 .7-1.2.5-.3 1.1-.4 2-.4h1v.5c0 .7-.2 1.2-.6 1.7z"/><path d="m124.2 146.9v-4.4h1.6v-.9h-1.6v-1.9l-1 .1v1.8h-1.2v.9h1.2v4.2c0 1.4.7 2.1 2 2.1.3 0 .6 0 1-.1v-.9c-.3.1-.6.1-.8.1-.9.1-1.2-.3-1.2-1z"/><path d="m128.6 139.2h1.2v1.2h-1.2z"/><path d="m128.7 141.7h1.1v7h-1.1z"/><path d="m135.5 147.4-1.9-5.7h-1.2l2.5 7h1.1l2.4-7h-.9z"/><path d="m145.2 147.4c0 .6.1 1 .1 1.3h1.1c-.1-.4-.1-.9-.1-1.4v-3c0-1.1-.2-1.8-.6-2.2s-1.1-.6-2.1-.6c-1.8 0-2.8.6-3.1 1.9l1 .2c.2-.8.8-1.3 1.9-1.3.5 0 .8.1 1.1.2s.5.3.5.6c.1.3.1.6.1 1.2-.4 0-.7 0-.9 0-1.4 0-2.5.2-3.1.7s-.9 1-.9 1.8c0 .6.2 1.1.6 1.5s1 .6 1.8.6c1.3 0 2.1-.5 2.6-1.5zm-3.7-.6c0-.5.2-1 .7-1.2.5-.3 1.1-.4 2-.4h1v.5c0 .6-.2 1.2-.6 1.7s-1 .7-1.6.7c-.5 0-.9-.1-1.1-.4-.3-.3-.4-.6-.4-.9z"/><path d="m53.8 148.7h1.2v-4.5h3.8v-.9h-3.8v-3h4.6v-1.1h-5.8z"/><path d="m66.2 145.6c0 .4-.1.8-.3 1.2s-.4.7-.7.9-.6.3-1 .3c-.3 0-.7-.1-1-.4s-.4-.7-.4-1.4v-4.5h-1.1v4.5c0 .9.2 1.5.6 2s1 .7 1.7.7c1 0 1.7-.5 2.2-1.5v1.3h1v-7h-1.1z"/><path d="m75.7 142.4c-.6-.6-1.3-1-2.2-1s-1.7.3-2.3 1-.9 1.6-.9 2.7.3 2 .9 2.6c.6.7 1.4 1 2.3 1 .7 0 1.4-.2 1.9-.6s.9-.9 1.1-1.5l-1-.2c-.4.9-1 1.4-1.9 1.4-.5 0-1-.2-1.4-.6s-.7-1.1-.7-2.1h5.1c0-1.1-.3-2-.9-2.7zm-4.2 2.1c0-.7.3-1.2.6-1.6.4-.4.8-.6 1.4-.6.4 0 .7.1 1 .3s.5.5.6.8.2.7.2 1z"/><path d="m81.5 141.8c-.3.2-.7.7-1 1.5v-1.6h-1v7h1.1v-3.7c0-.7.2-1.3.6-1.8.4-.4.9-.7 1.5-.7h.2v-1c-.2 0-.3 0-.4 0-.3 0-.6.1-1 .3z"/><path d="m85.4 142.5h3.4l-3.7 5.4v.8h5.1v-.8h-3.8l3.8-5.6v-.6h-4.8z"/><path d="m98.4 144.4c0-1.1-.2-1.8-.6-2.2s-1.1-.6-2.1-.6c-1.8 0-2.8.6-3.1 1.9l1 .2c.2-.8.8-1.3 1.9-1.3.5 0 .8.1 1.1.2s.5.3.5.6c.1.3.1.7.1 1.2-.4 0-.7 0-.9 0-1.4 0-2.5.2-3.1.7s-.9 1-.9 1.7c0 .6.2 1.1.6 1.5s1 .6 1.8.6c1.2 0 2-.5 2.5-1.5 0 .6.1 1 .1 1.3h1.1c-.1-.4-.1-.9-.1-1.4zm-1.7 2.9c-.4.5-1 .7-1.6.7-.5 0-.9-.1-1.1-.4-.3-.2-.4-.5-.4-.9 0-.5.2-1 .7-1.2.5-.3 1.1-.4 2-.4h1v.5c.1.7-.1 1.2-.6 1.7z"/><path d="m40.8 139.7c-7.3 2.2-12.2.3-12.2.3 4.6 7.9 14.6 5.4 14.6 5.4-.5 3.5-5 3.9-5 3.9 2.8 1.3 5.8.4 5.8.4 5.1-1.5 3.2-7 3.2-7-1.4-4.3-6.4-3-6.4-3z"/></g><g fill="#c61869"><path d="m79.9 75.3c-2.9-16.3 8-31.6 21.8-39.3-10.3 7.9-23.7 26.5-18.8 41.9 8.7-14.8 24.1-25.5 30.8-41.6 2.4-6 4.2-15.7-.7-20.5-20.9 9.8-54.2 34.4-36.2 59.8 3.4 3.1 4.9 6.4 3.1-.3z"/><path d="m93.3 70c-.6 1.5-4.9 7.3-.7 4.3 15.3-8.7 32.4-13.2 47.5-22.4 1.6-1 4.3-1.6.8-2.3-3.9-1.1-8-1.6-12-1.7-14.9-.1-28.2 9.5-35.6 22.1z"/><path d="m70.1 77.8c.7.3 1.6.4 1.3-.6 1-14-11.8-22.9-14-36-3.6 4.8-5.9 11.3-6.1 17.4-.5 10.5 9.5 17.1 18.8 19.2z"/></g><path d="m190.7 85.2h1 .5c.1 0 .3.1.4.2s.3.2.4.4c.2.2.4.5.6.9l.9 1.4h1.1l-1.2-1.8c-.2-.3-.5-.6-.7-.9-.1-.1-.3-.2-.5-.3.6-.1 1.1-.3 1.4-.6s.5-.7.5-1.2c0-.4-.1-.7-.3-1s-.4-.5-.7-.6-.8-.2-1.3-.2h-2.9v6.6h.9zm0-3h2.1c.5 0 .8.1 1.1.3.2.2.3.5.3.8 0 .2-.1.4-.2.6s-.3.3-.5.4-.5.1-.9.1h-1.9z" fill="#634015"/><path d="m192.7 91.4c3.7 0 6.6-3 6.6-6.6 0-3.7-3-6.6-6.6-6.6-3.7 0-6.6 3-6.6 6.6 0 3.7 2.9 6.6 6.6 6.6zm0-12.4c3.2 0 5.8 2.6 5.8 5.8s-2.6 5.8-5.8 5.8-5.8-2.6-5.8-5.8 2.6-5.8 5.8-5.8z" fill="#634015"/></svg>