<svg enable-background="new 0 0 200 200" viewBox="0 0 200 200" xmlns="http://www.w3.org/2000/svg"><g fill="#0095d7"><path d="m28 78.5-7 30.4h-3.4l-8.7-22.7-5.3 22.6h-3.6l7-30.4h3.4l8.6 22.4 5.2-22.4h3.8z"/><path d="m34.8 108.8c-2.5 0-4.6-.9-6.1-2.4-1.8-1.8-2.4-4.4-1.7-7.1l4.9-21h3.7l-4.9 21c-.9 3.7 2.4 5.7 5 5.7h.4c2.7 0 6.8-2 7.6-5.7l4.9-21h3.7l-4.9 21c-.6 2.7-2.4 5.2-5.1 7.1-2.2 1.5-4.8 2.4-7.1 2.4z"/><path d="m58.7 108.9h-3.7l6.2-26.7h-8.3l.9-3.8h20.4l-.9 3.8h-8.3z"/><path d="m68.4 108.8 7-30.4h8.7c4.8 0 7.9 4 6.7 9.1-.8 3.6-3.9 7-7.4 8.4.2.7.6 1.5.9 2.2.5 1.6 1 3.2 1.6 4.6.3.9.7 1.8 1 2.8h-.1c.3.9.9 2.4 1.1 3.3h-4.5l-4.3-12.2h-4.5l-2.6 12.2zm7.3-16h5.1c2.8 0 5.7-2.3 6.3-5.3.7-2.9-1.1-5.3-3.9-5.3h-5.1z"/><path d="m95 108.8h-3.7l7.1-30.5h3.7z"/><path d="m109 108.9h-3.7l6.2-26.7h-8.3l.9-3.8h20.4l-.9 3.8h-8.3z"/><path d="m123.3 108.8h-3.7l7.1-30.5h3.7z"/><path d="m138.3 108.7c-2.2 0-4.4-.9-5.9-2.3s-2.3-3.7-2.3-5.8c0-1.8.4-4.3 1-7 .6-2.6 1.4-5.2 2.2-7 1-2.1 2.9-4.4 5-5.8 2.2-1.4 4.8-2.3 7-2.3h1.3c2.2 0 4.5.9 6 2.3s2.4 3.7 2.3 5.8c-.1 1.8-.5 4.5-1 7-.6 2.6-1.4 5.2-2.2 7-.8 2.1-2.8 4.4-5 5.8s-4.9 2.3-7.1 2.3zm6.1-26.5c-2.8 0-6.3 2.6-7.7 5.1v-.1c-.7 1.8-1.4 4.2-1.9 6.3s-.9 4.5-1 6.2v-.1c.1 2.6 2.5 5.1 5.3 5.1h1.3c2.8 0 6.3-2.6 7.7-5.1v.1c.8-1.8 1.4-4.1 1.9-6.2s.9-4.5 1-6.3v.1c-.2-2.6-2.5-5.1-5.3-5.1z"/><path d="m182.3 78.5-7 30.4h-3.4l-8.6-22.6-5.3 22.6h-3.7l7-30.4h3.4l8.6 22.4 5.2-22.4z"/></g><path d="m91.5 134.9.1-1 9.2-11.5c.8-1 1.5-1.8 1.9-2.2.5-.5.9-.9 1.4-1.2h-9.7l.6-4.9h18.8l-.1 1-9.6 12.1c-.7.9-1.2 1.5-1.6 1.9s-.7.7-1.1 1h10.3l-.7 4.9z" fill="#96c11e"/><path d="m122.6 113.4c3.3 0 5.9.9 7.8 2.8s2.9 4.4 2.9 7.6c0 3.5-1.1 6.3-3.4 8.6-2.3 2.2-5.2 3.4-8.8 3.4-3.2 0-5.7-.9-7.6-2.8s-2.9-4.3-2.9-7.4c0-3.5 1.1-6.4 3.4-8.7 2.2-2.4 5.1-3.5 8.6-3.5zm0 5.5c-1.8 0-3.2.6-4.3 1.8s-1.6 2.8-1.6 4.8c0 1.5.4 2.7 1.2 3.5.8.9 1.9 1.3 3.3 1.3 1.8 0 3.2-.6 4.3-1.8s1.7-2.7 1.7-4.6c0-1.6-.4-2.8-1.2-3.6-.8-1-1.9-1.4-3.4-1.4z" fill="#96c11e"/><path d="m132.1 134.9 2.7-20.8h5.6l-.5 3.3c1.3-1.4 2.5-2.4 3.8-3 1.2-.6 2.6-1 3.9-1 2.2 0 4 .6 5.2 1.7 1.3 1.1 1.9 2.6 1.9 4.6 0 .8-.1 2-.4 3.8 0 .2 0 .4-.1.5l-1.4 11h-6l1.5-11.6c0-.4.1-.8.1-1.1s0-.6 0-.8c0-1-.3-1.7-.8-2.3-.6-.5-1.3-.8-2.3-.8-1.8 0-3.1.5-4.1 1.5s-1.6 2.6-1.9 4.8l-1.3 10.2z" fill="#96c11e"/><path d="m160.3 125.8v.5c0 1.4.4 2.5 1.3 3.3s2.1 1.2 3.6 1.2c1.1 0 2-.2 2.8-.7s1.6-1.2 2.4-2.2l4 3.3c-1 1.5-2.3 2.6-3.9 3.4-1.6.7-3.5 1.1-5.6 1.1-3.2 0-5.8-.9-7.7-2.8s-2.9-4.4-2.9-7.5c0-3.5 1.1-6.4 3.3-8.6 2.2-2.3 5-3.4 8.4-3.4 3.1 0 5.6.9 7.4 2.8s2.7 4.5 2.7 7.8c0 .3 0 .9-.1 1.6v.1zm.3-3.5h9.8c0-1.4-.4-2.5-1.1-3.3s-1.8-1.2-3.1-1.2c-1.4 0-2.6.4-3.5 1.1-1 .8-1.7 1.9-2.1 3.4z" fill="#96c11e"/><path d="m187.9 91.8c2.6-4.2 18.5-32.3-29-39.6-59.4-9.2-97.7 14.7-97.7 14.7s38.3-27.7 95.8-21.7c60.7 6.3 41 46.5 35.5 51.1-3.2 2.8-9.2 2.8-4.6-4.5z" fill="#0095d7"/><path d="m121.6 142.9s-43.8 20.7-86.6 9.2c-30.4-8.2-32.8-35.5-24.9-35.5 6.9 0 .6 14.4 18 24.9 29 17.5 93.5 1.4 93.5 1.4z" fill="#0095d7"/></svg>