<svg enable-background="new 0 0 200 200" viewBox="0 0 200 200" xmlns="http://www.w3.org/2000/svg"><g fill="#3879c5"><path d="m138 112.2c.3-.9.5-1.7.7-2.2s.5-1.1 1-1.7h-10.2c.1.4.2.8.2 1.2 0 .7-.1 1.3-.2 1.8l-4.1 15.9c-.2 1-.5 1.7-.7 2.2s-.5 1.1-1 1.7h10.3c-.1-.4-.2-.8-.2-1.2 0-.6.1-1.3.2-1.8z"/><path d="m80.6 131.2h11.7c1.2 0 2.3-.1 3-.3.8-.2 1.5-.5 2.1-1 .5-.4.9-.9 1.2-1.4s.6-1.3.8-2.2l2.9-11.3c.2-.8.3-1.5.3-2 0-1.5-.6-2.7-1.7-3.6-.5-.4-1-.6-1.6-.8s-1.5-.2-2.7-.2h-11.1c-2 0-3.7.3-4.9 1-.7.4-1.2.8-1.6 1.5-.4.6-.7 1.5-1 2.6l-2.9 11.2c-.3 1-.4 1.7-.4 2.2 0 1.4.5 2.5 1.6 3.4.5.4 1 .7 1.5.8.5 0 1.4.1 2.8.1m3.1-5.9 2.8-11.1c.2-.9.5-1.5.8-1.8s.9-.4 1.7-.4h3.2c1.1 0 1.7.3 1.7 1 0 .2 0 .4-.1.7 0 .1-.1.3-.2.6l-2.9 11.1c-.2.9-.5 1.5-.7 1.7s-.7.3-1.4.3h-3.3c-.6 0-1.1 0-1.4-.1-.4-.2-.6-.5-.6-.8.1-.2.2-.6.4-1.2"/><path d="m196.6 108.5c-.6-.1-1.4-.2-2.6-.2h-18c.2.4.2.8.2 1.2 0 .7-.1 1.3-.2 1.8l-4.1 15.9c-.2.9-.5 1.7-.7 2.2s-.5 1.1-1 1.7h10.2c-.1-.4-.2-.8-.2-1.2 0-.6.1-1.3.2-1.8l1.3-5.1h9.3c1.5 0 2.5-.1 3.1-.2s1.2-.4 1.8-.8c1.1-.8 1.8-2.1 2.3-4l1.1-4.1c.2-.7.3-1.2.3-1.6 0-1.3-.5-2.3-1.5-3.2-.4-.2-.9-.5-1.5-.6m-6 5.4-.9 3.3c-.2.9-.5 1.5-.9 1.7-.3.3-1 .4-2 .4h-4.1l1.9-7.2h4.2c.7 0 1.1.1 1.4.2.3.2.4.5.4.9.1.2.1.4 0 .7"/><path d="m106.6 111.3-4.1 15.9c-.2 1-.5 1.7-.7 2.2s-.5 1.1-1 1.7h21l1.7-4.3c-.7.2-1.5.4-2.3.4-.8.1-2.2.1-4.2.1h-5.7l3.9-15.2c.2-1 .5-1.7.7-2.2s.5-1.1 1-1.7h-10.2c.1.4.2.8.2 1.2 0 .8-.1 1.4-.3 1.9"/><path d="m152.6 131.2 10.4-18-3.7 14.1c-.2.9-.5 1.7-.7 2.2s-.5 1.1-1 1.7h10.3c-.1-.4-.2-.8-.2-1.2 0-.7.1-1.3.2-1.8l4.1-15.9c.2-1 .5-1.7.7-2.2s.5-1.1 1-1.7h-12.2l-7.2 12.5-.8-12.5h-11.6c.1.4.2.8.2 1.2 0 .7-.1 1.3-.2 1.8l-4.1 15.9c-.2.9-.5 1.7-.7 2.2s-.5 1.1-1 1.7h5.2c-.2-.4-.2-.8-.2-1.2 0-.6.1-1.2.2-1.8l3.9-15 1.2 18z"/><path d="m69.5 98 7.4 7.4 10.1-2.7 10.1-2.7 2.7-10.1 2.7-10.1-7.4-7.4-7.4-7.3-10.1 2.7-10.1 2.7-2.7 10-2.7 10.1z"/><path d="m58.6 94.4-10.1 2.7-10.1 2.7-2.7 10.1-2.7 10.1 7.4 7.4 7.4 7.3 10.1-2.7 10-2.7 2.7-10 2.7-10.1-7.3-7.4z"/><path d="m52.5 139.2c-.2-.1-.3-.2-.5-.2s-.5 0-.9 0h-5.7c0 .1.1.3.1.4 0 .2 0 .4-.1.6l-1.4 5.3c-.1.3-.2.6-.2.7-.1.2-.2.4-.3.6h3.5c0-.1-.1-.3-.1-.4 0-.2 0-.4.1-.6l.6-2.3h.7l.6 3.3h3.2c-.2-.1-.3-.3-.3-.4-.1-.1-.1-.3-.2-.5l-.5-2.4h.2c.4 0 .8-.1 1-.3.1-.1.2-.2.2-.2 0-.1.1-.3.2-.6l.3-1.3c0-.2.1-.3.1-.5s-.1-.4-.2-.6c0-.3-.2-.5-.4-.6m-2.3 1.5-.2.8c-.1.2-.1.3-.2.4s-.3.1-.5.1h-1.4l.5-1.8h1.5c.3 0 .4.1.4.3-.1 0-.1.1-.1.2"/><path d="m22.8 139c-.2 0-.5-.1-.9-.1h-6c0 .1.1.3.1.4 0 .2 0 .4-.1.6l-1.4 5.3c-.1.3-.2.6-.2.7-.1.2-.2.4-.3.6h3.4c-.1-.1-.1-.3-.1-.4 0-.2 0-.4.1-.6l.4-1.7h3.2c.5 0 .8 0 1-.1.2 0 .4-.1.6-.3.4-.3.6-.7.8-1.3l.3-1.4c.1-.2.1-.4.1-.5 0-.4-.2-.8-.5-1-.1-.1-.3-.2-.5-.2m-2 1.8-.3 1.1c-.1.3-.2.5-.3.6s-.3.1-.7.1h-1.4l.6-2.4h1.4c.2 0 .4 0 .5.1s.1.2.1.3c.1 0 .1.1.1.2"/><path d="m3.2 139c-.2 0-.4.1-.6.3-.2.1-.4.3-.5.5s-.2.4-.3.8l-.5 1.8c-.1.4-.2.7-.2.9 0 .7.5 1 1.4 1h1.8.3c.3 0 .4.1.4.3s-.1.4-.2.6c0 .1-.1.2-.2.2s-.2 0-.4 0h-2.3c-.4 0-.7 0-.8 0-.2 0-.3-.1-.5-.2l-.2 1.5h5c.6 0 1 0 1.2-.1.2 0 .4-.1.6-.3.2-.1.3-.3.4-.5s.2-.5.3-.9l.5-1.9c.1-.3.1-.5.1-.6 0-.3-.1-.6-.4-.8-.2-.2-.5-.2-.9-.2h-2.2c-.3 0-.5-.1-.5-.3 0-.1 0-.2.1-.3 0-.2.1-.3.1-.3l.2-.2h.4 2.7c.3 0 .5 0 .7.1.2 0 .3.1.5.2l.2-1.6h-5.4c-.3-.1-.6 0-.8 0"/><path d="m59.1 140.3c.2-.1.5-.1.7-.1h1.6l-1.3 5.1c-.1.3-.2.6-.2.7-.1.2-.2.4-.3.6h3.4c-.1-.1-.1-.3-.1-.4 0-.2 0-.4.1-.6l1.4-5.4h1.6c.3 0 .5 0 .7.1l.1-1.4h-7.1z"/><path d="m35.8 95.4.4-.1 10.1-2.7 10.1-2.7.4-.1.1-.4 5.4-20.2.1-.4-15.3-15.3-.4.1-10.1 2.7-10.1 2.7-.4.1-.1.4-2.7 10.1-2.7 10.1-.1.3 7.7 7.7 7.4 7.4zm-13.7-15.8 2.6-9.7 2.6-9.7 9.7-2.6 9.7-2.6 14.2 14.2-5.2 19.4-9.7 2.6-9.7 2.6-7.1-7.1z"/><path d="m37.3 139c-.2 0-.5-.1-.9-.1h-3.7c-.7 0-1.2.1-1.6.3-.2.1-.4.3-.5.5s-.2.5-.3.9l-1 3.7c-.1.3-.1.6-.1.7 0 .5.2.9.5 1.1.2.1.3.2.5.3.2 0 .5.1.9.1h3.9c.4 0 .7 0 1-.1s.5-.2.7-.3.3-.3.4-.5.2-.4.3-.7l1-3.8c.1-.3.1-.5.1-.7 0-.5-.2-.9-.6-1.2-.2-.1-.4-.1-.6-.2m-1.8 1.7s0 .1-.1.2l-1 3.7c-.1.3-.2.5-.2.6-.1.1-.2.1-.5.1h-1.1c-.2 0-.4 0-.4 0-.1-.1-.2-.2-.2-.3 0 0 0-.2.1-.4l1-3.7c.1-.3.2-.5.3-.6s.3-.1.6-.1h1c.4 0 .6.1.6.3-.1.1-.1.1-.1.2"/><path d="m159.3 139.3c0 .2 0 .4-.1.6l-1.4 5.3c-.1.3-.2.6-.2.7-.1.2-.2.4-.3.6h3.4c0-.1-.1-.3-.1-.4 0-.2 0-.4.1-.6l1.4-5.3c.1-.3.2-.6.2-.7.1-.2.2-.4.3-.6h-3.4c0 .2.1.3.1.4"/><path d="m175.9 139c-.2 0-.5-.1-.9-.1h-3.7c-.7 0-1.2.1-1.6.3-.2.1-.4.3-.5.5s-.2.5-.3.9l-1 3.7c-.1.3-.1.6-.1.7 0 .5.2.9.5 1.1.2.1.3.2.5.3.2 0 .5.1.9.1h3.9c.4 0 .8 0 1-.1.3-.1.5-.2.7-.3s.3-.3.4-.5.2-.4.3-.7l1-3.8c.1-.3.1-.5.1-.7 0-.5-.2-.9-.6-1.2-.2-.1-.4-.1-.6-.2m-1.8 1.7s0 .1-.1.2l-1 3.7c-.1.3-.2.5-.2.6-.1.1-.2.1-.5.1h-1.1c-.2 0-.4 0-.5 0-.1-.1-.2-.2-.2-.3 0 0 0-.2.1-.4l.9-3.7c.1-.3.2-.5.3-.6s.3-.1.6-.1h1.1c.4 0 .6.1.6.3z"/><path d="m190.7 139.3c0 .2 0 .4-.1.6l-1.3 4.9-2-5.9h-3.4c0 .1.1.3.1.4 0 .2 0 .4-.1.6l-1.4 5.3c-.1.3-.2.6-.2.7-.1.2-.2.4-.3.6h1.7c0-.1-.1-.3-.1-.4 0-.2 0-.4.1-.6l1.2-4.8 2 5.8h3.2l1.6-6.3c.1-.3.2-.6.2-.7.1-.2.2-.4.3-.6h-1.7c.1.2.2.3.2.4"/><path d="m128.4 139.2c-.2-.1-.3-.2-.5-.2s-.5 0-.9 0h-5.7c.1.1.1.3.1.4 0 .2 0 .4-.1.6l-1.4 5.3c-.1.3-.2.6-.2.7-.1.2-.2.4-.3.6h3.4c0-.1-.1-.3-.1-.4 0-.2 0-.4.1-.6l.6-2.3h.7l.6 3.3h3.2c-.2-.1-.3-.3-.3-.4-.1-.1-.1-.3-.2-.5l-.5-2.4h.2c.4 0 .8-.1 1-.3.1-.1.2-.2.2-.2 0-.1.1-.3.2-.6l.3-1.3c0-.2.1-.3.1-.5s-.1-.4-.2-.6c.1-.3-.1-.5-.3-.6m-2.3 1.5-.2.8c0 .2-.1.3-.2.4s-.3.1-.5.1h-1.4l.5-1.8h1.5c.3 0 .4.1.4.3-.1 0-.1.1-.1.2"/><path d="m107.4 140.3c.2-.1.5-.1.7-.1h1.6l-1.3 5.1c-.1.3-.2.6-.2.7-.1.2-.2.4-.3.6h3.4c0-.1-.1-.3-.1-.4 0-.2 0-.4.1-.6l1.4-5.4h1.6c.3 0 .5 0 .7.1l.1-1.4h-7.1z"/><path d="m100.2 139.3c0 .2 0 .4-.1.6l-1.2 4.6c-.1.2-.1.4-.1.5s-.1.1-.1.2c-.1.1-.3.2-.6.2h-2.3c-.3 0-.5 0-.6-.1s-.1-.2-.1-.3 0-.2.1-.3l1.1-4.3c.1-.3.2-.6.2-.7.1-.2.2-.4.3-.6h-3.4c.1.2.1.3.1.4 0 .2 0 .4-.1.6l-1.2 4.5c-.1.3-.1.5-.1.8 0 .4.1.7.3.9s.5.4.8.4h.7 4.4c.1 0 .2 0 .4-.1.3-.1.6-.2.8-.4.1-.1.3-.3.3-.5.1-.2.2-.5.3-.9l1.2-4.6c.1-.3.2-.6.2-.7l.3-.6h-1.7c.1.2.1.3.1.4"/><path d="m136.1 139.3c0 .2 0 .4-.1.6l-1.4 5.3c-.1.3-.2.6-.2.7-.1.2-.2.4-.3.6h3.4c0-.1-.1-.3-.1-.4 0-.2 0-.4.1-.6l1.4-5.3c.1-.3.2-.6.2-.7.1-.2.2-.4.3-.6h-3.4c.1.2.1.3.1.4"/><path d="m145.2 140.3c.2-.1.5-.1.7-.1h1.6l-1.3 5.1c-.1.3-.2.6-.2.7-.1.2-.2.4-.3.6h3.4c-.1-.1-.1-.3-.1-.4 0-.2 0-.4.1-.6l1.4-5.4h1.6c.3 0 .5 0 .7.1l.1-1.4h-7.1z"/><path d="m85.4 139.3c0 .2 0 .4-.1.6l-1.3 4.9-2-5.9h-3.4c0 .1.1.3.1.4 0 .2 0 .4-.1.6l-1.4 5.3c-.1.3-.2.6-.2.7-.1.2-.2.4-.3.6h1.7c-.1-.1-.1-.3-.1-.4 0-.2 0-.4.1-.6l1.2-4.8 2 5.8h3.2l1.6-6.3c.1-.3.2-.6.2-.7.1-.2.2-.4.3-.6h-1.7c.2.2.2.3.2.4"/></g></svg>