<?xml version="1.0" encoding="utf-8"?>
<!-- Generator: Adobe Illustrator 24.1.1, SVG Export Plug-In . SVG Version: 6.00 Build 0)  -->
<svg version="1.1" xmlns="http://www.w3.org/2000/svg" xmlns:xlink="http://www.w3.org/1999/xlink" x="0px" y="0px"
	 viewBox="0 0 500 500" style="enable-background:new 0 0 500 500;" xml:space="preserve">
<style type="text/css">
	.st0{display:none;}
	.st1{display:inline;}
	.st2{fill:#407BFF;}
	.st3{opacity:0.9;fill:#FFFFFF;}
	.st4{opacity:0.2;}
	.st5{opacity:0.7;fill:#FFFFFF;}
	.st6{opacity:0.4;}
	.st7{fill:#FFFFFF;}
	.st8{fill:#7A98C5;}
	.st9{fill:#2F3052;}
	.st10{fill:#ACACAC;}
	.st11{fill:#F3E2D9;}
	.st12{fill:none;stroke:#2F3052;stroke-width:1.0617;stroke-miterlimit:10;}
	.st13{fill:none;stroke:#2F3052;stroke-width:2.1233;stroke-miterlimit:10;}
	.st14{fill:#AEF4FF;}
	.st15{fill:#61ABEB;}
	.st16{fill:#C80788;}
	.st17{fill:#F8F039;}
	.st18{fill:#5F70A1;}
	.st19{fill:#9ABDE7;}
	.st20{fill:#44608D;}
	.st21{fill:#B6D3F1;}
	.st22{fill:#95B9D5;}
	.st23{fill:#304965;}
	.st24{fill:#5C6272;}
	.st25{fill:#97BEED;}
	.st26{fill:#7AC5C7;}
	.st27{fill:#507DE5;}
	.st28{fill:#F2F9FB;}
	.st29{fill:#E2D4B7;}
	.st30{fill:#96C6EC;}
	.st31{fill:#F1F9FF;}
	.st32{fill:#87AFE4;}
	.st33{fill:#D2DCE4;}
	.st34{fill:#C0CEDF;}
</style>
<g id="Background_Complete">
</g>
<g id="Background_Simple" class="st0">
</g>
<g id="Shadow_1_">
</g>
<g id="Pen_Tool">
	<g>
		<g>
			<g>
				<g>
					<g>
						<g>
							<g>
								<rect x="327.9" y="237.3" class="st8" width="24.3" height="123.9"/>
								<path class="st8" d="M358.5,349.1h-36.2c-7.3,0-13.1,4.9-13.1,12.1l0,0h62.5l0,0C371.6,354,365.7,349.1,358.5,349.1z"/>
								<rect x="320.9" y="237.3" class="st9" width="24.3" height="123.9"/>
								<path class="st9" d="M351.5,349.1h-36.2c-7.3,0-13.1,4.9-13.1,12.1l0,0h62.5l0,0C364.7,354,358.8,349.1,351.5,349.1z"/>
							</g>
							<polygon class="st10" points="320.9,237.3 320.9,253.5 352.2,243 352.2,237.3 							"/>
						</g>
						<g>
							<g>
								<rect x="71.5" y="237.3" class="st8" width="24.3" height="124.9"/>
								<path class="st8" d="M102.1,349.1H65.9c-7.3,0-13.1,5.9-13.1,13.1l0,0h62.5l0,0C115.2,355,109.4,349.1,102.1,349.1z"/>
								<rect x="64.5" y="237.3" class="st9" width="24.3" height="124.9"/>
								<path class="st9" d="M95.2,349.1H58.9c-7.3,0-13.1,5.9-13.1,13.1l0,0h62.5l0,0C108.3,355,102.4,349.1,95.2,349.1z"/>
							</g>
							<polygon class="st10" points="64.5,237.3 64.5,253.5 95.8,243 95.8,237.3 							"/>
						</g>
					</g>
					<g>
						<g>
							<path class="st9" d="M303.5,137.7H367c5.2,0,9.9,2.8,12.4,7.3l18.6,33.4c2.3,4.1-0.6,9.1-5.3,9.1H325L303.5,137.7z"/>
							<polygon class="st10" points="334.5,137.7 362.4,187.5 340,187.5 312.9,137.7 							"/>
							<g>
								<polygon class="st8" points="348.5,149.9 351.6,155.5 368.4,155.5 365.1,149.9 								"/>
								<polygon class="st11" points="352.6,157.3 353.5,159 370.3,159 369.3,157.3 								"/>
								<polygon class="st11" points="354.3,160.3 355.2,162 372,162 371,160.3 								"/>
								<polygon class="st11" points="355.7,163.3 356.6,164.9 373.4,164.9 372.4,163.3 								"/>
								<polygon class="st11" points="359.9,170.5 360.8,172.1 377.6,172.1 376.6,170.5 								"/>
								<polygon class="st11" points="361.6,173.5 362.5,175.1 379.3,175.1 378.3,173.5 								"/>
								<polygon class="st8" points="357.3,166.3 358.8,168.9 384.7,168.9 383.1,166.3 								"/>
								<polygon class="st8" points="368.4,149.9 376.8,164.6 382.6,164.6 374,149.9 								"/>
								<polygon class="st8" points="379.3,170.5 382.1,175.1 387.8,175.1 385,170.5 								"/>
							</g>
						</g>
						<g>
							<path class="st8" d="M64.9,237.3h299.6v-18.9c0-7-1.7-13.9-5.1-20.1l-28-52c-2.9-5.3-8.4-8.6-14.5-8.6H64.9V237.3z"/>
							<path class="st9" d="M42,237.3h72.7v-18.9c0-7-1.7-13.9-5.1-20.1l-28.1-52.3c-2.8-5.2-8.2-8.4-14-8.4H42V237.3z"/>
							<g>
								<polyline class="st12" points="147,184.5 130.2,154.6 290.2,154.6 311.5,190.5 								"/>
								<line class="st13" x1="138" y1="168.4" x2="298.5" y2="168.4"/>
								<polygon class="st9" points="144.1,179.3 304.9,179.3 311.5,190.5 147,184.5 								"/>
							</g>
						</g>
					</g>
				</g>
				<g>
					<g>
						<path class="st14" d="M161.4,309.5L161.4,309.5c0,16.6,13.4,30,30,30h65.8v-30H161.4z"/>
						<path class="st14" d="M147,184.5h152.6c0,0,21.3,1.7,21.3,28.9c0,27.2,0,96.1,0,96.1H161.4v-94.7c0-8.9-3.3-17.6-9.1-24.3
							L147,184.5z"/>
						<g>
							<circle class="st15" cx="245.6" cy="238.8" r="25.5"/>
							<circle class="st16" cx="228.7" cy="267.5" r="25.5"/>
							<circle class="st17" cx="265" cy="267.5" r="25.5"/>
						</g>
					</g>
					<g>
						<path class="st18" d="M246,309.5c0,0-14.1-1.2-14.1,13.7c0,14.9-12.1,16.3-12.1,16.3h37.4v-30H246z"/>
						<path class="st19" d="M246,309.5h160.4c0,0,15,0.8,15,17.2v19.4H257.2v-20.5C257.2,325.7,257.1,309.5,246,309.5z"/>
						<path class="st14" d="M457.9,346.2c0,0,2,12.1-17.7,15.9H284.5l18.9-15.9v-16.5H458L457.9,346.2z"/>
						<path class="st19" d="M257.2,346.2L257.2,346.2c0,8.8,7.1,15.9,15.9,15.9h14.4c8.8,0,15.9-7.1,15.9-15.9v0H257.2z"/>
					</g>
				</g>
			</g>
		</g>
	</g>
</g>
</svg>
