<?xml version="1.0" encoding="utf-8"?>
<!-- Generator: Adobe Illustrator 24.1.1, SVG Export Plug-In . SVG Version: 6.00 Build 0)  -->
<svg version="1.1" id="Capa_1" xmlns="http://www.w3.org/2000/svg" xmlns:xlink="http://www.w3.org/1999/xlink" x="0px" y="0px"
	 viewBox="0 0 400 400" style="enable-background:new 0 0 400 400;" xml:space="preserve">
<style type="text/css">
	.st0{fill:#191656;}
	.st1{fill:#0F0A3C;}
	.st2{fill:#34699A;}
	.st3{fill:#FCCDAE;}
	.st4{fill:#3FEADD;}
	.st5{fill:#408AB4;}
	.st6{fill:#F2F2F2;}
	.st7{fill:#D1D1D1;}
	.st8{fill:#FFAD8B;}
	.st9{fill:#FFFFFF;}
	.st10{fill:#315093;}
	.st11{fill:#4662B2;}
	.st12{fill:#D82780;}
	.st13{fill:#EF569C;}
	.st14{fill:#DB4242;}
	.st15{fill:#EF5552;}
</style>
<g>
	<path class="st0" d="M222,33.7c2.7-1,5.6-0.8,8.2,0.5c2.6,1.3,4.6,3.4,5.5,6.1s0.8,5.6-0.5,8.2c-1.3,2.6-3.5,4.6-6.2,5.6l-0.6,0.2
		l-3.2-9.6l-9.5,3.4l-0.2-0.6c-1-2.7-0.8-5.6,0.5-8.2C217.1,36.6,219.3,34.7,222,33.7z"/>
	<g>
		
			<ellipse transform="matrix(0.9942 -0.1078 0.1078 0.9942 -33.5643 29.6502)" class="st1" cx="257.6" cy="325.4" rx="77.8" ry="34.7"/>
		<path class="st2" d="M274.5,186c-0.4,0-0.8-0.3-0.8-0.7c-0.1-0.4,0.2-0.9,0.7-0.9c10.3-1.5,16.9-5.8,19.6-13
			c3.5-9.3-0.7-20.1-3.6-23.6c-3.9-4.6-2.7-10.2-1.5-16.1c0.7-3.4,1.4-6.9,1.3-10.6c-0.3-9.5-8.1-10.7-8.4-10.8
			c-0.4-0.1-0.8-0.5-0.7-0.9c0.1-0.4,0.5-0.8,0.9-0.7c0.1,0,9.5,1.4,9.8,12.4c0.1,3.9-0.6,7.5-1.4,11c-1.2,5.7-2.2,10.7,1.2,14.7
			c3.3,3.9,7.7,15.2,3.9,25.2c-2,5.3-7.3,12.1-20.9,14C274.6,186,274.5,186,274.5,186z"/>
		<path class="st2" d="M231.1,193c-3.9,0-7.1-0.8-9.4-2.4c-2.5-1.8-3.8-4.5-3.7-7.8c0.2-7,7.4-13.4,14.4-19.6c2.3-2,4.4-3.9,6.3-5.8
			c7.6-7.5,4.9-26.9,4.9-27.1c-0.1-0.4,0.2-0.9,0.7-0.9c0.4-0.1,0.9,0.2,0.9,0.7c0.1,0.8,2.8,20.4-5.4,28.5c-2,2-4.2,4-6.4,5.9
			c-6.7,6-13.7,12.1-13.9,18.4c-0.1,2.8,0.9,4.9,3,6.4c4.3,3.1,12.8,2.9,22.1-0.6c0.4-0.2,0.9,0.1,1.1,0.5c0.2,0.4-0.1,0.9-0.5,1.1
			C240.2,192,235.3,193,231.1,193z"/>
		<g>
			<g>
				<path class="st3" d="M220.9,79.4c0,0,1.1,0.3-1,5.5c-2.2,5.3-6.8,20.5-10.7,23.8c-2.9,2.5-7.8,2.8-7.7-2.8
					c0.2-6.4,12.6-28.4,15.3-28.6C219.5,77,220.9,79.4,220.9,79.4z"/>
				<path class="st3" d="M242.5,118.6c0,0-15-3.6-34.9-14.2c0,0-8.4-3.3-6.6,4.4c1.8,7.7,26.7,22.6,34.4,21.9
					C243.1,130.2,244.6,122.6,242.5,118.6z"/>
				<path class="st3" d="M216.4,81.2c0,0,9.1-2,10.6-2.9c1.5-0.8,3-1.8,2.4-3.2s0-2.2-0.4-3c-0.4-0.8-1.4-2.9-1.9-3.6
					c-0.5-0.7-3.8-0.1-6.4,1.8c-1.7,1.3-5.8,4.1-5.8,4.1S214,81.6,216.4,81.2z"/>
			</g>
			<path class="st4" d="M258,134.4c0,0-12.9,2.8-29.3-4.9c0,0-3.4-3.9,6.1-14.7C234.8,114.7,259.6,120.8,258,134.4z"/>
			<path class="st2" d="M234.8,114.7c0,0-2.5-3-6.4-2.7c0,0-8.3,10.2-7,16.7c0,0,2.5,2.5,7.2,0.8
				C228.7,129.5,230.8,119.1,234.8,114.7z"/>
		</g>
		<g>
			<path class="st5" d="M285.1,100.2c0-0.1,0-0.3-0.1-0.4c-1.4-7.2-7.3-12.8-14.6-13.7c-7-0.9-14-2.7-20.8-5v41.3
				c7.6-1.3,14.5-1.9,19.8-2.2C279.5,119.6,286.9,110.3,285.1,100.2z"/>
			<path class="st2" d="M285,99.8c-0.1-0.3-0.1-0.7-0.2-1c-1.8,6.9-7.9,12.2-15.5,12.7c-5.3,0.3-12.1,1-19.8,2.2v8.7
				c7.6-1.3,14.5-1.9,19.8-2.2c10.2-0.6,17.6-9.9,15.8-20C285.1,100.1,285.1,100,285,99.8z"/>
			<path class="st6" d="M183.7,54.5c18.5,11.1,42.7,22.7,66.8,25.6c9.3,1.1,16.8,8.1,18.5,17.3c0,0.2,0.1,0.3,0.1,0.5
				c2.2,12.7-7.1,24.5-20,25.2c-15.8,0.9-42.9,4.2-68.2,15.1c-14.2,6.1-30-4.4-30-19.9V73C150.9,56.2,169.2,45.9,183.7,54.5z"/>
			<path class="st7" d="M269,97.4c-1.7-9.2-9.3-16.1-18.5-17.3c-5.2-0.6-10.3-1.7-15.5-3c0.2,1.7,0.6,3.9,1.6,4.8
				c0,0-0.6,4.6,1.6,7.1c2.2,2.5,0,11.4,0,11.4s3.6,8.8,3.6,10.7c0,1.9-1.8,6.9-1.8,6.9l-0.9,6c3.6-0.4,7-0.6,9.9-0.8
				c12.9-0.8,22.2-12.6,20-25.2C269,97.8,269,97.6,269,97.4z"/>
			<path class="st7" d="M269.1,98c0-0.2-0.1-0.3-0.1-0.5c-1.5-7.9-7.3-14.2-14.8-16.5c6.1,10.7,6.4,25.9-3.8,30.5
				c-13.5,6-52.3-6.5-52.3-6.5l-38.7-14.8l-4.5-29.3c-2.4,3.4-3.8,7.6-3.8,12.2v45.4c0,15.5,15.8,26,30,19.9
				c25.3-10.9,52.3-14.1,68.2-15.1C262,122.4,271.3,110.6,269.1,98z"/>
			<ellipse class="st5" cx="150.9" cy="94" rx="50.8" ry="62.3"/>
			<ellipse class="st2" cx="154.6" cy="94" rx="43.4" ry="53.2"/>
			<path class="st7" d="M144.8,75.9l40.2-6c0,0,13.1,21,0,49.4l-42.6-7.1L144.8,75.9z"/>
			<path class="st6" d="M142.3,112.2l24.7,4.1c7.3-4.9,11.8-13.5,11.8-21.9c0-8.1-5.3-18.5-11.3-21.9l-22.7,3.4L142.3,112.2z"/>
			<ellipse class="st6" cx="144.8" cy="94" rx="14.8" ry="18.2"/>
			<ellipse class="st7" cx="144.8" cy="94" rx="9.8" ry="12.1"/>
		</g>
		<g>
			<path class="st2" d="M290.7,312l-0.2-2.2c0-0.3,0.1-0.6,0.3-0.8c0.8-0.7,2.8-2.8,3.6-5.6c0.7-2.5-0.2-6.3-0.4-8
				c-0.2-2.3-0.5-4,0.9-4.9c0,0,3.6-1,5.7-0.6c2.1,0.4,2.3,6,2.3,9.5c0,3.4-1.4,14.1-11.4,13.4C291.1,312.8,290.7,312.5,290.7,312z"
				/>
			<path class="st3" d="M291.3,289.8c0,0,2.2,1.9,4.1,2.1c1.9,0.2,3.6,6.7,1.3,7.6c-2.3,0.8-3.6-1.4-5.6-2.7
				c-1.9-1.3-3.8-2.7-3.8-2.7L291.3,289.8z"/>
			<path class="st3" d="M226.5,333.6c0,0-1.6,8.8-4.7,13.6l9.2,1.8c0,0,2.9-8.8,4.7-12.5C235.7,336.5,233.5,329.1,226.5,333.6z"/>
			<path class="st1" d="M238.2,191.6c0,0,0,19.9,0,26.1c0,6.2,6.6,48,9.2,51.3c2.7,3.3,34.8,24.9,43.4,27.5c0,0,3.4-3.4,2.3-6.7
				c0,0-18.6-27.9-32.6-33.1c0,0,13.9-46.4,12.5-60.5C271.4,182.2,241.1,181.4,238.2,191.6z"/>
			<path class="st2" d="M251.2,189.4l-6.7,25.6c0,0-11.2,45.5-12,60.2c-0.8,14.8-6.9,62.4-6.9,62.4s5.6-1.5,8.2,3.6
				c0,0,20.9-41,18-64.8c0,0,11.1-36.9,16.4-45.5c5.3-8.6,17.7-20.8,12.5-37.5S252.8,183.1,251.2,189.4z"/>
			<g>
				<path class="st1" d="M268.2,230.9c5.3-8.6,17.7-20.8,12.5-37.5c-2.1-6.8-7.1-9.7-12.4-10.5l-4.6-0.1c-6.1,0.5-11.7,3.6-12.4,6.5
					l-0.8,3l3.5,8.7c0,0,14.4,1.4,22.1,0c0,0,2.4,2.3,0.8,8.6c-1.6,6.3-12.5,21.5-12.5,21.5s-0.8,0.9-0.4,4.5c0.1,1.3-1,6-2.7,11.9
					C263.7,240.4,266.3,233.9,268.2,230.9z"/>
				<path class="st1" d="M251.7,276.4c0,0,1.6-5.2,3.8-12.2c-2.1,5.4-4.2,9.9-5.7,11.3c0,0,0.8,14.7-3.5,28.2
					c-4.3,13.5-12.5,37.5-12.5,37.5S254.6,300.2,251.7,276.4z"/>
			</g>
			<path class="st2" d="M246.2,213.7c0,0-5.9-11.5-6.1-20.1c-0.2-8.6,12.2-6.1,12.2-6.1l2.7,11.9L246.2,213.7z"/>
			<path class="st4" d="M250.8,121.9c0,0-8.2,6.8-7.6,22.1c0.5,15.4-6.6,50.6-6.6,50.6s5.2,4.3,13,5.1l2.9-7.8l1.5,9
				c0,0,14.2,0.4,29.7-5.1c0,0-6.9-18.7-5.2-31c1.7-12.3,9.1-25.2,4.3-37.1c-2.5-6.3-12.1-10.6-12.1-10.6S257.9,115,250.8,121.9z"/>
			<path class="st2" d="M252.1,132.5l5.9-3.6l0.7,16c0,0,2.2-10.1,4.1-9.8c1.9,0.3,3.4,12.2,3.4,12.2s2.6-6.6,5.5-6.6
				c2.9,0,5.9,6,5.9,6s-0.5,11-1.9,14.8c-1.3,3.6-2,24.7,7.1,34.7c0.3-0.1,0.5-0.2,0.8-0.3c0,0-6.9-18.7-5.2-31
				c1.7-12.3,9.1-25.2,4.3-37.1c-2.5-6.3-12.1-10.6-12.1-10.6s-12.7-2.3-19.8,4.7c0,0-1.3,1.1-2.9,3.4
				C248.7,127.5,250.3,131.3,252.1,132.5z"/>
			<path class="st1" d="M257,131l-4.8,1.4c-1.8-5.9,3.1-12.1,3.1-12.1L257,131z"/>
			<g>
				<path class="st3" d="M253.9,113.5c0,0,1.7,7.1,1.8,13.9c0.1,3.6,3.8,5.9,7,4.4c1.9-0.9,3.9-1.9,5.6-2.9c2.6-1.5,3.8-4.5,3.2-7.4
					c-1-4.3-2.5-10.8-3.5-14.1L253.9,113.5z"/>
				<path class="st8" d="M268,107.2l-14.1,6.3c0,0,1.1,9.4,1.8,13.9c5.2-0.8,11.8-3.8,14.2-13C269.2,111.6,268.5,108.9,268,107.2z"
					/>
			</g>
			<g>
				<path class="st3" d="M251.9,81.5c-3.5,2.2-5.9,5.8-6.6,9.9c-1.3,7.8-2.3,21.5,5.1,25.1c10.5,5.1,20.6-6,22.3-17.8
					C274.2,88.2,265.5,73.2,251.9,81.5z"/>
				<path class="st8" d="M257.6,84.8l-8.3,0.9l-2.6,1.5c-0.6,1.3-1.1,2.6-1.3,4.1c-0.1,0.7-0.2,1.4-0.3,2.1c1.2-0.4,3.1-1.3,4.4-2.6
					c0,0,1.6,1.6,3.9,2.4c0,0,13.7-8.4,14.6,10c0,0,4.3-4.8,2.7-9.8C268.9,88.4,257.6,84.8,257.6,84.8z"/>
				<path class="st1" d="M244.5,106.3c0,0,0.8-1.1,5.5-1.3c4.7-0.2,7.9,2.6,10.7,3.8c0,0,8.1-2,8.1-9.2c0-7.2-6.9-10.5-9.3-10.5
					c-2.4,0-5.5,1.2-6.9,3.1c0,0-2.2-1.2-2.5-3.1c0,0-3.5,3.7-8.2,4.5c0,0,0.3-2.5,2.6-4.5c0,0-4.5-0.2-6.3-5.5c0,0,1.4,0.6,4.3,0
					c0,0-2-4.9-1.4-8.8c0,0,3.8,4,11.5,2.7c32-5.5,25,21.9,20.3,27.7c-2.1,2.6-6.5,8.9-5.2,12.5c0,0-2.3,0.8-2.8-0.9
					c0,0-2.5,4.7-5.4,7.3c0,0-0.3-2.2-1.1-3.2c0,0-2.1,4.4-6.7,7c0,0-2.7-2.6-4.1-7c0,0-1.8,1.9-3.2,1.9
					C244.5,122.7,245.2,113.4,244.5,106.3z"/>
				<path class="st9" d="M247.4,108.2c0,0,2.7-0.8,6.1,0c3.5,0.8-0.6,2.8-3.1,2.9C248,111.3,247.4,108.2,247.4,108.2z"/>
			</g>
			<path class="st1" d="M261.8,132.1l6.5,3.9l5.1-7.9c0.4-0.6,0.6-1.2,0.8-1.8c0.7-2.3,0-4.8-1.5-6.6l-2.1-2.5
				C270.5,117.2,266.4,128.8,261.8,132.1z"/>
			<path class="st1" d="M257,131c0,0-1.7,4.3-2.1,13.9h3.8c0,0,0.5-10,3.1-12.8L257,131z"/>
			<path class="st2" d="M219.1,340.2c-2.7,1.5-2.4,3.5-11.8,3.3c-9.4-0.3-3.6,6.5-0.1,7.5c4.6,1.3,5.5,0.9,13.1,3.3
				c7.6,2.4,12.6,0,12.6-10.7c0,0-6.9,2.7-9.1-0.5C223,341.9,224.5,337.1,219.1,340.2z"/>
			<path class="st5" d="M219.2,351.4c-3.4-0.5-10.7-5.1-14.1-5.6c-1.8-0.3-2.5,0.2-2.8,0.8c0.7,1.8,3,3.8,4.8,4.3
				c4.6,1.3,5.5,0.9,13.1,3.3c4.1,1.3,7.4,1.2,9.6-0.8C229.4,349.5,222.6,352,219.2,351.4z"/>
			<path class="st2" d="M294.7,302.2c0,0-3.8-2.3-2.3-3.5c1.5-1.2,3.7,0.1,4.5,1.5C297.7,301.6,294.7,302.2,294.7,302.2z"/>
			<g>
				<path class="st5" d="M236.4,122l2.8,9c0.5,1.6,2.1,2.6,3.7,2.4l4.5-0.5c1.9-0.2,3.2-1.9,3-3.8l-1-9.2c-0.2-1.9-1.9-3.3-3.8-3.1
					l-6.3,0.7C237.2,117.8,235.8,119.9,236.4,122z"/>
				<path class="st1" d="M250.4,129.1l-1-9.2c-0.2-1.9-1.9-3.3-3.8-3.1l-6.3,0.7c-1.5,0.2-2.6,1.3-3,2.6c0.4-0.2,0.8-0.4,1.3-0.4
					l6.3-0.7c1.9-0.2,3.6,1.2,3.8,3.1l1,9.2c0,0.4,0,0.8-0.1,1.2C249.9,131.8,250.6,130.5,250.4,129.1z"/>
			</g>
			<g>
				<path class="st3" d="M247.5,136.1c0,0-0.6-10.8-1.3-12.6c-0.7-1.8-2-6.3-3.8-6.3c-2.3,0-2.1,2-3,2.3c-0.9,0.3-3.6,1.7-4.5,2.1
					c-0.9,0.4-0.9,4.4,0.9,7.6c1.2,2.2,3.7,7.4,3.7,7.4S247.4,138.9,247.5,136.1z"/>
				<path class="st3" d="M244.6,133.3c0,0,1.1-0.8,4.1,5c3,5.9,13.1,21.4,13.1,27.3c0,4.5-3.5,9-8.4,4.7c-5.6-5-15.7-32.4-13.9-35
					C241.4,132.7,244.6,133.3,244.6,133.3z"/>
				<g>
					<path class="st1" d="M249.8,140.3c0,0-6.9,2.1-9.1,2.8l-0.8-3.1c0,0,6.7-2,8.5-2.3L249.8,140.3z"/>
					<path class="st1" d="M241.2,142.7c-1.2-1.7-0.8-4,0.9-5.2c1.7-1.2,4.1-0.8,5.3,0.8c1.2,1.7,0.8,4-0.9,5.2
						C244.8,144.7,242.5,144.3,241.2,142.7z"/>
					
						<ellipse transform="matrix(0.9924 -0.1233 0.1233 0.9924 -15.4569 31.1984)" class="st2" cx="244.3" cy="140.5" rx="3" ry="3"/>
				</g>
			</g>
			<g>
				<path class="st3" d="M274.4,136.8c0,0-6,12.4-18.2,26.8c0,0-6.7,6.7-0.7,7.8c10.6,1.9,25-17.1,26.2-24.2
					C283,140.1,277.8,136.3,274.4,136.8z"/>
			</g>
			<path class="st4" d="M278.6,122.4c14.2,6.7,8.3,25.4-2.3,36.5c0,0-5.7,0.9-10.2-11.7C266.1,147.2,275.5,121,278.6,122.4z"/>
			<path class="st2" d="M278.6,122.4c-0.4-0.2-0.9,0.1-1.4,0.6c11.1,7.5,5.5,24.3-4.2,34.8c1.9,1.3,3.3,1.1,3.3,1.1
				C286.9,147.9,292.8,129.1,278.6,122.4z"/>
			<path class="st2" d="M266.1,146.8c0,0-2.3,1.5-3.4,5c0,0,4.7,10,8.9,11.8c0,0,4-0.9,4.4-5.7C276,157.8,267.8,152,266.1,146.8z"/>
			<path class="st3" d="M247.2,132.5c0,0,3.5-3.1,3.7-5.4c0.2-2.4-1.2-3.6-1.2-3.6s-0.2,2.9-3.1,3
				C246.7,126.4,245.3,130.8,247.2,132.5z"/>
			<g>
				<path class="st2" d="M252.5,77.5c0,0,15.8-0.3,24,18.2c0,0,4.3-4.4,5.4-9.9c1-5.5-7.2-15.4-14.7-15.9
					C259.7,69.4,256.3,71.5,252.5,77.5z"/>
				<path class="st4" d="M271.6,87.5c0,0,4.4-17.7-13.6-22c-9.4-2.2-9.9,12.1-9.9,12.1S258.9,77.7,271.6,87.5z"/>
				<path class="st2" d="M268.5,84.9C268.4,84.9,268.4,84.9,268.5,84.9c-0.3-0.1-0.4-0.3-0.4-0.5c0-0.1,1.3-5.6-1.4-10.1
					c-1.6-2.7-4.4-4.5-8.2-5.4c-1.5-0.3-2.7-0.1-3.7,0.6c-2.8,2.1-3,7.7-3,7.8c0,0.2-0.2,0.4-0.4,0.4c-0.2,0-0.4-0.2-0.4-0.4
					c0-0.2,0.2-6.1,3.3-8.4c1.2-0.9,2.7-1.2,4.4-0.8c4,0.9,6.9,2.9,8.6,5.8c2.9,4.8,1.6,10.4,1.5,10.7
					C268.8,84.7,268.7,84.9,268.5,84.9z"/>
			</g>
		</g>
	</g>
	<g>
		<g>
			<path class="st10" d="M332.3,115.4l-25.4-13.5c-9.2-7.4-7.9-15.6-5.1-20.4l16.5-18.7c3.5-6.2,11.8-7.7,17.3-3.2l23.9,5.8
				c9.5,6.3,7,17.4,4.2,22.3l-14.1,24.6C346,118.4,339.1,118,332.3,115.4z"/>
			<path class="st11" d="M330.7,107.7l-25.4-13.5c-4.3-3.6-5.4-9.7-2.7-14.6L316.6,55c3.5-6.2,11.8-7.7,17.3-3.2l25.4,13.5
				c4.3,3.6,5.4,9.7,2.7,14.6L348,104.5C344.4,110.7,337.3,111,330.7,107.7z"/>
			<path class="st11" d="M326.2,101.9c0,0-0.7,15.2-14.6,23.6c0,0,16.4,4.1,27.8-18.3L326.2,101.9z"/>
		</g>
		<g>
			<path class="st10" d="M338.6,85l-4.6-2.5l-9.1,16.8l-6.9-3.8l9.1-16.8l-3.5-1.9l3.1-5.8l3.5,1.9l1.9-3.5c2.6-4.7,6-6.5,11.6-3.4
				l4.6,2.5l-3.1,5.8l-2.9-1.6c-2.2-1.2-2.7-0.4-3.6,1.1l-1.6,2.9l5.2,2.9L338.6,85z"/>
			<path class="st9" d="M336.8,83.5l-4.6-2.5L323,97.7l-6.9-3.8l9.1-16.8l-3.5-1.9l3.1-5.8l3.5,1.9l1.9-3.5c2.6-4.7,6-6.5,11.6-3.4
				l4.6,2.5l-3.1,5.8l-2.9-1.6c-2.2-1.2-2.7-0.4-3.6,1.1l-1.6,2.9l5.2,2.9L336.8,83.5z"/>
		</g>
	</g>
	<g>
		<g>
			<path class="st12" d="M125.7,286.5l-39.3,13.1c-16.9,2.3-24.1-7.2-26.4-14.9l-3.1-35.8c-2.9-9.8,3.7-19.9,13.8-21.2l29.7-19.1
				c16.1-3.7,25.1,10,27.5,17.7l11.7,39C142.5,275.2,135.2,282,125.7,286.5z"/>
			<path class="st13" d="M116,280.5l-39.3,13.1c-8,1-15.5-4-17.8-11.7l-11.7-39c-2.9-9.8,3.7-19.9,13.8-21.2l39.3-13.1
				c8-1,15.5,4,17.8,11.7l11.7,39C132.8,269.2,126,276.9,116,280.5z"/>
		</g>
		<g>
			<g>
				<g>
					<path class="st12" d="M108.6,273.4l-19.2,6.3c-8.5,2.8-17.8-1.9-20.6-10.4l-5.6-16.9c-2.8-8.5,1.9-17.8,10.4-20.6l19.2-6.3
						c8.5-2.8,17.8,1.9,20.6,10.4l5.6,16.9C121.8,261.3,117.2,270.6,108.6,273.4z M74.8,235.2c-6.6,2.2-10.3,9.4-8.1,16l5.6,16.9
						c2.2,6.6,9.4,10.3,16,8.1l19.2-6.3c6.6-2.2,10.3-9.4,8.1-16L110,237c-2.2-6.6-9.4-10.3-16-8.1L74.8,235.2z"/>
				</g>
				<g>
					<path class="st12" d="M95.7,266.3c-7.6,2.5-15.8-1.7-18.3-9.3c-2.5-7.6,1.7-15.8,9.3-18.3c7.6-2.5,15.8,1.7,18.3,9.3
						C107.4,255.6,103.3,263.9,95.7,266.3z M87.8,242.2c-5.7,1.9-8.8,8-6.9,13.7c1.9,5.7,8,8.8,13.7,6.9c5.7-1.9,8.8-8,6.9-13.7
						C99.6,243.5,93.5,240.4,87.8,242.2z"/>
				</g>
				<g>
					<path class="st12" d="M103.2,233.8c0.5,1.6-0.3,3.3-1.9,3.8c-1.6,0.5-3.3-0.3-3.8-1.9c-0.5-1.6,0.3-3.3,1.9-3.8
						C101,231.4,102.7,232.2,103.2,233.8z"/>
				</g>
			</g>
			<g>
				<g>
					<path class="st9" d="M106.8,269.9l-19.2,6.3c-8.5,2.8-17.8-1.9-20.6-10.4l-5.6-16.9c-2.8-8.5,1.9-17.8,10.4-20.6l19.2-6.3
						c8.5-2.8,17.8,1.9,20.6,10.4l5.6,16.9C120,257.9,115.4,267.1,106.8,269.9z M73,231.8c-6.6,2.2-10.3,9.4-8.1,16l5.6,16.9
						c2.2,6.6,9.4,10.3,16,8.1l19.2-6.3c6.6-2.2,10.3-9.4,8.1-16l-5.6-16.9c-2.2-6.6-9.4-10.3-16-8.1L73,231.8z"/>
				</g>
				<g>
					<path class="st9" d="M93.9,262.9c-7.6,2.5-15.8-1.7-18.3-9.3c-2.5-7.6,1.7-15.8,9.3-18.3c7.6-2.5,15.8,1.7,18.3,9.3
						C105.6,252.2,101.5,260.4,93.9,262.9z M86,238.8c-5.7,1.9-8.8,8-6.9,13.7c1.9,5.7,8,8.8,13.7,6.9c5.7-1.9,8.8-8,6.9-13.7
						C97.8,240,91.7,236.9,86,238.8z"/>
				</g>
				<g>
					<path class="st9" d="M101.4,230.4c0.5,1.6-0.3,3.3-1.9,3.8c-1.6,0.5-3.3-0.3-3.8-1.9c-0.5-1.6,0.3-3.3,1.9-3.8
						C99.2,228,100.9,228.8,101.4,230.4z"/>
				</g>
			</g>
		</g>
	</g>
	<g>
		<g>
			<path class="st14" d="M303.4,270.6l31.7,23.7c8.8,4.6,14.6,0.8,17.4-3l8.8-19c3.5-4.8,1.9-11.6-3.4-14.3L332.6,233
				c-8.1-5.2-15.7,0.5-18.5,4.3l-14.1,19C296.4,261.1,299.1,266.2,303.4,270.6z"/>
			<path class="st15" d="M309.8,269.2l31.7,23.7c4.2,2.1,9.3,0.9,12.1-2.9l14.1-19c3.5-4.8,1.9-11.6-3.4-14.3L332.6,233
				c-4.2-2.1-9.3-0.9-12.1,2.9l-14.1,19C302.9,259.7,305.1,265.2,309.8,269.2z"/>
		</g>
		<g>
			<path class="st14" d="M346.1,270.7l2.6-0.9l-8.6-21.1l-3.2,1.1c-0.3,0.1-0.5,0.3-0.7,0.5l-12.1,15.5c-0.7,0.9-0.2,2.3,1,2.4
				l18.9,2.6C344.8,271,345.5,271,346.1,270.7z"/>
			<polygon class="st9" points="348.7,269.9 340.1,248.8 326.2,266.8 			"/>
		</g>
	</g>
	<g>
		<path class="st0" d="M298.6,157.7l1.2,2.4l12.9-6.9c-0.7-0.6-1.3-1.4-1.5-2.2L298.6,157.7z M319.8,161.3l-2.7-7.4
			c-0.9,0.3-1.8,0.3-2.7,0.1l3.3,11.7l15.2-8.5c-0.7-0.6-1.1-1.4-1.4-2.3L319.8,161.3z M356,158l-15.7,7.3l-2.3-7.2
			c-0.8,0.3-1.8,0.4-2.7,0.3l2.8,10.8l19-8.8L356,158z"/>
		<path class="st0" d="M333.8,157.8c-2.3-1.3-3.1-4.2-1.8-6.4c1.3-2.3,4.2-3.1,6.4-1.8c2.3,1.3,3.1,4.2,1.8,6.4
			C339,158.3,336.1,159.1,333.8,157.8z M337.1,151.9c-1-0.6-2.2-0.2-2.8,0.8c-0.6,1-0.2,2.2,0.8,2.8c1,0.6,2.2,0.2,2.8-0.8
			S338.1,152.4,337.1,151.9z"/>
		<path class="st0" d="M313.3,153.5c-2.3-1.3-3.1-4.2-1.8-6.4c1.3-2.3,4.2-3.1,6.4-1.8c2.3,1.3,3.1,4.2,1.8,6.4
			C318.5,154,315.6,154.8,313.3,153.5z M316.6,147.6c-1-0.6-2.2-0.2-2.8,0.8c-0.6,1-0.2,2.2,0.8,2.8c1,0.6,2.2,0.2,2.8-0.8
			C318,149.4,317.6,148.2,316.6,147.6z"/>
		<polygon class="st0" points="347.9,156.3 352.9,167.4 362.1,156.4 		"/>
	</g>
	<g>
		<path class="st0" d="M44.9,296.8H34.6v11h-5.3v-11H19V292h10.3v-10.9h5.3V292h10.3V296.8z"/>
	</g>
	<g>
		<path class="st0" d="M273.6,54.1h-4.1v4.3h-2.1v-4.3h-4.1v-1.9h4.1v-4.3h2.1v4.3h4.1V54.1z"/>
	</g>
	<g>
		<path class="st0" d="M380.6,203.9h-6.3v6.7H371v-6.7h-6.3v-3h6.3v-6.7h3.3v6.7h6.3V203.9z"/>
	</g>
	<g>
		<path class="st0" d="M88.2,123h-6.3v6.7h-3.3V123h-6.3v-3h6.3v-6.7h3.3v6.7h6.3V123z"/>
	</g>
	<g>
		<polygon class="st4" points="62.9,59.7 62.9,59.7 62.9,59.7 		"/>
		<path class="st4" d="M61.4,63.6c-0.8,0.2-1.5,0.2-1.5,0.2l0-0.2c0.8-0.6,2.7-2.5,3-3.4c0.1-0.4,0-0.5,0-0.5l-2.5,1.1l-2.1,0.9l0,0
			c-1.4-1.5-3.6-2.5-6.1-2.5c-4.4,0-7.9,3.1-7.9,6.9c0,0.7,0.1,2,0.3,2.6c0,0.2,0-0.2,0,0c-2.8-0.1-6.4-1.2-9.6-2.9
			c-6.3-3.2-6.7-5.4-6.7-5.4c-1,1.1-1.5,4.5-0.5,7.3c0.6,1.8,2.9,3.3,2.9,3.3l0,0c0,0-1,0-2-0.3c-1-0.4-1.4-0.7-1.4-0.7
			c-0.6,1.5,0.6,4.2,2.8,6.1c1.2,1.1,3.5,1.8,3.5,1.8L29.9,78c-0.2,3.5,7.3,5.5,7.3,5.5l0,0c-2.2,1.7-4.7,2.7-7.4,2.7
			c-1.4,0-2.8-0.2-4.1-0.6c3.6,3,8.2,5,13.2,4.7C52.2,89.7,59.7,78.3,60.1,67l0,0c0,0,0.6-0.3,2-1.6c1.3-1.3,2.2-2.9,2.2-2.9
			S62.2,63.4,61.4,63.6z"/>
		<path class="st4" d="M62.9,59.7C62.9,59.9,62.9,59.7,62.9,59.7L62.9,59.7z"/>
	</g>
	<g>
		
			<rect x="165" y="208.2" transform="matrix(0.9969 7.897177e-02 -7.897177e-02 0.9969 17.8157 -12.6879)" class="st0" width="8.7" height="21.5"/>
		
			<rect x="176.7" y="214.3" transform="matrix(0.9969 7.897625e-02 -7.897625e-02 0.9969 18.1323 -13.6002)" class="st0" width="8.7" height="16.3"/>
		
			<rect x="189.7" y="198.6" transform="matrix(0.9969 7.897625e-02 -7.897625e-02 0.9969 17.5914 -14.6541)" class="st0" width="8.7" height="33"/>
		
			<rect x="161.7" y="230.6" transform="matrix(0.9969 7.897408e-02 -7.897408e-02 0.9969 18.8072 -13.5464)" class="st0" width="37.9" height="0.9"/>
		<path class="st0" d="M170.2,207.5l-3.3-6.9l7.6,0.6L170.2,207.5z M168.6,201.8l1.8,3.7l2.3-3.4L168.6,201.8z"/>
		<path class="st0" d="M181.7,213.6l-3.3-6.9l7.6,0.6L181.7,213.6z M180.1,207.9l1.8,3.7l2.3-3.4L180.1,207.9z"/>
		<path class="st0" d="M195.4,197.5l-3.3-6.9l7.6,0.6L195.4,197.5z M193.8,191.8l1.8,3.7l2.3-3.4L193.8,191.8z"/>
	</g>
	<g>
		<path class="st1" d="M138.4,355.2c-4.8,0-9.3-1.9-12.7-5.3c-3.4-3.4-5.3-7.9-5.3-12.7s1.9-9.3,5.3-12.7c3.5-3.5,8-5.3,12.9-5.3
			l1.1,0l-0.2,16.8h16.8v1.1c0,4.8-1.9,9.3-5.3,12.7C147.7,353.3,143.2,355.2,138.4,355.2z M137.4,321.6
			c-8.2,0.5-14.7,7.3-14.7,15.7c0,8.7,7,15.7,15.7,15.7c8.3,0,15.1-6.4,15.7-14.6h-16.8L137.4,321.6z"/>
		<path class="st1" d="M138.9,336.8l5.4-16.4c2.7,0.9,5.2,2.5,7.2,4.6s3.4,4.6,4.1,7.4L138.9,336.8z"/>
	</g>
</g>
</svg>
