<?xml version="1.0" encoding="utf-8"?>
<!-- Generator: Adobe Illustrator 23.0.4, SVG Export Plug-In . SVG Version: 6.00 Build 0)  -->
<svg version="1.1" id="objects" xmlns="http://www.w3.org/2000/svg" xmlns:xlink="http://www.w3.org/1999/xlink" x="0px" y="0px"
	 viewBox="0 0 800 800" style="enable-background:new 0 0 800 800;" xml:space="preserve">
<style type="text/css">
	.st0{fill:#4D4D4D;}
	.st1{fill:#F2F2F2;}
	.st2{fill:#B3B3B3;}
	.st3{fill:#FF4522;}
	.st4{fill:#47DEE5;}
	.st5{fill:#999999;}
</style>
<g>
	<g>
		<g>
			<g>
				<path class="st0" d="M500.7,452.5h-4c0,0-23.6-6.3-23.6-72c0-19.4-104-19.4-104,1.4c0,63.3-24.2,70.6-24.2,70.6h-3.3
					c-2.9,0-5.2,2.3-5.2,5.2v2.6c0,2.9,2.3,5.2,5.2,5.2h159c2.9,0,5.8-2.3,5.8-5.2v-2.6C506.5,454.8,503.6,452.5,500.7,452.5z"/>
				<path class="st0" d="M605.7,123.5H236.1c-7.1,0-13.6,3.7-13.6,10.9V358v34.3c0,7.1,6.5,16.3,13.6,16.3h369.6
					c7.1,0,10.8-9.2,10.8-16.3V358V134.4C616.5,127.2,612.8,123.5,605.7,123.5z"/>
				<rect x="241.5" y="144.5" class="st1" width="356" height="204"/>
				<path class="st2" d="M437,379.2c0,8.9-7.2,16.1-16.1,16.1l0,0c-8.9,0-16.1-7.2-16.1-16.1l0,0c0-8.9,7.2-16.1,16.1-16.1l0,0
					C429.8,363.1,437,370.3,437,379.2L437,379.2z"/>
			</g>
		</g>
		<g>
			<path class="st3" d="M379.5,173.2c0,2.9-2.4,5.3-5.8,5.3h-66.4c-3.4,0-6.7-2.4-6.7-5.3v-10.4c0-2.9,3.3-5.3,6.7-5.3h66.4
				c3.4,0,5.8,2.4,5.8,5.3V173.2z"/>
			<path class="st4" d="M537.5,240.2c0,2.9-2.6,5.3-6.1,5.3H307.2c-3.4,0-6.7-2.4-6.7-5.3v-49.4c0-2.9,3.3-5.3,6.7-5.3h224.2
				c3.4,0,6.1,2.4,6.1,5.3V240.2z"/>
			<path class="st5" d="M373.5,282.2c0,2.9-2.3,5.3-5.7,5.3h-60.6c-3.4,0-6.7-2.4-6.7-5.3v-26.4c0-2.9,3.3-5.3,6.7-5.3h60.6
				c3.4,0,5.7,2.4,5.7,5.3V282.2z"/>
			<path class="st5" d="M453.5,282.2c0,2.9-2.2,5.3-5.7,5.3h-60.6c-3.4,0-6.8-2.4-6.8-5.3v-26.4c0-2.9,3.3-5.3,6.8-5.3h60.6
				c3.4,0,5.7,2.4,5.7,5.3V282.2z"/>
			<path class="st5" d="M537.5,282.2c0,2.9-2.6,5.3-6.1,5.3h-60.6c-3.4,0-6.4-2.4-6.4-5.3v-26.4c0-2.9,2.9-5.3,6.4-5.3h60.6
				c3.4,0,6.1,2.4,6.1,5.3V282.2z"/>
			<g>
				<path class="st2" d="M453.5,297.5c0,1.2-0.7,2-2.1,2h-67.5c-1.4,0-3.4-0.8-3.4-2v-0.9c0-1.2,2.1-2.1,3.4-2.1h67.5
					c1.4,0,2.1,0.9,2.1,2.1V297.5z"/>
				<path class="st2" d="M453.5,306.3c0,1.2-0.7,2.2-2.1,2.2h-67.5c-1.4,0-3.4-1-3.4-2.2v-0.9c0-1.2,2.1-1.9,3.4-1.9h67.5
					c1.4,0,2.1,0.7,2.1,1.9V306.3z"/>
				<path class="st2" d="M453.5,315.1c0,1.2-0.7,2.4-2.1,2.4h-67.5c-1.4,0-3.4-1.2-3.4-2.4v-0.9c0-1.2,2.1-1.7,3.4-1.7h67.5
					c1.4,0,2.1,0.5,2.1,1.7V315.1z"/>
				<path class="st2" d="M453.5,323.9c0,1.2-0.7,2.6-2.1,2.6h-67.5c-1.4,0-3.4-1.4-3.4-2.6V323c0-1.2,2.1-2.5,3.4-2.5h67.5
					c1.4,0,2.1,1.3,2.1,2.5V323.9z"/>
				<path class="st2" d="M420.5,332.7c0,1.2-0.8,1.8-2.2,1.8h-34.3c-1.4,0-3.4-0.6-3.4-1.8v-0.9c0-1.2,2.1-2.3,3.4-2.3h34.3
					c1.4,0,2.2,1.1,2.2,2.3V332.7z"/>
			</g>
			<g>
				<path class="st2" d="M535.5,297.5c0,1.2,0.2,2-1.2,2h-67.5c-1.4,0-2.3-0.8-2.3-2v-0.9c0-1.2,0.9-2.1,2.3-2.1h67.5
					c1.4,0,1.2,0.9,1.2,2.1V297.5z"/>
				<path class="st2" d="M535.5,306.3c0,1.2,0.2,2.2-1.2,2.2h-67.5c-1.4,0-2.3-1-2.3-2.2v-0.9c0-1.2,0.9-1.9,2.3-1.9h67.5
					c1.4,0,1.2,0.7,1.2,1.9V306.3z"/>
				<path class="st2" d="M535.5,315.1c0,1.2,0.2,2.4-1.2,2.4h-67.5c-1.4,0-2.3-1.2-2.3-2.4v-0.9c0-1.2,0.9-1.7,2.3-1.7h67.5
					c1.4,0,1.2,0.5,1.2,1.7V315.1z"/>
				<path class="st2" d="M535.5,323.9c0,1.2,0.2,2.6-1.2,2.6h-67.5c-1.4,0-2.3-1.4-2.3-2.6V323c0-1.2,0.9-2.5,2.3-2.5h67.5
					c1.4,0,1.2,1.3,1.2,2.5V323.9z"/>
				<path class="st2" d="M502.5,332.7c0,1.2,0.1,1.8-1.3,1.8h-34.3c-1.4,0-2.3-0.6-2.3-1.8v-0.9c0-1.2,0.9-2.3,2.3-2.3h34.3
					c1.4,0,1.3,1.1,1.3,2.3V332.7z"/>
			</g>
			<g>
				<path class="st2" d="M372.5,297.5c0,1.2-0.5,2-1.9,2h-67.5c-1.4,0-2.6-0.8-2.6-2v-0.9c0-1.2,1.2-2.1,2.6-2.1h67.5
					c1.4,0,1.9,0.9,1.9,2.1V297.5z"/>
				<path class="st2" d="M372.5,306.3c0,1.2-0.5,2.2-1.9,2.2h-67.5c-1.4,0-2.6-1-2.6-2.2v-0.9c0-1.2,1.2-1.9,2.6-1.9h67.5
					c1.4,0,1.9,0.7,1.9,1.9V306.3z"/>
				<path class="st2" d="M372.5,315.1c0,1.2-0.5,2.4-1.9,2.4h-67.5c-1.4,0-2.6-1.2-2.6-2.4v-0.9c0-1.2,1.2-1.7,2.6-1.7h67.5
					c1.4,0,1.9,0.5,1.9,1.7V315.1z"/>
				<path class="st2" d="M372.5,323.9c0,1.2-0.5,2.6-1.9,2.6h-67.5c-1.4,0-2.6-1.4-2.6-2.6V323c0-1.2,1.2-2.5,2.6-2.5h67.5
					c1.4,0,1.9,1.3,1.9,2.5V323.9z"/>
				<path class="st2" d="M339.5,332.7c0,1.2-0.6,1.8-2,1.8h-34.3c-1.4,0-2.6-0.6-2.6-1.8v-0.9c0-1.2,1.2-2.3,2.6-2.3h34.3
					c1.4,0,2,1.1,2,2.3V332.7z"/>
			</g>
		</g>
	</g>
	<g>
		<g>
			<g>
				<path class="st0" d="M397.5,627.5h-302V433.8c0-4,4-6.3,8-6.3h288c4,0,6,2.3,6,6.3V627.5z"/>
				<rect x="107.5" y="441.5" class="st1" width="280" height="171"/>
				<path class="st0" d="M436.5,635.5v-8.4c0-2-1-2.6-3.1-2.6h-370c-2,0-3.9,0.5-3.9,2.6v8.4h0.3c0,0,9.1,7,14.6,7h348.2
					c5.5,0,14.6-7,14.6-7H436.5z"/>
				<path class="st2" d="M281.2,630.5h-65.6c-5.5,0-5.5-6-5.5-6h76.6C286.7,624.5,286.7,630.5,281.2,630.5z"/>
			</g>
		</g>
		<g>
			<path class="st3" d="M219.5,465.9c0,2.4-1.6,4.6-4.1,4.6h-47.1c-2.4,0-4.8-2.1-4.8-4.6v-8.8c0-2.4,2.4-4.6,4.8-4.6h47.1
				c2.4,0,4.1,2.2,4.1,4.6V465.9z"/>
			<path class="st4" d="M331.5,522.1c0,2.4-2,4.4-4.4,4.4H167.9c-2.4,0-4.4-2-4.4-4.4v-41.2c0-2.4,2-4.4,4.4-4.4h159.2
				c2.4,0,4.4,2,4.4,4.4V522.1z"/>
			<path class="st5" d="M215.5,557.2c0,2.4-2.1,4.3-4.5,4.3h-42.7c-2.4,0-4.8-1.9-4.8-4.3v-22.1c0-2.4,2.4-4.6,4.8-4.6H211
				c2.4,0,4.5,2.2,4.5,4.6V557.2z"/>
			<path class="st5" d="M272.5,557.1c0,2.4-2,4.4-4.4,4.4h-42.2c-2.4,0-4.4-2-4.4-4.4v-22.2c0-2.4,2-4.4,4.4-4.4h42.2
				c2.4,0,4.4,2,4.4,4.4V557.1z"/>
			<path class="st5" d="M330.5,557.1c0,2.4-2,4.4-4.4,4.4h-42.2c-2.4,0-4.4-2-4.4-4.4v-22.2c0-2.4,2-4.4,4.4-4.4h42.2
				c2.4,0,4.4,2,4.4,4.4V557.1z"/>
			<g>
				<path class="st2" d="M272.5,570c0,1-0.5,1.5-1.5,1.5h-47.9c-1,0-1.6-0.4-1.6-1.5v-0.7c0-1,0.6-1.8,1.6-1.8H271
					c1,0,1.5,0.8,1.5,1.8V570z"/>
				<path class="st2" d="M272.5,577.4c0,1-0.5,2.1-1.5,2.1h-47.9c-1,0-1.6-1.1-1.6-2.1v-0.7c0-1,0.6-2.2,1.6-2.2H271
					c1,0,1.5,1.1,1.5,2.2V577.4z"/>
				<path class="st2" d="M272.5,584.8c0,1-0.5,2.7-1.5,2.7h-47.9c-1,0-1.6-1.7-1.6-2.7V584c0-1,0.6-2.5,1.6-2.5H271
					c1,0,1.5,1.5,1.5,2.5V584.8z"/>
				<path class="st2" d="M272.5,592.1c0,1-0.5,2.4-1.5,2.4h-47.9c-1,0-1.6-1.4-1.6-2.4v-0.7c0-1,0.6-1.9,1.6-1.9H271
					c1,0,1.5,0.9,1.5,1.9V592.1z"/>
				<path class="st2" d="M248.5,599.5c0,1,0,2-1,2h-24.4c-1,0-1.6-1-1.6-2v-0.7c0-1,0.6-2.2,1.6-2.2h24.4c1,0,1,1.2,1,2.2V599.5z"/>
			</g>
			<g>
				<path class="st2" d="M331.5,570c0,1-0.6,1.5-1.6,1.5h-47.9c-1,0-2.4-0.4-2.4-1.5v-0.7c0-1,1.5-1.8,2.4-1.8h47.9
					c1,0,1.6,0.8,1.6,1.8V570z"/>
				<path class="st2" d="M331.5,577.4c0,1-0.6,2.1-1.6,2.1h-47.9c-1,0-2.4-1.1-2.4-2.1v-0.7c0-1,1.5-2.2,2.4-2.2h47.9
					c1,0,1.6,1.1,1.6,2.2V577.4z"/>
				<path class="st2" d="M331.5,584.8c0,1-0.6,2.7-1.6,2.7h-47.9c-1,0-2.4-1.7-2.4-2.7V584c0-1,1.5-2.5,2.4-2.5h47.9
					c1,0,1.6,1.5,1.6,2.5V584.8z"/>
				<path class="st2" d="M331.5,592.1c0,1-0.6,2.4-1.6,2.4h-47.9c-1,0-2.4-1.4-2.4-2.4v-0.7c0-1,1.5-1.9,2.4-1.9h47.9
					c1,0,1.6,0.9,1.6,1.9V592.1z"/>
				<path class="st2" d="M308.5,599.5c0,1-1.2,2-2.2,2h-24.4c-1,0-2.4-1-2.4-2v-0.7c0-1,1.5-2.2,2.4-2.2h24.4c1,0,2.2,1.2,2.2,2.2
					V599.5z"/>
			</g>
			<g>
				<path class="st2" d="M215.5,570c0,1-0.9,1.5-1.9,1.5h-47.9c-1,0-2.2-0.4-2.2-1.5v-0.7c0-1,1.2-1.8,2.2-1.8h47.9
					c1,0,1.9,0.8,1.9,1.8V570z"/>
				<path class="st2" d="M215.5,577.4c0,1-0.9,2.1-1.9,2.1h-47.9c-1,0-2.2-1.1-2.2-2.1v-0.7c0-1,1.2-2.2,2.2-2.2h47.9
					c1,0,1.9,1.1,1.9,2.2V577.4z"/>
				<path class="st2" d="M215.5,584.8c0,1-0.9,2.7-1.9,2.7h-47.9c-1,0-2.2-1.7-2.2-2.7V584c0-1,1.2-2.5,2.2-2.5h47.9
					c1,0,1.9,1.5,1.9,2.5V584.8z"/>
				<path class="st2" d="M215.5,592.1c0,1-0.9,2.4-1.9,2.4h-47.9c-1,0-2.2-1.4-2.2-2.4v-0.7c0-1,1.2-1.9,2.2-1.9h47.9
					c1,0,1.9,0.9,1.9,1.9V592.1z"/>
				<path class="st2" d="M191.5,599.5c0,1-0.4,2-1.4,2h-24.4c-1,0-2.2-1-2.2-2v-0.7c0-1,1.2-2.2,2.2-2.2h24.4c1,0,1.4,1.2,1.4,2.2
					V599.5z"/>
			</g>
		</g>
	</g>
	<g>
		<g>
			<g>
				<path class="st0" d="M740.5,527c0,7.7-6,14.5-13.7,14.5h-143c-7.7,0-14.3-6.9-14.3-14.5V329c0-7.7,6.7-14.5,14.3-14.5h143
					c7.7,0,13.7,6.9,13.7,14.5V527z"/>
				<rect x="583.5" y="331.5" class="st1" width="143" height="174"/>
				<path class="st2" d="M666.8,523c0,6.3-5.1,11.5-11.5,11.5c-6.3,0-11.5-5.1-11.5-11.5c0-6.3,5.1-11.5,11.5-11.5
					C661.7,511.5,666.8,516.7,666.8,523z"/>
			</g>
		</g>
		<g>
			<path class="st3" d="M656.5,358.6c0,2.4-1.8,3.9-4.2,3.9h-46.4c-2.4,0-4.4-1.5-4.4-3.9v-8.7c0-2.4,1.9-4.4,4.4-4.4h46.4
				c2.4,0,4.2,1.9,4.2,4.4V358.6z"/>
			<path class="st4" d="M708.5,413.7c0,2.4-1.6,4.8-4,4.8h-98.6c-2.4,0-4.4-2.4-4.4-4.8v-40.6c0-2.4,1.9-4.6,4.4-4.6h98.6
				c2.4,0,4,2.2,4,4.6V413.7z"/>
			<path class="st5" d="M652.5,448.5c0,2.4-2.2,4-4.6,4h-42.1c-2.4,0-4.4-1.6-4.4-4v-21.8c0-2.4,1.9-4.2,4.4-4.2h42.1
				c2.4,0,4.6,1.8,4.6,4.2V448.5z"/>
			<path class="st5" d="M708.5,448.5c0,2.4-1.6,4-4,4h-42.1c-2.4,0-3.9-1.6-3.9-4v-21.8c0-2.4,1.5-4.2,3.9-4.2h42.1
				c2.4,0,4,1.8,4,4.2V448.5z"/>
			<g>
				<path class="st2" d="M708.5,461.2c0,1-0.5,1.3-1.4,1.3h-47.2c-1,0-1.3-0.3-1.3-1.3v-0.7c0-1,0.4-2,1.3-2h47.2c1,0,1.4,1,1.4,2
					V461.2z"/>
				<path class="st2" d="M708.5,468.4c0,1-0.5,2.1-1.4,2.1h-47.2c-1,0-1.3-1.1-1.3-2.1v-0.7c0-1,0.4-2.2,1.3-2.2h47.2
					c1,0,1.4,1.2,1.4,2.2V468.4z"/>
				<path class="st2" d="M708.5,475.7c0,1-0.5,1.8-1.4,1.8h-47.2c-1,0-1.3-0.8-1.3-1.8V475c0-1,0.4-1.5,1.3-1.5h47.2
					c1,0,1.4,0.5,1.4,1.5V475.7z"/>
				<path class="st2" d="M708.5,482.9c0,1-0.5,1.6-1.4,1.6h-47.2c-1,0-1.3-0.6-1.3-1.6v-0.7c0-1,0.4-1.7,1.3-1.7h47.2
					c1,0,1.4,0.7,1.4,1.7V482.9z"/>
				<path class="st2" d="M685.5,490.2c0,1-0.7,2.3-1.6,2.3h-24c-1,0-1.3-1.3-1.3-2.3v-0.7c0-1,0.4-2,1.3-2h24c1,0,1.6,1,1.6,2V490.2
					z"/>
			</g>
			<g>
				<path class="st2" d="M652.5,461.2c0,1-1,1.3-2,1.3h-47.2c-1,0-1.8-0.3-1.8-1.3v-0.7c0-1,0.8-2,1.8-2h47.2c1,0,2,1,2,2V461.2z"/>
				<path class="st2" d="M652.5,468.4c0,1-1,2.1-2,2.1h-47.2c-1,0-1.8-1.1-1.8-2.1v-0.7c0-1,0.8-2.2,1.8-2.2h47.2c1,0,2,1.2,2,2.2
					V468.4z"/>
				<path class="st2" d="M652.5,475.7c0,1-1,1.8-2,1.8h-47.2c-1,0-1.8-0.8-1.8-1.8V475c0-1,0.8-1.5,1.8-1.5h47.2c1,0,2,0.5,2,1.5
					V475.7z"/>
				<path class="st2" d="M652.5,482.9c0,1-1,1.6-2,1.6h-47.2c-1,0-1.8-0.6-1.8-1.6v-0.7c0-1,0.8-1.7,1.8-1.7h47.2c1,0,2,0.7,2,1.7
					V482.9z"/>
				<path class="st2" d="M629.5,490.2c0,1-1.2,2.3-2.2,2.3h-24c-1,0-1.8-1.3-1.8-2.3v-0.7c0-1,0.8-2,1.8-2h24c1,0,2.2,1,2.2,2V490.2
					z"/>
			</g>
		</g>
	</g>
	<g>
		<g>
			<g>
				<path class="st0" d="M596.5,664.2c0,6.5-6.3,12.3-12.7,12.3h-74.3c-6.5,0-11.9-5.8-11.9-12.3V503.8c0-6.5,5.4-12.3,11.9-12.3
					h74.3c6.5,0,12.7,5.8,12.7,12.3V664.2z"/>
				<g>
					<path class="st0" d="M596.5,664.2c0,6.5-6.3,12.3-12.7,12.3h-74.3c-6.5,0-11.9-5.8-11.9-12.3V503.8c0-6.5,5.4-12.3,11.9-12.3
						h74.3c6.5,0,12.7,5.8,12.7,12.3V664.2z"/>
					<rect x="504.5" y="514.5" class="st1" width="85" height="135"/>
					<path class="st2" d="M553.7,662.7c0,3.9-3.2,7.1-7.1,7.1c-3.9,0-7.1-3.2-7.1-7.1c0-3.9,3.2-7.1,7.1-7.1
						C550.5,655.6,553.7,658.8,553.7,662.7z"/>
					<path class="st2" d="M563.5,505.6c0,1-0.8,1.9-1.9,1.9h-35.3c-1,0-1.9-0.8-1.9-1.9v-0.3c0-1,0.8-1.9,1.9-1.9h35.3
						c1,0,1.9,0.8,1.9,1.9V505.6z"/>
				</g>
			</g>
		</g>
		<g>
			<path class="st3" d="M580.5,535c0,1.9-1.6,3.5-3.5,3.5h-60c-1.9,0-3.5-1.6-3.5-3.5v-7c0-1.9,1.6-3.5,3.5-3.5h60
				c1.9,0,3.5,1.6,3.5,3.5V535z"/>
			<path class="st4" d="M580.5,579c0,1.9-1.6,3.5-3.5,3.5h-60c-1.9,0-3.5-1.6-3.5-3.5v-33c0-1.9,1.6-3.5,3.5-3.5h60
				c1.9,0,3.5,1.6,3.5,3.5V579z"/>
			<path class="st5" d="M580.5,607.1c0,1.9-1.2,3.4-3.2,3.4h-60.6c-2,0-3.2-1.5-3.2-3.4v-17.6c0-1.9,1.2-3,3.2-3h60.6
				c2,0,3.2,1,3.2,3V607.1z"/>
			<path class="st5" d="M580.5,636.1c0,1.9-1.2,3.4-3.2,3.4h-60.6c-2,0-3.2-1.5-3.2-3.4v-17.6c0-1.9,1.2-3,3.2-3h60.6
				c2,0,3.2,1,3.2,3V636.1z"/>
		</g>
	</g>
</g>
</svg>
