<?xml version="1.0" encoding="UTF-8"?> <!-- Generator: Adobe Illustrator 21.1.0, SVG Export Plug-In . SVG Version: 6.00 Build 0) --> <svg xmlns="http://www.w3.org/2000/svg" xmlns:xlink="http://www.w3.org/1999/xlink" x="0px" y="0px" viewBox="0 0 1971 886" style="enable-background:new 0 0 1971 886;" xml:space="preserve"> <style type="text/css"> .st0{display:none;} .st1{display:inline;fill:#BA0D0D;} .st2{fill:#FFFFFF;} .st3{fill:#010101;} .st4{fill:#E00A3C;} .st5{fill:#FE9223;} .st6{fill:#E10A17;} .st7{fill:#013470;} .st8{fill:#8B132A;} .st9{fill:#6B7174;} .st10{fill:#00579C;} .st11{fill:#04254E;} .st12{fill:#003875;} .st13{fill:#074A8C;} .st14{fill:#AABCD0;} .st15{fill:#FEFDFD;} .st16{fill:#FDF8F9;} .st17{fill:#FBFBFC;} .st18{fill:#E00A1F;} </style> <g id="Capa_2" class="st0"> <rect x="-350" y="-200" class="st1" width="2564" height="1424"></rect> </g> <g id="Capa_3"> <rect x="1212.7" y="532.5" class="st2" width="219.7" height="137.5"></rect> </g> <g id="Capa_1"> <g> <path class="st3" d="M344.4,218.3c12.8-16.5,28-30.1,46.4-40.2c48.7-26.6,113.1-17.4,152.5,21.7c14.5,14.4,25.8,30.8,33,49.9 c0.3,0.8,0.2,2,1.7,2.4c0-1.9,0-3.7,0-5.5c0-51.3,0-102.7-0.1-154c0-3.7,0.7-5,4.8-5c17.5,0.3,35,0.2,52.5,0 c3.5,0,4.4,0.9,4.4,4.4c-0.1,32.5-0.1,65-0.1,97.5c0,1.8-0.5,3.6,0.6,5.7c7.8-7.1,15.7-14,25.3-18.4c46.1-21.3,89.9-16.4,130,14.2 c33.1,25.3,49.5,60.4,51.9,101.6c2.4,42.4-10.3,79.7-40.9,110.1c-36.9,36.7-98,45.8-141.1,21.2c-5.7-3.2-11-6.9-15.9-11.2 c-4.7-4.2-9.3-8.5-14.2-13.1c-1.4,3.5-0.5,7.1-0.6,10.5c-0.2,5.2-0.2,10.3,0,15.5c0.1,2.4-0.7,3.1-3.1,3.1 c-16.8-0.1-33.7-0.2-50.5,0c-3.7,0-2.9-2.1-2.9-4.1c0-30.5-0.1-61,0.1-91.5c0-4.4-1.1-5.4-5.4-5.4c-61.3,0.2-122.7,0.1-184,0.1 c-5.9,0-5.9,0-3.8,5.8c13.9,38.6,58.4,58,94.5,41.3c11.4-5.3,19.8-13.9,26.6-24.2c1.1-1.7,2-3.1,4.5-3.1c21.5,0.1,43,0.1,64.5,0.1 c-9.2,39.6-57,91-125,89.7C370.6,436.2,311,368,317.3,289.6c-2.5,6.7-5,13.5-7.4,20.2c-14,38.4-28,76.8-41.9,115.2 c-1,2.9-2.2,4.2-5.5,4.1c-10-0.3-20-0.3-30,0c-3.3,0.1-4.5-1.1-5.4-4c-13-44.7-26.1-89.3-39.1-133.9c-2.5-8.5-5-17-8.5-25.6 c-3.8,12.9-7.7,25.8-11.5,38.7c-11.9,40.1-23.9,80.2-35.6,120.4c-0.9,3.2-2.1,4.5-5.7,4.4c-9.7-0.3-19.3-0.2-29,0 c-3.1,0.1-4.6-0.7-5.7-3.8C62.4,343.5,32.8,261.7,3.2,179.9c-0.6-1.7-0.7-3.6-2.2-4.9c0-0.7,0-1.3,0-2c20.5,0,41,0.1,61.5-0.1 c3.7,0,5,1.2,6,4.6c14.7,49.3,29.7,98.6,44.5,147.8c0.1,0.5,0.4,0.9,0.6,1.5c2.1-1,1.7-3.2,2.1-4.7 c13.2-48.4,26.4-96.8,39.4-145.2c0.8-3.1,2.2-4,5.4-4c13.5,0.2,27,0.2,40.5,0c2.8,0,4.3,0.5,5.1,3.7c12.9,49,25.9,98,38.9,146.9 c0.3,1.3,0.8,2.5,1.5,4.7c4.3-14,8.4-27.1,12.5-40.3c11.4-37,22.7-73.9,34.2-110.9c0.6-1.9,0.5-4.1,3.8-4.1 c20.6,0.2,41.3,0.1,62.5,0.1c-5.3,15.2-10.5,30-15.7,44.8c-0.8,0.5-0.9,1.2-0.4,2C343.7,219.3,344,218.8,344.4,218.3z M786.1,301.3c0.2-6.9-0.5-13.7-2.1-20.3c-6.7-27.9-22.5-48.3-50.5-56.7c-28.7-8.6-54.4-1.8-75.7,19.5 c-30.4,30.5-29.5,84.5,1.5,115.6c26,26.1,68.5,29.5,97.2,7.2C777.6,350.2,785.3,327.2,786.1,301.3z M524.5,278.8 c-5.5-27.8-28.4-58.8-70.6-59.5c-34.7-0.6-65.8,24.9-72.6,59.5C429.1,278.8,476.8,278.8,524.5,278.8z"></path> <path class="st4" d="M1666,887c-5.4-1.8-11.1-3.1-15.5-7.4c-1.8,5.2-8.8,7.9-13.4,5.7c-1.7-0.8-1.7-2.3-1.7-3.8 c0-32.3,0-64.6,0-96.9c0-3.2,1.2-4.7,4.4-4.4c1.5,0.1,3,0.1,4.5,0c4-0.4,5.3,1.7,5.2,5.3c-0.1,6.8,0.1,13.7-0.1,20.5 c-0.1,3.9,0.3,5,4.4,2.8c13.2-7.3,32-4.5,41,5.6c5.1,5.8,7.7,12.8,8.5,20.4c1.2,10.8,1.1,21.6-2.6,32.1 c-4,11.1-11.7,17.9-23.7,19.3c-0.8,0.1-1.7-0.1-2.1,0.9C1672,887,1669,887,1666,887z M1690.2,844c0.1-4.1-0.3-10.1-2.5-15.8 c-2.9-7.2-8.3-10.9-16.1-11.3c-8.5-0.4-15.9,1.8-19.1,10.3c-4.6,12.4-4.5,25.1,0.3,37.5c3.1,7.9,10.1,9.9,18,9.7 c7.6-0.2,13.5-3.1,16.5-10.5C1689.7,858.2,1690.1,852.1,1690.2,844z"></path> <path class="st5" d="M1349,179.6c0,13.6,0,25.7,0,37.9c0,63,0,126,0.1,189c0,4.5-1,5.9-5.7,5.8c-14.2-0.3-28.3-0.4-42.5,0 c-5.1,0.1-6.1-1.5-5.9-6.2c0.4-7.1,0.1-14.3,0.1-22c-31.4,28.3-67,42.6-109.1,33.8c-42.2-8.8-69-35.9-85.3-75.6 c-5.6,12.8-12,24.2-20.5,34.3c-26.3,30.9-59.6,45.5-100.4,43.7c-24.1-1.1-43.9-10.7-61.3-26.6c-1.1-1-2.3-1.9-3.4-2.9 c-0.1-0.1-0.3,0-1,0c0,1.7,0,3.4,0,5.2c0,30.7-0.1,61.3,0.1,92c0,3.6-0.7,4.9-4.6,4.9c-16.5-0.2-33-0.2-49.5,0 c-3.8,0-4.8-1-4.8-4.8c0.1-24.5,0.1-49,0.1-73.5c0-79.7,0-159.3,0-239c0-6.5,0-6.6,6.3-6.6c14.3,0,28.7,0.1,43-0.1 c3.5,0,4.6,0.9,4.5,4.5c-0.3,7.5-0.1,15-0.1,23.8c29.1-33.6,65.6-42.2,106.6-33.2c41.1,9,68.4,35.2,85.4,73.6 c17.2-39,44.9-64.9,86.4-73.9c42-9.1,77.4,3.7,107.6,34.8c0-8.5,0.2-16.6-0.1-24.6c-0.2-4.1,1.2-4.9,5.1-4.9 c35.5,0.1,71,0.2,106.5,0c4.2,0,6,1.2,7.4,5.2c16.8,48.1,33.8,96,50.7,144c0.5,1.5,1.1,3.1,1.8,4.7c2.1-1,2.1-3.1,2.7-4.6 c18.2-48.1,36.5-96.1,54.5-144.2c1.4-3.6,2.9-5.1,7-5.1c19,0.3,38,0.2,57,0c4.4,0,4.6,1.1,3,4.7 c-45.6,105.1-91.2,210.3-136.7,315.5c-1.2,2.7-2.6,3.7-5.5,3.7c-18-0.1-36-0.2-54,0c-4.3,0-5-0.7-3.2-4.9 c13.8-31.7,27.5-63.5,41.2-95.3c1-2.4,1.5-4.4,0.4-7.1c-27.6-67.8-55.1-135.6-82.6-203.4C1350.2,181.9,1349.9,181.5,1349,179.6z M1150.6,294.7c-0.1,8.2,2,18.7,6.4,28.8c20.3,47.5,84.1,58.7,117.4,20.4c18-20.7,22.3-45.2,17.5-71.6c-8-44-54.2-69.3-95.6-52.6 C1168.3,230.9,1150.7,258.8,1150.6,294.7z M981.9,214.7c-11.4,0.2-20.8,2.2-30,6.8c-44.5,21.8-55.9,85-21.9,122.1 c26.3,28.8,68.7,31.3,96.6,5.7c25.7-23.6,33.1-62,17.6-93.4C1031.4,230.2,1010.8,216,981.9,214.7z"></path> <path class="st6" d="M1708.7,357.8c-27.3,0-54.7,0-82,0c-10.1,0-14.5-4.4-14.5-14.7c0-54-0.1-108,0.1-162c0-9.3,3.2-17.5,10-24.2 c49.8-49.6,99.7-99.2,149.5-148.8c7.8-7.7,13.4-7.7,21.3,0.2c48,47.7,95.9,95.4,143.9,143.1c9.7,9.6,19.4,19.2,29.1,28.9 c6.5,6.5,6.6,12.5,0.1,19c-50.7,50.4-101.3,100.8-152.2,151.1c-6,5.9-14.2,7.3-22.2,7.3C1764,358,1736.3,357.8,1708.7,357.8z M1657.5,251c20.5,13.7,40.9,12,55.2-4.2c15-16.9,15.1-44.3,0.2-61c-7.1-7.9-16-12.3-26.6-13.3c-11.7-1.1-21.9,2.4-30.2,11.4 c-0.7-8.8-0.7-8.8-9-8.8c-1.3,0-2.7,0.2-4,0c-4.4-0.6-5.9,0.8-5.9,5.6c0.3,20.3,0.1,40.7,0.1,61c0,13.2,0.1,26.3-0.1,39.5 c0,3.1,0.8,4.1,3.9,3.9c4.1-0.3,8.3-0.3,12.5,0c3.2,0.2,3.9-1.1,3.8-4C1657.4,271.3,1657.5,261.4,1657.5,251z M1812,250.8 c-1.5,6.7,1.6,7.6,6.3,7.1c2.8-0.3,5.7-0.2,8.5,0c2.7,0.2,3.4-0.8,3.4-3.4c-0.1-25.3-0.1-50.6,0-76c0-2.5-0.7-3.6-3.4-3.4 c-3.8,0.2-7.7,0.3-11.5,0c-4-0.4-5.4,0.8-5.3,5.1c0.3,11.8,0.1,23.6,0.1,35.5c0,6-0.2,12-2.9,17.6c-3,6.2-8,9.1-14.9,8.8 c-6.6-0.3-10.8-3.6-13.3-9.5c-2-4.9-2.4-10-2.4-15.2c0-12.7-0.1-25.3,0-38c0-3.1-0.7-4.5-4.1-4.3c-4,0.3-8,0.2-12,0 c-2.9-0.2-4.1,0.5-4.1,3.8c0.2,15.8-0.1,31.6,0.1,47.5c0.1,8.1,1.7,15.8,7.3,22.3C1776.3,262.9,1794.8,264.1,1812,250.8z M1842.2,231.5c-1.8,0-3.7,0.2-5.5,0c-4.2-0.6-5,1-4.3,5c3.2,16.5,17.4,26.3,34.8,23.6c13-2,23.5-13.4,24.6-26.5 c1-12.3-5.4-20.8-19.3-25.5c-4.3-1.4-8.5-2.8-12.7-4.4c-2.9-1.1-5.2-3-4.8-6.7c0.3-3,2.1-5,4.9-5.7c3.2-0.9,7.1-0.7,8.3,2.6 c1.7,4.6,4.9,4.1,8.3,4.1c3.2,0,6.4-0.2,9.5,0.1c3.4,0.3,3.9-1.1,3.3-4.1c-2.3-10.6-8.6-17.6-19-20.4c-11.4-3.1-21.6-0.4-29.4,8.6 c-11.3,13.2-6.3,32.3,9.8,38.7c5.7,2.3,11.8,3.5,17.1,6.7c3,1.7,4.7,4.4,3.8,7.9c-0.8,3.6-3.2,5.9-6.8,6.5 c-4.7,0.8-9-0.7-10.6-5.5c-1.4-4.4-3.9-5.6-8.1-5C1844.9,231.6,1843.5,231.5,1842.2,231.5z M1748.5,202.6 c0-16.8-0.1-33.6,0.1-50.4c0-3.6-1-4.7-4.5-4.4c-3.5,0.3-7,0.3-10.5,0c-4.1-0.4-5.3,0.9-5.3,5.1c0.2,29.8,0,59.6,0.2,89.4 c0,5.1-2.3,11.9,1.1,14.8c2.9,2.5,9.6,0.4,14.5,0.9c4.1,0.4,4.5-1.5,4.5-4.9C1748.5,236.2,1748.5,219.4,1748.5,202.6z"></path> <path class="st7" d="M1559,523.1c1.7-0.1,3.3-0.2,5-0.2c120.8,0,241.6,0,362.4,0c5.8,0,5.8,0,4.4,5.4 c-12.9,50-25.8,100.1-38.6,150.2c-0.9,3.4-1.8,4.8-5.7,4.8c-121.5-0.1-243-0.1-364.4-0.1c-1.3,0-2.7-0.1-4-0.2 C1531.7,629.6,1545.3,576.4,1559,523.1z M1766.6,580.6c-0.3-0.3-0.7-0.7-1-1c-0.1-2.1,1.9-5.4,0.4-5.9c-3-1-6.6-0.6-9.9-0.4 c-2.2,0.1-1.9,2.4-2.3,3.9c-7.5,31-14.8,62.1-22.5,93.1c-1.1,4.6-0.1,5.3,4.4,5.5c5.4,0.2,7.9-1.1,8.8-6.9c1.2-8,3.6-15.8,5.6-24 c5.7,11.9,14,13.2,23.5,4.1c3-2.9,5.7-6.1,7.7-9.8c7.4-13.5,11.4-28,12.7-43.2c0.5-5.8,0.4-11.7-2.3-17.1 c-3.4-7-10.2-9.2-17.1-5.5C1771.4,575.1,1769,577.8,1766.6,580.6z M1687.8,580.7c0.1-1.4,0-2.1,0.2-2.7c1.5-3.7,0.3-5.2-3.6-4.5 c-1,0.2-2,0.2-3,0c-3.7-0.6-5.3,0.9-5.9,4.7c-0.6,4.3-2,8.4-3,12.6c-4.6,19.4-9.3,38.8-13.9,58.2c-0.3,1.1-1.6,3.1,0.3,3.3 c3.6,0.4,7.4,0.6,10.9-0.2c2-0.4,1.7-3.7,2.2-5.7c3.7-15,7.3-30.1,11-45.1c1-4.1,2.5-8,6.3-10.4c2.1-1.4,4.4-1.9,6.6-0.7 c2.1,1,2.4,3.1,2.2,5.2c-0.2,2.3-0.3,4.7-0.8,6.9c-3.4,14.7-6.8,29.5-10.5,44.2c-1.9,7.4-0.9,5.5,4.9,6.2c5.4,0.6,7.1-1.6,8.1-6.5 c2.8-13,6.1-25.9,9.1-38.8c1-4,2-8.1,4.1-11.7c2.7-4.9,6.7-7.4,9.8-5.8c4.4,2.3,3.3,6.4,2.5,10.1c-3.5,15.1-7,30.1-10.6,45.2 c-1.8,7.4-1.8,7.2,5.8,7.5c4.4,0.2,5.8-1.2,6.8-5.5c3.2-14.4,7-28.7,10.4-43.1c1.6-6.9,3.6-13.9,2.7-21.2 c-1.3-10.8-9.6-14.6-18.7-8.5c-3.4,2.2-5.6,5.5-8.2,8.7C1707.6,568.1,1702.3,567.5,1687.8,580.7z M1850.8,645.3 c0.3,7.2,0.3,7.2,7.5,7.2c0.2,0,0.3,0,0.5,0c6,0,5.9,0,5.3-6c-0.2-1.5,0.1-3,0.4-4.4c1-4.5,2.1-9.1,3.1-13.6 c3-12.9,6.3-25.8,8.9-38.9c2.2-11.3-4.3-18.3-15.8-18.1c-12.9,0.2-24.9,13-25.7,27.5c2,0,4-0.1,6,0c3.6,0.3,6.3-0.1,7.4-4.4 c0.8-3.1,3.3-5.3,6.7-6.2c5.5-1.4,8.8,1.8,7.8,7.3c-1.2,6.3-6,7.7-11.3,8.8c-18.4,3.9-29.6,19.3-27.9,38.2 c1,11.7,10.1,15.9,19.7,9C1846,650,1848.3,647.6,1850.8,645.3z M1608.8,630.7c0,4.2,0.2,8.3,1.3,12.4c2.1,8.1,7.1,11.9,15.4,12.1 c7.8,0.1,13.8-3.4,18.7-9c4.4-5.1,7.8-10.8,10.4-16.9c6.1-14.7,9.8-29.7,6.4-45.7c-1.9-9-7.3-13-16.4-12.7 c-8.4,0.3-14.4,4.7-19.2,11.1C1614.5,596.4,1609.6,612.9,1608.8,630.7z M1559.7,633.4c0.3,3.1,0.4,6.2,1,9.1 c2,10.3,8.9,14.7,19,12.3c3.8-0.9,7-2.9,9.8-5.6c6.2-5.9,10-13.1,13.4-20.8c1.6-3.8,0.8-4.4-3.2-4.7c-5.8-0.3-9.9,0.7-11.3,7 c-0.2,0.9-0.9,1.8-1.4,2.6c-2.1,3-4.8,5.3-8.8,4.1c-3.8-1.1-4.2-4.4-4.2-7.7c0.1-11.7,3-22.7,8.2-33.1c1-1.9,2.4-3.6,3.9-5.1 c2-1.9,4.4-3.1,7.3-2c3,1.1,4,3.9,3.5,6.5c-1,5.7,1.9,6.3,6.3,5.8c1.3-0.2,2.7-0.1,4,0c1.9,0.1,2.6-0.8,2.8-2.6 c0.4-4.3,1.1-8.6,0.8-12.9c-0.9-10.7-7.7-16.1-18.4-14.6c-7.9,1.1-13.1,6.3-17.3,12.4C1565.1,599,1561.2,615.9,1559.7,633.4z M1819,582.2c-0.9-3,2.2-6.1,0.7-8.1c-1.9-2.4-5.5-0.6-8.4-1c-2.2-0.3-3.3,0.5-3.7,2.8c-0.5,2.9-1.4,5.8-2.1,8.7 c-5.1,21.3-10.2,42.6-15.4,63.9c-0.7,2.9-0.4,4,3.1,4c8.9-0.1,8.9,0.1,10.9-8.4c0.3-1.5,0.7-2.9,1.1-4.4c3.3-12.2,5-24.8,9.7-36.5 c2.6-6.4,6.6-11.2,14.5-10.5c2,0.2,2.5-0.9,2.8-2.6c1-4.5,2.1-9,3.2-13.6c0.4-1.6,1.7-3.5,0.4-4.7c-1.6-1.5-3.9-0.4-5.7,0.3 c-3,1.2-5.3,3.3-7.3,5.9C1821.6,579.6,1821,581.4,1819,582.2z"></path> <path class="st8" d="M1559,523.1c-13.7,53.3-27.3,106.6-41,159.9c-1.8,0.1-3.7,0.2-5.5,0.2c-98.2,0-196.3,0-294.5,0.1 c-5.4,0-6.6-1.6-6.3-6.6c0.4-6.6,0.3-13.3,0-20c-0.2-3.8,1.1-4.7,4.7-4.7c37.8,0.1,75.7,0,113.5,0.2c4.1,0,5.8-1.2,6.8-5.1 c2.8-11.1,6.2-22.1,9-33.2c0.8-3.1,2-4.1,5.1-3.9c4.5,0.3,9-0.1,13.5,0.3c6.2,0.6,7.7,2.7,7,8.9c-0.9,8.5-4.3,16.4-5.7,24.8 c-1.4,8-1.5,8,6.8,8c0.7,0,1.3,0,2,0c7.3,0,7.1,0,7.2-7c0.1-5.7,2.3-11,3.7-16.5c1.1-4.5,2.5-9,2.9-13.6c0.5-5.1,0.1-9.9-3.9-13.5 c14.1-10.8,20.6-24.8,18.7-42.2c-1-9.5-6.1-13.9-15.6-14.1c-11.7-0.2-23.3,0.1-35-0.1c-3-0.1-3.6,1.5-4.2,3.7 c-2.1,7.7-4.3,15.4-6.2,23.1c-0.7,3-1.8,4.2-5.3,4.2c-40.2-0.1-80.3-0.1-120.5,0c-3.3,0-4.6-0.6-4.5-4.3c0.2-15,0.2-30,0-45 c0-2.8,0.4-4.1,3.7-4.1c114,0.1,228,0.1,342,0.1C1558,522.9,1558.5,523,1559,523.1z M1492.9,644.9c0.2,0.2,0.4,0.4,0.6,0.6 c-0.4,2.1-0.9,4.2-1.4,6.7c3.2,0,6.3-0.3,9.2,0.1c4,0.5,5.4-1.3,6.3-4.9c8.4-31.1,17-62.2,25.6-93.3c2.4-8.9,2.4-8.7-6.9-9 c-4.3-0.2-6.1,1.1-7.1,5.3c-2.4,10.2-5.5,20.2-8.4,30.9c-5-10.5-11.6-12.8-21.4-8.1c-5.2,2.5-9.2,6.5-12.7,11.1 c-8.6,11.4-13.1,24.6-15.8,38.4c-1.5,7.6-1.8,15.2,1.1,22.6c3,7.7,8.6,10.4,16.7,8.9C1484.8,653.2,1488.6,648.7,1492.9,644.9z M1448.8,629c-7.1,0-14.3-2.3-19.4,5.6c-2.1,3.2-6.4,4.2-10.4,2.5c-4.2-1.8-5-5.5-5-9.5c0-1.8,0.5-3.6,0.5-5.4 c0.1-2.9,1.5-3.8,4.4-3.8c8.3,0.2,16.7,0.1,25,0.1c9,0,9,0,11.2-8.7c2.4-9.3,4-18.6,0.8-28c-2.4-7-7.6-10.6-15-10.9 c-8.8-0.4-16.1,3.3-21.7,9.5c-14.8,16.4-21,36-20.1,57.8c0.5,10.8,9.6,17.5,20.4,16.6C1431.4,653.8,1445.9,641.1,1448.8,629z"></path> <path class="st9" d="M789.8,556c0,41.1,0,82.3,0.2,123.4c0,4.2-2.2,3.6-4.7,3.6c-37.6,0-75.3,0-112.9,0 c-42.5,0-84.9-0.1-127.4,0.1c-4.3,0-5.6-0.9-5.6-5.4c0.2-49.8,0.2-99.6,0-149.4c0-4.4,1.1-5.6,5.5-5.5c22,0.3,44,0.2,65.9,0.3 c-10.2,16.7-20.3,33.5-30.9,51c2.6,0,4.4,0,6.1,0c34.7,0,69.3,0,104,0c27.8,0,55.7-0.1,83.5,0.1c3.5,0,5.8-0.7,7.5-4.1 C783.7,565.1,786.9,560.7,789.8,556z M775.3,577.9c-2.2,0-3,0-3.9,0c-62.9,0-125.9,0-188.8-0.1c-4,0-5.6,2-7.3,4.7 c-6.8,10.9-13.6,21.7-20.3,32.6c-0.7,1.2-2.5,2.2-1.6,3.9c0.9,1.6,2.7,0.8,4.1,0.8c62.4,0,124.9,0,187.3,0.1c3,0,4.9-0.9,6.4-3.6 c2.6-4.6,5.6-9,8.4-13.6C764.8,594.8,769.8,586.8,775.3,577.9z"></path> <path class="st10" d="M892,596.8c1.6,6.7,1.6,6.7,8.7,6.7c7.8,0,15.5-0.7,23.3,0c2,0.2,3.8,0.1,4.9-2.4c1.1-2.4,3.7-2.5,4.6-0.3 c1.3,2.9,3.4,3,5.7,2.7c4.1-0.7,8.6,1.9,12.2-1.7c2.8,3.2,6.5,1.3,9.8,1.8c3.6,0.6,4.6-1,4.4-4.4c-0.3-5.8-0.3-11.7,0-17.5 c0.1-3.4-0.8-4.8-4.4-4.5c-15.7,1.2-31.5,0.3-47.3,0.5c-18.5,0.2-37.1,0-55.6-0.5c-4.5-0.1-7.9,0.5-8.9,6.4 c-1.1-7.7-6.5-6.4-11.2-6.4c-3.2,0-6.6,0.6-9.7-0.1c-8.8-1.9-11.6,3.6-13.4,11c-1.5-1.6-1-2.9-1-4.1c0-19,0-38-0.1-57 c0-3.2,0.7-4.2,4.1-4.2c50.3,0.1,100.7,0.1,151,0c3.4,0,4.1,1,4.1,4.2c-0.1,26-0.1,52,0,78c0,3.6-1.1,4.3-4.5,4.3 c-13.4-0.2-26.9-0.1-40.3-0.1c-14.7,0-29.3,0-44,0c-3.9,0-8.1-0.8-10.6,3.5c-2.9-2.5-6-4-10.1-3.6c-4.8,0.4-9.7,0.2-14.5,0.1 c-2.4-0.1-3.7,0.4-3.6,3.2c0.1,6.8,0.1,13.7,0,20.5c0,2.5,1.1,3.1,3.3,3c6-0.1,12.4,1.2,17.9-0.4c4.8-1.5,8.5-1.5,12.9,0.2 c2.2,0.8,5,0,7.4,0.2c2.7,0.2,4.5-0.1,4.2-3.6c-0.3-4.4,3.5-2.4,5.5-2.9c2.9-0.9,2.1,1.8,2.1,3.1c-0.2,2.6,0.8,3.7,3.4,3.4 c0.7-0.1,1.3-0.1,2,0c4.8,0.7,8.3-0.1,6.7-7c2.2,2.6-0.2,5.7,2.1,6.7c1.8,0.8,4.3,0.3,6.4,0.3c11.1-0.4,22.3,0.1,33.4-0.5 c6.5-0.3,13.1,0.7,20.2-0.5c0,15.2,0,30.1,0,45.1c0,2.3-1.3,2.2-2.9,2.2c-5.8,0-11.7,0-17.5,0c-44.5,0-89-0.1-133.5,0.1 c-4.1,0-5.3-0.8-5.2-5.1c0.2-23,0.2-46,0-69c0-3.6,0.7-5.3,4.6-4.7c1.9,0.3,3.4,0,4.4-2.2c1.3-2.7,3.6-2.7,4.8-0.2 c1.3,2.7,3.2,2.4,5.3,2.4c17,0,34.1,0,51.1,0C888.4,603.5,894.1,605.3,892,596.8z"></path> <path class="st11" d="M404.1,522.8c40.5,0,81,0.1,121.5-0.1c3.9,0,5.4,0.6,5.4,5c-0.2,50.2-0.2,100.3,0,150.5c0,4.4-1.4,5-5.3,5 c-81.2-0.1-162.3-0.1-243.5,0c-4.3,0-5.1-1.2-5.1-5.3c0.1-50,0.2-100,0-150c0-4.7,1.5-5.3,5.6-5.3 C323.1,522.9,363.6,522.8,404.1,522.8z M404.6,657c25.6,24.8,71.2,24.2,97.5-1.2c4.8-4.6,8.4-10.1,12.9-14.9 c0,0.6,0.1,1.2,0.1,1.9c-0.1,1.8,0.9,2.9,2.6,2.8c1.2,0,2.2-0.9,2.2-2.3c0-2-1.4-2.4-3.1-2.3c-0.6,0-1.3,0-1.9,0 c-0.2-2,1.3-3.4,2.1-4.9c16.3-32.3,6.9-71.1-22.5-92.1c-25.4-18.2-63.3-18.8-90.5,5.1c-0.4-0.3-0.8-0.6-1.2-0.9 c-22.6-18.5-48-22.9-74.8-12c-26.9,10.9-42,32.1-44.7,61.1c-4.8,51,45.8,90.6,94.5,74.7C387.7,668.7,396.2,662.9,404.6,657z"></path> <path class="st12" d="M270.2,647c0,10.7-0.1,21.3,0.1,32c0,3-0.4,4.3-4,4.3c-81.8-0.1-163.5-0.1-245.3,0c-3.2,0-4.2-0.7-4.2-4.1 c0.1-50.8,0.1-101.6,0-152.4c0-3.5,1.2-4.3,4.3-4c2.3,0.2,4.7,0.1,7,0.1c0.1,0.4,0.3,0.9,0.4,1.3c-0.1,1.8-0.2,3.6-0.2,5.5 c0,34,0,68,0,102c0,11.3,3.9,15.3,15.3,15.3c73.3,0,146.6,0,219.9,0c1.8,0,3.6-0.1,5.5-0.2C269.3,646.7,269.7,646.9,270.2,647z"></path> <path class="st9" d="M613,523c11.3-0.1,22.6-0.2,33.9-0.2c46.1,0,92.1,0,138.2-0.1c3.9,0,5.1,0.9,5,4.9 c-0.4,8.1-0.2,16.3-0.3,24.4c-3.2,5.1-6.6,10-9.4,15.2c-1.9,3.5-4.1,4.8-8.2,4.8c-60.9-0.1-121.8-0.1-182.7-0.1 c-1.6,0-3.3,0.5-5.2-0.7c2-3.4,4.1-6.8,6.1-10.2C597.9,548.4,605.5,535.7,613,523z"></path> <path class="st4" d="M1775.9,844.3c0,5.2,0.2,10.3,0,15.5c-0.9,16-8.4,23.9-24.4,25.5c-7.1,0.7-14.3,0.6-21.4-0.4 c-12.8-1.9-20.7-11.2-20.6-23.6c0.1-12.1,8.1-20.9,21.2-23.2c8.8-1.5,17.6-0.8,26.4-0.8c3.4,0,4.6-0.8,4.5-4.4 c-0.2-9.7-3.4-13.8-12.9-15.1c-9.4-1.3-18.4-1.1-24.7,7.6c-1.3,1.8-3,1.9-4.7,0.4c-0.1-0.1-0.2-0.2-0.4-0.3 c-8.2-6.1-8.3-8.3-0.1-14.6c8.3-6.4,18.1-7.1,28-6.5c3.6,0.2,7.3,0.9,10.8,1.8c11.5,3.1,18.2,11.7,18.5,23.7 C1776.1,834.6,1776,839.4,1775.9,844.3C1776,844.3,1775.9,844.3,1775.9,844.3z M1741.5,872.6c15.6-0.2,21-5.4,19.9-19.7 c-0.1-1.2,0.4-3-1.6-3c-9.3,0.3-18.6-1.3-27.8,0.9c-5.8,1.4-8.2,5-8,10.9c0.2,5.5,2.8,8.7,8.6,9.9 C1735.5,872.3,1738.5,872.3,1741.5,872.6z"></path> <path class="st4" d="M1476.1,847.2c-0.3,4.4,0.7,11.6-0.8,18.7c-2.2,10.2-8.2,16.6-18.4,18.5c-9.7,1.8-19.6,1.9-29.3-0.4 c-10.6-2.5-17.2-10.5-17.7-20.8c-0.6-11.7,4.9-20.1,15.7-23.9c4.1-1.4,8.4-2.2,12.7-2.2c4.8,0,9.7,0.3,14.5-0.1 c3-0.3,7.2,2.3,8.9-1.6c2.1-4.8-1.4-13.3-5.8-15.8c-8.8-5.1-23.9-2.8-30.8,4.8c-2.2,2.5-3.9,2.9-6.6,0.6c-7.5-6.4-7.7-8,0.3-14.1 c9.4-7.2,20.4-7.4,31.5-6.4c4.1,0.4,8.2,1.3,12,3.1c8.6,4.1,13.2,10.9,13.8,20.4C1476.3,833.5,1476.1,839,1476.1,847.2z M1448.6,849.5c-5.5,0.1-11.9-0.5-18,1.7c-4,1.5-6,4.6-6.4,8.7c-0.4,3.8,0.4,7.3,3.8,9.7c6.4,4.5,24,3.7,29.8-1.6 c5-4.6,4.8-11.1,3.6-16.8c-0.9-4.1-6-1-9.2-1.8C1451.4,849.3,1450.3,849.5,1448.6,849.5z"></path> <path class="st4" d="M1875.6,843.1c8.6-9.2,17.2-18.3,25.8-27.5c1.4-1.5,2.9-2.8,4-4.4c3.9-5.8,9.2-8.2,16.2-7 c1.7,0.3,4-0.7,5,1.3c1.1,2.4-1.4,3.5-2.6,4.9c-7.1,7.7-14.3,15.4-21.7,22.8c-2.3,2.3-2.1,3.8-0.4,6.2c9.5,13.5,18.8,27,28.2,40.6 c0.9,1.3,2.6,2.6,1.6,4.4c-1,1.7-3,1-4.6,1.3c-7.3,1.3-11.8-1.5-15.6-8c-6.3-10.9-13.8-21.1-21.1-31.9c-5.1,5.6-10,10.8-14.8,16 c-1.3,1.4-1,3.1-1,4.7c0,4.8-0.2,9.7,0,14.5c0.1,3.5-1.2,5-4.7,4.7c-1.2-0.1-2.3-0.1-3.5,0c-4.2,0.5-5.7-1.1-5.7-5.6 c0.2-31.5,0.2-63,0-94.4c0-5,1.9-5.9,6.2-5.6c3.9,0.3,7.9-1.1,7.8,5.6c-0.4,19-0.1,38-0.1,56.9 C1874.9,842.7,1875.3,842.9,1875.6,843.1z"></path> <path class="st4" d="M1592.8,885.8c-12.1-0.5-22.4-2.6-31.3-9.4c-3.3-2.5-3.9-4.7-0.9-7.7c0.9-0.9,1.8-2,2.5-3.1 c2.1-3.1,4.1-2.9,6.9-0.6c10.5,8.8,22.6,8.7,35,5.6c5.4-1.4,8.2-6.1,7.7-10.9c-0.5-4.6-3.2-7.1-9.4-7.9 c-6.4-0.8-12.9-1.2-19.4-1.9c-13.6-1.5-21.8-8.8-22.8-20.3c-1-11.2,6.3-20.7,19.1-24c14-3.7,27.4-1.6,40,5.5 c3.7,2.1,4.7,4.5,1.7,7.9c-0.8,0.9-1.4,1.9-2,2.9c-1.8,3.2-3.8,3.4-6.8,1.3c-8.5-6.1-18-7.4-28-5.2c-1.4,0.3-2.9,0.9-4.2,1.6 c-3.7,2.1-5.2,5.5-4.8,9.7c0.4,4.1,3.1,6.1,6.8,7c8,2,16.2,1.6,24.3,2.8c17.9,2.6,26.3,19.3,16.9,33.8c-3,4.6-7.4,7.6-12.4,9.6 C1605.1,885.1,1598.3,885.5,1592.8,885.8z"></path> <path class="st4" d="M1551.5,857.1c0,7.7-0.2,15.3,0.1,23c0.1,4.1-1.2,6-5.4,5.5c-1-0.1-2-0.1-3,0c-4.3,0.5-5.9-1.2-5.8-5.6 c0.2-13.6,0.1-27.3,0.1-41c0-1.2,0-2.3,0-3.5c-0.6-16-15.3-24.2-29.5-16.4c-6.1,3.3-8.1,9-8.1,15.5c0,14.8,0,29.6,0,44.5 c0,2.2,0.9,5.3-2,6.1c-3.6,0.9-7.6,1.2-11.2-0.4c-1.3-0.6-1.1-2.3-1.1-3.6c0.1-16.1-0.2-32.3,0.5-48.4 c0.7-16.1,9.3-25.2,25.2-28.1c6.3-1.1,12.6-0.9,18.8,0.8c13.6,3.6,21.3,14,21.6,29.2C1551.7,842.1,1551.5,849.6,1551.5,857.1z"></path> <path class="st4" d="M1851.2,856.6c0,8-0.1,16,0.1,24c0.1,3.7-1.2,5.3-4.9,5c-1-0.1-2-0.1-3,0c-4.7,0.6-6.5-1.1-6.3-6.1 c0.3-13,0.1-26,0.1-39c0-1.7,0-3.3-0.1-5c-0.7-15.7-14.5-23.8-28.7-16.8c-7.6,3.7-9.1,10.7-9.2,18.1c-0.2,14.3-0.3,28.7,0.1,43 c0.2,5.8-2.7,6.1-7,6c-4.1-0.1-7.4,0.3-7.3-5.8c0.4-14,0.4-28,0.1-42c-0.6-26.9,18.5-36.4,39.9-33.3c16.7,2.4,25.5,12.7,26.1,29.5 C1851.3,841.6,1851.1,849.1,1851.2,856.6C1851.1,856.6,1851.2,856.6,1851.2,856.6z"></path> <path class="st13" d="M1089.5,522.8c30.5,0,61,0,91.5,0c12,0,17.9,5.9,17.9,17.7c0,41.7,0,83.3,0,125c0,11-6.3,17.4-17.3,17.4 c-61.3,0-122.6,0-183.9,0c-10.7,0-17.1-6.4-17.1-17.1c0-42.2,0-84.3,0-126.5c0-10.2,6.3-16.5,16.6-16.5 C1027.8,522.8,1058.7,522.8,1089.5,522.8z M1089.5,680c30.5,0,61,0,91.5,0c10.1,0,15-4.9,15-15c0-41.3,0-82.7,0-124 c0-10.9-4.6-15.5-15.5-15.5c-60.7,0-121.3,0-182,0c-10.4,0-15.3,4.9-15.3,15.2c0,41.3,0,82.7,0,124c0,10.3,5,15.2,15.3,15.2 C1028.9,680,1059.2,680,1089.5,680z"></path> <path class="st4" d="M1329.2,792.8c0,11.5,0,11.7,11.7,11.6c4.1,0,5.9,1.2,5.4,5.4c-0.2,1.5-0.1,3,0,4.5c0.2,3-1.2,4.3-4.1,4.3 c-3.2,0-6.3,0.1-9.5,0c-2.5-0.1-3.5,0.7-3.5,3.4c0.1,13.5-0.1,27,0.1,40.5c0.1,6.8,2.4,8.6,9.2,8.8c2.5,0.1,6-1.4,7.2,1.6 c1.3,3.4,0.7,7.2,0.2,10.8c-0.1,0.5-0.8,1.1-1.3,1.3c-5.8,2.6-19.5-0.7-24.2-5.8c-3.7-4-5.1-9-5.1-14.2c-0.1-26.6,0-53.3-0.1-79.9 c0-3.7,1.5-5.2,5.1-4.9c1.3,0.1,2.7,0.2,4,0c4-0.5,5.4,1.3,5.1,5.2C1329,787.8,1329.2,790.3,1329.2,792.8z"></path> <path class="st4" d="M1370.2,811.7c11.4-12.7,27.7-7.5,35,1.2c2.2,2.6,2.4,4.5-0.3,6.7c-1.3,1-2.6,2.1-3.7,3.3 c-2.3,2.4-4.3,2.6-6.5-0.3c-4.1-5.2-9.5-6.8-15.6-4.4c-6.1,2.4-8.7,7.7-9,13.8c-0.4,10.5-0.2,21-0.2,31.5c0,5.8-0.2,11.7,0.1,17.5 c0.1,3.6-1.4,4.9-4.7,4.6c-1-0.1-2-0.1-3,0c-4.6,0.6-6.4-1-6.3-6.1c0.3-22.6,0.1-45.3,0.1-67.9c0-3.6-1-7.5,5-7.5 C1369.3,804.1,1369.5,804,1370.2,811.7z"></path> <path class="st8" d="M1336.8,589c-1.5,7.8-1.5,7.8-9,7.8c-37.1,0-74.2,0-111.3,0c-3,0-5,0-4.8-4.1c0.2-3,0.7-4,3.9-3.9 c11.1,0.2,22.3,0.1,33.4,0.1c27.4,0,54.9,0,82.3,0C1333.2,589,1335,589,1336.8,589z"></path> <path class="st8" d="M1268.8,630.5c16.7,0,33.3-0.1,50,0.1c2,0,6-2.2,6,2.2c0.1,3.6-0.9,6.6-6.4,6.5c-24.7-0.4-49.3-0.2-74-0.2 c-9.3,0-18.7-0.1-28,0c-3,0-5,0.1-4.8-4c0.1-3.6,0.8-4.8,4.7-4.8C1233.8,630.7,1251.3,630.5,1268.8,630.5z"></path> <path class="st8" d="M1271.8,609.8c17.7,0,35.3-0.1,53,0.1c2,0,5.5-2.2,6,1.7c0.6,4.2-1.6,5.9-6.9,5.9c-16.8,0-33.6,0-50.5,0 c-19,0-38,0-57,0c-3,0-4.8,0-4.8-4.1c0-4.1,2.1-3.7,4.7-3.6C1234.8,609.8,1253.3,609.8,1271.8,609.8z"></path> <path class="st8" d="M1370.9,564c2.8,0,5.7-0.2,8.5,0c4.9,0.4,7.3,2.9,7.1,7.8c-0.2,5-1.6,9.8-4.3,14.1c-2.3,3.6-5.5,5.9-9.8,6.1 c-6,0.3-12,0.3-17.9,0.4c-2,0.1-2.7-0.6-2.1-2.6c2.3-7.8,4.5-15.6,6.5-23.5c0.5-1.8,1.2-2.5,3-2.4 C1364.9,564.1,1367.9,564,1370.9,564C1370.9,564,1370.9,564,1370.9,564z"></path> <path class="st14" d="M28.4,524.1c-0.1-0.4-0.3-0.9-0.4-1.3c1.6-1.4,3.5-0.8,5.3-0.8c77.1,0,154.1,0,231.2-0.1 c5,0,6.6,1.2,6.5,6.4c-0.2,37.8-0.1,75.6-0.1,113.4c0,1.8,0.6,3.7-0.8,5.3c-0.4-0.1-0.9-0.2-1.3-0.4c0-39.3,0-78.6,0.1-117.9 c0-3.8-1.1-4.7-4.8-4.7C185.6,524.1,107,524.1,28.4,524.1z"></path> <path class="st10" d="M942.2,596.4c0-3.6-0.1-7.2,0.1-10.8c0.1-1.6-1.2-4.1,1.8-4.3c2.4-0.2,4.9-0.8,6.4,2.3 c1.6,3.2,3.7,6.2,6.6,9.2c0-3,0-6.1,0-9.1c0-1.4,0.1-2.6,2.1-2.6c1.9,0,2.1,1.1,2.1,2.6c0,4,0.1,8,0,12c0,1.3,0.9,3.4-1.3,3.7 c-2,0.3-4.3,0.9-5.7-1.6c-2-3.6-4.3-7-7.5-10.4c0,2.5,0.1,5-0.1,7.5c-0.1,1.6,1.2,4.3-1.5,4.5c-2.6,0.2-5.6,1.5-7.9-1.3 c-3-3.7-8.5-3.5-11.8,0.2c-2.1,2.4-9.8,1.6-12.3-1.2c-2.4-2.7-2.8-9-0.7-12.3c2.5-3.8,6.4-3.7,10.3-3.6c1.4,0,1.5,1,1.6,2 c0.2,2.2-1.4,1.7-2.7,1.8c-5.1,0.4-7.1,2.7-6.1,7.1c0.5,2.2,1.6,3.5,3.9,3.9c2.5,0.4,3.1-1.2,3.8-2.9c1.2-2.9,2.7-5.7,3.7-8.7 c0.8-2.5,2.2-3.2,4.7-3.2c2.5,0,3.6,1,4.4,3.1c1.6,4.1,3.5,8.2,5.2,12.3C941.5,596.4,941.8,596.4,942.2,596.4z M928,591.5 c2.3,0.4,4,0.6,5.9-0.1c-0.1-2.4-1.4-4.3-2.7-7.2C930.1,586.8,929.2,588.9,928,591.5z"></path> <path class="st10" d="M836.5,595.9c0-3.6-0.1-7.2,0-10.8c0-1.5-0.9-3.8,1.8-3.8c2.1,0,4.7-1.3,6.1,1.8c1.4,3.3,3.1,6.6,5,10.7 c1.6-3.6,3.3-6.4,4.1-9.4c1.1-3.9,4-3.4,6.7-3.1c3.3,0.3,1.6,3.1,1.8,4.7c0.3,3,0.3,6,0,9c-0.1,1.6,1.5,4.4-2,4.6 c-3.6,0.1-2.1-2.7-2.2-4.3c-0.2-2.4-0.1-4.8-0.1-8.3c-2.8,2.9-3.2,5.6-4.5,7.8c-1.1,1.8-0.8,4.9-4.1,4.9c-3.2-0.1-2.9-3.2-4-5 c-1.3-2.2-2.2-4.8-4.3-7.2c0,2.5,0.2,4.9-0.1,7.4c-0.1,1.6,1.2,4.3-1.3,4.6c-2.7,0.3-5.9,1.6-8.3-1.3c-2.8-3.5-8.8-3.6-11.4,0 c-1.1,1.5-2.4,2-3.8,1.4c-2.1-0.9-0.3-2.3,0.1-3.3c1.6-4,3.4-7.9,5-11.9c0.8-2.1,1.9-3.1,4.3-3.1c2.6,0,3.8,0.9,4.7,3.3 c1.5,4,3.3,7.8,5,11.7C835.6,596,836,595.9,836.5,595.9z M825.3,583.7c-1,3.6-3.4,5.4-1.8,7.8c0.4,0.6,3.7,0.5,4,0 C828.6,589,826.5,587.1,825.3,583.7z"></path> <path class="st13" d="M613,523c-7.6,12.7-15.1,25.4-22.7,38c-2,3.4-4,6.8-6.1,10.2c2,1.2,3.7,0.7,5.2,0.7 c60.9,0,121.8,0,182.7,0.1c4.1,0,6.3-1.3,8.2-4.8c2.8-5.2,6.2-10.2,9.4-15.2c0,1.3,0,2.6,0,3.9c-2.9,4.6-6.2,9.1-8.7,14 c-1.8,3.4-4,4.1-7.5,4.1c-27.8-0.1-55.7-0.1-83.5-0.1c-34.7,0-69.3,0-104,0c-1.8,0-3.5,0-6.1,0c10.6-17.5,20.8-34.2,30.9-51 C611.6,523,612.3,523,613,523z"></path> <path class="st10" d="M849.8,622.4c0-9.2,0-9.2,9.5-9.2c4.7,0,9.4-0.7,12.2,4.5c1.3,2.4,2.6,0.9,3.8-0.3c1.6-1.6,2.6-4.2,5.3-4.1 c5.6,0.2,11.3-1,16.8,1c2.3,0.8,3.1,3,3,5.3c-0.1,2.5-1.1,4.7-3.7,5.3c-2.2,0.5-4.6,0.6-6.9,0.7c-1.6,0.1-2.9,0.1-2.9,2.3 c0,1.3,0.9,3.6-1.1,3.8c-2.7,0.3-5.7,1.3-8.1-1c-0.8-0.8-1.7-1.6-2.3-2.6c-1.7-2.5-3.3-2.2-4.9,0.1c-2,3.1-4.9,4.3-8.5,3.7 c-1-0.2-2,0-3,0C849.8,631.8,849.8,631.8,849.8,622.4z M859.6,628C859.6,628,859.6,628,859.6,628c1.5,0,3,0.1,4.5,0 c2.8-0.3,4.1-2.8,5.4-4.7c1.4-2-1.3-3-2.3-4.3c-2.4-3.4-6.1-1.6-9.2-1.8c-1.3-0.1-3.8-1.4-3.9,1.4c-0.2,3.2,2.5,1.6,4,2.1 c1.9,0.6,5.5-1.5,5.4,2c-0.1,3-3.5,1-5.4,1.6c-0.2,0-0.3,0-0.5,0c-1.4,0.3-3.6-0.9-3.7,1.9c-0.1,3,2.3,1.6,3.6,1.9 C858.3,628.1,859,628,859.6,628z M882.9,615.4c-8.1,7-8,8.6,0,14C882.9,624.9,882.9,620.5,882.9,615.4z M891,617 c-1.4,0.5-3.9-1.3-4.1,2.3c-0.2,3.3,1.8,2.8,3.8,2.7c2.2-0.1,5.2,0.6,5.1-2.8C895.7,616.4,893,617.1,891,617z"></path> <path class="st4" d="M1311.5,735.4c-0.1,4.7-4.2,8.6-8.8,8.4c-4.6-0.2-8.4-4.3-8.2-9c0.2-4.6,3.9-8,8.5-8 C1307.9,726.9,1311.6,730.6,1311.5,735.4z"></path> <path class="st4" d="M1477.9,743.8c-4.6,0-8.5-4.1-8.4-8.8c0.1-4.8,3.9-8.4,8.8-8.2c4.6,0.1,8.1,3.7,8.2,8.4 C1486.5,739.9,1482.6,743.9,1477.9,743.8z"></path> <path class="st10" d="M1300.3,802.9c4.7,0,8.6,3.9,8.4,8.5c-0.1,4.6-3.7,8.2-8.2,8.3c-4.8,0.1-8.6-3.6-8.6-8.3 C1291.9,806.6,1295.5,802.9,1300.3,802.9z"></path> <path class="st4" d="M1955.2,735.3c0,4.9-3.8,8.7-8.6,8.5c-4.6-0.1-8.5-4.3-8.3-8.9c0.2-4.6,3.8-8.1,8.4-8.1 C1951.8,726.8,1955.2,730.3,1955.2,735.3z"></path> <path class="st4" d="M365.8,743.8c-4.7,0-8.4-3.9-8.3-8.7c0.1-4.7,3.5-8.2,8.2-8.2c5-0.1,8.5,3.3,8.5,8.3 C374.2,740.1,370.5,743.8,365.8,743.8z"></path> <path class="st4" d="M190.2,743.8c-4.5,0.1-8.6-3.9-8.7-8.5c-0.1-4.6,3.4-8.3,8.1-8.4c4.9-0.2,8.7,3.2,8.9,8.1 C198.7,739.6,194.9,743.7,190.2,743.8z"></path> <path class="st4" d="M1428.7,735.2c0,4.6-4,8.7-8.6,8.7c-4.8,0-8.4-3.8-8.3-8.8c0-4.7,3.4-8.1,8.2-8.2 C1424.8,726.7,1428.7,730.4,1428.7,735.2z"></path> <path class="st4" d="M1779.5,735.3c0,4.7-4,8.6-8.6,8.6c-4.4-0.1-8.2-3.9-8.3-8.4c-0.1-4.8,3.6-8.6,8.4-8.6 C1775.8,726.8,1779.5,730.4,1779.5,735.3z"></path> <path class="st4" d="M1185.7,726.8c5,0,8.5,3.4,8.5,8.4c0,4.9-3.8,8.7-8.5,8.6c-4.4-0.1-8.2-4-8.4-8.4 C1177.1,730.8,1180.9,726.9,1185.7,726.8z"></path> <path class="st4" d="M1653.8,743.8c-4.7,0-8.4-4-8.3-8.8c0.1-4.7,3.6-8.2,8.2-8.2c5-0.1,8.5,3.3,8.5,8.4 C1662.2,740.1,1658.5,743.9,1653.8,743.8z"></path> <path class="st4" d="M892.8,743.8c-4.7,0-8.4-3.9-8.3-8.7c0.1-4.7,3.5-8.2,8.2-8.2c5-0.1,8.5,3.3,8.5,8.3 C901.2,740.1,897.5,743.8,892.8,743.8z"></path> <path class="st4" d="M725.5,735.1c0.1,4.7-3.8,8.7-8.4,8.8c-4.5,0.1-8.5-4-8.5-8.7c0-4.6,3.6-8.2,8.2-8.3 C721.6,726.7,725.4,730.2,725.5,735.1z"></path> <path class="st4" d="M658,726.8c4.9,0,8.6,3.7,8.5,8.5c-0.1,4.7-4.1,8.6-8.7,8.5c-4.4-0.1-8.1-3.9-8.3-8.5 C649.4,730.7,653.2,726.8,658,726.8z"></path> <path class="st4" d="M1018.5,735.1c0.1,4.7-3.8,8.7-8.4,8.8c-4.6,0-8.5-4-8.5-8.7c0-4.6,3.5-8.2,8.2-8.3 C1014.6,726.7,1018.4,730.3,1018.5,735.1z"></path> <path class="st4" d="M483.1,726.8c4.8,0,8.6,3.8,8.5,8.6c-0.1,4.7-4.1,8.6-8.8,8.4c-4.4-0.2-8.1-4-8.2-8.5 C474.4,730.6,478.2,726.8,483.1,726.8z"></path> <path class="st4" d="M1896.8,735.3c0,4.6-4.2,8.7-8.7,8.6c-4.7-0.1-8.4-4-8.2-8.9c0.1-4.7,3.6-8.1,8.3-8.1 C1893,726.8,1896.9,730.5,1896.8,735.3z"></path> <path class="st4" d="M131.7,743.8c-4.6,0.1-8.6-3.8-8.7-8.5c-0.1-4.7,3.3-8.3,8-8.5c4.9-0.2,8.8,3.2,9,8 C140.2,739.4,136.2,743.7,131.7,743.8z"></path> <path class="st4" d="M307.3,743.8c-4.7,0-8.5-3.8-8.5-8.7c0-4.8,3.4-8.2,8.1-8.3c4.9-0.1,8.7,3.5,8.9,8.2 C315.9,739.6,311.8,743.8,307.3,743.8z"></path> <path class="st4" d="M424.6,743.8c-4.6,0.1-8.6-3.9-8.6-8.6c0-4.7,3.3-8.2,8.1-8.4c4.9-0.2,8.7,3.3,8.9,8.1 C433.1,739.6,429.1,743.8,424.6,743.8z"></path> <path class="st4" d="M550,735.4c-0.1,4.7-4,8.6-8.7,8.4c-4.4-0.2-8.1-4-8.2-8.5c-0.1-4.8,3.6-8.5,8.5-8.5 C546.5,726.8,550.1,730.4,550,735.4z"></path> <path class="st4" d="M607.8,735.2c0,4.7-3.9,8.7-8.5,8.6c-4.7-0.1-8.4-4.1-8.3-8.8c0.1-4.7,3.5-8.1,8.3-8.2 C604.2,726.8,607.8,730.3,607.8,735.2z"></path> <path class="st4" d="M1370,735.2c0,4.7-3.9,8.7-8.5,8.6c-4.4-0.1-8.2-3.8-8.3-8.3c-0.1-4.8,3.5-8.6,8.3-8.7 C1366.4,726.8,1370,730.3,1370,735.2z"></path> <path class="st4" d="M775.5,726.8c5-0.1,8.5,3.5,8.5,8.4c0,4.6-3.6,8.4-8,8.6c-4.6,0.2-8.7-3.7-8.8-8.4 C767,730.7,770.7,726.9,775.5,726.8z"></path> <path class="st4" d="M842.8,735.3c0,4.6-4.2,8.7-8.7,8.6c-4.7-0.1-8.4-4-8.3-8.9c0.1-4.7,3.6-8.1,8.3-8.1 C839,726.8,842.9,730.6,842.8,735.3z"></path> <path class="st4" d="M951.5,726.8c4.8,0,8.5,3.8,8.4,8.6c-0.1,4.4-4,8.3-8.4,8.4c-4.6,0.1-8.6-3.9-8.6-8.6 C943,730.3,946.6,726.8,951.5,726.8z"></path> <path class="st4" d="M1077,735.5c-0.1,4.7-4.1,8.5-8.8,8.3c-4.4-0.2-8.1-4.1-8.1-8.6c0-4.8,3.7-8.5,8.6-8.4 C1073.7,726.9,1077.1,730.5,1077,735.5z"></path> <path class="st4" d="M1603.8,735.1c0.1,4.5-4,8.6-8.5,8.7c-4.6,0.1-8.5-3.7-8.5-8.5c0-4.9,3.4-8.5,8.3-8.5 C1600,726.8,1603.7,730.4,1603.8,735.1z"></path> <path class="st4" d="M1536.6,726.8c4.9,0,8.5,3.5,8.4,8.5c0,4.7-4,8.6-8.6,8.5c-4.4-0.1-8.1-3.9-8.2-8.4 C1528,730.6,1531.7,726.8,1536.6,726.8z"></path> <path class="st4" d="M1127.3,743.8c-4.7,0-8.5-3.9-8.4-8.7c0-5,3.6-8.4,8.6-8.3c4.6,0.1,8.2,3.7,8.4,8.2 C1135.9,739.6,1131.8,743.8,1127.3,743.8z"></path> <path class="st4" d="M22.8,735.2c0,4.5-4,8.6-8.5,8.6c-4.7,0-8.4-3.8-8.5-8.5c0-4.9,3.5-8.4,8.4-8.5 C19.1,726.8,22.8,730.4,22.8,735.2z"></path> <path class="st4" d="M1243.7,743.8c-4.7-0.5-8.1-4.7-7.7-9.4c0.4-4.8,4.4-8,9.3-7.6c4.7,0.4,8.1,4.7,7.5,9.4 C1252.2,740.7,1248,744.3,1243.7,743.8z"></path> <path class="st4" d="M1838,735.4c0,4.7-4,8.6-8.6,8.5c-4.4-0.1-8.1-4-8.2-8.5c-0.1-4.8,3.6-8.5,8.5-8.5 C1834.5,726.8,1838.1,730.4,1838,735.4z"></path> <path class="st4" d="M1712.5,743.8c-4.6,0-8.5-3.9-8.5-8.7c0-4.7,3.4-8.2,8.1-8.3c4.9-0.1,8.7,3.4,8.8,8.2 C1721.1,739.6,1717,743.8,1712.5,743.8z"></path> <path class="st4" d="M248.6,743.8c-4.6,0-8.5-4.1-8.4-8.7c0.1-4.6,3.6-8.2,8.2-8.3c5-0.1,8.6,3.3,8.6,8.3 C257,739.9,253.3,743.8,248.6,743.8z"></path> <path class="st4" d="M73,743.8c-4.6,0.2-8.5-3.7-8.6-8.5c0-4.7,3.3-8.3,7.9-8.5c5-0.2,8.6,3.1,8.8,8.1 C81.3,739.9,77.8,743.7,73,743.8z"></path> <path class="st9" d="M1947,868.7c4.9,0.1,8.5,3.7,8.5,8.5c-0.1,4.8-3.7,8.6-8.4,8.7c-4.9,0.1-8.9-4.1-8.8-8.9 C1938.5,872.2,1942.2,868.7,1947,868.7z"></path> <path class="st10" d="M865.8,590.3c0-9.1,0-9.1,9-9.1c1,0,2,0,3,0c1.5,0,2.7,0.1,2.6,2.1c-0.1,1.7-1.3,1.6-2.5,1.6 c-0.7,0-1.4-0.1-2,0c-2,0.6-5.5-1.6-5.7,1.7c-0.1,3.6,3.5,1.4,5.4,1.9c0.8,0.2,1.7,0.1,2.5,0c1.5-0.1,2,0.7,2,2.1 c-0.1,1.5-1.1,1.4-2.1,1.4c-2,0-4,0-6,0c-1.4,0-2.1,0.4-2.1,2c0,1.5,0.6,2.1,2.1,2c2.2,0,4.3,0,6.5,0c1.1,0,2,0.2,2,1.6 c0,1.2-0.6,1.9-1.8,1.9c-3.7,0-7.3,0-11,0c-1.6,0-1.9-1-1.9-2.3C865.8,594.9,865.8,592.6,865.8,590.3z"></path> <path class="st10" d="M923.2,622.4c0-9.2,0-9.2,9.5-9.2c1.2,0,2.3,0,3.5,0c1.6,0,1.9,0.9,1.9,2.3c0,1.4-0.9,1.5-2,1.6 c-2.2,0-4.3,0-6.5,0c-1.1,0-2,0.3-1.9,1.6c0,1.2,0.7,1.8,1.9,1.8c2,0,4,0.1,6,0c1.5,0,2.1,0.7,2,2.2c-0.1,1.3-1,1.5-2.1,1.5 c-1.7,0-3.3,0-5,0c-1.4,0-2.7,0-2.8,1.9c-0.1,2.1,1.4,1.9,2.7,1.9c2,0,4,0,6,0c1.2,0,1.8,0.5,1.7,1.8c0,1.1-0.3,2-1.6,2 c-3.8,0-7.6,0-11.5,0c-1.6,0-1.8-1.2-1.8-2.4C923.2,627,923.2,624.7,923.2,622.4z"></path> <path class="st10" d="M883.8,590.4c0-9.3,0-9.3,9.5-9.2c7.7,0.1,8.9,1.8,6.1,9c-0.5,1.3,0.2,1.8,0.8,2.5c1.3,1.4,0.9,3.1,1,4.7 c0.1,1.4-0.5,2.1-2,2.1c-1.4,0-2.3-0.5-2.1-2c0.4-3.9-1.7-4.7-5.1-4.8c-2.9-0.1-4.4,0.5-3.9,3.8c0.2,1.5,0.3,3.1-2.1,3 c-2.4-0.1-2-1.7-2-3.2C883.8,594.4,883.8,592.4,883.8,590.4z M891.9,584.8c-1.5,0.5-3.9-1.1-4,2.2c0,3.2,2.3,2.1,3.9,2.2 c1.8,0,4.7,0.8,4.7-2.1C896.6,584.1,893.7,585.1,891.9,584.8z"></path> <path class="st10" d="M902.8,622.5c0-9.6,0-9.6,9.8-9.3c7.1,0.2,8.6,2.3,6,9c-0.5,1.2-0.1,1.8,0.6,2.5c1.2,1.4,0.9,3.1,0.9,4.8 c0,1.2-0.1,2.3-1.8,2.4c-1.7,0.1-2.2-0.5-2.4-2.2c-0.6-4.2-3.4-5.8-7.5-4.6c-2.5,0.7-1.1,2.7-1.4,4.1c-0.2,1.3,0.1,2.7-1.9,2.7 c-2.3,0.1-2.3-1.3-2.3-2.9C902.8,626.8,902.8,624.6,902.8,622.5z M911.2,617c-1.2,0.8-4-1.6-4.2,2.1c-0.1,2.6,1.4,2.7,3.2,2.4 c2.1-0.3,5.3,0.8,5.5-2.5C915.8,616.4,913.1,617.1,911.2,617z"></path> <path class="st10" d="M965.4,631.8c-1.8,0-2.1,0.1-2.4,0c-1.6-0.5-4.6,1.4-4.7-1.9c-0.1-3.5,3-1.3,4.5-1.9c0.4-0.2,1,0,1.5,0 c1.6-0.3,4.3,1,4.5-1.6c0.2-2.7-2.6-2-4.2-2.1c-3.5-0.3-6.8-0.6-6.8-5.3c0-4.8,3.4-5.5,7.1-5.7c1.8-0.1,3.7,0,5.5,0 c1.5,0,2.6,0.2,2.6,2.1c0,2.2-1.6,1.7-2.8,1.7c-1.8,0.1-3.7,0-5.5,0c-1.2,0-2.5,0.3-2.5,1.8c0,1.5,1.4,1.6,2.5,1.7 c1.2,0.1,2.3,0.3,3.5,0.4c3.1,0.2,5.5,1.2,5.7,4.9c0.2,3.5-2.1,5.1-5,5.8C967.3,631.9,965.6,631.8,965.4,631.8z"></path> <path class="st10" d="M946.3,631.8c-1,0-2,0-3,0c-1.6,0.1-2.5-0.4-2.5-2.2c0-1.8,1.3-1.6,2.4-1.6c2.2,0,4.3,0,6.5-0.1 c1.1-0.1,1.9-0.6,1.9-1.9c-0.1-1-1-1.3-1.7-1.5c-1.6-0.3-3.3-0.3-5-0.6c-2.7-0.3-4.3-2-4.6-4.5c-0.3-2.7,1-4.8,3.7-5.8 c3.1-1.1,6.3-0.5,9.4-0.6c1.3,0,1.7,0.8,1.7,1.9c0,1.2-0.4,1.9-1.7,1.8c-1.5,0-3-0.1-4.5,0c-1.5,0.1-3.8-0.8-3.9,1.7 c-0.1,2.3,2.2,1.4,3.5,1.8c0.6,0.2,1.3,0.3,2,0.2c3.3,0,5.5,1.2,5.7,4.8c0.2,3.7-2,5.5-5.3,6c-1.5,0.3-3,0-4.5,0 C946.3,631.8,946.3,631.8,946.3,631.8z"></path> <path class="st10" d="M908.5,590.2c0,2.1,0,4.3,0,6.4c0,1.7-0.2,2.9-2.4,2.8c-1.9-0.1-2-1.2-2-2.7c0-4.3,0-8.6,0-12.9 c0-1.7,0.2-2.9,2.3-2.8c1.9,0.1,2,1.3,2,2.7C908.5,586,908.5,588.1,908.5,590.2z"></path> <path class="st10" d="M806.5,670.4c2.6,3.5,2.7,7.2-0.5,10.2c-3.1,3-6.6,3.5-10.1,0.3l-0.1,0.1c0.4-0.2,0.4-0.8,1.2-0.5 c2.9,1.3,5.8,1.5,8.2-1.1c2.4-2.6,1.7-5.4,0.5-8.3C806.1,670.9,806.3,670.7,806.5,670.4z"></path> <path class="st10" d="M795,680c-3.3-4.9-2.6-8.1,2.5-11.5c0.2,0.2,0.4,0.5,0.6,0.7C793.6,671.8,795.1,676.1,795,680L795,680z"></path> <path class="st10" d="M797.5,668.5c2.9-1.2,5.6-1,8,1c-0.2,0.2-0.5,0.5-0.7,0.7c-2.1-1-4.4-1.4-6.7-1 C797.9,668.9,797.7,668.7,797.5,668.5z"></path> <path class="st10" d="M805.6,669.5c0.3,0.3,0.6,0.6,0.9,0.9c-0.2,0.2-0.5,0.5-0.7,0.7c-0.3-0.3-0.7-0.7-1-1 C805.1,669.9,805.3,669.7,805.6,669.5z"></path> <path class="st10" d="M796,681c-0.6,0-1-0.4-1-1c0,0-0.1,0.1-0.1,0.1c0.4-0.1,0.6-0.6,1.1-0.1C796.6,680.5,796,680.7,796,681 L796,681z"></path> <path class="st15" d="M344.4,218.3c-0.3,0.5-0.7,1-1,1.5c-0.5-0.8-0.4-1.5,0.4-2C343.9,217.9,344.2,218.1,344.4,218.3z"></path> <path class="st16" d="M1657.5,251c0,10.5-0.1,20.3,0.1,30.1c0,2.9-0.6,4.2-3.8,4c-4.1-0.3-8.3-0.3-12.5,0 c-3.1,0.2-3.9-0.8-3.9-3.9c0.2-13.2,0.1-26.3,0.1-39.5c0-20.3,0.2-40.7-0.1-61c-0.1-4.8,1.5-6.2,5.9-5.6c1.3,0.2,2.7,0,4,0 c8.3,0,8.3,0,9,8.8c8.4-9,18.5-12.5,30.2-11.4c10.6,1,19.5,5.4,26.6,13.3c14.9,16.7,14.8,44-0.2,61 C1698.5,262.9,1678,264.7,1657.5,251z M1680.2,190.9c-13.3,0-23.9,11.2-24,25.4c-0.1,14.4,10.6,25.8,24.1,25.8 c13.1,0,23.8-11.5,23.7-25.6C1704,202.2,1693.4,190.9,1680.2,190.9z"></path> <path class="st16" d="M1812,250.8c-17.2,13.3-35.7,12.1-48.2-2.2c-5.6-6.4-7.2-14.2-7.3-22.3c-0.2-15.8,0-31.6-0.1-47.5 c0-3.3,1.2-3.9,4.1-3.8c4,0.2,8,0.3,12,0c3.5-0.3,4.2,1.1,4.1,4.3c-0.1,12.7-0.1,25.3,0,38c0,5.2,0.4,10.3,2.4,15.2 c2.5,5.9,6.7,9.3,13.3,9.5c6.9,0.3,11.9-2.6,14.9-8.8c2.7-5.6,2.9-11.5,2.9-17.6c0-11.8,0.2-23.7-0.1-35.5 c-0.1-4.3,1.3-5.5,5.3-5.1c3.8,0.3,7.7,0.2,11.5,0c2.7-0.1,3.4,0.9,3.4,3.4c-0.1,25.3-0.1,50.6,0,76c0,2.6-0.7,3.6-3.4,3.4 c-2.8-0.2-5.7-0.3-8.5,0C1813.6,258.4,1810.5,257.5,1812,250.8z"></path> <path class="st16" d="M1842.2,231.5c1.3,0,2.7,0.2,4,0c4.2-0.6,6.6,0.6,8.1,5c1.5,4.8,5.8,6.2,10.6,5.5c3.6-0.6,6-2.9,6.8-6.5 c0.8-3.6-0.8-6.2-3.8-7.9c-5.3-3.1-11.4-4.4-17.1-6.7c-16.1-6.4-21.1-25.5-9.8-38.7c7.8-9.1,18.1-11.7,29.4-8.6 c10.3,2.8,16.7,9.8,19,20.4c0.7,3,0.2,4.3-3.3,4.1c-3.1-0.3-6.3-0.1-9.5-0.1c-3.4,0-6.6,0.6-8.3-4.1c-1.2-3.4-5.1-3.5-8.3-2.6 c-2.7,0.7-4.5,2.7-4.9,5.7c-0.4,3.7,1.9,5.6,4.8,6.7c4.2,1.6,8.5,2.9,12.7,4.4c13.9,4.7,20.3,13.2,19.3,25.5 c-1.1,13.2-11.7,24.5-24.6,26.5c-17.4,2.7-31.6-7.1-34.8-23.6c-0.8-4,0.1-5.6,4.3-5C1838.5,231.7,1840.3,231.5,1842.2,231.5z"></path> <path class="st16" d="M1748.5,202.6c0,16.8-0.1,33.6,0.1,50.4c0,3.4-0.4,5.3-4.5,4.9c-5-0.4-11.6,1.6-14.5-0.9 c-3.4-2.9-1.1-9.7-1.1-14.8c-0.1-29.8,0-59.6-0.2-89.4c0-4.3,1.2-5.5,5.3-5.1c3.5,0.3,7,0.3,10.5,0c3.5-0.3,4.5,0.8,4.5,4.4 C1748.4,169,1748.5,185.8,1748.5,202.6z"></path> <path class="st17" d="M1687.8,580.7c14.5-13.2,19.8-12.6,25.7,2.4c2.6-3.2,4.8-6.5,8.2-8.7c9.1-6.1,17.4-2.3,18.7,8.5 c0.9,7.3-1.1,14.2-2.7,21.2c-3.4,14.4-7.2,28.7-10.4,43.1c-0.9,4.3-2.4,5.7-6.8,5.5c-7.5-0.4-7.5-0.1-5.8-7.5 c3.5-15,7.1-30.1,10.6-45.2c0.9-3.7,1.9-7.8-2.5-10.1c-3.1-1.6-7.1,0.9-9.8,5.8c-2.1,3.7-3.1,7.7-4.1,11.7 c-3.1,12.9-6.4,25.8-9.1,38.8c-1,4.9-2.7,7.1-8.1,6.5c-5.8-0.7-6.8,1.2-4.9-6.2c3.7-14.7,7.1-29.4,10.5-44.2 c0.5-2.2,0.6-4.6,0.8-6.9c0.1-2.1-0.2-4.2-2.2-5.2c-2.3-1.1-4.6-0.6-6.6,0.7c-3.8,2.5-5.3,6.4-6.3,10.4c-3.7,15-7.3,30-11,45.1 c-0.5,2-0.2,5.2-2.2,5.7c-3.5,0.8-7.3,0.6-10.9,0.2c-1.9-0.2-0.6-2.2-0.3-3.3c4.6-19.4,9.3-38.8,13.9-58.2c1-4.2,2.4-8.4,3-12.6 c0.5-3.8,2.2-5.3,5.9-4.7c1,0.2,2,0.2,3,0c4-0.6,5.1,0.8,3.6,4.5C1687.8,578.6,1687.9,579.3,1687.8,580.7z M1687.4,581.3 c-0.1,0.1-0.2,0.2-0.1,0.3c0.2,0.4,0.4,0.4,0.5,0c0-0.1-0.1-0.2-0.1-0.3C1687.6,581.2,1687.5,581.3,1687.4,581.3z"></path> <path class="st17" d="M1766.6,580.6c2.4-2.8,4.8-5.6,8.1-7.3c6.9-3.7,13.7-1.5,17.1,5.5c2.6,5.5,2.8,11.3,2.3,17.1 c-1.3,15.2-5.3,29.7-12.7,43.2c-2,3.7-4.6,6.9-7.7,9.8c-9.5,9.1-17.7,7.8-23.5-4.1c-2,8.2-4.4,16-5.6,24c-0.9,5.8-3.4,7.1-8.8,6.9 c-4.5-0.1-5.5-0.9-4.4-5.5c7.6-31,15-62.1,22.5-93.1c0.4-1.5,0-3.8,2.3-3.9c3.3-0.2,6.9-0.6,9.9,0.4c1.5,0.5-0.5,3.8-0.4,5.9 c-0.5,0.7-0.7,1.4-0.3,2.3C1765.7,581.4,1766.2,581,1766.6,580.6z M1779.8,601.2c0-0.7,0.1-1.3,0-2c-0.3-3.7-0.5-7.7-4.8-9 c-4.2-1.2-7.3,1.3-9.8,4.4c-0.5,0.6-1,1.3-1.4,2c-5.3,9.5-8.1,19.6-8.6,30.4c-0.1,1.8,0.3,3.7,0.8,5.4c1.4,4.3,5,5.7,9.1,3.9 c2.6-1.1,4.3-3.1,5.7-5.4C1776.7,621.9,1779.1,611.8,1779.8,601.2z"></path> <path class="st17" d="M1850.8,645.3c-2.5,2.2-4.8,4.6-7.5,6.5c-9.6,6.9-18.7,2.7-19.7-9c-1.7-18.9,9.5-34.3,27.9-38.2 c5.3-1.1,10.1-2.5,11.3-8.8c1-5.6-2.3-8.7-7.8-7.3c-3.4,0.8-5.9,3.1-6.7,6.2c-1.1,4.3-3.9,4.7-7.4,4.4c-2-0.2-4,0-6,0 c0.8-14.5,12.9-27.3,25.7-27.5c11.5-0.2,18,6.8,15.8,18.1c-2.5,13-5.9,25.9-8.9,38.9c-1,4.5-2.1,9.1-3.1,13.6 c-0.3,1.4-0.6,3-0.4,4.4c0.7,6,0.7,6-5.3,6c-0.2,0-0.3,0-0.5,0C1851.1,652.5,1851.1,652.5,1850.8,645.3z M1858,614.9 c-3.3,2-6.3,2.8-9.3,3.7c-7.3,2.4-11.4,7.9-11.5,15.5c-0.1,4.3,2.7,6.4,6.8,5.1c4-1.2,6.8-4,8.8-7.6 C1855.6,626.7,1856.7,621.2,1858,614.9z"></path> <path class="st17" d="M1608.8,630.7c0.9-17.8,5.7-34.4,16.6-48.8c4.8-6.3,10.8-10.8,19.2-11.1c9.1-0.3,14.5,3.7,16.4,12.7 c3.4,16-0.4,31.1-6.4,45.7c-2.6,6.2-6,11.9-10.4,16.9c-4.9,5.6-10.9,9.2-18.7,9c-8.3-0.1-13.3-4-15.4-12.1 C1609,639.1,1608.7,634.9,1608.8,630.7z M1648.5,601.2c0.1-7.4-1.4-11-4.8-12.2c-3.9-1.4-8.2,0.3-11.7,5.6 c-6.9,10.3-9.5,21.9-9.5,34c0,3.6,0.8,7.6,5.2,8.8c4.5,1.3,7.7-1.3,10.3-4.5c1.4-1.6,2.5-3.5,3.5-5.4 C1645.8,618.9,1647.8,609.6,1648.5,601.2z"></path> <path class="st17" d="M1559.7,633.4c1.5-17.5,5.4-34.4,15.5-49.3c4.2-6.2,9.4-11.3,17.3-12.4c10.6-1.5,17.5,3.9,18.4,14.6 c0.4,4.3-0.3,8.6-0.8,12.9c-0.2,1.8-0.9,2.7-2.8,2.6c-1.3-0.1-2.7-0.1-4,0c-4.4,0.5-7.4-0.1-6.3-5.8c0.5-2.6-0.5-5.4-3.5-6.5 c-2.9-1.1-5.3,0.2-7.3,2c-1.5,1.5-3,3.2-3.9,5.1c-5.2,10.4-8.1,21.4-8.2,33.1c0,3.2,0.4,6.6,4.2,7.7c4,1.2,6.6-1.1,8.8-4.1 c0.6-0.8,1.2-1.7,1.4-2.6c1.3-6.3,5.5-7.3,11.3-7c4,0.2,4.9,0.9,3.2,4.7c-3.3,7.7-7.2,15-13.4,20.8c-2.8,2.7-6.1,4.7-9.8,5.6 c-10.1,2.4-17-2.1-19-12.3C1560.1,639.6,1560,636.6,1559.7,633.4z"></path> <path class="st17" d="M1819,582.2c2-0.8,2.6-2.6,3.7-4c2-2.6,4.3-4.7,7.3-5.9c1.8-0.7,4.1-1.8,5.7-0.3c1.3,1.2,0,3.1-0.4,4.7 c-1,4.5-2.2,9-3.2,13.6c-0.4,1.7-0.8,2.8-2.8,2.6c-7.9-0.8-11.9,4.1-14.5,10.5c-4.7,11.8-6.4,24.4-9.7,36.5 c-0.4,1.4-0.7,2.9-1.1,4.4c-2,8.6-2,8.4-10.9,8.4c-3.5,0-3.8-1.1-3.1-4c5.2-21.3,10.3-42.6,15.4-63.9c0.7-2.9,1.6-5.8,2.1-8.7 c0.4-2.3,1.5-3.1,3.7-2.8c2.9,0.4,6.5-1.4,8.4,1C1821.2,576.1,1818.1,579.2,1819,582.2z M1818.4,583.3c-0.1,0.1-0.2,0.2-0.1,0.3 c0.2,0.4,0.4,0.5,0.6,0c0-0.1-0.1-0.2-0.1-0.3C1818.6,583.2,1818.5,583.3,1818.4,583.3z"></path> <path class="st16" d="M1492.9,644.9c-4.3,3.8-8.1,8.3-14.3,9.4c-8.1,1.5-13.7-1.3-16.7-8.9c-2.9-7.4-2.5-15-1.1-22.6 c2.7-13.9,7.2-27,15.8-38.4c3.4-4.6,7.4-8.6,12.7-11.1c9.9-4.7,16.4-2.4,21.4,8.1c3-10.7,6-20.7,8.4-30.9c1-4.2,2.8-5.5,7.1-5.3 c9.3,0.3,9.3,0.1,6.9,9c-8.5,31.1-17.2,62.2-25.6,93.3c-1,3.6-2.4,5.4-6.3,4.9c-2.9-0.4-5.9-0.1-9.2-0.1c0.5-2.5,1-4.6,1.4-6.7 c0.1-0.4,0.3-1.2,0.2-1.2C1493,643.9,1493,644.5,1492.9,644.9z M1504.5,600.6c-0.4-3.8-0.2-8.7-5.1-10.5c-5.1-1.9-9,0.9-12.3,4.5 c-0.4,0.5-0.8,1.1-1.2,1.6c-6.1,9-9.2,19.1-9.8,29.9c-0.2,4.1,0,8.4,4.4,10.2c4.8,2.1,8.7-0.4,12.1-3.6c1.3-1.3,2.4-2.8,3.4-4.3 C1501,620,1503.7,610.8,1504.5,600.6z"></path> <path class="st16" d="M1448.8,629c-2.9,12.1-17.4,24.8-29.1,25.8c-10.8,0.9-20-5.8-20.4-16.6c-1-21.8,5.3-41.4,20.1-57.8 c5.6-6.2,12.8-9.9,21.7-9.5c7.4,0.3,12.6,3.9,15,10.9c3.2,9.4,1.6,18.7-0.8,28c-2.2,8.7-2.2,8.7-11.2,8.7c-8.3,0-16.7,0.1-25-0.1 c-2.9-0.1-4.3,0.8-4.4,3.8c-0.1,1.8-0.5,3.6-0.5,5.4c0,4,0.8,7.7,5,9.5c4,1.7,8.3,0.7,10.4-2.5 C1434.5,626.7,1441.7,629,1448.8,629z M1430.8,604.5c1.3,0,2.7,0,4,0c7.6,0,8.7-1.3,7.4-9.1c-1.1-6.6-6.2-9.2-12-6 c-3.6,2-5.8,5.3-7.8,8.8c-3.5,6.2-3.4,6.2,3.4,6.2C1427.5,604.5,1429.1,604.5,1430.8,604.5z"></path> <path class="st13" d="M775.3,577.9c-5.6,8.9-10.6,16.9-15.6,24.8c-2.8,4.5-5.8,8.9-8.4,13.6c-1.5,2.7-3.4,3.6-6.4,3.6 c-62.4-0.1-124.9,0-187.3-0.1c-1.4,0-3.3,0.7-4.1-0.8c-0.9-1.6,0.9-2.7,1.6-3.9c6.7-10.9,13.5-21.7,20.3-32.6 c1.7-2.7,3.3-4.8,7.3-4.7c62.9,0.2,125.9,0.1,188.8,0.1C772.3,577.9,773.1,577.9,775.3,577.9z M760,588.2c0.3,1.6,1.1,1.9,2.4,0.9 c1.6-1.3,2.2-2.9,1.1-4.8c-0.7-1.2-1.7-1.4-2.6,0c-1.6-0.2-3.5-1.8-4.2,1.3C756.1,588.8,759.4,586.7,760,588.2z M588.9,602.5 c-0.3-0.1-0.6-0.2-0.9-0.3c0-5.1,0.2-10.3-0.1-15.4c-0.1-1.6,1.8-4.4-1.6-4.8c-2.6-0.2-5.4-0.8-7.3,2.5 c-4.4,7.8-9.4,15.3-14.1,22.9c-1.6,2.6-3.7,4.9-4.4,8.1c5.6,0.2,5.6,0.2,8.2-4c3.9-6.2,7.8-12.4,11.7-18.6c1,6.5,1,12.6,1,18.7 c0,3.6,3.2,5.7,6.1,3.8c1-0.7,1.6-2.1,2.3-3.2c4-6.6,8-13.2,12-19.8c1,6.7,1,13.1,1,19.5c0,2.1-0.2,3.8,3,3.9 c3.2,0,3.4-1.4,3.4-3.9c-0.1-8.3,0.1-16.6-0.1-24.9c0-1.6,1.6-4.5-1.5-4.9c-2.8-0.4-5.7-0.9-7.7,2.6 C596.5,590.8,592.6,596.6,588.9,602.5z M677.9,592c-3.8-8.4-12.2-12.2-20.8-9.9c-8.4,2.2-14,10.4-13,18.9 c1.1,8.7,8.4,15.2,17.5,15.5c8.5,0.3,16.6-6,18.2-14.2c0.5-2.6,0.2-4.1-3-3.9c-5,0.2-10,0.1-15,0c-2.1,0-3.8-0.2-3.8,2.9 c0,2.9,1.3,3.2,3.6,3.2c3.1-0.1,6.1,0,9.6,0c-4.1,6.2-10.5,7.5-15.8,3.8c-5.3-3.7-6.4-11-2.5-16.4c3.4-4.7,10.7-6.2,15-2.3 C671,592.4,674.1,592.3,677.9,592z M689,593.6c0.3-0.1,0.6-0.2,0.9-0.3c3.9,6.7,7.9,13.4,11.6,20.2c1.6,3,4.1,2.1,6.5,2.3 c2,0.2,2-1.2,2-2.6c0-9.6,0-19.3,0-28.9c0-1.7-0.6-2.2-2.3-2.3c-3-0.2-4.5,0.4-4.3,4c0.3,5.9,0.1,11.9,0.1,17.8 c-4.8-6.2-8.5-12.2-11.7-18.6c-1.8-3.6-4.6-3.5-7.4-3c-3,0.5-1.4,3.3-1.4,4.9c-0.2,8.5,0,17-0.1,25.5c0,2.6,0.8,3.4,3.4,3.4 c2.8,0,2.8-1.5,2.8-3.5C689,606.2,689,599.9,689,593.6z M713.4,615.3c5,1.6,7.9,0.3,8.9-4.5c0.7-3.8,3.5-3.9,6.4-3.6 c3.2,0.3,7.3-1.5,8.4,3.6c1.1,4.9,4.1,6.1,9,4.5c-4.4-10.5-8.8-20.8-13-31.2c-0.7-1.8-1.8-2-3.5-2.1c-1.8-0.1-2.7,0.6-3.3,2.2 c-1.8,4.5-3.6,8.9-5.5,13.3C718.3,603.4,715.8,609.3,713.4,615.3z M645.1,615.3c-4.4-10.5-8.7-21.1-13.2-31.5 c-1.1-2.6-5.1-2.7-6.2-0.2c-4.3,9.9-8.4,19.8-12.5,29.8c-0.6,1.5-0.4,2.2,1.6,2.6c4.5,0.8,5.8-2.1,6.7-5.4 c1.5-5.4,5.9-2.7,9.1-3.3c2.8-0.5,4.9,0.3,5.4,3.4C637,615.6,640.1,616.8,645.1,615.3z M757.4,590.5c-0.2,0-0.5,0-0.7-0.1 c0.1,0.1,0.2,0.3,0.3,0.3C757.1,590.7,757.2,590.6,757.4,590.5z M754.7,584.2c0-0.1-0.1-0.3-0.1-0.4c0,0-0.2,0.1-0.4,0.1 c0,0.1,0.1,0.3,0.1,0.4C754.4,584.3,754.6,584.2,754.7,584.2z"></path> <path class="st5" d="M404,549.1c27.2-23.9,65.1-23.4,90.5-5.1c29.4,21,38.9,59.8,22.5,92.1c-0.8,1.6-2.3,2.9-2.1,4.9l0.1-0.1 c-4.5,4.8-8.2,10.3-12.9,14.9c-26.3,25.4-71.9,26-97.5,1.2c1.1-3.1,4.8-4.4,5.9-8.1c-2.5,0-4.6-0.1-6.7,0c-3.9,0.2-7.7,0.2-10-3.8 c-0.6-1-1.7-1.9-1.3-3.1c0.5-1.4,2-0.8,3.1-0.8c6.3-0.1,12.6,0,18.9-0.1c3.6,0,5.1-3,5.1-5.7c0-3-3.1-1.6-4.8-1.6 c-8.3-0.2-16.6-0.1-24.9-0.1c-4.3,0-4.8-3.6-5-6.2c-0.3-3.4,3-1.5,4.4-1.5c9.3-0.2,18.6-0.4,27.9,0c4.7,0.2,8.1-0.5,8.7-5.9 c1.1,0.9,2.2,2,3.5,2.8c4.7,3.1,11.9,2.7,14.6-0.7c0.9-0.5,1.7-1,2.6-1.4c3.2,3.4,17.8,5,21.7,2.3c0.2-0.1,0.1-0.6,0.2-0.9 c0.8-0.4,1.5-0.7,2.3-1.1c0.2,1.4-0.2,3.5,2.1,2.9c2-0.5,5.1,2.1,6.1-1.9c1.8-0.1,1.8-1.4,2.1-2.8c1-4.9,1.2-9.9,3.1-14.6 c0.3-0.3,0.5-0.6,0.8-0.9l-0.1,0.1c1.1,0,1.9,0.1,1.5,1.7c-0.8,3.1-0.7,6.2-0.4,9.4c0.4,3.8,1.7,7.5,5.5,8.7 c6,1.9,12.2-0.2,18.3-0.2c0.1,0,0.2-0.9,0.3-1.4c3-0.4,2.2-3.1,2.5-4.7c1.6-9.2,3.1-18.4,4.4-27.6c0.2-1.5,2.2-4-0.7-4.5 c-2.4-0.4-5.8-1.7-7.2,2.2c-3.4,0.7-1.2,4.1-2.8,5.7c-6.7-4-11.6-0.6-15.9,4.8c-0.8-1.9-0.2-3,0.2-4c0.8-2-0.7-2.8-1.8-2 c-2.4,1.8-4.2,0.1-6.3,0c-2-0.1-4.9-1.5-5.7,2.1c-2,0.4-1.6,2.1-1.9,3.4c-0.8,2.8-0.2,5.8-2,8.3c0.1-1.8,0.1-3.7,0.3-5.5 c0.3-4.3-1.9-7-5.6-8.4c-5.8-2.1-12.2-0.7-14.8,2.9c-3.1,1.2-2.4,4.4-2.1,6.2c0.3,1.8,2.7-0.3,4.3-0.1c2.8,0.2,5.9-1.4,8.2,1.5 c-6.9,0-12.5,1.9-15.3,9.3c-1.3,3.5-5.2,3.2-8.2,2.8c-3.3-0.4-5.3-2.8-5.7-6.1c-0.6-4.9-0.1-9.6,3.5-13.4l0.2-0.2l0.3,0l-0.2,0 c2.8-0.1,5.6-0.4,8.3,0.9c1.9,0.9,2.8,0.2,2.8-1.8c3.5-1.1,2.3-4.4,2.6-6.6c0.3-2.3-2.5-2.1-4.1-2.5c-7.8-2-13.8,1-18.7,7 c-0.6,0-1.2,0-1.8,0c0.3-3.6-1.3-4.9-5-4.9c-11.8,0.2-23.7,0.1-35.5,0.1c-4.4,0-5-1.4-3-5.4c1.2-2.2,3-1.7,4.7-1.7 c10.7,0,21.3,0,32-0.1c1.2,0,3.8,0.9,3.1-1.6c-0.8-3.2-1.3-6.8-6.5-6.5c-8,0.5-16,0.2-24,0.1c-1.5,0-4,1-4.4-0.9 c-0.5-2,1.2-4,2.7-5.6c1-1.1,2.5-0.6,3.8-0.6c6,0,12,0,18,0c1.3,0,3.6,0.4,2.3-2.2c-1.6-3.1-3.1-6.3-7.7-5.8 c-3,0.4-6.2,0.1-9.7,0.1C399.2,553.1,402.7,551.9,404,549.1z M519.9,620c0-1.6-0.9-2.6-2.3-2.7c-1.4-0.1-2.5,0.9-2.5,2.4 c-0.1,1.3,0.7,2.1,2,2.2C518.6,622,519.6,621.5,519.9,620z"></path> <path class="st18" d="M404,549.1c-1.3,2.8-4.8,4-6,7.9c3.5,0,6.6,0.3,9.7-0.1c4.6-0.6,6.1,2.7,7.7,5.8c1.3,2.5-1,2.2-2.3,2.2 c-6,0.1-12,0-18,0c-1.3,0-2.8-0.4-3.8,0.6c-1.5,1.6-3.1,3.6-2.7,5.6c0.4,1.9,2.9,0.9,4.4,0.9c8,0.1,16,0.4,24-0.1 c5.2-0.3,5.7,3.3,6.5,6.5c0.6,2.5-2,1.6-3.1,1.6c-10.7,0.1-21.3,0-32,0.1c-1.7,0-3.6-0.5-4.7,1.7c-2.1,3.9-1.4,5.3,3,5.4 c11.8,0,23.7,0.1,35.5-0.1c3.7-0.1,5.3,1.2,5,4.9c0,0,0,0.1,0,0.1c-0.8,0-1.7-0.3-2.5-0.1c-2.1,0.7-3.7,2.5-6.3,0.3 c-1-0.9-5-1.6-6,2c-2.4,0.7-1.7,2.8-2.1,4.5c-0.7,3.3-0.6,6.8-2.1,10c0.1-2.1,0.4-4.3,0.4-6.4c-0.1-7.2-5-11.8-11.7-11 c-6,0.7-9.2,4.8-11.8,9.6c-0.8,0.5-0.9,1.4-0.9,2.3c0,0,0.1-0.1,0.1-0.1c-2.7,3.7-1.8,7.9-2,12c-1.7-0.1-4.5,0.6-4-2.1 c0.8-4.7-0.8-10.3,4.9-13.4c2.6-1.4,2.2-6-0.4-7.4c-0.6-0.3-1.3-0.5-1.1-1.3c0.5-1.9,0.4-3.3-2.1-3.2c-2.3,0.2-5.2-1-6.1,2.5 c-3.3,1.3-0.8,5.3-3.3,7c-1.5-1.5,2-4.4-1.5-5.2c-5.1-1.1-13.6-1-16.6,5.2c-0.3,0.4-0.5,0.7-0.8,1.1l0.1-0.1 c-0.4,0.3-0.8,0.5-1.2,0.8c-1.1-4.8-4.3-7.5-9.1-7.4c-4.1,0.1-9-1.3-11.8,3.6c-2.6,1.4-2.4,4.1-1.8,6c0.7,2.1,2.8-0.1,4.2,0.1 c2.8,0.3,5.9-1.3,8.2,1.6c-5.9,0-11.3,1.3-14.6,6.9c-0.4,0.3-0.8,0.5-1.2,0.8c1.1-7.3,2.2-14.6,3.2-22c0.1-1,1.1-2.2-0.4-3 c-2.1-1.2-11.1,0.4-12.6,2.3c-1.9,0.4-1.8,2.1-2.3,3.4c-1.3,3.3-2.5,6.6-3.7,10c-0.1-3.4-0.1-6.9-0.3-10.3c-0.1-1.9,0.9-5.3-2-5.1 c-3.4,0.2-7.9-2.9-10.3,2.3c-2.7-0.1-2.1,2.1-2.4,3.6c-1.7,9.5-3.3,18.9-4.8,28.4c-0.2,1.4-1.5,3.9,0.8,4.2 c2.2,0.3,5.4,2.2,6.8-1.7c1.7-0.2,1.9-1.5,2.1-2.9c0.5-2.9,1.2-5.8,1.8-8.7c0.9,3.2,0.4,6.6,0.6,9.9c0.1,1.4-0.3,3.3,1.8,3.5 c1.8,0.2,4.1,1.2,4.8-1.8c2.3-0.5,2-2.8,2.8-4.3c1.2-2.2,1-5.1,3.1-7c0.8,3-0.5,5.8-0.7,8.7c-0.1,1.5-1.3,3.9,0.7,4.2 c2.3,0.4,5.5,2,7.1-1.6c2.7-0.2,1.6-2.7,2.4-4c3.5,7.7,8.4,9,14.6,3.8l-0.1,0.1c2.6,2.6,5.3,3.8,8,0.2c0.4,0,0.7,0,1.1-0.1 c2.8,4,12.6,3.9,17-0.1l-0.1,0.1c0.9,0.2,1.4-0.2,1.8-1c0.8-0.6,1.5-1.3,2.3-1.9c2.8,6.8,8.4,8.2,12.8,3.2c3.1-0.9,1.6-4,2.8-5.8 c0.7,1.3,1.3,2.7,2.2,3.9c4.2,5.5,15.1,6.4,19.2,1.7c0.7-0.5,1.3-0.9,2-1.4c0.5,1.2-0.5,3.6,1.8,3.3c2.3-0.3,5.4,2.1,6.7-1.8 c2.7-0.7,2-3.1,2.4-4.8c0.9-4.5,1-9.2,3.1-13.4c2.5-0.6,3.2,0.5,3,2.9c-0.4,4.8,0.6,9.2,3,13.3c-0.6,5.4-4,6.1-8.7,5.9 c-9.3-0.4-18.6-0.2-27.9,0c-1.4,0-4.7-1.9-4.4,1.5c0.2,2.6,0.7,6.2,5,6.2c8.3-0.1,16.6-0.1,24.9,0.1c1.7,0,4.8-1.4,4.8,1.6 c0,2.7-1.5,5.6-5.1,5.7c-6.3,0.1-12.6,0-18.9,0.1c-1.1,0-2.6-0.6-3.1,0.8c-0.4,1.1,0.7,2.1,1.3,3.1c2.3,4.1,6,4.1,10,3.8 c2.1-0.1,4.3,0,6.7,0c-1.1,3.7-4.8,5-5.9,8.1c-8.4,5.9-16.8,11.7-26.8,14.9c-48.7,15.9-99.3-23.7-94.5-74.7 c2.7-28.9,17.8-50.1,44.7-61.1c26.8-10.9,52.2-6.5,74.8,12C403.2,548.5,403.6,548.8,404,549.1z"></path> <path class="st5" d="M514.9,641c0.6,0,1.3,0.1,1.9,0c1.7-0.1,3,0.2,3.1,2.3c0,1.4-1,2.2-2.2,2.3c-1.7,0.1-2.7-1-2.6-2.8 C515.1,642.2,515,641.6,514.9,641C515,641,514.9,641,514.9,641z"></path> <path class="st17" d="M28.4,524.1c78.6,0,157.2,0,235.8-0.1c3.7,0,4.8,0.9,4.8,4.7c-0.2,39.3-0.1,78.6-0.1,117.9 c-1.8,0.1-3.6,0.2-5.5,0.2c-73.3,0-146.6,0-219.9,0c-11.4,0-15.3-3.9-15.3-15.3c0-34,0-68,0-102C28.2,527.8,28.3,526,28.4,524.1z M77,583L77,583c-0.4-9.1-2.9-17.9-4.6-26.8c-1.2-6.1-3.3-7.8-9.5-7.8c-8.3-0.1-16.6,0-24.9,0c-1,0-2.4-0.5-2.9,1.4 c6.2,2.7,13,4,18.4,8.4c5,19.1,10,38.3,14.8,57.4c0.8,3.1,2.2,3.9,5.1,3.7c3.6-0.2,7.3-0.3,11,0c3.2,0.3,4.6-0.9,5.8-3.8 c7-17.9,14.3-35.7,21.4-53.6c1.6-4.1,5.9-9.5,4.1-12.1c-2.3-3.2-8.6-0.5-13.2-1.2c-3.8-0.5-5.4,1.1-6.7,4.7 c-4.8,13.9-10,27.6-15.5,42.4c-1-4-1.6-6.9-2.3-9.8C77.8,584.8,78.3,583.6,77,583z M191.8,619.2c4.7,0,8.8-0.4,12.9,0.1 c5.1,0.6,7.8-1.2,8.5-6.2c0.6-3.8,2.9-4.9,6.7-4.6c4.8,0.4,9.6,0.2,14.5,0.1c2.4-0.1,3.4,0.7,3.9,3.3c1.5,7.5,1.7,7.5,9.3,7.5 c1.3,0,2.7-0.2,4,0c4.6,0.7,5.1-1.2,4.2-5.3c-4-18.7-7.9-37.4-11.7-56.1c-1.9-9.3-1.8-9.3-11.5-9.3c-1.7,0-3.3,0-5,0 c-4.5-0.1-7.6,2-9.3,6.1c-2.3,5.7-4.7,11.3-7,17C204.8,587.3,198.4,602.9,191.8,619.2z M161.7,620.2c2-0.1,4-0.1,6-0.3 c7.2-0.9,14-3,19.3-8.3c9.3-9.3,8.3-23.6-2.4-31.1c-3.9-2.8-8.4-4.8-12.5-7.3c-2.2-1.3-4.4-2.9-3.8-5.9c0.6-2.7,2.9-3.8,5.4-4.6 c2-0.6,3.9-0.8,5.9-0.7c3.9,0.1,7.6,0.9,11.1,2.5c2,0.9,3,0.7,3.2-1.8c0.3-3.3,0.9-6.6,1.6-9.8c0.6-2.4-0.5-3.3-2.5-3.8 c-9.2-2.6-18.4-2.9-27.5,0.4c-9.3,3.4-15.7,9.6-16.4,19.9c-0.6,9.5,5.4,14.8,13,19c3.2,1.8,6.5,3.4,9.4,5.6c3.9,3,3.3,7.3-0.9,9.7 c-1.9,1.1-4,1.4-6.2,1.5c-5.9,0.3-11.6-1-17-3.3c-1-0.4-2.8-2-3.2-0.1c-1.1,4.5-1.6,9.2-2.1,13.8c-0.2,1.8,1.8,1.8,2.9,2.2 C150.4,619.3,156,620.3,161.7,620.2z M121.5,619.2c1.3,0,2.7-0.2,4,0c4.1,0.7,5.6-0.9,6.2-5.1c3.1-21.1,6.6-42.1,10-63.1 c0.4-2.3-0.2-3-2.5-2.9c-4,0.1-8,0.2-12,0c-2.9-0.2-3.7,1.1-4.1,3.6c-3,19.6-6.2,39.1-9.2,58.6 C112.7,619.1,112.8,619.2,121.5,619.2z"></path> <path class="st17" d="M1089.5,680c-30.3,0-60.7,0-91,0c-10.4,0-15.3-5-15.3-15.2c0-41.3,0-82.7,0-124c0-10.4,4.9-15.2,15.3-15.2 c60.7,0,121.3,0,182,0c10.9,0,15.5,4.6,15.5,15.5c0,41.3,0,82.7,0,124c0,10.1-4.9,15-15,15C1150.5,680,1120,680,1089.5,680z M1118.1,652c0.5-0.1,1.2,0.2,1.2-0.7c0-0.1-0.8-0.1-1.2-0.2c-1.4,0-2.8,0-4.2,0c-5.6-1.1-11.1-0.1-17.2-0.1c2,2.5,5.7-0.1,6,2.2 c0.5,4.2,1.5,8.6-1,12.6c2.1,0,4.2,0,6.2,0c-2.4-4-1.2-8.3-1.2-12.4c0-1.5,2.2-1.6,2.7-1.1c2,2.4,2.9-0.8,4.4-0.6 c1.6,4.7,1.5,9.3-0.4,13.9c1.9,0,3.9,0,5.1,0C1117.3,661.2,1117.8,656.6,1118.1,652z M1077,626.3c-0.1-4.1-2.1-0.9-3.1-0.7 c-1.2,0.2-2.3,0.5-0.9,2.6c2.3,3.4,0.9,11.9-1.5,13.9c3,0,5.9,0,9.9,0c-5.2-1.8-5.9-9.2-2.5-14.3c2,0.3,4.1,0.9,6.1,0 c0.4,4,2.3,6.6,6.2,7.9c1.9,0.7,3.8,2.4,1.9,4.5c-1.5,1.8-3.5,1.1-5.3-0.2c-1-0.7-0.6-2.8-2.5-2.6c-0.4,3.1,0.4,5.3,3.9,5.5 c3.3,0.2,6.5,0,7.8-3.8c1.2-3.3-0.5-5.4-3.4-6.8c-1-0.5-2.1-1-3.1-1.5c-1.2-0.7-2.2-1.6-1.9-3.1c0.3-1.6,1.6-1.9,3.1-1.9 c0.8,0,2.1,0.6,2.4-1.3c-4.1-1.7-6.6,0.7-9.2,3.3c-1-4-3-5.2-6.3-2C1078.3,626.4,1077.7,626.6,1077,626.3z M1047.8,655.3 c0.1-0.6,0.2-1.3,0.3-1.9c0.7,0.4,1.5,1.2,1.6-0.4c0-1.2-0.3-2.3-1.9-2.3c-3.3,0-6.5-0.1-9.8-0.1c-6.8,0-13.6,0-20.8,0 c2.8,3.3,2,6.3,1.1,10.6c-4.8-8.9-10.9-12.6-19.4-9.9c1.5,4.9,1.5,9.6-0.3,14.5c4,0,8,0,12,0c-2.8-3.1-1.9-6.4-1.2-10.6 c2.1,2.3,3.6,4.1,5.2,5.8c1.6,1.8,3.3,3.5,5.9,6.2c0-4.6,0-7.8,0-11.1c0-1.4,0.6-4.2,1-3.8c2.4,2.3,4.8-1.3,6.9,0.3 c0.2,0.2,0.5,0.5,0.4,0.8c-0.3,4.2,1.4,8.6-1.4,12.6c2.1,0,4,0,6.2,0c-2.8-3.1-1.3-6.6-1.6-9.9c-0.3-3.6,0.8-5.2,4.4-2.8 c2.5,1.6,0.9-1,1.4-1.4c0.6,0.2,1.7,0.3,1.7,0.6c0.5,4.5,1,9-0.5,13.8c4.3-0.2,8.5-0.4,12.8-0.6c2.1,0.7,4.2,0.4,6.5,0.1 c-2.3-1.9-2.3-4-0.8-8.4c2.1,10.2,8.5,9,14.7,8.4c-2.9-3-1.6-6.4-1.4-10.7c1.9,2,3,3.4,4.3,4.6c2.7,2.7,4.6,6.6,9.3,6.1 c1.5-0.2,4.8,2.1,3.4-2.5c-0.4-1.2,0.5-2.5,2.3-2.5c1.6,0,3.6,0.1,3.4,1.9c-0.5,5.4,3.2,2.7,5.7,3.4c-3-3.8-3.4-8.1-5.1-11.8 c-0.6-1.4-0.2-3.7-2.4-3.7c-2.1,0-2.1,2.3-2.7,3.7c-1.2,3.1-2.1,6.3-3.4,9.4c-0.3,0.8-1.4,1.4-2.3,1.7c-0.7,0.3-1.2-0.5-1.2-1.1 c0.3-4.1-1.1-8.2,0.9-12.2c0.2-0.4,0.7-0.7,0-1.1c-1.3,0-2.6,0-4.1,0c2.4,2.7,2.3,5.5,1.2,8.6c-4.9-2.4-5.8-9.9-12.9-8.5 c2.9,2.8,1.4,6.2,1.7,9.3c0.1,1.6,0.6,3.5-1.3,4.4c-1.5,0.7-2.8-0.1-3.3-1.4c-0.7-1.9-3.8-2.8-2.1-5.7c2.8-4.6,1.5-6.8-3.7-6.8 c-2.1,0-4.2-0.5-6.3,0.4c1.9,4,1.7,10.8-0.4,14.1c-2.3-0.2-0.3-2.4-1.5-3.1c-1.8,1.8-3.8,3.5-6.3,1.6c-1.2-0.9-1-3-0.2-4.1 c1.2-1.8,2.6-0.2,3.8,0.7C1048.5,658.5,1048.4,656.9,1047.8,655.3z M1169.1,625.9c-3.4-2.2-1.3-5.6-1.5-8.4 c-0.4-5.5-0.1-5.5-5.5-3c1.9,1.3,2,3.2,2,5.3c-0.1,5.2,0,10.3,0,15.5c0,7.5,0.3,7.8,8.1,7.7c0.3,0,0.6-0.1,1-0.2 c1.3-0.6,2.8-1,3.9-1.9c3.9-3,4.9-9.5,2.3-13.4C1176.9,623.9,1173.5,623.4,1169.1,625.9z M1036.9,626.2c-0.2,0.1-0.5,0.2-0.7,0.4 c0.2,0.2,0.4,0.3,0.7,0.5c3.1,4.5,1.7,9.3,1.1,14.1c-3.5,1-5.6,0.4-5.3-4c0.2-3.3,0.1-6.7,0-10c0-1,0.2-2.5-0.8-2.6 c-1.4-0.1-3,0.4-4.1,1.2c-1.4,1,0.7,1.4,0.7,2.2c0.4,4.8,1.9,9.7-1.5,14.3c3.7,0.7,7.4-0.1,11-0.1c1.7,0,3.4,0,5.1,0 c0.4,0.6,0.8,0.4,1,0c0.4-0.9-0.1-1-0.9-0.9c-2.3-3.8-0.7-8-1-12c-0.1-1.8,2-2,3.4-2.3c1.3-0.2,2.6-0.3,3.6,0.9 c1.6,2,0.7,12.2-1.7,14.6c3.2-0.7,6.1,1.5,8.4-1.4c1.9-1.7,2.4,0.7,3.5,1.2c4.4,2,8.8,0.4,10.4-4.4c-0.8,0.6-1.5,1.1-2.2,1.5 c-2.2,1.3-4.4,1.4-6.4-0.6c-1.6-1.6-2.8-3.8-2.1-5.8c0.9-2.8,3.7-0.8,5.6-1.3c0.6-0.2,1.3,0,2,0c1.2-0.2,2.9,0.7,3.4-1.2 c0.3-1.3-0.1-2.7-1-3.7c-2.2-2.4-4.9-3.3-8.1-2c-4.3,1.8-6.2,6.3-5.5,11.6c0.2,1.5,2.5,3,0.3,4.7c-2.3,0.4-2.9-0.7-2.8-2.8 c0.1-3.1,0-6.3,0-9.4c0-2.7-2-5.3-4.1-4.4C1045,626.2,1040.6,623.5,1036.9,626.2z M1122.1,615.8c4.9-0.4,8.4,1.7,10.6,6.3 c-0.2-2.3,1.6-5.1-1.4-6.2c-3.4-1.2-6.8-2.7-10.5-1.2c-8.9,1.6-13.9,8.5-12.2,16.6c1.8,8.7,9.2,13.2,18.4,11.5 c4.3-0.8,6.7-2.7,5.5-8.1c-2.1,4.4-4.7,7.5-9.6,6.7c-5.2-0.9-8.1-4.3-9.6-9C1110.8,624.4,1114.1,618.3,1122.1,615.8z M1089.4,612 c3.2,0,6.3,0,9.5,0c19-0.1,36.7-15.3,38.2-32.8c1.8-20.9-11.5-38-32-41.3c-8.6-1.4-17.3-0.8-25.9-0.6 c-16.5,0.3-30.3,11.1-34.8,26.6c-4.6,16.1,1.5,32.8,15.3,42.1C1068.7,612.1,1078.9,612.6,1089.4,612z M997.7,614.9 c5,3.4,5.1,23.2,0.2,27.7c3.7,0,7,0,10.2,0c1.5,0,3-0.2,4.4-0.4c8.1-1.1,12.8-6.3,12.7-13.9c-0.1-7.2-5.5-12.8-13.4-13.4 C1007.5,614.7,1003,614.9,997.7,614.9z M1156.9,664.2c-0.1-2.3,1-3.4,3.4-3.4c1.4,0,3.2,0,2.9,1.8c-0.8,4.8,2.6,3.3,4.8,3.4 c3.3,0.1,6.7-0.2,10,0.1c3,0.2,3.6-1.1,3.4-3.7c-3.5,2.8-6.8,3.3-7,1.1c-0.3-4-1.3-8.3,0.9-12.3c-1.8-0.4-3.6-0.6-5.2,0.1 c2.1,3.5,0.7,7.3,1.1,10.9c0.1,1.1,0.2,2.5-1.3,2.9c-1.6,0.3-2.4-0.6-2.9-2c-1.1-3.3-2.2-6.6-3.5-9.8c-0.4-1-0.2-2.7-1.8-2.6 c-1.5,0.1-2.2,1.4-2.5,2.7C1158.3,656.9,1155.9,660.2,1156.9,664.2z M1153.5,625.6c2.2,2,3.9,9.8,2.5,12.5 c-0.9,1.8-2.8,2.6-4.6,2.5c-1.9,0-2.9-1.6-3-3.4c-0.2-2.5-0.4-5-0.2-7.5c0.3-4-0.6-6-5-4.3c3.2,3.5,1.5,7.9,1.7,11.8 c0.4,5.3,3,7,7.9,5c1-0.4,2.3-2.1,2.8-1.1c2.2,3.8,4.1-0.1,6.3,0.7c-3.7-3.6-1.9-7.5-2.1-11 C1159.6,624.5,1159.8,624.5,1153.5,625.6z M1150.3,659.9c-5.2-2.5-5.9-10.1-12.8-8.9c2,5.2,2.1,10.1-0.2,15 c1.6-0.2,3.3,0.6,4.8-0.5c-3.4-2.8-1.5-6.3-1.7-10c4.6,3.1,6.7,8,11.2,10.7c1.4-5.2-1-10.4,1.8-15.1c-1.5-0.4-3.1-0.5-4.7,0.1 C1151.5,653.7,1150.4,656.7,1150.3,659.9z M1128,666.2c5,0,8.3-3,8.4-7.8c0.1-4.6-3.5-8.1-8.3-8.1c-4.6,0-8.1,3.6-8.1,8.3 C1120,663.2,1123.1,666.1,1128,666.2z M1134.4,642.2c3,0,5.4,0,7.7,0c-2.6-1.1-2-3.2-2-5.1c0-7.2-0.1-14.3,0-21.5 c0.1-3.1-0.8-3.2-3.4-2.1c-3.8,1.6,0.1,2.6,0.1,3.9c-0.2,7.3-0.1,14.7,0,22C1136.9,641,1135.4,640.8,1134.4,642.2z M1184,652.3 c-0.5-1.3-1.2-2.4-2.8-2.3c-2,0.1-2.5,1.3-2.3,3c0.2,1.6,1.3,2.2,2.8,2C1183.3,654.8,1183.8,653.7,1184,652.3z M1030.7,618.5 c1.3-0.1,2.2-0.8,2.1-2.2c0-1.2-0.9-1.8-2-1.9c-1.4-0.1-2.1,0.8-2.1,2.1C1028.8,617.7,1029.5,618.3,1030.7,618.5z"></path> <path class="st16" d="M928,591.5c1.1-2.6,2-4.7,3.2-7.3c1.3,2.8,2.6,4.8,2.7,7.2C932.1,592.1,930.3,591.9,928,591.5z"></path> <path class="st16" d="M825.3,583.7c1.1,3.4,3.3,5.3,2.1,7.8c-0.3,0.6-3.6,0.7-4,0C822,589.1,824.4,587.2,825.3,583.7z"></path> <path class="st16" d="M859.6,628c-0.7,0-1.4,0.1-2,0c-1.4-0.3-3.7,1.1-3.6-1.9c0-2.8,2.3-1.7,3.7-1.9c0.2,0,0.3,0,0.5,0 c1.8-0.6,5.3,1.5,5.4-1.6c0.1-3.5-3.5-1.5-5.4-2c-1.5-0.4-4.2,1.1-4-2.1c0.2-2.8,2.6-1.5,3.9-1.4c3.1,0.2,6.8-1.6,9.2,1.8 c1,1.4,3.7,2.3,2.3,4.3c-1.3,1.9-2.6,4.4-5.4,4.7C862.6,628.1,861.1,628,859.6,628C859.6,628,859.6,628,859.6,628z"></path> <path class="st17" d="M882.9,615.4c0,5.1,0,9.5,0,14C874.9,624,874.8,622.5,882.9,615.4z"></path> <path class="st17" d="M891,617c2,0.1,4.7-0.6,4.8,2.2c0.1,3.4-2.9,2.7-5.1,2.8c-1.9,0.1-3.9,0.5-3.8-2.7 C887.1,615.6,889.7,617.5,891,617z"></path> <path class="st17" d="M891.9,584.8c1.8,0.4,4.7-0.7,4.6,2.3c-0.1,2.9-2.9,2.1-4.7,2.1c-1.5,0-3.9,1.1-3.9-2.2 C888,583.7,890.5,585.3,891.9,584.8z"></path> <path class="st16" d="M911.2,617c1.9,0.2,4.6-0.5,4.4,2c-0.2,3.3-3.4,2.2-5.5,2.5c-1.7,0.2-3.3,0.1-3.2-2.4 C907.1,615.4,910,617.8,911.2,617z"></path> <path class="st16" d="M795.9,681.1c0.1-0.4,0.7-0.6,0.1-1.1c-0.5-0.5-0.8,0.1-1.1,0.1c0.1-3.9-1.3-8.3,3.2-10.9 c2.4-0.4,4.6,0,6.7,1c0.3,0.3,0.7,0.7,1,1c1.2,2.9,1.9,5.7-0.5,8.3c-2.4,2.6-5.3,2.3-8.2,1.1C796.4,680.2,796.3,680.9,795.9,681.1 z M798.1,678.8c2-4.9,3.8-2,5.7-0.2c-0.8-2.8,2.1-7.6-3.6-7C795.6,672.1,799.2,676.1,798.1,678.8z"></path> <path class="st6" d="M1680.2,190.9c13.2,0,23.8,11.3,23.8,25.5c0,14.1-10.6,25.6-23.7,25.6c-13.5,0-24.2-11.4-24.1-25.8 C1656.3,202,1666.9,190.8,1680.2,190.9z"></path> <path class="st7" d="M1687.4,581.3c0.1,0,0.2,0,0.3,0c0.1,0.1,0.2,0.2,0.1,0.3c-0.2,0.4-0.4,0.4-0.5,0 C1687.2,581.5,1687.4,581.4,1687.4,581.3z"></path> <path class="st7" d="M1779.8,601.2c-0.7,10.6-3.1,20.7-8.9,29.8c-1.4,2.3-3.2,4.3-5.7,5.4c-4.1,1.8-7.7,0.4-9.1-3.9 c-0.6-1.7-0.9-3.6-0.8-5.4c0.5-10.8,3.3-21,8.6-30.4c0.4-0.7,0.9-1.4,1.4-2c2.5-3.1,5.6-5.7,9.8-4.4c4.3,1.3,4.5,5.3,4.8,9 C1779.9,599.8,1779.8,600.5,1779.8,601.2z"></path> <path class="st7" d="M1766.6,580.6c-0.4,0.4-0.9,0.8-1.3,1.3c-0.4-0.8-0.3-1.6,0.3-2.3C1765.9,579.9,1766.3,580.3,1766.6,580.6z"></path> <path class="st12" d="M1858,614.9c-1.3,6.4-2.5,11.9-5.3,16.8c-2,3.6-4.8,6.3-8.8,7.6c-4.1,1.3-6.8-0.8-6.8-5.1 c0.1-7.6,4.2-13.2,11.5-15.5C1851.7,617.6,1854.8,616.9,1858,614.9z"></path> <path class="st7" d="M1648.5,601.2c-0.6,8.4-2.7,17.6-7,26.2c-1,1.9-2.1,3.8-3.5,5.4c-2.6,3.2-5.8,5.7-10.3,4.5 c-4.4-1.2-5.2-5.2-5.2-8.8c0-12.2,2.6-23.8,9.5-34c3.5-5.2,7.8-7,11.7-5.6C1647,590.2,1648.6,593.8,1648.5,601.2z"></path> <path class="st7" d="M1818.4,583.3c0.1,0,0.2,0,0.3,0c0.1,0.1,0.2,0.2,0.1,0.3c-0.2,0.4-0.4,0.4-0.6,0 C1818.2,583.5,1818.3,583.4,1818.4,583.3z"></path> <path class="st8" d="M1504.5,600.6c-0.8,10.2-3.4,19.4-8.5,27.8c-0.9,1.6-2.1,3.1-3.4,4.3c-3.4,3.2-7.3,5.7-12.1,3.6 c-4.4-1.9-4.7-6.2-4.4-10.2c0.6-10.8,3.7-20.9,9.8-29.9c0.4-0.5,0.7-1.1,1.2-1.6c3.3-3.6,7.2-6.4,12.3-4.5 C1504.3,591.9,1504.1,596.8,1504.5,600.6z"></path> <path class="st8" d="M1492.9,644.9c0.1-0.4,0.1-1,0.7-0.7c0.1,0.1-0.1,0.8-0.2,1.2C1493.3,645.3,1493.1,645.1,1492.9,644.9z"></path> <path class="st8" d="M1430.8,604.5c-1.7,0-3.3,0-5,0c-6.9,0-6.9,0-3.4-6.2c2-3.5,4.1-6.9,7.8-8.8c5.8-3.2,10.9-0.6,12,6 c1.3,7.7,0.2,9.1-7.4,9.1C1433.4,604.5,1432.1,604.5,1430.8,604.5z"></path> <path class="st17" d="M588.9,602.5c3.7-5.9,7.6-11.6,11-17.7c2-3.6,4.9-3.1,7.7-2.6c3,0.4,1.4,3.3,1.5,4.9 c0.2,8.3,0,16.6,0.1,24.9c0,2.5-0.2,4-3.4,3.9c-3.1,0-3-1.8-3-3.9c0-6.4,0-12.8-1-19.5c-4,6.6-8,13.2-12,19.8 c-0.7,1.1-1.3,2.5-2.3,3.2c-2.9,1.9-6.1-0.2-6.1-3.8c0-6.1,0-12.2-1-18.7c-3.9,6.2-7.8,12.4-11.7,18.6c-2.6,4.2-2.6,4.2-8.2,4 c0.7-3.2,2.8-5.5,4.4-8.1c4.6-7.7,9.6-15.1,14.1-22.9c1.9-3.4,4.6-2.8,7.3-2.5c3.4,0.3,1.5,3.2,1.6,4.8c0.3,5.1,0.1,10.2,0.1,15.4 C588.3,602.3,588.6,602.4,588.9,602.5z"></path> <path class="st16" d="M677.9,592c-3.9,0.3-7,0.4-10-2.3c-4.3-3.9-11.6-2.4-15,2.3c-3.9,5.3-2.8,12.6,2.5,16.4 c5.2,3.7,11.6,2.4,15.8-3.8c-3.5,0-6.6-0.1-9.6,0c-2.3,0.1-3.6-0.2-3.6-3.2c0-3.2,1.7-3,3.8-2.9c5,0,10,0.2,15,0 c3.3-0.1,3.5,1.3,3,3.9c-1.6,8.2-9.6,14.5-18.2,14.2c-9.1-0.4-16.4-6.9-17.5-15.5c-1-8.4,4.6-16.6,13-18.9 C665.8,579.8,674.1,583.6,677.9,592z"></path> <path class="st17" d="M689,593.6c0,6.3,0,12.6,0,18.9c0,2,0,3.5-2.8,3.5c-2.6,0-3.5-0.7-3.4-3.4c0.1-8.5-0.1-17,0.1-25.5 c0-1.7-1.6-4.4,1.4-4.9c2.9-0.5,5.6-0.6,7.4,3c3.1,6.4,6.9,12.4,11.7,18.6c0-5.9,0.2-11.9-0.1-17.8c-0.2-3.5,1.3-4.2,4.3-4 c1.7,0.1,2.3,0.6,2.3,2.3c-0.1,9.6,0,19.3,0,28.9c0,1.4,0,2.8-2,2.6c-2.3-0.2-4.8,0.8-6.5-2.3c-3.7-6.8-7.7-13.5-11.6-20.2 C689.6,593.4,689.3,593.5,689,593.6z"></path> <path class="st17" d="M713.4,615.3c2.5-5.9,4.9-11.9,7.4-17.8c1.8-4.4,3.7-8.9,5.5-13.3c0.6-1.6,1.6-2.3,3.3-2.2 c1.6,0.1,2.7,0.3,3.5,2.1c4.3,10.4,8.6,20.8,13,31.2c-4.9,1.7-7.9,0.5-9-4.5c-1.1-5.1-5.2-3.3-8.4-3.6c-3-0.3-5.7-0.1-6.4,3.6 C721.3,615.6,718.4,616.8,713.4,615.3z M729.6,591.5c-1.3,3.6-2.3,6.4-3.4,9.3c2.5,0,4.5,0,7,0C732,597.7,730.9,595,729.6,591.5z"></path> <path class="st17" d="M645.1,615.3c-5,1.5-8.1,0.3-9.1-4.7c-0.6-3.1-2.7-3.9-5.4-3.4c-3.2,0.6-7.6-2.1-9.1,3.3 c-0.9,3.3-2.2,6.2-6.7,5.4c-1.9-0.3-2.2-1.1-1.6-2.6c4.1-9.9,8.2-19.9,12.5-29.8c1.1-2.5,5.1-2.3,6.2,0.2 C636.3,594.3,640.7,604.8,645.1,615.3z M628.4,592c-1.1,3-2.1,5.8-3.1,8.7c2.6,0,4.6,0,6.8,0C630.9,597.6,630.3,594.7,628.4,592z"></path> <path class="st10" d="M760.9,584.3c0.9-1.5,1.9-1.3,2.6,0c1.1,1.8,0.4,3.5-1.1,4.8c-1.2,1-2.1,0.8-2.4-0.9 C761.4,587.2,760.4,585.6,760.9,584.3z"></path> <path class="st14" d="M760.9,584.3c-0.5,1.3,0.5,2.8-0.9,3.9c-0.6-1.5-3.9,0.5-3.3-2.6C757.3,582.5,759.3,584.2,760.9,584.3z"></path> <path class="st10" d="M757.4,590.5c-0.1,0.1-0.3,0.2-0.4,0.2c-0.1,0-0.2-0.2-0.3-0.3C756.9,590.5,757.1,590.5,757.4,590.5z"></path> <path class="st10" d="M754.7,584.2c-0.1,0-0.3,0.1-0.4,0.1c-0.1-0.1-0.1-0.3-0.1-0.4c0.1,0,0.3-0.1,0.4-0.1 C754.7,583.9,754.7,584,754.7,584.2z"></path> <path class="st16" d="M452.8,594.9c2.5-3.6,8.9-5,14.8-2.9c3.7,1.4,5.9,4.1,5.6,8.4c-0.1,1.8-0.2,3.7-0.3,5.5 c-1.5,5-1.9,10-2,15.2c-0.8,0.4-1.5,0.7-2.3,1.1c-1.6-0.8-3.5,0.8-4.9-0.9c-0.1-0.3-0.3-0.5-0.4-0.8c-0.1,0.1-0.2,0.3-0.3,0.4 c0.3,0.1,0.5,0.3,0.8,0.4c-2.1-1.6-3.7,0.4-5.4,1c-4,1.5-6.5-0.2-8.7-3.1c-0.8-1.1-0.9-2.6-2.4-3.5c-0.2,1.8-0.3,3.4-0.5,5.1 c-0.9,0.5-1.7,1-2.6,1.4c-11.9,2-18.4-3.5-18.6-15.5c-0.1-5.3,1.5-10,3.4-14.8c4.9-6,10.9-9,18.7-7c1.6,0.4,4.4,0.2,4.1,2.5 c-0.3,2.2,0.9,5.5-2.6,6.6c-3.9-2.1-7.7-2.5-11.1,0.9c0,0,0.2,0,0.2,0c-0.2,0.1-0.3,0.2-0.5,0.2c-3.6,3.8-4.2,8.5-3.5,13.4 c0.4,3.2,2.3,5.7,5.7,6.1c3,0.3,6.9,0.6,8.2-2.8c2.8-7.3,8.3-9.2,15.3-9.3c1.5,0.4,2.2-0.1,1.9-1.7c-0.2-1.1-0.5-1.9-1.8-1.9 c-2.1,0-4.4-0.4-6.4,0.1C453,600,452,598.5,452.8,594.9z M461.9,614.5c1.5-1.4,3.1-3.6,1.8-5.1c-1.3-1.5-4-0.9-5.9,0.5 c-0.4,0.3-0.7,0.7-1,1.1c-1.5,1.8-0.6,3.4,0.8,4.4C459.2,616.6,460.7,615.7,461.9,614.5z"></path> <path class="st16" d="M476.9,594.2c0.8-3.5,3.7-2.2,5.7-2.1c2.1,0.1,4,1.8,6.3,0c1.1-0.9,2.6,0,1.8,2c-0.4,1.1-1.1,2.1-0.2,4 c4.3-5.4,9.1-8.8,15.9-4.8c0.7,1,1.6,2.2,2.1,0.1c0.5-1.8,0.5-3.8,0.6-5.8c1.4-3.9,4.8-2.7,7.2-2.2c2.9,0.5,0.9,3.1,0.7,4.5 c-1.3,9.2-2.8,18.4-4.4,27.6c-0.3,1.6,0.5,4.3-2.5,4.7c-3.8,0-7.5-1.2-11.6,0c-4.3,1.2-7.6-1.4-9.4-5.4c-1.8-3.9-1.4-8.1-0.8-12.2 c0.2-1.2,2-3-0.5-3.5c-1.8-0.4-3.1,0.8-2.8,3c0,0,0.1-0.1,0.1-0.1c-0.9-0.3-0.7,0.5-0.8,0.9c-1.9,4.7-2,9.7-3.1,14.6 c-0.3,1.4-0.3,2.7-2.1,2.8c-6.3-0.3-6.2-0.3-5.2-6.8C474.9,608.3,475.8,601.2,476.9,594.2z M504,611.9l-0.1,0.1 c2.3-2.1,2.1-5,2.1-7.7c0-2.1-0.5-4-2.6-4.9c-2.4-0.9-4.1,0.2-5.3,2.3c-1.8,2.5-2.3,5.4-2,8.3c0.4,4.3,3.1,5.4,7,3 C503.5,612.8,503.8,612.4,504,611.9z"></path> <path class="st11" d="M428.8,592c-1.9,4.8-3.5,9.5-3.4,14.8c0.2,12,6.7,17.5,18.6,15.5c-2.6,3.4-9.9,3.8-14.6,0.7 c-1.2-0.8-2.3-1.9-3.5-2.8c-2.5-4.1-3.5-8.6-3-13.3c0.2-2.4-0.5-3.5-3-2.9c3.3-3.4,5.6-7.4,7-11.9c0,0,0-0.1,0-0.1 C427.6,592,428.2,592,428.8,592z"></path> <path class="st11" d="M484.9,604c-0.3-2.2,1.1-3.3,2.8-3c2.5,0.5,0.7,2.3,0.5,3.5c-0.6,4.1-0.9,8.3,0.8,12.2 c1.8,4,5.2,6.6,9.4,5.4c4-1.2,7.7,0,11.6,0c-0.1,0.5-0.2,1.4-0.3,1.4c-6.1-0.1-12.3,2.1-18.3,0.2c-3.8-1.2-5.1-4.9-5.5-8.7 c-0.3-3.1-0.3-6.3,0.4-9.4C486.8,604.1,486,604,484.9,604z"></path> <path class="st11" d="M476.9,594.2c-1,7-2,14.1-3,21.1c-1,6.5-1.1,6.5,5.2,6.8c-0.9,3.9-4,1.4-6.1,1.9c-2.3,0.5-1.9-1.6-2.1-2.9 c0.2-5.1,0.6-10.2,2-15.2c1.8-2.5,1.3-5.6,2-8.3C475.3,596.3,474.9,594.6,476.9,594.2z"></path> <path class="st11" d="M463.6,621.3c1.4,1.7,3.4,0.1,4.9,0.9c-0.1,0.3,0,0.8-0.2,0.9c-3.9,2.7-18.5,1.1-21.7-2.3 c0.2-1.7,0.3-3.3,0.5-5.1c1.4,0.9,1.6,2.4,2.4,3.5c2.2,2.9,4.8,4.5,8.7,3.1C459.9,621.7,461.5,619.7,463.6,621.3L463.6,621.3z"></path> <path class="st11" d="M452.8,594.9c-0.8,3.6,0.2,5,4.1,4.1c2-0.5,4.3-0.1,6.4-0.1c1.3,0,1.6,0.8,1.8,1.9c0.2,1.6-0.4,2.1-1.9,1.7 c-2.3-2.9-5.4-1.3-8.2-1.5c-1.5-0.1-4,1.9-4.3,0.1C450.4,599.3,449.7,596.2,452.8,594.9z"></path> <path class="st11" d="M437.9,595c3.5-3.3,7.2-3,11.1-0.9c-0.1,2-1,2.7-2.8,1.8C443.5,594.6,440.7,595,437.9,595z"></path> <path class="st16" d="M519.9,620c-0.3,1.5-1.3,2.1-2.8,1.9c-1.4-0.1-2.1-1-2-2.2c0.1-1.5,1.1-2.5,2.5-2.4 C519,617.4,519.9,618.4,519.9,620z"></path> <path class="st7" d="M509.1,587.6c-0.2,1.9-0.1,3.9-0.6,5.8c-0.6,2.1-1.5,0.9-2.1-0.1C507.9,591.7,505.7,588.2,509.1,587.6z"></path> <path class="st11" d="M437.6,595.2c0.2,0,0.4-0.1,0.5-0.2c0,0-0.3,0-0.3,0L437.6,595.2z"></path> <path class="st11" d="M484.2,604.8c0.1-0.4-0.1-1.2,0.8-0.9C484.8,604.2,484.5,604.5,484.2,604.8z"></path> <path class="st16" d="M299.8,610.6c-0.6,2.9-1.3,5.8-1.8,8.7c-0.2,1.4-0.4,2.6-2.1,2.9c-4.9,0.6-6.4-0.8-5.1-6.1 c2.1-9.3,3.2-18.9,4.7-28.4c2.4-5.1,6.9-2.1,10.3-2.3c2.9-0.2,1.9,3.2,2,5.1c0.2,3.4,0.2,6.9,0.3,10.3c0,1.3-0.7,2.6,0.7,4.2 c1.8-6.1,3.6-11.8,5.3-17.6c1.6-1.9,10.5-3.5,12.6-2.3c1.5,0.8,0.6,2.1,0.4,3c-1,7.3-2.1,14.7-3.2,22c-0.5,2.6-1,5.3-1.5,7.9 c-0.8,1.3,0.2,3.8-2.4,4c-6.6-0.3-6.5-0.3-5.3-7.3c0.8-5,1.5-10,2.5-16c-2.2,3.2-2.6,6-3.5,8.6c-0.7,1.1-1.2,2.1-0.7,3.4l0-0.1 c-2.1,1.8-1.9,4.7-3.1,7c-0.8,1.5-0.5,3.8-2.8,4.3c-3.7,0.4-4.7-1.4-4.6-5c0.3-6.1,0.1-12.3,0.1-18.4c-0.4,0-0.8,0-1.2,0 C300.8,602.7,300.3,606.7,299.8,610.6z"></path> <path class="st16" d="M325.1,609.5c3.3-5.6,8.6-6.8,14.6-6.9c1,0.2,2.1,0.5,2.3-1c0.2-1.7-0.8-2.3-2.2-2.7 c-3.5-0.9-6.9,0.3-10.7,0.6c0-1.5,0-3,0-4.4c2.8-4.9,7.7-3.5,11.8-3.6c4.8-0.1,8,2.5,9.1,7.4c-0.2,2.6-0.5,5.3-0.7,7.9 c-0.5,3.4-1.1,6.8-1.6,10.2c-1,1.6,0.2,3.8-1.4,5.2c-0.4,0-0.7,0-1.1,0.1c-2.7,1.8-5.3-4-8-0.2c0,0,0.1-0.1,0.1-0.1 c-0.8,0.1-1.6,0.2-2.4,0.3c-7,0.8-9.9-1.8-9.7-8.8C324.9,612.1,325,610.8,325.1,609.5z M333.2,611.1c-1,1.6-0.9,3.1,0.6,4.3 c1.6,1.2,3,0.3,4.2-0.8c2-1.2,3.2-3.7,2.1-5.2c-1.2-1.5-3.9-0.9-5.8,0.3C333.9,610.1,333.6,610.7,333.2,611.1z"></path> <path class="st16" d="M384.9,600.8c2.6-4.9,5.8-8.9,11.8-9.6c6.7-0.8,11.7,3.9,11.7,11c0,2.1-0.3,4.3-0.4,6.4 c-0.2,0.2-0.2,0.5-0.1,0.7c-0.6,0.2-1.3,0.4-1.9,0.6c-4-0.1-7.9-0.1-11.9-0.2c-1.5,0-2.7,0.2-2,2.2c1.5,4.1,5.1,3.3,8.3,3.4 c2.3,0.1,4.2-1.8,6.6-0.9c-1.9,1.8-0.8,4.1-1.1,6.2c-0.7,0.5-1.3,0.9-2,1.4c-0.8,0-1.6,0-2.5,0.1c-13.1,1.5-18-3-17.5-16.3 c0-1,0-2,0-2.9c0,0-0.1,0.1-0.1,0.1C385.2,602.7,384.9,601.7,384.9,600.8z M393.8,600.8c-0.8,3.2-0.8,3.2,4.8,2.4 c2.8,0.6,2.7-0.9,2-2.7C399.4,597.7,396.8,597.8,393.8,600.8z"></path> <path class="st16" d="M367,619.1c-0.8,0.6-1.5,1.3-2.3,1.9c-0.6,0.3-1.2,0.6-1.8,1l0.1-0.1c-3.4,0.2-6.8,0.5-10.2,0.4 c-4-0.1-5.2-1.6-4.1-5.3c0.3-2.2,1.5-2.4,3.4-2c2.1,0.5,4.3,1.6,6.4-0.1c4-1.5,2.4-3.3-0.1-4.3c-5.9-2.4-8-6.7-7.4-12.8 c0,0-0.1,0.1-0.1,0.1c0.8,0,0.8-0.6,0.8-1.1c3-6.2,11.5-6.3,16.6-5.2c3.6,0.8,0,3.8,1.5,5.2c0,0,0.1-0.1,0.1-0.1 c-1.9,2.7-4.7,2.8-7.6,3c-1.1,0-2.1,0.5-2.4,1.5c-0.3,1.2,0.9,1.6,1.8,2c2.7,1.3,5.3,2.7,6.5,5.8c0,2.3,0,4.6,0,6.9 C367.9,617,367.5,618.1,367,619.1z"></path> <path class="st16" d="M382.6,616.5c-1.2,1.8,0.3,4.9-2.8,5.8c-7.6,0.9-8.6,0.3-10.9-6.3c2-8.6,3.3-17.2,4.3-25.9 c0.9-3.5,3.8-2.4,6.1-2.5c2.5-0.2,2.6,1.3,2.1,3.2c-0.2,0.8,0.5,1,1.1,1.3c2.6,1.4,3.1,5.9,0.4,7.4c-5.7,3.1-4.1,8.8-4.9,13.4 c-0.5,2.8,2.3,2.1,4,2.1C382.2,615.5,382.4,616,382.6,616.5z"></path> <path class="st17" d="M427,592c-1.4,4.5-3.7,8.5-7,11.9c-2.1,4.2-2.2,8.9-3.1,13.4c-0.4,1.8,0.3,4.2-2.4,4.8 c-2.1-0.1-4.2-0.3-6.3-0.4c1.4-9.3,2.7-18.4,4-27.5c1-3.6,5-2.9,6-2c2.6,2.3,4.2,0.5,6.3-0.3C425.3,591.7,426.2,592,427,592z"></path> <path class="st11" d="M382.6,616.5c-0.2-0.5-0.4-1-0.6-1.6c0.3-4.1-0.6-8.3,2-12c0,1,0,2,0,2.9c-0.5,13.3,4.4,17.8,17.5,16.3 c0.8-0.1,1.6-0.1,2.5-0.1c-4.1,4.7-15,3.8-19.2-1.7C383.9,619.2,383.3,617.8,382.6,616.5z"></path> <path class="st11" d="M295.5,587.7c-1.5,9.5-2.6,19-4.7,28.4c-1.2,5.3,0.3,6.7,5.1,6.1c-1.4,3.8-4.6,1.9-6.8,1.7 c-2.3-0.3-1-2.8-0.8-4.2c1.5-9.5,3.1-19,4.8-28.4C293.4,589.8,292.8,587.6,295.5,587.7z"></path> <path class="st11" d="M412.2,594.2c-1.3,9.1-2.6,18.2-4,27.5c2.1,0.1,4.2,0.3,6.3,0.4c-1.3,3.9-4.5,1.6-6.7,1.8 c-2.3,0.3-1.3-2.1-1.8-3.3c0.3-2.1-0.8-4.4,1.1-6.2c1.3-1.5,1-3.3,0.9-5.1c-0.1-0.3-0.1-0.5,0.1-0.7c1.5-3.2,1.4-6.7,2.1-10 C410.5,597.1,409.8,594.9,412.2,594.2z"></path> <path class="st11" d="M299.8,610.6c0.5-3.9,1-7.9,1.5-11.8c0.4,0,0.8,0,1.2,0c0,6.1,0.2,12.3-0.1,18.4c-0.2,3.6,0.8,5.3,4.6,5 c-0.7,3-3.1,2-4.8,1.8c-2-0.2-1.7-2.1-1.8-3.5C300.2,617.2,300.7,613.8,299.8,610.6z"></path> <path class="st7" d="M325.1,609.5c-0.1,1.3-0.2,2.6-0.2,3.9c-0.2,7,2.7,9.6,9.7,8.8c0.8-0.1,1.6-0.2,2.4-0.3 c-6.2,5.2-11.1,4-14.6-3.8c0.5-2.6,1-5.3,1.5-7.9C324.3,610,324.7,609.8,325.1,609.5z"></path> <path class="st11" d="M313.6,607.5c0.9-2.6,1.3-5.4,3.5-8.6c-0.9,6-1.6,11-2.5,16c-1.2,6.9-1.2,6.9,5.3,7.3 c-1.6,3.6-4.8,2-7.1,1.6c-2-0.4-0.8-2.8-0.7-4.2c0.2-2.9,1.5-5.7,0.7-8.7c0,0,0,0.1,0,0.1C314.6,610.1,313.9,608.8,313.6,607.5z"></path> <path class="st11" d="M351.1,598c-0.6,6.1,1.5,10.4,7.4,12.8c2.4,1,4,2.8,0.1,4.3c-2.6-3.3-7.7-4-9.4-8.3c0.2-2.6,0.5-5.3,0.7-7.9 C350.3,598.5,350.7,598.3,351.1,598z"></path> <path class="st11" d="M348.7,617.1c-1.1,3.7,0.2,5.1,4.1,5.3c3.4,0.1,6.8-0.2,10.2-0.4c-4.4,4.1-14.2,4.1-17,0.1 c1.6-1.4,0.4-3.6,1.4-5.2C347.9,617,348.3,617.1,348.7,617.1z"></path> <path class="st7" d="M373.2,590.1c-0.9,8.7-2.3,17.4-4.3,25.9c-0.2,0.1-0.4,0.1-0.6,0c0-2.3,0-4.6,0-6.9c1-4,2.3-8,1.6-12.2 c0,0-0.1,0.1-0.1,0.1C372.4,595.4,370,591.4,373.2,590.1z"></path> <path class="st11" d="M329,595c0,1.5,0,2.9,0,4.4c3.8-0.3,7.2-1.5,10.7-0.6c1.5,0.4,2.4,1.1,2.2,2.7c-0.2,1.5-1.3,1.2-2.3,1 c-2.3-2.9-5.4-1.3-8.2-1.6c-1.5-0.1-3.5,2-4.2-0.1C326.6,599.1,326.4,596.4,329,595z"></path> <path class="st11" d="M368.4,616c0.2,0.1,0.4,0.1,0.6,0c2.3,6.6,3.3,7.2,10.9,6.3c-4.4,5-10,3.6-12.8-3.2 C367.5,618.1,367.9,617,368.4,616z"></path> <path class="st11" d="M314.1,587.5c-1.7,5.7-3.5,11.5-5.3,17.6c-1.3-1.6-0.7-3-0.7-4.2c1.2-3.3,2.5-6.6,3.7-10 C312.3,589.6,312.2,587.9,314.1,587.5z"></path> <path class="st11" d="M336.9,622c2.8-3.8,5.3,2,8,0.2C342.2,625.8,339.6,624.6,336.9,622z"></path> <path class="st11" d="M362.9,622c0.6-0.3,1.2-0.6,1.8-1C364.4,621.8,363.8,622.2,362.9,622z"></path> <path class="st11" d="M384.9,600.8c-0.1,0.9,0.3,1.9-0.9,2.3C384.1,602.2,384.1,601.4,384.9,600.8z"></path> <path class="st11" d="M351.8,597c0,0.6,0,1.1-0.8,1.1C351.3,597.7,351.5,597.3,351.8,597z"></path> <path class="st12" d="M191.8,619.2c6.7-16.2,13.1-31.9,19.5-47.5c2.3-5.7,4.7-11.3,7-17c1.7-4.2,4.7-6.3,9.3-6.1c1.7,0,3.3,0,5,0 c9.7,0,9.6,0,11.5,9.3c3.8,18.7,7.6,37.4,11.7,56.1c0.9,4,0.4,6-4.2,5.3c-1.3-0.2-2.7,0-4,0c-7.6,0-7.8,0-9.3-7.5 c-0.5-2.5-1.5-3.3-3.9-3.3c-4.8,0.1-9.7,0.3-14.5-0.1c-3.8-0.3-6.1,0.8-6.7,4.6c-0.7,5-3.4,6.9-8.5,6.2 C200.6,618.8,196.4,619.2,191.8,619.2z M229.6,570c-0.3,0-0.6,0-0.9,0c-2.8,7.9-5.7,15.8-8.7,24c4,0,7.5-0.2,10.9,0.1 c3.2,0.2,3.5-1.1,2.9-3.7C232.4,583.6,231,576.8,229.6,570z"></path> <path class="st12" d="M161.7,620.2c-5.7,0.1-11.3-0.9-16.7-2.5c-1.1-0.3-3.1-0.4-2.9-2.2c0.5-4.6,1.1-9.3,2.1-13.8 c0.4-1.9,2.2-0.3,3.2,0.1c5.4,2.3,11,3.6,17,3.3c2.2-0.1,4.3-0.5,6.2-1.5c4.2-2.3,4.8-6.7,0.9-9.7c-2.9-2.2-6.2-3.8-9.4-5.6 c-7.5-4.2-13.6-9.5-13-19c0.7-10.3,7.1-16.6,16.4-19.9c9.1-3.3,18.3-3,27.5-0.4c2,0.6,3.1,1.4,2.5,3.8c-0.8,3.2-1.3,6.5-1.6,9.8 c-0.2,2.5-1.2,2.7-3.2,1.8c-3.5-1.6-7.3-2.3-11.1-2.5c-2-0.1-4,0.1-5.9,0.7c-2.5,0.8-4.8,1.8-5.4,4.6c-0.6,3,1.6,4.6,3.8,5.9 c4.1,2.5,8.5,4.5,12.5,7.3c10.7,7.5,11.7,21.8,2.4,31.1c-5.3,5.4-12.1,7.5-19.3,8.3C165.7,620.2,163.7,620.1,161.7,620.2z"></path> <path class="st12" d="M77.9,585.8c0.7,2.9,1.4,5.8,2.3,9.8c5.5-14.9,10.7-28.6,15.5-42.4c1.2-3.6,2.8-5.2,6.7-4.7 c4.5,0.6,10.9-2.1,13.2,1.2c1.9,2.6-2.4,8-4.1,12.1c-7.1,17.9-14.4,35.7-21.4,53.6c-1.2,3-2.6,4.1-5.8,3.8c-3.6-0.3-7.3-0.3-11,0 c-2.9,0.2-4.4-0.6-5.1-3.7c-4.8-19.2-9.8-38.3-14.8-57.4c2.8,0.8,4.8,2.9,7,4.5c7.3,5.4,11.8,13,16.6,20.5c0,0,0-0.1,0-0.1 C76.8,584.1,76.9,585.1,77.9,585.8z"></path> <path class="st12" d="M121.5,619.2c-8.8,0-8.9,0-7.5-8.8c3-19.6,6.1-39.1,9.2-58.6c0.4-2.5,1.2-3.8,4.1-3.6c4,0.3,8,0.2,12,0 c2.3-0.1,2.8,0.6,2.5,2.9c-3.4,21-6.9,42-10,63.1c-0.6,4.2-2.1,5.8-6.2,5.1C124.2,619,122.8,619.2,121.5,619.2z"></path> <path class="st5" d="M77,583c-4.8-7.4-9.3-15.1-16.6-20.5c-2.2-1.6-4.2-3.7-7-4.5c-5.4-4.3-12.2-5.7-18.4-8.4 c0.6-1.9,1.9-1.3,2.9-1.4c8.3-0.1,16.6-0.1,24.9,0c6.2,0.1,8.3,1.7,9.5,7.8C74.1,565.1,76.5,573.9,77,583z"></path> <path class="st5" d="M77.9,585.8c-1-0.7-1.1-1.7-0.9-2.8C78.3,583.6,77.8,584.8,77.9,585.8z"></path> <path class="st13" d="M1089.4,612c-10.4,0.6-20.6,0.1-29.8-6.1c-13.8-9.3-19.9-26-15.3-42.1c4.4-15.5,18.2-26.3,34.8-26.6 c8.6-0.2,17.3-0.8,25.9,0.6c20.6,3.3,33.8,20.4,32,41.3c-1.5,17.6-19.2,32.8-38.2,32.8C1095.7,612,1092.5,612,1089.4,612z M1046.5,574.6c0,19.1,15.2,34.4,34.2,34.4c18.9,0,34.3-15.4,34.3-34.4c0-18.9-15.4-34.4-34.3-34.4 C1061.8,540.2,1046.5,555.5,1046.5,574.6z"></path> <path class="st3" d="M1051.9,665.4c2-3.3,2.2-10.1,0.4-14.1c2.1-0.9,4.2-0.4,6.3-0.4c5.3,0.1,6.5,2.3,3.7,6.8 c-1.8,2.9,1.4,3.8,2.1,5.7c0.5,1.3,1.8,2.1,3.3,1.4c1.9-0.9,1.4-2.9,1.3-4.4c-0.3-3.1,1.2-6.5-1.7-9.3c7.2-1.4,8,6.1,12.9,8.5 c1.1-3.1,1.2-5.8-1.2-8.6c1.5,0,2.8,0,4.1,0c0.7,0.3,0.2,0.7,0,1.1c-2,3.9-0.5,8.1-0.9,12.2c-0.1,0.7,0.4,1.4,1.2,1.1 c0.9-0.4,2-0.9,2.3-1.7c1.3-3.1,2.2-6.3,3.4-9.4c0.6-1.5,0.6-3.7,2.7-3.7c2.2,0,1.7,2.4,2.4,3.7c1.7,3.7,2.1,8,5.1,11.8 c-2.5-0.7-6.1,2-5.7-3.4c0.2-1.8-1.8-1.9-3.4-1.9c-1.8,0-2.7,1.3-2.3,2.5c1.4,4.6-1.9,2.3-3.4,2.5c-4.7,0.5-6.6-3.4-9.3-6.1 c-1.2-1.3-2.4-2.6-4.3-4.6c-0.2,4.3-1.6,7.6,1.4,10.7c-6.2,0.6-12.6,1.8-14.7-8.4c-1.4,4.3-1.4,6.5,0.8,8.4 c-2.2,0.3-4.3,0.5-6.5-0.1C1051.9,665.6,1051.9,665.4,1051.9,665.4z M1057.3,651.9c-1.8,0.7-0.9,2.6-1,4.1c-0.1,1.4,0.4,2.3,1.9,2 c1.7-0.4,2.6-1.6,2.4-3.3C1060.5,653.2,1059.7,651.9,1057.3,651.9z"></path> <path class="st11" d="M997.7,614.9c5.3,0,9.7-0.3,14.2,0.1c7.8,0.6,13.2,6.1,13.4,13.4c0.1,7.6-4.6,12.8-12.7,13.9 c-1.5,0.2-3,0.4-4.4,0.4c-3.3,0.1-6.5,0-10.2,0C1002.8,638.1,1002.7,618.3,997.7,614.9z M1005.6,628.1c0,2.7,0.1,5.3,0,8 c-0.1,4.4,2.3,5.4,6.1,4.7c5.4-1,8.8-5.2,9.1-11.5c0.3-6.1-3.4-11-9.2-12.5c-5.2-1.3-5.9-0.8-5.9,4.3 C1005.6,623.4,1005.6,625.8,1005.6,628.1z"></path> <path class="st3" d="M1038,651.8c-0.5,0.4,1.1,3-1.4,1.4c-3.6-2.4-4.7-0.8-4.4,2.8c0.3,3.3-1.2,6.8,1.6,9.9c-2.2,0-4.2,0-6.2,0 c2.8-4.1,1-8.5,1.4-12.6c0-0.2-0.2-0.6-0.4-0.8c-2.2-1.5-4.5,2-6.9-0.3c-0.4-0.3-1,2.4-1,3.8c-0.1,3.3,0,6.5,0,11.1 c-2.6-2.7-4.3-4.4-5.9-6.2c-1.6-1.7-3.1-3.4-5.2-5.8c-0.7,4.2-1.6,7.6,1.2,10.6c-4,0-8,0-12,0c1.8-4.9,1.8-9.6,0.3-14.5 c8.5-2.8,14.6,1,19.4,9.9c0.8-4.3,1.6-7.3-1.1-10.6c7.3,0,14,0,20.8,0C1038,651,1038,651.4,1038,651.8z M1002.6,658.2 c1.1,2.3-1.6,6.5,2,6.7c4.4,0.2,2.4-4.2,2.4-6.5c0-2.2,2-6.3-2.1-6.3C1000.7,652,1003.9,656.2,1002.6,658.2z"></path> <path class="st3" d="M1122.1,615.8c-7.9,2.6-11.2,8.7-8.8,16.6c1.4,4.7,4.4,8.2,9.6,9c4.9,0.8,7.5-2.3,9.6-6.7 c1.3,5.4-1.2,7.3-5.5,8.1c-9.2,1.7-16.7-2.8-18.4-11.5c-1.7-8.2,3.3-15,12.2-16.6C1121.2,615,1121.6,615.4,1122.1,615.8z"></path> <path class="st3" d="M1156.9,664.2c-1-4.1,1.4-7.4,2.3-11c0.3-1.4,1-2.7,2.5-2.7c1.6-0.1,1.4,1.6,1.8,2.6c1.3,3.2,2.4,6.5,3.5,9.8 c0.5,1.5,1.4,2.4,2.9,2c1.5-0.3,1.4-1.8,1.3-2.9c-0.4-3.6,1-7.4-1.1-10.9c1.7-0.7,3.4-0.5,5.2-0.1c-2.2,4-1.2,8.3-0.9,12.3 c0.2,2.2,3.4,1.8,7-1.1c0.2,2.6-0.4,3.9-3.4,3.7c-3.3-0.3-6.6,0-10-0.1c-2.3-0.1-5.6,1.4-4.8-3.4c0.3-1.7-1.5-1.8-2.9-1.8 C1157.9,660.8,1156.8,661.9,1156.9,664.2z"></path> <path class="st3" d="M1153.5,625.6c6.4-1.1,6.2-1.1,6.4,5.3c0.2,3.5-1.6,7.4,2.1,11c-2.2-0.8-4.1,3.1-6.3-0.7 c-0.6-1.1-1.9,0.7-2.8,1.1c-4.9,2-7.6,0.3-7.9-5c-0.3-4,1.5-8.3-1.7-11.8c4.4-1.7,5.4,0.4,5,4.3c-0.2,2.5,0,5,0.2,7.5 c0.1,1.8,1.1,3.4,3,3.4c1.8,0,3.7-0.8,4.6-2.5C1157.4,635.4,1155.7,627.6,1153.5,625.6z"></path> <path class="st3" d="M1055.9,641.1c-2.4,2.9-5.3,0.7-8.4,1.4c2.4-2.4,3.2-12.6,1.7-14.6c-1-1.3-2.4-1.2-3.6-0.9 c-1.4,0.3-3.5,0.5-3.4,2.3c0.2,4-1.4,8.2,1,12c-0.2,0.3-0.3,0.6-0.1,0.9c-1.7,0-3.4,0-5.1,0c0-0.4,0-0.7,0-1.1 c0.6-4.8,2-9.6-1.1-14.1c0.1-0.3,0.2-0.5,0-0.8c3.7-2.7,8.1,0,12.2-1.7c2.1-0.9,4,1.7,4.1,4.4c0.1,3.1,0.1,6.3,0,9.4 C1053.1,640.4,1053.7,641.5,1055.9,641.1L1055.9,641.1z"></path> <path class="st11" d="M1055.9,641.1c2.2-1.7-0.1-3.2-0.3-4.7c-0.8-5.4,1.2-9.9,5.5-11.6c3.2-1.3,5.8-0.4,8.1,2c1,1,1.4,2.4,1,3.7 c-0.5,1.8-2.2,1-3.4,1.2c-0.7,0.1-1.4-0.1-2,0c-1.9,0.5-4.7-1.5-5.6,1.3c-0.7,2.1,0.4,4.2,2.1,5.8c2,1.9,4.2,1.8,6.4,0.6 c0.7-0.4,1.3-0.9,2.2-1.5c-1.6,4.8-5.9,6.5-10.4,4.4C1058.3,641.8,1057.8,639.4,1055.9,641.1 C1055.9,641.1,1055.9,641.1,1055.9,641.1z M1059.4,629.8c2.4-0.2,5,1.2,6.8-0.8c0.8-0.9-0.5-2.6-1.8-2.9 C1061.7,625.5,1060.1,626.8,1059.4,629.8z"></path> <path class="st3" d="M1150.3,659.9c0.1-3.2,1.2-6.2-1.6-8.7c1.6-0.6,3.2-0.4,4.7-0.1c-2.8,4.6-0.3,9.9-1.8,15.1 c-4.5-2.7-6.6-7.7-11.2-10.7c0.3,3.7-1.7,7.2,1.7,10c-1.5,1-3.2,0.3-4.8,0.5c2.3-4.9,2.2-9.7,0.2-15 C1144.3,649.7,1145.1,657.4,1150.3,659.9z"></path> <path class="st3" d="M1128,666.2c-4.8,0-7.9-3-8-7.6c0-4.7,3.5-8.3,8.1-8.3c4.8,0,8.4,3.5,8.3,8.1 C1136.2,663.2,1133,666.2,1128,666.2z M1133.1,658.1c-0.6-2.6-0.9-6-5.1-6.2c-3.8-0.1-4.7,3-4.6,5.7c0.1,3.2,0.7,7.1,5,7.2 C1132.2,665,1132.8,661.7,1133.1,658.1z"></path> <path class="st3" d="M1173.1,642.8c-0.3,0.1-0.6,0.2-1,0.2c-7.8,0.1-8.2-0.2-8.1-7.7c0-5.2-0.1-10.3,0-15.5c0-2.1-0.1-3.9-2-5.3 c5.4-2.5,5.2-2.5,5.5,3c0.2,2.8-1.9,6.2,1.5,8.4c0,0.4,0,0.7,0,1.1c-3,2.8-1.4,6.4-1.6,9.7c-0.2,3.6,1.7,5.5,5.5,5 C1173.1,642,1173.1,642.4,1173.1,642.8z"></path> <path class="st11" d="M1085.1,628c2.5-2.6,5.1-5,9.1-3.3c-0.3,1.9-1.5,1.3-2.4,1.3c-1.5,0-2.7,0.3-3.1,1.9 c-0.3,1.5,0.7,2.5,1.9,3.1c1,0.5,2.1,1,3.1,1.5c2.9,1.4,4.6,3.4,3.4,6.8c-1.3,3.7-4.5,4-7.8,3.8c-3.5-0.2-4.4-2.4-3.9-5.5 c1.9-0.2,1.5,1.8,2.5,2.6c1.8,1.4,3.8,2,5.3,0.2c1.8-2.2,0-3.9-1.9-4.5c-3.9-1.3-5.8-4-6.2-7.9 C1085.2,627.9,1085.1,628,1085.1,628z"></path> <path class="st11" d="M1038,651.8c0-0.4,0-0.8,0-1.2c3.3,0,6.5,0.1,9.8,0.1c1.6,0,1.9,1.1,1.9,2.3c-0.1,1.6-0.9,0.8-1.6,0.4 c-1.1-2.2-3-2-4.3-0.8c-1,0.9-1,3.1,0.1,4.1c1.7,1.4,3,0.2,3.9-1.4c0.7,1.6,0.7,3.2,0,5.1c-1.2-0.9-2.6-2.5-3.8-0.7 c-0.8,1.1-1,3.3,0.2,4.1c2.5,1.9,4.5,0.2,6.3-1.6c1.2,0.8-0.8,2.9,1.5,3.1c0,0,0,0.3,0,0.3c-4.2,0.2-8.4,0.4-12.8,0.6 c1.5-4.8,1-9.3,0.5-13.8C1039.7,652.1,1038.6,652,1038,651.8z"></path> <path class="st3" d="M1134.4,642.2c1-1.3,2.5-1.1,2.4-2.8c-0.1-7.3-0.2-14.7,0-22c0-1.3-4-2.3-0.1-3.9c2.6-1.1,3.5-1,3.4,2.1 c-0.1,7.2-0.1,14.3,0,21.5c0,1.8-0.6,4,2,5.1C1139.8,642.2,1137.4,642.2,1134.4,642.2z"></path> <path class="st11" d="M1113.9,651.8c-1.5-0.2-2.4,3-4.4,0.6c-0.5-0.6-2.7-0.5-2.7,1.1c0,4.1-1.2,8.3,1.2,12.4c-2,0-4.1,0-6.2,0 c2.5-4,1.5-8.5,1-12.6c-0.3-2.4-3.9,0.3-6-2.2c6.1,0,11.6-1,17.2,0.1C1114,651.4,1114,651.6,1113.9,651.8z"></path> <path class="st11" d="M1037.9,641.1c0,0.4,0,0.7,0,1.1c-3.6,0-7.2,0.8-11,0.1c3.4-4.6,1.9-9.6,1.5-14.3c-0.1-0.8-2.2-1.2-0.7-2.2 c1.1-0.8,2.8-1.3,4.1-1.2c1,0.1,0.8,1.6,0.8,2.6c0,3.3,0.2,6.7,0,10C1032.3,641.5,1034.4,642.1,1037.9,641.1z"></path> <path class="st3" d="M1079.1,627.9c-3.5,5-2.7,12.4,2.5,14.3c-4,0-7,0-9.9,0c2.4-2,3.8-10.5,1.5-13.9c-1.4-2.1-0.3-2.4,0.9-2.6 c0.9-0.2,3-3.4,3.1,0.7C1077.1,627.6,1078.7,627,1079.1,627.9z"></path> <path class="st11" d="M1173.1,642.8c0-0.4,0-0.7-0.1-1.1c3.7-2.4,4.8-5.8,3.6-9.8c-1.1-3.6-3.6-5.5-7.5-4.8c0-0.4,0-0.7,0-1.1 c4.4-2.5,7.8-2,10.1,1.5c2.6,3.9,1.6,10.4-2.3,13.4C1175.9,641.7,1174.4,642.1,1173.1,642.8z"></path> <path class="st3" d="M1113.9,651.8c0.1-0.2,0.1-0.5,0-0.7c1.4,0,2.8,0,4.2,0c-0.1,0.3-0.1,0.6,0,0.9c-0.3,4.6-0.8,9.2,0.4,13.8 c-1.2,0-3.1,0-5.1,0C1115.5,661.2,1115.5,656.5,1113.9,651.8z"></path> <path class="st11" d="M1122.1,615.8c-0.5-0.4-0.9-0.7-1.3-1.1c3.7-1.5,7.2-0.1,10.5,1.2c3.1,1.1,1.2,3.9,1.4,6.2 C1130.5,617.5,1127,615.4,1122.1,615.8z"></path> <path class="st11" d="M1079.1,627.9c-0.4-0.9-2-0.2-2.1-1.6c0.7,0.3,1.2,0.1,1.7-0.4c3.4-3.2,5.3-1.9,6.3,2c0,0,0.1-0.1,0.1-0.1 C1083.2,628.8,1081.1,628.2,1079.1,627.9z"></path> <path class="st14" d="M1047.8,655.3c-0.9,1.6-2.2,2.8-3.9,1.4c-1.1-1-1.1-3.2-0.1-4.1c1.3-1.2,3.2-1.4,4.3,0.8 C1048,654,1047.9,654.7,1047.8,655.3z"></path> <path class="st9" d="M1184,652.3c-0.2,1.4-0.7,2.5-2.3,2.7c-1.5,0.2-2.6-0.4-2.8-2c-0.2-1.7,0.4-3,2.3-3 C1182.8,649.9,1183.5,651,1184,652.3z"></path> <path class="st11" d="M1030.7,618.5c-1.2-0.2-1.9-0.8-1.9-2c0-1.4,0.7-2.3,2.1-2.1c1,0.1,1.9,0.7,2,1.9 C1032.8,617.7,1032,618.3,1030.7,618.5z"></path> <path class="st11" d="M1043,642.2c-0.1-0.3-0.1-0.6,0.1-0.9c0.8-0.2,1.3,0,0.9,0.9C1043.8,642.5,1043.3,642.8,1043,642.2z"></path> <path class="st11" d="M1118.1,652c-0.1-0.3-0.1-0.6,0-0.9c0.4,0.1,1.2,0.1,1.2,0.2C1119.3,652.1,1118.6,651.8,1118.1,652z"></path> <path class="st11" d="M1036.9,626.2c0.1,0.3,0.1,0.6,0,0.8c-0.2-0.2-0.4-0.3-0.7-0.5C1036.4,626.4,1036.6,626.3,1036.9,626.2z"></path> <path class="st10" d="M798.1,678.8c1.1-2.7-2.4-6.7,2.1-7.2c5.6-0.6,2.8,4.2,3.6,7C801.9,676.8,800.1,674,798.1,678.8z"></path> <path class="st13" d="M729.6,591.5c1.3,3.5,2.4,6.2,3.5,9.3c-2.4,0-4.5,0-7,0C727.3,597.8,728.3,595.1,729.6,591.5z"></path> <path class="st13" d="M628.4,592c1.9,2.7,2.5,5.6,3.7,8.7c-2.2,0-4.2,0-6.8,0C626.3,597.8,627.3,595,628.4,592z"></path> <path class="st5" d="M461.9,614.5c-1.2,1.2-2.7,2.1-4.3,0.9c-1.4-1.1-2.4-2.6-0.8-4.4C459.2,611.2,462.6,610,461.9,614.5z"></path> <path class="st11" d="M461.9,614.5c0.6-4.6-2.7-3.3-5.1-3.5c0.3-0.4,0.6-0.8,1-1.1c1.9-1.4,4.5-2,5.9-0.5 C465,610.9,463.4,613.1,461.9,614.5z"></path> <path class="st11" d="M463.6,621.3c-0.3-0.1-0.5-0.3-0.8-0.4c0.1-0.1,0.2-0.3,0.3-0.4C463.3,620.8,463.5,621,463.6,621.3 C463.6,621.3,463.6,621.3,463.6,621.3z"></path> <path class="st5" d="M503.3,613.2c-4,2.4-6.6,1.3-7-3c-0.3-2.9,0.2-5.8,2-8.3c4.4-0.9,5.9,1.5,5.8,5.4c0,1.6-0.1,3.2-0.2,4.8 c0,0,0.1-0.1,0.1-0.1C503.8,612.4,503.5,612.8,503.3,613.2z"></path> <path class="st11" d="M504,612.1c0.1-1.6,0.1-3.2,0.2-4.8c0-3.9-1.4-6.3-5.8-5.4c1.2-2.1,2.9-3.2,5.3-2.3c2.1,0.8,2.6,2.8,2.6,4.9 C506.1,607.1,506.3,610,504,612.1z"></path> <path class="st11" d="M503.3,613.2c0.3-0.4,0.5-0.8,0.8-1.2C503.8,612.4,503.5,612.8,503.3,613.2z"></path> <path class="st18" d="M313.6,607.5c0.3,1.3,0.9,2.6-0.7,3.4C312.4,609.7,313,608.6,313.6,607.5z"></path> <path class="st4" d="M348.7,617.1c-0.4-0.1-0.8-0.1-1.2-0.2c0.5-3.4,1.1-6.8,1.6-10.2c1.7,4.4,6.8,5,9.4,8.3 c-2.1,1.6-4.3,0.5-6.4,0.1C350.2,614.7,349,614.9,348.7,617.1z"></path> <path class="st18" d="M338,614.6c-1.3,1.1-2.6,2-4.2,0.8c-1.5-1.2-1.6-2.7-0.6-4.3C335.7,611,338.9,610,338,614.6z"></path> <path class="st7" d="M338,614.6c0.8-4.6-2.3-3.6-4.8-3.5c0.4-0.5,0.7-1.1,1.2-1.4c1.9-1.2,4.6-1.9,5.8-0.3 C341.2,610.9,340.1,613.4,338,614.6z"></path> <path class="st18" d="M408,609.4c0.1,1.8,0.4,3.6-0.9,5.1c-2.4-0.9-4.3,1-6.6,0.9c-3.2-0.1-6.7,0.7-8.3-3.4c3.6,0,7.1,0,10.7-0.1 c1.4,0,3.1,0.3,3.1-1.9C406.7,609.8,407.3,609.6,408,609.4z"></path> <path class="st11" d="M406,610.1c-0.1,2.2-1.7,1.9-3.1,1.9c-3.6,0-7.1,0-10.7,0.1c-0.7-2,0.4-2.2,2-2.2 C398.1,609.9,402.1,610,406,610.1z"></path> <path class="st11" d="M393.8,600.8c2.9-3,5.5-3.1,6.8-0.3c0.8,1.8,0.8,3.3-2,2.7C398,600.5,395.7,600.9,393.8,600.8z"></path> <path class="st4" d="M393.8,600.8c1.9,0.1,4.2-0.3,4.8,2.4C393,604,393,603.9,393.8,600.8z"></path> <path class="st18" d="M370,596.9c0.7,4.2-0.7,8.2-1.6,12.2c-1.2-3-3.8-4.4-6.5-5.8c-0.9-0.4-2.1-0.8-1.8-2 c0.2-0.9,1.3-1.4,2.4-1.5C365.2,599.8,368.1,599.6,370,596.9z"></path> <path class="st17" d="M229.6,570c1.4,6.8,2.8,13.6,4.3,20.4c0.6,2.6,0.3,4-2.9,3.7c-3.5-0.3-7-0.1-10.9-0.1c3-8.3,5.8-16.1,8.7-24 C229,570,229.3,570,229.6,570z"></path> <path class="st17" d="M1046.5,574.6c0-19.1,15.2-34.4,34.2-34.4c18.8,0,34.3,15.5,34.3,34.4c0,18.9-15.4,34.4-34.3,34.4 C1061.7,609,1046.5,593.7,1046.5,574.6z M1088.5,575c0,5.3,0.1,10.6,0,16c-0.1,3.6,1.1,3.5,3.7,2c13.4-8.1,13.3-28.9-0.3-36.7 c-2.3-1.4-3.5-1.5-3.4,1.8C1088.6,563.6,1088.5,569.3,1088.5,575z M1072.8,555.3c-7.7,2.2-13.3,9.9-13.7,18.4 c-0.4,7.9,4.9,17,11.2,19.7c2.3,1,2.5,0,2.5-1.9C1072.8,579.5,1072.8,567.5,1072.8,555.3z"></path> <path class="st14" d="M1057.3,651.9c2.4-0.1,3.2,1.3,3.3,2.8c0.2,1.6-0.7,2.9-2.4,3.3c-1.6,0.3-2.1-0.6-1.9-2 C1056.4,654.5,1055.5,652.6,1057.3,651.9z"></path> <path class="st16" d="M1005.6,628.1c0-2.3,0-4.6,0-7c0-5.2,0.7-5.6,5.9-4.3c5.8,1.5,9.5,6.4,9.2,12.5c-0.3,6.2-3.7,10.5-9.1,11.5 c-3.8,0.7-6.2-0.3-6.1-4.7C1005.7,633.4,1005.6,630.7,1005.6,628.1z"></path> <path class="st16" d="M1002.6,658.2c1.3-2-2-6.2,2.3-6.2c4.1,0,2.1,4.1,2.1,6.3c0,2.3,1.9,6.8-2.4,6.5 C1001,664.6,1003.7,660.4,1002.6,658.2z"></path> <path class="st16" d="M1059.4,629.8c0.6-3,2.2-4.3,4.9-3.7c1.4,0.3,2.6,2,1.8,2.9C1064.4,631,1061.9,629.6,1059.4,629.8z"></path> <path class="st16" d="M1133.1,658.1c-0.2,3.7-0.9,6.9-4.7,6.8c-4.4-0.1-5-4-5-7.2c0-2.8,0.8-5.9,4.6-5.7 C1132.1,652.1,1132.4,655.5,1133.1,658.1z"></path> <path class="st16" d="M1169.1,627c4-0.7,6.5,1.2,7.5,4.8c1.2,4,0.1,7.5-3.6,9.8c-3.8,0.5-5.7-1.4-5.5-5 C1167.7,633.4,1166.1,629.8,1169.1,627z"></path> <path class="st13" d="M1088.5,575c0-5.6,0.1-11.3,0-16.9c-0.1-3.3,1.1-3.2,3.4-1.8c13.6,7.8,13.7,28.6,0.3,36.7 c-2.6,1.5-3.8,1.6-3.7-2C1088.6,585.6,1088.5,580.3,1088.5,575z"></path> <path class="st13" d="M1072.8,555.3c0,12.2,0,24.2,0,36.3c0,1.9-0.2,2.8-2.5,1.9c-6.2-2.7-11.5-11.9-11.2-19.7 C1059.5,565.2,1065.1,557.6,1072.8,555.3z"></path> </g> </g> </svg> 