<svg enable-background="new 0 0 200 200" viewBox="0 0 200 200" xmlns="http://www.w3.org/2000/svg" xmlns:xlink="http://www.w3.org/1999/xlink"><clipPath id="a"><path d="m30.2 85.4c-2.6 6.2 0 13.6 8.8 20.6 1.8 1.4 4.4 1.1 5.9-.7 1.4-1.8 1.1-4.3-.6-5.8-4.4-4.2-6.3-9.1-4.6-13.2 2.7-6.6 13.5-8.7 25.1-5.7.8.2 1.6-.2 1.8-.9.2-.8-.2-1.6-.9-1.8-5-1.6-10-2.3-14.6-2.3-10-.2-18.2 3.4-20.9 9.8"/></clipPath><linearGradient id="b" gradientTransform="matrix(101.7843 -101.7843 101.7843 101.7843 29524.582 -38700.293)" gradientUnits="userSpaceOnUse" x1="-335.4749" x2="-335.2027" y1="45.7554" y2="45.7554"><stop offset="0" stop-color="#e63d2c"/><stop offset=".11" stop-color="#eb6128"/><stop offset=".2388" stop-color="#f18824"/><stop offset=".5381" stop-color="#f7ac11"/><stop offset=".7836" stop-color="#f7ac11"/><stop offset="1" stop-color="#ffcb00"/></linearGradient><clipPath id="c"><path d="m15.9 84.2c-5.2 12.6 6.8 29.2 27.4 37.8 3 1.3 6.4 0 7.7-3s-.1-6.3-3-7.7c-14.4-6.8-21.3-17.4-17.8-25.9 3.3-8.1 15.5-11.7 29-9.3.1 0 .2.1.2.1 1.2.2 2.4-.6 2.6-1.9.2-1.2-.4-2.3-1.9-2.6-5-1.1-9.9-1.7-14.6-1.7-14.2 0-25.8 5.1-29.6 14.2"/></clipPath><linearGradient id="d" gradientTransform="matrix(136.7543 -136.7543 136.7543 136.7543 39685.7148 -51972.9648)" gradientUnits="userSpaceOnUse" x1="-335.4338" x2="-335.1617" y1="45.4112" y2="45.4112"><stop offset="0" stop-color="#00983a"/><stop offset=".02461015" stop-color="#109c37"/><stop offset=".1818" stop-color="#72b724"/><stop offset=".2523" stop-color="#99c11c"/><stop offset=".3699" stop-color="#adc412"/><stop offset=".614" stop-color="#d4cb00"/><stop offset=".65" stop-color="#d8cc00"/><stop offset="1" stop-color="#ffd300"/></linearGradient><clipPath id="e"><path d="m1.6 82.9c-4.7 11.2.9 24.5 14.6 36.3 2.7 2.3 6.5 1.8 8.9-1 3.5-4.7-1.1-8.9-1.1-8.9-7.7-7.8-11.3-17.2-8.1-25.1 5.5-13.3 27.7-17.9 50.4-10.8.7.2 1.6.5 1.7.5 1.1.5 2.4 0 2.9-1.1s0-2.4-1.1-2.9c-.1 0-1.7-.6-2.4-.8-9.4-3-18.8-4.5-27.4-4.5-18.5 0-33.5 6.6-38.4 18.3"/></clipPath><linearGradient id="f" gradientTransform="matrix(189.9073 -189.9073 189.9073 189.9073 55151.7148 -72160.1562)" gradientUnits="userSpaceOnUse" x1="-335.467" x2="-335.1949" y1="45.1159" y2="45.1159"><stop offset="0" stop-color="#2071b7"/><stop offset=".1002" stop-color="#1586c1"/><stop offset=".2985" stop-color="#00add2"/><stop offset=".3486" stop-color="#10adb8"/><stop offset=".5457" stop-color="#4caf56"/><stop offset=".6342" stop-color="#64b02f"/><stop offset=".7152" stop-color="#75b629"/><stop offset=".912" stop-color="#9cc31a"/><stop offset="1" stop-color="#9cc31a"/></linearGradient><g fill="#70706f"><path d="m83.4 114.8c.3-.7.8-.8 1.4-.4l2 1.2c.6.3.8.8.4 1.4-2.3 4.3-6.2 6.5-11.5 6.5-8.3 0-12.8-4.6-12.8-13.2v-11.6c0-8.6 4.5-13.2 12.8-13.2 5.4 0 9.3 2.2 11.5 6.5.3.6.2 1.1-.4 1.4l-2 1.2c-.6.4-1.1.2-1.4-.4-1.5-2.8-4-4.3-7.6-4.3-5.3 0-7.9 3.1-7.9 9.5v10.3c0 6.3 2.6 9.5 7.9 9.5 3.5-.2 6-1.6 7.6-4.4"/><path d="m111.4 105.2v7.8c0 6.7-3.6 10.4-10.4 10.4-6.7 0-10.4-3.6-10.4-10.4v-7.8c0-6.8 3.6-10.4 10.4-10.4s10.4 3.6 10.4 10.4m-4.5.5c0-4.7-1.8-6.9-5.8-6.9s-5.8 2.2-5.8 6.9v6.8c0 4.7 1.8 6.9 5.8 6.9s5.8-2.2 5.8-6.9z"/><path d="m117.9 122.7c-.7 0-1-.4-1-1v-36.5c0-.7.4-1 1-1h2.5c.7 0 1 .4 1 1v36.5c0 .7-.4 1-1 1z"/><path d="m148.4 105.2v7.8c0 6.8-3.6 10.4-10.4 10.4s-10.4-3.6-10.4-10.4v-27.8c0-.7.4-1 1-1h2.5c.7 0 1 .4 1 1v12.4h.1c1.4-1.8 3.5-2.8 6.5-2.8 6.4 0 9.7 3.6 9.7 10.4m-4.5.5c0-4.7-1.8-6.9-5.8-6.9-3.9 0-5.8 2.3-5.8 6.9v6.8c0 4.7 1.8 6.9 5.8 6.9s5.8-2.2 5.8-6.9z"/><path d="m173.7 113.4c0 6.6-3.5 10-10 10s-10-3.5-10-10v-16.9c0-.7.4-1 1-1h2.5c.7 0 1 .4 1 1v16.5c0 4.5 1.7 6.5 5.5 6.5s5.5-2 5.5-6.5v-16.5c0-.7.4-1 1-1h2.4c.7 0 1 .4 1 1v16.9z"/><path d="m195.4 105.5c0-4.6-1.8-6.7-5.6-6.7-3.9 0-5.6 2.1-5.6 6.7v16.2c0 .7-.4 1-1 1h-2.5c-.7 0-1-.4-1-1v-16.7c0-6.6 3.6-10.2 10.2-10.2s10.2 3.6 10.2 10.2v16.7c0 .7-.4 1-1 1h-2.5c-.7 0-1-.4-1-1v-16.2z"/><path d="m103.5 135.2c-.1 0-.1 0-.1-.1v-6l-2.6 6.1c0 .1-.1.1-.1.1h-.2c-.1 0-.1 0-.1-.1l-2.6-6.1v6c0 .1 0 .1-.1.1h-.2c-.1 0-.1 0-.1-.1v-6.5c0-.1 0-.1.1-.1h.4c.1 0 .1 0 .1.1l2.5 6 2.5-6c0-.1.1-.1.1-.1h.4c.1 0 .1 0 .1.1v6.5c0 .1 0 .1-.1.1z"/><path d="m109.1 131.6c.1 0 .1 0 .1.1v.2c0 .1 0 .1-.1.1h-3.1v2.8h3.5c.1 0 .1 0 .1.1v.2c0 .1 0 .1-.1.1h-3.9c-.1 0-.1 0-.1-.1v-6.5c0-.1 0-.1.1-.1h3.9c.1 0 .1 0 .1.1v.2c0 .1 0 .1-.1.1h-3.5v2.8h3.1z"/><path d="m114.7 133c0 1.5-.8 2.4-2.2 2.4-.9 0-1.6-.4-2.1-1.2 0-.1 0-.1.1-.2l.1-.1h.2c.4.7.9 1 1.7 1 1.2 0 1.8-.7 1.8-2.1v-4.3c0-.1 0-.1.1-.1h.2c.1 0 .1 0 .1.1z"/><path d="m116.1 130.8c0-1.6.8-2.5 2.3-2.5s2.3.8 2.3 2.5v2.1c0 1.6-.8 2.5-2.3 2.5s-2.3-.8-2.3-2.5zm.4 2c0 1.5.6 2.2 1.9 2.2s1.9-.7 1.9-2.2v-1.9c0-1.5-.6-2.2-1.9-2.2s-1.9.7-1.9 2.2z"/><path d="m122.7 135.1c0 .1 0 .1-.1.1h-.2c-.1 0-.1 0-.1-.1v-6.5c0-.1 0-.1.1-.1h1.8c1.6 0 2.3.6 2.3 2 0 1.1-.5 1.8-1.7 1.9l1.8 2.7c.1.1 0 .2-.1.2h-.3c-.1 0-.1 0-.1-.1l-1.8-2.8h-1.7zm1.5-3.1c1.3 0 1.9-.5 1.9-1.6s-.6-1.6-1.9-1.6h-1.5v3.1h1.5z"/><path d="m133.8 131.6c.1 0 .1 0 .1.1v.2c0 .1 0 .1-.1.1h-3.1v2.8h3.5c.1 0 .1 0 .1.1v.2c0 .1 0 .1-.1.1h-3.9c-.1 0-.1 0-.1-.1v-6.5c0-.1 0-.1.1-.1h3.9c.1 0 .1 0 .1.1v.2c0 .1 0 .1-.1.1h-3.5v2.8h3.1z"/><path d="m140 135.2c-.1 0-.1 0-.1-.1l-3.6-6v5.9c0 .1 0 .1-.1.1h-.2c-.1 0-.1 0-.1-.1v-6.5c0-.1 0-.1.1-.1h.3c.1 0 .1 0 .1.1l3.6 5.9v-5.9c0-.1 0-.1.1-.1h.2c.1 0 .1 0 .1.1v6.5c0 .1 0 .1-.1.1h-.3z"/><path d="m145.6 131.6c.1 0 .1 0 .1.1v.2c0 .1 0 .1-.1.1h-3.1v2.8h3.5c.1 0 .1 0 .1.1v.2c0 .1 0 .1-.1.1h-3.9c-.1 0-.1 0-.1-.1v-6.5c0-.1 0-.1.1-.1h3.9c.1 0 .1 0 .1.1v.2c0 .1 0 .1-.1.1h-3.5v2.8h3.1z"/><path d="m148 135.1c0 .1 0 .1-.1.1h-.2c-.1 0-.1 0-.1-.1v-6.5c0-.1 0-.1.1-.1h1.8c1.6 0 2.3.6 2.3 2 0 1.1-.5 1.8-1.7 1.9l1.8 2.7c.1.1 0 .2-.1.2h-.3c-.1 0-.1 0-.1-.1l-1.8-2.8h-1.6zm1.5-3.1c1.3 0 1.9-.5 1.9-1.6s-.6-1.6-1.9-1.6h-1.5v3.1h1.5z"/><path d="m157.7 132.9c0 1.6-.8 2.5-2.3 2.5s-2.3-.8-2.3-2.4v-2.1c0-1.6.8-2.5 2.3-2.5 1.1 0 1.8.4 2.2 1.3 0 .1 0 .1-.1.2l-.1.1c-.1 0-.1 0-.2-.1-.3-.7-.9-1.1-1.8-1.1-1.3 0-1.9.7-1.9 2.2v1.9c0 1.5.6 2.2 1.9 2.2s1.9-.7 1.9-2.2v-.6h-1.7c-.1 0-.1 0-.1-.1v-.2c0-.1 0-.1.1-.1h2c.1 0 .1 0 .1.1z"/><path d="m159.5 127.7c0 .1-.1.1-.1.1h-.2c-.1 0-.1-.1-.1-.1l.8-1.3c0-.1.1-.1.1-.1h.2c.1 0 .1.1.1.2zm.1 7.4c0 .1 0 .1-.1.1h-.2c-.1 0-.1 0-.1-.1v-6.5c0-.1 0-.1.1-.1h.2c.1 0 .1 0 .1.1z"/><path d="m161.2 135.1c0 .1-.1.1-.1.1h-.2c-.1 0-.1-.1-.1-.1l2.4-6.5c0-.1.1-.1.1-.1h.2c.1 0 .1 0 .1.1l2.4 6.5c0 .1 0 .1-.1.1h-.2c-.1 0-.1 0-.1-.1l-.6-1.6h-3.3zm3.7-1.9-1.5-4.2-1.5 4.2z"/></g><path clip-path="url(#a)" d="m11.7 91.4 35.6-35.6 35.5 35.6-35.5 35.5z" fill="url(#b)"/><path clip-path="url(#c)" d="m-15.9 96.6 52.4-52.4 52.4 52.4-52.4 52.4z" fill="url(#d)"/><path clip-path="url(#e)" d="m-31.5 93.1 65.7-65.7 65.6 65.7-65.6 65.6z" fill="url(#f)"/></svg>