<?xml version="1.0" encoding="utf-8"?>
<!-- Generator: Adobe Illustrator 24.0.3, SVG Export Plug-In . SVG Version: 6.00 Build 0)  -->
<svg version="1.1" id="Capa_1" xmlns="http://www.w3.org/2000/svg" xmlns:xlink="http://www.w3.org/1999/xlink" x="0px" y="0px"
	 viewBox="0 0 200 200" style="enable-background:new 0 0 200 200;" xml:space="preserve">
<style type="text/css">
	.st0{fill:url(#SVGID_1_);}
	.st1{fill:url(#SVGID_2_);}
	.st2{fill:url(#SVGID_3_);}
	.st3{fill:url(#SVGID_4_);}
	.st4{fill:url(#SVGID_5_);}
	.st5{fill:url(#SVGID_6_);}
	.st6{fill:url(#SVGID_7_);}
	.st7{fill:url(#SVGID_8_);}
	.st8{fill:url(#SVGID_9_);}
	.st9{fill:#172D4B;}
	.st10{fill:url(#SVGID_10_);}
</style>
<g>
	<g>
		<linearGradient id="SVGID_1_" gradientUnits="userSpaceOnUse" x1="40.5001" y1="127.8663" x2="4.9159" y2="106.4066">
			<stop  offset="0.1165" style="stop-color:#DB0D15"/>
			<stop  offset="0.8176" style="stop-color:#F49819"/>
		</linearGradient>
		<path class="st0" d="M35.8,122.4c0.1-1.4,1.3-10.3-8.3-22.3c0.7,1.2,1,2.5,1,4c0,7.2-8.7,10.8-14.1,5.9c-5-4.6-5.6-14.6-1.4-21.5
			c-7.6,4.8-12.7,13.3-12.7,23c0,8.7,3.3,16.8,10.5,21.4c3.8,2.6,9.3,3.6,14.3,2.3C30.8,133.7,35.3,128.8,35.8,122.4z"/>
		<linearGradient id="SVGID_2_" gradientUnits="userSpaceOnUse" x1="39.3881" y1="67.3704" x2="41.9215" y2="130.4818">
			<stop  offset="0.1441" style="stop-color:#DB0D15"/>
			<stop  offset="0.8161" style="stop-color:#F49819"/>
		</linearGradient>
		<path class="st1" d="M44.9,89.6C25.6,72.5,27.5,61.5,27.5,61.5s-5.3,11.3,1.7,22.9c3.8,6.3,13.7,14.9,16.1,22
			c5.3,15.8-5.4,30.6-17.1,32.2c14.6-0.5,27.1-12,27.1-27.3C55.2,102.4,51.1,95.1,44.9,89.6z"/>
		<linearGradient id="SVGID_3_" gradientUnits="userSpaceOnUse" x1="46.5293" y1="128.4953" x2="21.7254" y2="90.7041">
			<stop  offset="0.262" style="stop-color:#DB0D15"/>
			<stop  offset="1" style="stop-color:#F49819"/>
		</linearGradient>
		<path class="st2" d="M28.2,138.5c11.7-1.6,22.4-16.4,17.1-32.2c-2.4-7.1-12.5-15.9-16.1-22c-3.9-6.7-4.8-14.3-1.7-22.9
			c0,0-10.8,6.2-10.3,19.3c0.1,3.9,0.7,7.9,9.9,18.8C38,112.5,40,130.3,28.2,138.5z"/>
		<linearGradient id="SVGID_4_" gradientUnits="userSpaceOnUse" x1="-19.3182" y1="81.3069" x2="44.5693" y2="134.732">
			<stop  offset="2.311716e-02" style="stop-color:#DB0D15"/>
			<stop  offset="0.9721" style="stop-color:#F49819"/>
		</linearGradient>
		<path class="st3" d="M32.4,107.5c-1.3-2.6-3-5.1-4.9-7.5c0.7,1.2,1,2.5,1,4c0,7.2-8.7,10.8-14.1,5.9c-5-4.6-5.6-14.6-1.4-21.5
			c0,0-9.4,7.3-10.2,19.5c-0.8,12.2,7.6,22.3,17.4,22.3C31.3,130.3,37.6,119.4,32.4,107.5z"/>
		<linearGradient id="SVGID_5_" gradientUnits="userSpaceOnUse" x1="41.169" y1="159.0505" x2="30.5287" y2="44.0609">
			<stop  offset="0" style="stop-color:#F49819;stop-opacity:0.5"/>
			<stop  offset="0.9997" style="stop-color:#DB0D15"/>
		</linearGradient>
		<path class="st4" d="M43.1,106.3c4.9,14.9-2.7,28.9-13.5,31.9c11.1-2.5,20.8-16.7,15.7-31.9c-2.4-7.1-12.5-15.9-16.1-22
			c-5.7-9.7-3.3-18.7-1.7-22.9c0,0-6.2,13.2-0.5,22.9C30.6,90.5,40.7,99.2,43.1,106.3z"/>
		<radialGradient id="SVGID_6_" cx="19.458" cy="97.8276" r="28.9325" gradientUnits="userSpaceOnUse">
			<stop  offset="0.1455" style="stop-color:#F49819"/>
			<stop  offset="0.9985" style="stop-color:#DB0D15"/>
		</radialGradient>
		<path class="st5" d="M5.7,107.8c0.8,11.6,10.1,16.1,17.9,14.1c8.9-2.3,12-12.2,3.9-21.9c0.7,1.2,1.1,2.5,1.1,4.1
			c0,7.2-8.7,10.8-14.1,5.9c-5-4.6-5.6-14.6-1.4-21.5C13.1,88.4,4.8,95.1,5.7,107.8z"/>
		<g>
			<linearGradient id="SVGID_7_" gradientUnits="userSpaceOnUse" x1="23.7456" y1="109.3243" x2="12.3991" y2="91.2135">
				<stop  offset="0.1353" style="stop-color:#F49819"/>
				<stop  offset="0.817" style="stop-color:#DB0D15"/>
			</linearGradient>
			<path class="st6" d="M16,91c0,0-4,9.5,0.7,14.9c2.8,3.2,7.8,0.9,7.5-2.8C23.8,98.8,16.6,95.5,16,91z"/>
			<linearGradient id="SVGID_8_" gradientUnits="userSpaceOnUse" x1="15.4182" y1="92.0175" x2="22.4185" y2="103.7779">
				<stop  offset="0.1353" style="stop-color:#F49819"/>
				<stop  offset="0.817" style="stop-color:#DB0D15"/>
			</linearGradient>
			<path class="st7" d="M18.7,102c2,2.6,4.7,2.1,5,0.4c0.1-0.6,0-1.1-0.2-1.5c-1.4-2.4-4.3-4.5-6.1-6.9c-0.7-1-1.2-1.9-1.3-3
				C16,91,15.9,98.3,18.7,102z"/>
		</g>
		<radialGradient id="SVGID_9_" cx="18.8545" cy="115.7427" r="15.0053" gradientUnits="userSpaceOnUse">
			<stop  offset="0.1452" style="stop-color:#F49819"/>
			<stop  offset="0.9989" style="stop-color:#DB0D15"/>
		</radialGradient>
		<path class="st8" d="M23.5,121.9c-7.8,2-17.1-2.6-17.9-14.1c-0.1,0.5-0.1,0.2,0,1c0.8,11.6,10.1,16.4,17.9,14.5
			c5.5-1.4,8.8-6.1,8.5-11.6C32.1,116.1,29,120.5,23.5,121.9z"/>
	</g>
	<g>
		<g>
			<path class="st9" d="M60.9,135.2l2.1-3.7c2.5,2,5.2,2.8,7.9,2.8c3.6,0,5.8-1.3,5.8-3.5c0-2.4-2.4-3.4-6.1-4.4l-1.6-0.5
				c-4.8-1.3-8.4-3.3-8.4-8c0-5.3,4.3-8.8,10.7-8.8c3.7,0,7,1.1,9.8,3.3l-2.5,3.8c-2.2-1.7-4.5-2.6-7.3-2.6c-3.1,0-5.1,1.3-5.1,3.3
				c0,2.3,2.3,3.1,5.2,4l1.7,0.5c4.5,1.2,9.2,3.6,9.2,8.9c0,5.1-4.5,8.6-11.1,8.6C67.2,138.8,63.5,137.6,60.9,135.2z"/>
			<path class="st9" d="M86.8,117.3h5.3v21.1h-5.3V117.3z"/>
			<path class="st9" d="M96.5,123.8c0-8.9,6.2-14.8,15.4-14.8c4.7,0,8.6,1.6,11.4,4.7l-3.5,3.5c-1.6-2.1-4.4-3.6-7.9-3.6
				c-5.8,0-9.7,4.1-9.7,10.3c0,6.2,4,10.3,9.8,10.3c3.9,0,6.6-1.8,8.5-4.6l3.7,3.3c-2.8,3.8-7,5.8-12.3,5.8
				C102.7,138.8,96.5,132.8,96.5,123.8z"/>
			<path class="st9" d="M145.1,125.1v13.3H140l-0.1-3c-1.4,2.2-3.8,3.4-6.4,3.4c-4.4,0-7.3-2.6-7.3-6.5c0-4.1,3.6-6.7,9-6.7
				c1.5,0,3.1,0.2,4.7,0.5v-0.4c0-2.8-1.9-4.5-5.1-4.5c-2,0-3.6,0.6-4.9,1.7l-2.3-3.1c2.3-1.8,4.9-2.7,8.6-2.7
				C141.5,116.9,145.1,120.1,145.1,125.1z M139.8,129.6c-1.4-0.3-2.8-0.4-4-0.4c-2.5,0-4.1,1.2-4.1,3c0,1.7,1.1,2.9,3.3,2.9
				C137.4,135,139.7,133,139.8,129.6z"/>
			<path class="st9" d="M150.3,107.8h5.3v30.6h-5.3V107.8z"/>
			<path class="st9" d="M159.9,127.8c0-6.5,4.5-10.9,11.3-10.9c6.7,0,11.3,4.4,11.3,10.9c0,6.6-4.5,11-11.3,11
				C164.4,138.8,159.9,134.4,159.9,127.8z M177,127.8c0-3.8-2.3-6.4-5.8-6.4c-3.5,0-5.8,2.5-5.8,6.4c0,3.8,2.3,6.4,5.8,6.4
				C174.7,134.2,177,131.7,177,127.8z"/>
			<path class="st9" d="M199.7,116.9l-0.4,4.9c-4.4,0-7.3,2.1-7.3,5.3v11.3h-5.3v-21.1h5.1l0.1,2.8
				C193.6,118,196.3,116.9,199.7,116.9z"/>
		</g>
		<g>
			<linearGradient id="SVGID_10_" gradientUnits="userSpaceOnUse" x1="89.7244" y1="98.3316" x2="89.7244" y2="114.1941">
				<stop  offset="0.1353" style="stop-color:#F49819"/>
				<stop  offset="0.817" style="stop-color:#DB0D15"/>
			</linearGradient>
			<path class="st10" d="M86.8,98.3c0,0,7.9,5.7,6.8,12.4c-0.7,3.9-5.8,4.6-7.4,1.4C84.4,108.5,88.6,102.3,86.8,98.3z"/>
		</g>
	</g>
</g>
</svg>
