<?xml version="1.0" encoding="utf-8"?>
<!-- Generator: Adobe Illustrator 24.1.1, SVG Export Plug-In . SVG Version: 6.00 Build 0)  -->
<svg version="1.1" xmlns="http://www.w3.org/2000/svg" xmlns:xlink="http://www.w3.org/1999/xlink" x="0px" y="0px"
	 viewBox="0 0 500 500" style="enable-background:new 0 0 500 500;" xml:space="preserve">
<style type="text/css">
	.st0{display:none;}
	.st1{display:inline;}
	.st2{fill:#407BFF;}
	.st3{opacity:0.9;fill:#FFFFFF;}
	.st4{opacity:0.2;}
	.st5{opacity:0.7;fill:#FFFFFF;}
	.st6{opacity:0.4;}
	.st7{fill:#FFFFFF;}
	.st8{fill:#7A98C5;}
	.st9{fill:#2F3052;}
	.st10{fill:#ACACAC;}
	.st11{fill:#F3E2D9;}
	.st12{fill:none;stroke:#2F3052;stroke-width:1.0617;stroke-miterlimit:10;}
	.st13{fill:none;stroke:#2F3052;stroke-width:2.1233;stroke-miterlimit:10;}
	.st14{fill:#AEF4FF;}
	.st15{fill:#61ABEB;}
	.st16{fill:#C80788;}
	.st17{fill:#F8F039;}
	.st18{fill:#5F70A1;}
	.st19{fill:#9ABDE7;}
	.st20{fill:#44608D;}
	.st21{fill:#B6D3F1;}
	.st22{fill:#95B9D5;}
	.st23{fill:#304965;}
	.st24{fill:#5C6272;}
	.st25{fill:#97BEED;}
	.st26{fill:#7AC5C7;}
	.st27{fill:#507DE5;}
	.st28{fill:#F2F9FB;}
	.st29{fill:#E2D4B7;}
	.st30{fill:#96C6EC;}
	.st31{fill:#F1F9FF;}
	.st32{fill:#87AFE4;}
	.st33{fill:#D2DCE4;}
	.st34{fill:#C0CEDF;}
</style>
<g id="Background_Complete">
</g>
<g id="Background_Simple" class="st0">
</g>
<g id="Shadow_1_">
</g>
<g id="Pen_Tool">
	<g>
		<g>
			<g>
				<rect x="22.5" y="160.4" class="st20" width="317.2" height="178.6"/>
				<g>
					<rect x="22.6" y="160.4" class="st21" width="317.2" height="4.6"/>
					<rect x="28.3" y="162.5" class="st22" width="7.6" height="0.4"/>
					<rect x="38.1" y="162.5" class="st22" width="7.6" height="0.4"/>
					<rect x="47.9" y="162.5" class="st22" width="7.6" height="0.4"/>
					<rect x="57.7" y="162.5" class="st22" width="7.6" height="0.4"/>
					<rect x="67.5" y="162.5" class="st22" width="7.6" height="0.4"/>
					<rect x="77.3" y="162.5" class="st22" width="7.6" height="0.4"/>
					<rect x="87.1" y="162.5" class="st22" width="7.6" height="0.4"/>
					<rect x="96.9" y="162.5" class="st22" width="7.6" height="0.4"/>
					<rect x="24.9" y="162" class="st22" width="1.4" height="1.6"/>
				</g>
				<g>
					<rect x="22.6" y="164.5" class="st20" width="317.2" height="5.5"/>
					<rect x="318.6" y="165.7" class="st23" width="20.1" height="3.5"/>
					<rect x="315.2" y="167.1" class="st24" width="0.8" height="0.7"/>
					<rect x="302.9" y="167.1" class="st23" width="10.6" height="0.7"/>
					<rect x="29.7" y="166.5" class="st25" width="1.4" height="1.6"/>
					<rect x="24.9" y="166.5" class="st25" width="1.4" height="1.6"/>
					<rect x="32.8" y="166.5" class="st25" width="1.4" height="1.6"/>
				</g>
			</g>
			<g>
				<g>
					<rect x="63" y="173.7" class="st26" width="66.3" height="2.1"/>
				</g>
				<g>
					<rect x="68.5" y="181.5" class="st27" width="11" height="2.1"/>
				</g>
				<g>
					<rect x="68.5" y="189.3" class="st27" width="11" height="2.1"/>
				</g>
				<g>
					<rect x="68.5" y="197.1" class="st27" width="11" height="2.1"/>
				</g>
				<g>
					<rect x="100.9" y="181.5" class="st26" width="33.7" height="2.1"/>
				</g>
				<g>
					<rect x="100.9" y="189.3" class="st26" width="33.7" height="2.1"/>
				</g>
				<g>
					<rect x="100.9" y="197.1" class="st26" width="33.7" height="2.1"/>
				</g>
				<g>
					<rect x="84.2" y="181.5" class="st28" width="7.7" height="2.1"/>
				</g>
				<g>
					<rect x="84.2" y="189.3" class="st28" width="7.7" height="2.1"/>
				</g>
				<g>
					<rect x="84.2" y="197.1" class="st28" width="7.7" height="2.1"/>
				</g>
				<g>
					<rect x="95.2" y="181.5" class="st29" width="2.1" height="2.1"/>
				</g>
				<g>
					<rect x="95.2" y="189.3" class="st29" width="2.1" height="2.1"/>
				</g>
				<g>
					<rect x="95.2" y="197.1" class="st29" width="2.1" height="2.1"/>
				</g>
				<g>
					<rect x="63.2" y="181.5" class="st29" width="2.1" height="2.1"/>
				</g>
				<g>
					<rect x="63.2" y="189.3" class="st29" width="2.1" height="2.1"/>
				</g>
				<g>
					<rect x="63.2" y="197.1" class="st29" width="2.1" height="2.1"/>
				</g>
				<g>
					<rect x="68.5" y="212.7" class="st27" width="17" height="2.1"/>
				</g>
				<g>
					<rect x="108.9" y="212.7" class="st26" width="25.7" height="2.1"/>
				</g>
				<g>
					<rect x="90.2" y="212.7" class="st28" width="9.7" height="2.1"/>
				</g>
				<g>
					<rect x="103.2" y="212.7" class="st29" width="2.1" height="2.1"/>
				</g>
				<g>
					<rect x="135.5" y="228.3" class="st26" width="79.5" height="2.1"/>
				</g>
				<g>
					<rect x="91.2" y="228.3" class="st28" width="38.1" height="2.1"/>
				</g>
				<g>
					<rect x="164.4" y="212.7" class="st26" width="25.7" height="2.1"/>
				</g>
				<g>
					<rect x="141.8" y="212.7" class="st28" width="13.7" height="2.1"/>
				</g>
				<g>
					<rect x="158.8" y="212.7" class="st29" width="2.1" height="2.1"/>
				</g>
				<g>
					<rect x="192.7" y="212.7" class="st29" width="2.1" height="2.1"/>
				</g>
				<g>
					<rect x="63.2" y="212.7" class="st29" width="2.1" height="2.1"/>
				</g>
				<g>
					<rect x="68.5" y="244" class="st27" width="17" height="2.1"/>
				</g>
				<g>
					<rect x="63.2" y="244" class="st28" width="2.1" height="2.1"/>
				</g>
				<g>
					<rect x="88.7" y="244" class="st28" width="2.1" height="2.1"/>
				</g>
				<g>
					<rect x="55.5" y="275.2" class="st27" width="17" height="2.1"/>
				</g>
				<g>
					<rect x="50.3" y="275.2" class="st28" width="2.1" height="2.1"/>
				</g>
				<g>
					<rect x="75.7" y="275.2" class="st28" width="2.1" height="2.1"/>
				</g>
				<g>
					<rect x="77.4" y="236.2" class="st29" width="2.1" height="2.1"/>
				</g>
				<g>
					<rect x="77.4" y="220.5" class="st27" width="10" height="2.1"/>
				</g>
				<g>
					<rect x="91.2" y="220.5" class="st29" width="38.9" height="2.1"/>
				</g>
				<g>
					<rect x="158.2" y="181.5" class="st26" width="33.6" height="2.1"/>
				</g>
				<g>
					<rect x="158.2" y="189.3" class="st26" width="33.6" height="2.1"/>
				</g>
				<g>
					<rect x="158.2" y="197.1" class="st26" width="33.6" height="2.1"/>
				</g>
				<g>
					<rect x="193.6" y="181.5" class="st26" width="58.8" height="2.1"/>
				</g>
				<g>
					<rect x="193.6" y="189.3" class="st26" width="80.5" height="2.1"/>
				</g>
				<g>
					<rect x="193.6" y="197.1" class="st26" width="95" height="2.1"/>
				</g>
				<g>
					<rect x="141.5" y="181.5" class="st28" width="7.7" height="2.1"/>
				</g>
				<g>
					<rect x="141.5" y="189.3" class="st28" width="7.7" height="2.1"/>
				</g>
				<g>
					<rect x="141.5" y="197.1" class="st28" width="7.7" height="2.1"/>
				</g>
				<g>
					<rect x="152.6" y="181.5" class="st29" width="2.1" height="2.1"/>
				</g>
				<g>
					<rect x="152.6" y="189.3" class="st29" width="2.1" height="2.1"/>
				</g>
				<g>
					<rect x="152.6" y="197.1" class="st29" width="2.1" height="2.1"/>
				</g>
				<g>
					<rect x="260.2" y="181.5" class="st29" width="2.1" height="2.1"/>
				</g>
				<g>
					<rect x="279.9" y="189.3" class="st29" width="2.1" height="2.1"/>
				</g>
				<g>
					<rect x="293.4" y="197.1" class="st29" width="2.1" height="2.1"/>
				</g>
				<g>
					<rect x="63" y="204.9" class="st30" width="66.3" height="2.1"/>
				</g>
				<g>
					<rect x="55" y="291.8" class="st27" width="11" height="2.1"/>
				</g>
				<g>
					<rect x="80.7" y="307.4" class="st27" width="11" height="2.1"/>
				</g>
				<g>
					<rect x="113.1" y="307.4" class="st26" width="72.8" height="2.1"/>
				</g>
				<g>
					<rect x="63.7" y="299.6" class="st28" width="106.7" height="2.1"/>
				</g>
				<g>
					<rect x="96.4" y="307.4" class="st28" width="7.7" height="2.1"/>
				</g>
				<g>
					<rect x="107.5" y="307.4" class="st29" width="2.1" height="2.1"/>
				</g>
				<g>
					<rect x="49.8" y="291.8" class="st29" width="2.1" height="2.1"/>
				</g>
				<g>
					<rect x="68.5" y="291.8" class="st29" width="2.1" height="2.1"/>
				</g>
				<g>
					<rect x="95.4" y="315.3" class="st27" width="5" height="2.1"/>
				</g>
				<g>
					<rect x="90.2" y="315.3" class="st29" width="2.1" height="2.1"/>
				</g>
				<g>
					<rect x="102.9" y="315.3" class="st29" width="2.1" height="2.1"/>
				</g>
				<g>
					<rect x="109.4" y="330.9" class="st27" width="5" height="2.1"/>
				</g>
				<g>
					<rect x="104.1" y="330.9" class="st29" width="2.1" height="2.1"/>
				</g>
				<g>
					<rect x="116.8" y="330.9" class="st29" width="2.1" height="2.1"/>
				</g>
				<g>
					<rect x="75.5" y="307.4" class="st29" width="2.1" height="2.1"/>
				</g>
				<g>
					<rect x="104.4" y="323.1" class="st28" width="165" height="2.1"/>
				</g>
				<g>
					<rect x="188.4" y="307.4" class="st29" width="2.1" height="2.1"/>
				</g>
				<g>
					<rect x="63" y="251.8" class="st30" width="91.2" height="2.1"/>
				</g>
				<g>
					<rect x="63" y="259.6" class="st30" width="135.1" height="2.1"/>
				</g>
				<g>
					<rect x="63" y="267.4" class="st30" width="45.9" height="2.1"/>
				</g>
				<g>
					<rect x="26.6" y="173.7" class="st27" width="5" height="2.1"/>
				</g>
				<g>
					<rect x="26.6" y="181.5" class="st27" width="5" height="2.1"/>
				</g>
				<g>
					<rect x="26.6" y="189.3" class="st27" width="5" height="2.1"/>
				</g>
				<g>
					<rect x="26.6" y="197.1" class="st27" width="5" height="2.1"/>
				</g>
				<g>
					<rect x="26.6" y="204.9" class="st27" width="5" height="2.1"/>
				</g>
				<g>
					<rect x="26.6" y="212.7" class="st27" width="5" height="2.1"/>
				</g>
				<g>
					<rect x="26.6" y="220.5" class="st27" width="5" height="2.1"/>
				</g>
				<g>
					<rect x="26.6" y="228.3" class="st27" width="5" height="2.1"/>
				</g>
				<g>
					<rect x="26.6" y="236.2" class="st27" width="5" height="2.1"/>
				</g>
				<g>
					<rect x="26.6" y="244" class="st27" width="5" height="2.1"/>
				</g>
				<g>
					<rect x="26.6" y="251.8" class="st27" width="5" height="2.1"/>
				</g>
				<g>
					<rect x="26.6" y="259.6" class="st27" width="5" height="2.1"/>
				</g>
				<g>
					<rect x="26.6" y="267.4" class="st27" width="5" height="2.1"/>
				</g>
				<g>
					<rect x="26.6" y="275.2" class="st27" width="5" height="2.1"/>
				</g>
				<g>
					<rect x="26.6" y="283" class="st27" width="5" height="2.1"/>
				</g>
				<g>
					<rect x="26.6" y="290.8" class="st27" width="5" height="2.1"/>
				</g>
				<g>
					<rect x="26.6" y="298.6" class="st27" width="5" height="2.1"/>
				</g>
			</g>
		</g>
		<g>
			<g>
				<rect x="170.5" y="190.3" class="st7" width="302" height="149.3"/>
				<g>
					<rect x="177.1" y="211.8" class="st21" width="146.2" height="82"/>
				</g>
				<g>
					<rect x="177.1" y="294.3" class="st31" width="146.2" height="40"/>
				</g>
				<g>
					<rect x="326.3" y="211.8" class="st32" width="140.5" height="38.5"/>
				</g>
				<path class="st21" d="M469.4,169.9H173.5c-1.7,0-3,1.3-3,2.8v17.7h302v-17.7C472.4,171.1,471.1,169.9,469.4,169.9z"/>
				<g>
					<path class="st22" d="M176.9,175.4c0,1-0.8,1.8-1.8,1.8c-1,0-1.8-0.8-1.8-1.8c0-1,0.8-1.8,1.8-1.8
						C176.1,173.6,176.9,174.4,176.9,175.4z"/>
					<path class="st22" d="M182.2,175.4c0,1-0.8,1.8-1.8,1.8c-1,0-1.8-0.8-1.8-1.8c0-1,0.8-1.8,1.8-1.8
						C181.4,173.6,182.2,174.4,182.2,175.4z"/>
					<path class="st22" d="M187.6,175.4c0,1-0.8,1.8-1.8,1.8c-1,0-1.8-0.8-1.8-1.8c0-1,0.8-1.8,1.8-1.8
						C186.8,173.6,187.6,174.4,187.6,175.4z"/>
				</g>
				<rect x="195.4" y="179.8" class="st7" width="236" height="7.9"/>
				<g>
					<g>
						<polygon class="st22" points="175.7,186.3 172.8,183.4 175.7,180.5 176.8,181.6 175,183.4 176.8,185.2 						"/>
					</g>
					<g>
						<rect x="174.5" y="182.7" class="st22" width="5.3" height="1.5"/>
					</g>
				</g>
				<g>
					<g>
						<polygon class="st22" points="187.9,186.3 186.8,185.2 188.6,183.4 186.8,181.6 187.9,180.5 190.8,183.4 						"/>
					</g>
					<g>
						<rect x="183.8" y="182.7" class="st22" width="5.3" height="1.5"/>
					</g>
				</g>
				<rect x="434.5" y="179.8" class="st32" width="23.2" height="7.1"/>
				<g>
					<g>
						<rect x="207.5" y="199.6" class="st21" width="23.5" height="2.5"/>
					</g>
					<g>
						<rect x="234.4" y="199.6" class="st21" width="23.4" height="2.5"/>
					</g>
					<g>
						<rect x="261.3" y="199.6" class="st21" width="23.5" height="2.5"/>
					</g>
					<g>
						<rect x="288.2" y="199.6" class="st21" width="23.5" height="2.5"/>
					</g>
					<g>
						<rect x="315.1" y="199.6" class="st21" width="23.4" height="2.5"/>
					</g>
					<g>
						<rect x="427.7" y="195.4" class="st21" width="37.9" height="1.9"/>
					</g>
					<g>
						<rect x="435.7" y="200" class="st21" width="29.8" height="1.9"/>
					</g>
					<g>
						<rect x="177.1" y="197.5" class="st32" width="24.8" height="6.8"/>
					</g>
				</g>
				<g>
					<g>
						<g>
							<rect x="184" y="299.9" class="st32" width="52.9" height="2.6"/>
						</g>
						<g>
							<rect x="184" y="305.5" class="st21" width="128.3" height="2"/>
						</g>
						<g>
							<rect x="183.4" y="310.1" class="st21" width="112.1" height="2"/>
						</g>
						<g>
							<rect x="183" y="317.9" class="st32" width="25.7" height="7"/>
						</g>
						<g>
							<rect x="188.8" y="320.5" class="st7" width="14.1" height="2"/>
						</g>
					</g>
				</g>
				<g>
					<g>
						<rect x="332" y="219.6" class="st7" width="53.9" height="2.6"/>
					</g>
					<g>
						<rect x="332" y="225.2" class="st21" width="129.3" height="2"/>
					</g>
					<g>
						<rect x="332" y="229.8" class="st21" width="112.5" height="2"/>
					</g>
					<g>
						<rect x="332" y="237.6" class="st7" width="25.7" height="7"/>
					</g>
					<g>
						<rect x="337.8" y="240.1" class="st33" width="14.1" height="2"/>
					</g>
				</g>
				<g>
					<rect x="326.1" y="294.3" class="st31" width="68.8" height="40"/>
				</g>
				<g>
					<g>
						<rect x="332.7" y="299.9" class="st32" width="39.5" height="2.6"/>
					</g>
					<g>
						<rect x="332.7" y="305.5" class="st21" width="45" height="2"/>
					</g>
					<g>
						<rect x="332.5" y="310.1" class="st21" width="39.3" height="2"/>
					</g>
					<g>
						<rect x="332" y="317.9" class="st32" width="25.7" height="7"/>
					</g>
					<g>
						<rect x="337.8" y="320.5" class="st7" width="14.1" height="2"/>
					</g>
				</g>
				<g>
					<rect x="326.1" y="253.6" class="st32" width="68.8" height="40.1"/>
				</g>
				<g>
					<g>
						<rect x="398.1" y="294.3" class="st31" width="68.8" height="40"/>
					</g>
					<g>
						<g>
							<rect x="404.7" y="299.9" class="st32" width="39.5" height="2.6"/>
						</g>
						<g>
							<rect x="404.7" y="305.5" class="st21" width="45" height="2"/>
						</g>
						<g>
							<rect x="404.5" y="310.1" class="st21" width="39.3" height="2"/>
						</g>
						<g>
							<rect x="404" y="317.9" class="st32" width="25.7" height="7"/>
						</g>
						<g>
							<rect x="409.8" y="320.5" class="st7" width="14.1" height="2"/>
						</g>
					</g>
					<g>
						<rect x="398.1" y="253.6" class="st32" width="68.8" height="40.1"/>
					</g>
				</g>
			</g>
			<g>
				<path class="st21" d="M350.9,265.2v18.6h23.4v-18.6H350.9z M372.6,282.1h-20.1v-15.3h20.1V282.1z"/>
				<path class="st21" d="M360.6,270.6c0,1.1-0.9,1.9-1.9,1.9c-1.1,0-1.9-0.9-1.9-1.9c0-1.1,0.9-1.9,1.9-1.9
					C359.7,268.7,360.6,269.5,360.6,270.6z"/>
				<polygon class="st21" points="371.6,275 367,271.4 360.9,276.4 356.5,274.7 353.5,276 353.5,281.1 371.6,281.1 				"/>
			</g>
			<g>
				<path class="st21" d="M422.6,265.2v18.6H446v-18.6H422.6z M444.4,282.1h-20.1v-15.3h20.1V282.1z"/>
				<path class="st21" d="M432.4,270.6c0,1.1-0.9,1.9-1.9,1.9c-1.1,0-1.9-0.9-1.9-1.9c0-1.1,0.9-1.9,1.9-1.9
					C431.5,268.7,432.4,269.5,432.4,270.6z"/>
				<polygon class="st21" points="443.4,275 438.8,271.4 432.7,276.4 428.3,274.7 425.3,276 425.3,281.1 443.4,281.1 				"/>
			</g>
			<g>
				<path class="st7" d="M260,255.4v-2c0-0.6-0.5-1.2-1.2-1.2h-16.4c-0.6,0-1.2,0.5-1.2,1.2v4.5v6c0,0.6,0.5,1.2,1.2,1.2h16.4
					c0.6,0,1.2-0.5,1.2-1.2v-2.1l6.2,3.1v-4.7v-0.8v-0.8v-6.3L260,255.4z"/>
				<path class="st7" d="M245.7,251.7c2.2,0,3.9-1.8,3.9-3.9c0-2.2-1.8-3.9-3.9-3.9c-2.2,0-3.9,1.8-3.9,3.9
					C241.8,250,243.6,251.7,245.7,251.7z"/>
				<path class="st7" d="M254.2,251.7c2.2,0,3.9-1.8,3.9-3.9c0-2.2-1.8-3.9-3.9-3.9c-2.2,0-3.9,1.8-3.9,3.9
					C250.2,250,252,251.7,254.2,251.7z"/>
			</g>
		</g>
		<g>
			<rect x="251.8" y="280" class="st32" width="36.7" height="36.7"/>
			<rect x="255.4" y="283.6" class="st21" width="29.5" height="29.5"/>
			<path class="st32" d="M266.3,292.7c0,1.4-1.2,2.6-2.6,2.6s-2.6-1.2-2.6-2.6c0-1.4,1.2-2.6,2.6-2.6S266.3,291.2,266.3,292.7z"/>
			<g>
				<polygon class="st32" points="273.3,298.1 278,304.1 282.7,310 273.3,310 263.9,310 268.6,304.1 				"/>
				<polygon class="st32" points="264.5,301.7 267.8,305.8 271.1,310 264.5,310 257.9,310 261.2,305.8 				"/>
			</g>
		</g>
	</g>
</g>
</svg>
